G04 #@! TF.GenerationSoftware,KiCad,Pcbnew,9.0.2*
G04 #@! TF.CreationDate,2025-06-05T12:02:32+02:00*
G04 #@! TF.ProjectId,Carte_Drone,43617274-655f-4447-926f-6e652e6b6963,rev?*
G04 #@! TF.SameCoordinates,Original*
G04 #@! TF.FileFunction,Copper,L2,Bot*
G04 #@! TF.FilePolarity,Positive*
%FSLAX46Y46*%
G04 Gerber Fmt 4.6, Leading zero omitted, Abs format (unit mm)*
G04 Created by KiCad (PCBNEW 9.0.2) date 2025-06-05 12:02:32*
%MOMM*%
%LPD*%
G01*
G04 APERTURE LIST*
%ADD10C,0.125000*%
G04 #@! TA.AperFunction,NonConductor*
%ADD11C,0.125000*%
G04 #@! TD*
G04 #@! TA.AperFunction,ComponentPad*
%ADD12R,2.000000X2.000000*%
G04 #@! TD*
G04 #@! TA.AperFunction,ComponentPad*
%ADD13C,2.000000*%
G04 #@! TD*
G04 #@! TA.AperFunction,Conductor*
%ADD14C,0.500000*%
G04 #@! TD*
G04 APERTURE END LIST*
D10*
D11*
X234279668Y-52271119D02*
X234279668Y-51271119D01*
X234279668Y-51271119D02*
X233898716Y-51271119D01*
X233898716Y-51271119D02*
X233803478Y-51318738D01*
X233803478Y-51318738D02*
X233755859Y-51366357D01*
X233755859Y-51366357D02*
X233708240Y-51461595D01*
X233708240Y-51461595D02*
X233708240Y-51604452D01*
X233708240Y-51604452D02*
X233755859Y-51699690D01*
X233755859Y-51699690D02*
X233803478Y-51747309D01*
X233803478Y-51747309D02*
X233898716Y-51794928D01*
X233898716Y-51794928D02*
X234279668Y-51794928D01*
X233279668Y-52271119D02*
X233279668Y-51604452D01*
X233279668Y-51794928D02*
X233232049Y-51699690D01*
X233232049Y-51699690D02*
X233184430Y-51652071D01*
X233184430Y-51652071D02*
X233089192Y-51604452D01*
X233089192Y-51604452D02*
X232993954Y-51604452D01*
X232517763Y-52271119D02*
X232613001Y-52223500D01*
X232613001Y-52223500D02*
X232660620Y-52175880D01*
X232660620Y-52175880D02*
X232708239Y-52080642D01*
X232708239Y-52080642D02*
X232708239Y-51794928D01*
X232708239Y-51794928D02*
X232660620Y-51699690D01*
X232660620Y-51699690D02*
X232613001Y-51652071D01*
X232613001Y-51652071D02*
X232517763Y-51604452D01*
X232517763Y-51604452D02*
X232374906Y-51604452D01*
X232374906Y-51604452D02*
X232279668Y-51652071D01*
X232279668Y-51652071D02*
X232232049Y-51699690D01*
X232232049Y-51699690D02*
X232184430Y-51794928D01*
X232184430Y-51794928D02*
X232184430Y-52080642D01*
X232184430Y-52080642D02*
X232232049Y-52175880D01*
X232232049Y-52175880D02*
X232279668Y-52223500D01*
X232279668Y-52223500D02*
X232374906Y-52271119D01*
X232374906Y-52271119D02*
X232517763Y-52271119D01*
X231755858Y-51604452D02*
X231755858Y-52461595D01*
X231755858Y-52461595D02*
X231803477Y-52556833D01*
X231803477Y-52556833D02*
X231898715Y-52604452D01*
X231898715Y-52604452D02*
X231946334Y-52604452D01*
X231755858Y-51271119D02*
X231803477Y-51318738D01*
X231803477Y-51318738D02*
X231755858Y-51366357D01*
X231755858Y-51366357D02*
X231708239Y-51318738D01*
X231708239Y-51318738D02*
X231755858Y-51271119D01*
X231755858Y-51271119D02*
X231755858Y-51366357D01*
X230898716Y-52223500D02*
X230993954Y-52271119D01*
X230993954Y-52271119D02*
X231184430Y-52271119D01*
X231184430Y-52271119D02*
X231279668Y-52223500D01*
X231279668Y-52223500D02*
X231327287Y-52128261D01*
X231327287Y-52128261D02*
X231327287Y-51747309D01*
X231327287Y-51747309D02*
X231279668Y-51652071D01*
X231279668Y-51652071D02*
X231184430Y-51604452D01*
X231184430Y-51604452D02*
X230993954Y-51604452D01*
X230993954Y-51604452D02*
X230898716Y-51652071D01*
X230898716Y-51652071D02*
X230851097Y-51747309D01*
X230851097Y-51747309D02*
X230851097Y-51842547D01*
X230851097Y-51842547D02*
X231327287Y-51937785D01*
X230565382Y-51604452D02*
X230184430Y-51604452D01*
X230422525Y-51271119D02*
X230422525Y-52128261D01*
X230422525Y-52128261D02*
X230374906Y-52223500D01*
X230374906Y-52223500D02*
X230279668Y-52271119D01*
X230279668Y-52271119D02*
X230184430Y-52271119D01*
X229089191Y-52271119D02*
X229089191Y-51271119D01*
X229089191Y-51271119D02*
X228851096Y-51271119D01*
X228851096Y-51271119D02*
X228708239Y-51318738D01*
X228708239Y-51318738D02*
X228613001Y-51413976D01*
X228613001Y-51413976D02*
X228565382Y-51509214D01*
X228565382Y-51509214D02*
X228517763Y-51699690D01*
X228517763Y-51699690D02*
X228517763Y-51842547D01*
X228517763Y-51842547D02*
X228565382Y-52033023D01*
X228565382Y-52033023D02*
X228613001Y-52128261D01*
X228613001Y-52128261D02*
X228708239Y-52223500D01*
X228708239Y-52223500D02*
X228851096Y-52271119D01*
X228851096Y-52271119D02*
X229089191Y-52271119D01*
X228089191Y-52271119D02*
X228089191Y-51604452D01*
X228089191Y-51794928D02*
X228041572Y-51699690D01*
X228041572Y-51699690D02*
X227993953Y-51652071D01*
X227993953Y-51652071D02*
X227898715Y-51604452D01*
X227898715Y-51604452D02*
X227803477Y-51604452D01*
X227327286Y-52271119D02*
X227422524Y-52223500D01*
X227422524Y-52223500D02*
X227470143Y-52175880D01*
X227470143Y-52175880D02*
X227517762Y-52080642D01*
X227517762Y-52080642D02*
X227517762Y-51794928D01*
X227517762Y-51794928D02*
X227470143Y-51699690D01*
X227470143Y-51699690D02*
X227422524Y-51652071D01*
X227422524Y-51652071D02*
X227327286Y-51604452D01*
X227327286Y-51604452D02*
X227184429Y-51604452D01*
X227184429Y-51604452D02*
X227089191Y-51652071D01*
X227089191Y-51652071D02*
X227041572Y-51699690D01*
X227041572Y-51699690D02*
X226993953Y-51794928D01*
X226993953Y-51794928D02*
X226993953Y-52080642D01*
X226993953Y-52080642D02*
X227041572Y-52175880D01*
X227041572Y-52175880D02*
X227089191Y-52223500D01*
X227089191Y-52223500D02*
X227184429Y-52271119D01*
X227184429Y-52271119D02*
X227327286Y-52271119D01*
X226565381Y-51604452D02*
X226565381Y-52271119D01*
X226565381Y-51699690D02*
X226517762Y-51652071D01*
X226517762Y-51652071D02*
X226422524Y-51604452D01*
X226422524Y-51604452D02*
X226279667Y-51604452D01*
X226279667Y-51604452D02*
X226184429Y-51652071D01*
X226184429Y-51652071D02*
X226136810Y-51747309D01*
X226136810Y-51747309D02*
X226136810Y-52271119D01*
X225279667Y-52223500D02*
X225374905Y-52271119D01*
X225374905Y-52271119D02*
X225565381Y-52271119D01*
X225565381Y-52271119D02*
X225660619Y-52223500D01*
X225660619Y-52223500D02*
X225708238Y-52128261D01*
X225708238Y-52128261D02*
X225708238Y-51747309D01*
X225708238Y-51747309D02*
X225660619Y-51652071D01*
X225660619Y-51652071D02*
X225565381Y-51604452D01*
X225565381Y-51604452D02*
X225374905Y-51604452D01*
X225374905Y-51604452D02*
X225279667Y-51652071D01*
X225279667Y-51652071D02*
X225232048Y-51747309D01*
X225232048Y-51747309D02*
X225232048Y-51842547D01*
X225232048Y-51842547D02*
X225708238Y-51937785D01*
D12*
X221500000Y-60500000D03*
D13*
X221500000Y-63040000D03*
X221500000Y-65580000D03*
X221500000Y-68120000D03*
X221500000Y-70660000D03*
X221500000Y-73200000D03*
X221500000Y-75740000D03*
X221500000Y-78280000D03*
X221500000Y-80820000D03*
X221500000Y-83360000D03*
X221500000Y-85900000D03*
X221500000Y-88440000D03*
X221500000Y-90980000D03*
X221500000Y-93520000D03*
X221500000Y-96060000D03*
X206260000Y-96060000D03*
X206260000Y-93520000D03*
X206260000Y-90980000D03*
X206260000Y-88440000D03*
X206260000Y-85900000D03*
X206260000Y-83360000D03*
X206260000Y-80820000D03*
X206260000Y-78280000D03*
X206260000Y-75740000D03*
X206260000Y-73200000D03*
X206260000Y-70660000D03*
X206260000Y-68120000D03*
X206260000Y-65580000D03*
X206260000Y-63040000D03*
D12*
X206260000Y-60500000D03*
X197200000Y-62800000D03*
D13*
X197200000Y-65340000D03*
X197200000Y-67880000D03*
X197200000Y-70420000D03*
X197200000Y-72960000D03*
X197200000Y-75500000D03*
D12*
X233620000Y-78320000D03*
D13*
X233620000Y-80860000D03*
X233620000Y-83400000D03*
D12*
X197800000Y-83600000D03*
D13*
X197800000Y-86140000D03*
X197800000Y-88680000D03*
X197800000Y-91220000D03*
X197800000Y-93760000D03*
X197800000Y-96300000D03*
D14*
X218460000Y-99100000D02*
X221500000Y-96060000D01*
X203140000Y-99100000D02*
X218460000Y-99100000D01*
X197800000Y-93760000D02*
X203140000Y-99100000D01*
X202640000Y-96060000D02*
X206260000Y-96060000D01*
X197800000Y-91220000D02*
X202640000Y-96060000D01*
X234850000Y-100050000D02*
X234850000Y-91750000D01*
X234850000Y-91750000D02*
X235249000Y-91351000D01*
X233300000Y-101600000D02*
X234850000Y-100050000D01*
X197000000Y-101600000D02*
X233300000Y-101600000D01*
X206260000Y-68120000D02*
X202030000Y-68120000D01*
X221500000Y-63040000D02*
X232040000Y-63040000D01*
X233620000Y-64620000D02*
X233620000Y-78320000D01*
X199575000Y-70575000D02*
X197190000Y-72960000D01*
X232040000Y-63040000D02*
X233620000Y-64620000D01*
X199575000Y-86895000D02*
X199575000Y-70575000D01*
X197790000Y-88680000D02*
X199575000Y-86895000D01*
X202030000Y-68120000D02*
X199575000Y-70575000D01*
X195400000Y-100000000D02*
X195400000Y-87400000D01*
X221500000Y-93520000D02*
X233080000Y-93520000D01*
X196660000Y-86140000D02*
X195400000Y-87400000D01*
X233080000Y-93520000D02*
X234850000Y-91750000D01*
X195490000Y-77200000D02*
X197190000Y-75500000D01*
X235249000Y-91351000D02*
X235249000Y-81400000D01*
X197000000Y-101600000D02*
X195400000Y-100000000D01*
X197790000Y-86140000D02*
X196660000Y-86140000D01*
X235249000Y-81400000D02*
X234709000Y-80860000D01*
X234709000Y-80860000D02*
X233610000Y-80860000D01*
X195400000Y-77200000D02*
X195490000Y-77200000D01*
X195400000Y-87400000D02*
X195400000Y-77200000D01*
X221500000Y-83360000D02*
X233560000Y-83360000D01*
X233560000Y-83360000D02*
X233600000Y-83400000D01*
X197190000Y-67880000D02*
X199520000Y-67880000D01*
X199520000Y-67880000D02*
X204400000Y-63000000D01*
X204400000Y-63000000D02*
X204440000Y-63040000D01*
X204440000Y-63040000D02*
X206260000Y-63040000D01*
X197190000Y-65340000D02*
X200060000Y-65340000D01*
X204900000Y-60500000D02*
X206260000Y-60500000D01*
X200060000Y-65340000D02*
X204900000Y-60500000D01*
G04 #@! TA.AperFunction,Conductor*
G36*
X224402364Y-50520185D02*
G01*
X224448119Y-50572989D01*
X224459325Y-50624500D01*
X224459325Y-53377174D01*
X235047668Y-53377174D01*
X235047668Y-50624500D01*
X235050218Y-50615814D01*
X235048930Y-50606853D01*
X235059908Y-50582812D01*
X235067353Y-50557461D01*
X235074193Y-50551533D01*
X235077955Y-50543297D01*
X235100189Y-50529007D01*
X235120157Y-50511706D01*
X235130671Y-50509418D01*
X235136733Y-50505523D01*
X235171668Y-50500500D01*
X235375500Y-50500500D01*
X235442539Y-50520185D01*
X235488294Y-50572989D01*
X235499500Y-50624500D01*
X235499500Y-80013050D01*
X235479815Y-80080089D01*
X235427011Y-80125844D01*
X235357853Y-80135788D01*
X235306610Y-80116152D01*
X235159232Y-80017678D01*
X235159223Y-80017673D01*
X235116659Y-80000042D01*
X235102893Y-79989017D01*
X235086893Y-79982503D01*
X235069392Y-79962187D01*
X235062687Y-79956817D01*
X235059496Y-79952280D01*
X235036948Y-79913226D01*
X234977965Y-79836357D01*
X234976480Y-79834246D01*
X234966042Y-79803508D01*
X234954336Y-79773228D01*
X234954872Y-79770614D01*
X234954014Y-79768087D01*
X234961851Y-79736586D01*
X234968374Y-79704783D01*
X234970660Y-79701178D01*
X234970883Y-79700284D01*
X234971740Y-79699476D01*
X234978639Y-79688600D01*
X235070446Y-79565961D01*
X235121493Y-79429097D01*
X235127999Y-79368581D01*
X235128000Y-79368580D01*
X235128000Y-78574000D01*
X233931686Y-78574000D01*
X233940080Y-78565606D01*
X233992741Y-78474394D01*
X234020000Y-78372661D01*
X234020000Y-78267339D01*
X233992741Y-78165606D01*
X233940080Y-78074394D01*
X233931686Y-78066000D01*
X235128000Y-78066000D01*
X235128000Y-77271420D01*
X235127999Y-77271418D01*
X235121493Y-77210902D01*
X235070446Y-77074038D01*
X234982903Y-76957096D01*
X234865961Y-76869554D01*
X234865961Y-76869553D01*
X234729097Y-76818506D01*
X234668581Y-76812000D01*
X233874000Y-76812000D01*
X233874000Y-78008314D01*
X233865606Y-77999920D01*
X233774394Y-77947259D01*
X233672661Y-77920000D01*
X233567339Y-77920000D01*
X233465606Y-77947259D01*
X233374394Y-77999920D01*
X233366000Y-78008314D01*
X233366000Y-76812000D01*
X232571418Y-76812000D01*
X232510902Y-76818506D01*
X232374038Y-76869553D01*
X232374038Y-76869554D01*
X232257096Y-76957096D01*
X232169554Y-77074038D01*
X232169553Y-77074038D01*
X232118506Y-77210902D01*
X232112000Y-77271418D01*
X232112000Y-78066000D01*
X233308314Y-78066000D01*
X233299920Y-78074394D01*
X233247259Y-78165606D01*
X233220000Y-78267339D01*
X233220000Y-78372661D01*
X233247259Y-78474394D01*
X233299920Y-78565606D01*
X233308314Y-78574000D01*
X232112000Y-78574000D01*
X232112000Y-79368581D01*
X232118506Y-79429097D01*
X232169553Y-79565961D01*
X232261360Y-79688599D01*
X232285777Y-79754063D01*
X232270926Y-79822336D01*
X232260470Y-79838394D01*
X232203057Y-79913218D01*
X232203052Y-79913226D01*
X232091595Y-80106273D01*
X232091593Y-80106277D01*
X232006293Y-80312209D01*
X232006290Y-80312219D01*
X231948597Y-80527534D01*
X231948594Y-80527547D01*
X231919501Y-80748533D01*
X231919500Y-80748549D01*
X231919500Y-80971450D01*
X231919501Y-80971466D01*
X231948594Y-81192452D01*
X231948595Y-81192457D01*
X231948596Y-81192463D01*
X232006290Y-81407780D01*
X232006293Y-81407790D01*
X232075026Y-81573726D01*
X232091595Y-81613726D01*
X232203052Y-81806774D01*
X232203057Y-81806780D01*
X232203058Y-81806782D01*
X232338751Y-81983622D01*
X232338757Y-81983629D01*
X232397447Y-82042319D01*
X232399587Y-82046238D01*
X232403351Y-82048649D01*
X232416185Y-82076635D01*
X232430932Y-82103642D01*
X232430613Y-82108097D01*
X232432476Y-82112159D01*
X232428143Y-82142635D01*
X232425948Y-82173334D01*
X232423094Y-82178152D01*
X232422642Y-82181333D01*
X232412806Y-82195522D01*
X232403607Y-82211055D01*
X232400646Y-82214482D01*
X232338753Y-82276376D01*
X232271638Y-82363841D01*
X232269295Y-82366555D01*
X232242830Y-82383621D01*
X232217403Y-82402189D01*
X232212793Y-82402992D01*
X232210577Y-82404422D01*
X232204535Y-82404431D01*
X232175454Y-82409500D01*
X222975239Y-82409500D01*
X222908200Y-82389815D01*
X222876863Y-82360986D01*
X222781249Y-82236378D01*
X222755926Y-82211055D01*
X222722550Y-82177679D01*
X222689067Y-82116359D01*
X222694051Y-82046667D01*
X222722550Y-82002320D01*
X222781247Y-81943624D01*
X222916948Y-81766774D01*
X223028405Y-81573726D01*
X223113710Y-81367781D01*
X223171404Y-81152463D01*
X223200500Y-80931457D01*
X223200500Y-80708543D01*
X223171404Y-80487537D01*
X223113710Y-80272219D01*
X223028405Y-80066274D01*
X222916948Y-79873226D01*
X222840217Y-79773228D01*
X222781249Y-79696378D01*
X222773470Y-79688599D01*
X222722550Y-79637679D01*
X222689067Y-79576359D01*
X222694051Y-79506667D01*
X222722550Y-79462320D01*
X222781247Y-79403624D01*
X222916948Y-79226774D01*
X223028405Y-79033726D01*
X223113710Y-78827781D01*
X223171404Y-78612463D01*
X223200500Y-78391457D01*
X223200500Y-78168543D01*
X223171404Y-77947537D01*
X223113710Y-77732219D01*
X223028405Y-77526274D01*
X223028403Y-77526271D01*
X223028401Y-77526266D01*
X222916953Y-77333235D01*
X222916948Y-77333226D01*
X222823086Y-77210902D01*
X222781249Y-77156378D01*
X222781241Y-77156370D01*
X222722550Y-77097679D01*
X222689067Y-77036359D01*
X222694051Y-76966667D01*
X222722550Y-76922320D01*
X222781247Y-76863624D01*
X222916948Y-76686774D01*
X223028405Y-76493726D01*
X223113710Y-76287781D01*
X223171404Y-76072463D01*
X223200500Y-75851457D01*
X223200500Y-75628543D01*
X223171404Y-75407537D01*
X223113710Y-75192219D01*
X223103486Y-75167537D01*
X223028406Y-74986277D01*
X223028405Y-74986274D01*
X222916948Y-74793226D01*
X222781247Y-74616376D01*
X222722550Y-74557679D01*
X222689067Y-74496359D01*
X222694051Y-74426667D01*
X222722550Y-74382320D01*
X222781247Y-74323624D01*
X222916948Y-74146774D01*
X223028405Y-73953726D01*
X223113710Y-73747781D01*
X223171404Y-73532463D01*
X223200500Y-73311457D01*
X223200500Y-73088543D01*
X223171404Y-72867537D01*
X223113710Y-72652219D01*
X223092407Y-72600790D01*
X223028406Y-72446277D01*
X223028405Y-72446274D01*
X222916948Y-72253226D01*
X222852802Y-72169629D01*
X222781249Y-72076378D01*
X222781241Y-72076370D01*
X222722550Y-72017679D01*
X222689067Y-71956359D01*
X222694051Y-71886667D01*
X222722550Y-71842320D01*
X222781247Y-71783624D01*
X222916948Y-71606774D01*
X223028405Y-71413726D01*
X223113710Y-71207781D01*
X223171404Y-70992463D01*
X223200500Y-70771457D01*
X223200500Y-70548543D01*
X223171404Y-70327537D01*
X223113710Y-70112219D01*
X223103486Y-70087537D01*
X223028406Y-69906277D01*
X223028405Y-69906274D01*
X222916948Y-69713226D01*
X222781247Y-69536376D01*
X222722550Y-69477679D01*
X222689067Y-69416359D01*
X222694051Y-69346667D01*
X222722550Y-69302320D01*
X222781247Y-69243624D01*
X222916948Y-69066774D01*
X223028405Y-68873726D01*
X223113710Y-68667781D01*
X223171404Y-68452463D01*
X223200500Y-68231457D01*
X223200500Y-68008543D01*
X223171404Y-67787537D01*
X223113710Y-67572219D01*
X223103486Y-67547537D01*
X223028406Y-67366277D01*
X223028405Y-67366274D01*
X222916948Y-67173226D01*
X222880920Y-67126273D01*
X222781249Y-66996378D01*
X222781241Y-66996370D01*
X222722550Y-66937679D01*
X222689067Y-66876359D01*
X222694051Y-66806667D01*
X222722550Y-66762320D01*
X222781247Y-66703624D01*
X222916948Y-66526774D01*
X223028405Y-66333726D01*
X223113710Y-66127781D01*
X223171404Y-65912463D01*
X223200500Y-65691457D01*
X223200500Y-65468543D01*
X223171404Y-65247537D01*
X223113710Y-65032219D01*
X223103486Y-65007537D01*
X223028406Y-64826277D01*
X223028405Y-64826274D01*
X222916948Y-64633226D01*
X222781247Y-64456376D01*
X222781242Y-64456370D01*
X222623629Y-64298757D01*
X222623622Y-64298751D01*
X222446782Y-64163058D01*
X222446780Y-64163057D01*
X222446774Y-64163052D01*
X222253726Y-64051595D01*
X222253722Y-64051593D01*
X222103512Y-63989374D01*
X222063284Y-63962494D01*
X221540791Y-63440000D01*
X221552661Y-63440000D01*
X221654394Y-63412741D01*
X221745606Y-63360080D01*
X221820080Y-63285606D01*
X221872741Y-63194394D01*
X221900000Y-63092661D01*
X221900000Y-63080791D01*
X222730766Y-63911557D01*
X222730767Y-63911556D01*
X222789754Y-63830367D01*
X222897516Y-63618873D01*
X222970868Y-63393120D01*
X223008000Y-63158681D01*
X223008000Y-62921318D01*
X222970868Y-62686879D01*
X222897516Y-62461126D01*
X222800723Y-62271158D01*
X222787827Y-62202489D01*
X222814103Y-62137748D01*
X222847054Y-62108748D01*
X222935185Y-62055472D01*
X223055472Y-61935185D01*
X223143478Y-61789606D01*
X223194086Y-61627196D01*
X223200500Y-61556616D01*
X223200500Y-59443384D01*
X223194086Y-59372804D01*
X223143478Y-59210394D01*
X223055472Y-59064815D01*
X223055470Y-59064813D01*
X223055469Y-59064811D01*
X222935188Y-58944530D01*
X222789606Y-58856522D01*
X222627196Y-58805914D01*
X222627194Y-58805913D01*
X222627192Y-58805913D01*
X222577778Y-58801423D01*
X222556616Y-58799500D01*
X220443384Y-58799500D01*
X220424145Y-58801248D01*
X220372807Y-58805913D01*
X220210393Y-58856522D01*
X220064811Y-58944530D01*
X219944530Y-59064811D01*
X219856522Y-59210393D01*
X219805913Y-59372807D01*
X219799500Y-59443386D01*
X219799500Y-61556613D01*
X219805913Y-61627192D01*
X219856522Y-61789606D01*
X219944530Y-61935188D01*
X220064811Y-62055469D01*
X220064813Y-62055470D01*
X220064815Y-62055472D01*
X220152943Y-62108747D01*
X220200129Y-62160274D01*
X220211968Y-62229133D01*
X220199277Y-62271158D01*
X220102483Y-62461126D01*
X220029131Y-62686879D01*
X219992000Y-62921318D01*
X219992000Y-63158681D01*
X220029131Y-63393120D01*
X220102483Y-63618873D01*
X220210241Y-63830360D01*
X220269232Y-63911556D01*
X221100000Y-63080788D01*
X221100000Y-63092661D01*
X221127259Y-63194394D01*
X221179920Y-63285606D01*
X221254394Y-63360080D01*
X221345606Y-63412741D01*
X221447339Y-63440000D01*
X221459210Y-63440000D01*
X220936714Y-63962494D01*
X220896487Y-63989374D01*
X220746267Y-64051598D01*
X220553226Y-64163052D01*
X220553217Y-64163058D01*
X220376377Y-64298751D01*
X220376370Y-64298757D01*
X220218757Y-64456370D01*
X220218751Y-64456377D01*
X220083058Y-64633217D01*
X220083052Y-64633226D01*
X219971595Y-64826273D01*
X219971593Y-64826277D01*
X219886293Y-65032209D01*
X219886290Y-65032219D01*
X219833686Y-65228543D01*
X219828597Y-65247534D01*
X219828594Y-65247547D01*
X219799501Y-65468533D01*
X219799500Y-65468549D01*
X219799500Y-65691450D01*
X219799501Y-65691466D01*
X219828594Y-65912452D01*
X219828595Y-65912457D01*
X219828596Y-65912463D01*
X219828597Y-65912465D01*
X219886290Y-66127780D01*
X219886293Y-66127790D01*
X219961844Y-66310185D01*
X219971595Y-66333726D01*
X220083052Y-66526774D01*
X220083057Y-66526780D01*
X220083058Y-66526782D01*
X220218751Y-66703622D01*
X220218757Y-66703629D01*
X220277447Y-66762319D01*
X220310932Y-66823642D01*
X220305948Y-66893334D01*
X220277447Y-66937681D01*
X220218757Y-66996370D01*
X220218751Y-66996377D01*
X220083058Y-67173217D01*
X220083052Y-67173226D01*
X219971595Y-67366273D01*
X219971593Y-67366277D01*
X219886293Y-67572209D01*
X219886290Y-67572219D01*
X219833686Y-67768543D01*
X219828597Y-67787534D01*
X219828594Y-67787547D01*
X219799501Y-68008533D01*
X219799500Y-68008549D01*
X219799500Y-68231450D01*
X219799501Y-68231466D01*
X219828594Y-68452452D01*
X219828595Y-68452457D01*
X219828596Y-68452463D01*
X219877164Y-68633722D01*
X219886290Y-68667780D01*
X219886293Y-68667790D01*
X219971593Y-68873722D01*
X219971595Y-68873726D01*
X220083052Y-69066774D01*
X220083057Y-69066780D01*
X220083058Y-69066782D01*
X220218751Y-69243622D01*
X220218757Y-69243629D01*
X220277447Y-69302319D01*
X220310932Y-69363642D01*
X220305948Y-69433334D01*
X220277447Y-69477681D01*
X220218757Y-69536370D01*
X220218751Y-69536377D01*
X220083058Y-69713217D01*
X220083052Y-69713226D01*
X219971595Y-69906273D01*
X219971593Y-69906277D01*
X219886293Y-70112209D01*
X219886290Y-70112219D01*
X219833686Y-70308543D01*
X219828597Y-70327534D01*
X219828594Y-70327547D01*
X219799501Y-70548533D01*
X219799500Y-70548549D01*
X219799500Y-70771450D01*
X219799501Y-70771466D01*
X219828594Y-70992452D01*
X219828595Y-70992457D01*
X219828596Y-70992463D01*
X219828597Y-70992465D01*
X219886290Y-71207780D01*
X219886293Y-71207790D01*
X219952150Y-71366782D01*
X219971595Y-71413726D01*
X220083052Y-71606774D01*
X220083057Y-71606780D01*
X220083058Y-71606782D01*
X220218751Y-71783622D01*
X220218757Y-71783629D01*
X220277447Y-71842319D01*
X220310932Y-71903642D01*
X220305948Y-71973334D01*
X220277447Y-72017681D01*
X220218757Y-72076370D01*
X220218751Y-72076377D01*
X220083058Y-72253217D01*
X220083052Y-72253226D01*
X219971595Y-72446273D01*
X219971593Y-72446277D01*
X219886293Y-72652209D01*
X219886290Y-72652219D01*
X219828597Y-72867534D01*
X219828594Y-72867547D01*
X219799501Y-73088533D01*
X219799500Y-73088549D01*
X219799500Y-73311450D01*
X219799501Y-73311466D01*
X219828594Y-73532452D01*
X219828595Y-73532457D01*
X219828596Y-73532463D01*
X219828597Y-73532465D01*
X219886290Y-73747780D01*
X219886293Y-73747790D01*
X219971593Y-73953722D01*
X219971595Y-73953726D01*
X220083052Y-74146774D01*
X220083057Y-74146780D01*
X220083058Y-74146782D01*
X220218751Y-74323622D01*
X220218757Y-74323629D01*
X220277447Y-74382319D01*
X220310932Y-74443642D01*
X220305948Y-74513334D01*
X220277447Y-74557681D01*
X220218757Y-74616370D01*
X220218751Y-74616377D01*
X220083058Y-74793217D01*
X220083052Y-74793226D01*
X219971595Y-74986273D01*
X219971593Y-74986277D01*
X219886293Y-75192209D01*
X219886290Y-75192219D01*
X219833686Y-75388543D01*
X219828597Y-75407534D01*
X219828594Y-75407547D01*
X219799501Y-75628533D01*
X219799500Y-75628549D01*
X219799500Y-75851450D01*
X219799501Y-75851466D01*
X219828594Y-76072452D01*
X219828595Y-76072457D01*
X219828596Y-76072463D01*
X219853952Y-76167093D01*
X219886290Y-76287780D01*
X219886293Y-76287790D01*
X219952150Y-76446782D01*
X219971595Y-76493726D01*
X220083052Y-76686774D01*
X220083057Y-76686780D01*
X220083058Y-76686782D01*
X220218751Y-76863622D01*
X220218757Y-76863629D01*
X220277447Y-76922319D01*
X220310932Y-76983642D01*
X220305948Y-77053334D01*
X220277447Y-77097681D01*
X220218757Y-77156370D01*
X220218751Y-77156377D01*
X220083058Y-77333217D01*
X220083052Y-77333226D01*
X219971595Y-77526273D01*
X219971593Y-77526277D01*
X219886293Y-77732209D01*
X219886290Y-77732219D01*
X219828671Y-77947259D01*
X219828597Y-77947534D01*
X219828594Y-77947547D01*
X219799501Y-78168533D01*
X219799500Y-78168549D01*
X219799500Y-78391450D01*
X219799501Y-78391466D01*
X219828594Y-78612452D01*
X219828595Y-78612457D01*
X219828596Y-78612463D01*
X219886290Y-78827780D01*
X219886293Y-78827790D01*
X219971593Y-79033722D01*
X219971595Y-79033726D01*
X220083052Y-79226774D01*
X220083057Y-79226780D01*
X220083058Y-79226782D01*
X220218751Y-79403622D01*
X220218757Y-79403629D01*
X220277447Y-79462319D01*
X220310932Y-79523642D01*
X220305948Y-79593334D01*
X220277447Y-79637681D01*
X220218757Y-79696370D01*
X220218751Y-79696377D01*
X220083058Y-79873217D01*
X220083052Y-79873226D01*
X219971595Y-80066273D01*
X219971593Y-80066277D01*
X219886293Y-80272209D01*
X219886290Y-80272219D01*
X219828597Y-80487534D01*
X219828594Y-80487547D01*
X219799501Y-80708533D01*
X219799500Y-80708549D01*
X219799500Y-80931450D01*
X219799501Y-80931466D01*
X219828594Y-81152452D01*
X219828595Y-81152457D01*
X219828596Y-81152463D01*
X219886290Y-81367780D01*
X219886293Y-81367790D01*
X219902862Y-81407790D01*
X219971595Y-81573726D01*
X220083052Y-81766774D01*
X220083057Y-81766780D01*
X220083058Y-81766782D01*
X220218751Y-81943622D01*
X220218757Y-81943629D01*
X220277447Y-82002319D01*
X220310932Y-82063642D01*
X220305948Y-82133334D01*
X220277447Y-82177681D01*
X220218757Y-82236370D01*
X220218751Y-82236377D01*
X220083058Y-82413217D01*
X220083052Y-82413226D01*
X219971595Y-82606273D01*
X219971593Y-82606277D01*
X219886293Y-82812209D01*
X219886290Y-82812219D01*
X219828597Y-83027534D01*
X219828594Y-83027547D01*
X219799501Y-83248533D01*
X219799500Y-83248549D01*
X219799500Y-83471450D01*
X219799501Y-83471466D01*
X219828594Y-83692452D01*
X219828595Y-83692457D01*
X219828596Y-83692463D01*
X219828597Y-83692465D01*
X219886290Y-83907780D01*
X219886293Y-83907790D01*
X219971593Y-84113722D01*
X219971595Y-84113726D01*
X220083052Y-84306774D01*
X220083057Y-84306780D01*
X220083058Y-84306782D01*
X220218751Y-84483622D01*
X220218757Y-84483629D01*
X220277447Y-84542319D01*
X220310932Y-84603642D01*
X220305948Y-84673334D01*
X220277447Y-84717681D01*
X220218757Y-84776370D01*
X220218751Y-84776377D01*
X220083058Y-84953217D01*
X220083052Y-84953226D01*
X219971595Y-85146273D01*
X219971593Y-85146277D01*
X219886293Y-85352209D01*
X219886290Y-85352219D01*
X219828597Y-85567534D01*
X219828594Y-85567547D01*
X219799501Y-85788533D01*
X219799500Y-85788549D01*
X219799500Y-86011450D01*
X219799501Y-86011466D01*
X219828594Y-86232452D01*
X219828595Y-86232457D01*
X219828596Y-86232463D01*
X219833688Y-86251466D01*
X219886290Y-86447780D01*
X219886293Y-86447790D01*
X219896514Y-86472465D01*
X219971595Y-86653726D01*
X220083052Y-86846774D01*
X220083057Y-86846780D01*
X220083058Y-86846782D01*
X220218751Y-87023622D01*
X220218757Y-87023629D01*
X220277447Y-87082319D01*
X220310932Y-87143642D01*
X220305948Y-87213334D01*
X220277447Y-87257681D01*
X220218757Y-87316370D01*
X220218751Y-87316377D01*
X220083058Y-87493217D01*
X220083052Y-87493226D01*
X219971595Y-87686273D01*
X219971593Y-87686277D01*
X219886293Y-87892209D01*
X219886290Y-87892219D01*
X219828597Y-88107534D01*
X219828594Y-88107547D01*
X219799501Y-88328533D01*
X219799500Y-88328549D01*
X219799500Y-88551450D01*
X219799501Y-88551466D01*
X219828594Y-88772452D01*
X219828595Y-88772457D01*
X219828596Y-88772463D01*
X219886290Y-88987780D01*
X219886293Y-88987790D01*
X219913197Y-89052741D01*
X219971595Y-89193726D01*
X220083052Y-89386774D01*
X220083057Y-89386780D01*
X220083058Y-89386782D01*
X220218751Y-89563622D01*
X220218757Y-89563629D01*
X220277447Y-89622319D01*
X220310932Y-89683642D01*
X220305948Y-89753334D01*
X220277447Y-89797681D01*
X220218757Y-89856370D01*
X220218751Y-89856377D01*
X220083058Y-90033217D01*
X220083052Y-90033226D01*
X219971595Y-90226273D01*
X219971593Y-90226277D01*
X219886293Y-90432209D01*
X219886290Y-90432219D01*
X219828597Y-90647534D01*
X219828594Y-90647547D01*
X219799501Y-90868533D01*
X219799500Y-90868549D01*
X219799500Y-91091450D01*
X219799501Y-91091466D01*
X219828594Y-91312452D01*
X219828595Y-91312457D01*
X219828596Y-91312463D01*
X219875411Y-91487179D01*
X219886290Y-91527780D01*
X219886293Y-91527790D01*
X219912495Y-91591046D01*
X219971595Y-91733726D01*
X220083052Y-91926774D01*
X220083057Y-91926780D01*
X220083058Y-91926782D01*
X220218751Y-92103622D01*
X220218757Y-92103629D01*
X220277447Y-92162319D01*
X220310932Y-92223642D01*
X220305948Y-92293334D01*
X220277447Y-92337681D01*
X220218757Y-92396370D01*
X220218751Y-92396377D01*
X220083058Y-92573217D01*
X220083052Y-92573226D01*
X219971595Y-92766273D01*
X219971593Y-92766277D01*
X219886293Y-92972209D01*
X219886290Y-92972219D01*
X219828597Y-93187534D01*
X219828594Y-93187547D01*
X219799501Y-93408533D01*
X219799500Y-93408549D01*
X219799500Y-93631450D01*
X219799501Y-93631466D01*
X219828594Y-93852452D01*
X219828595Y-93852457D01*
X219828596Y-93852463D01*
X219828597Y-93852465D01*
X219886290Y-94067780D01*
X219886293Y-94067790D01*
X219971593Y-94273722D01*
X219971595Y-94273726D01*
X220083052Y-94466774D01*
X220083057Y-94466780D01*
X220083058Y-94466782D01*
X220218751Y-94643622D01*
X220218757Y-94643629D01*
X220277447Y-94702319D01*
X220310932Y-94763642D01*
X220305948Y-94833334D01*
X220277447Y-94877681D01*
X220218757Y-94936370D01*
X220218751Y-94936377D01*
X220083058Y-95113217D01*
X220083052Y-95113226D01*
X219971595Y-95306273D01*
X219971593Y-95306277D01*
X219886293Y-95512209D01*
X219886290Y-95512219D01*
X219828597Y-95727534D01*
X219828594Y-95727547D01*
X219799501Y-95948533D01*
X219799500Y-95948549D01*
X219799500Y-96171450D01*
X219799501Y-96171467D01*
X219820001Y-96327179D01*
X219809235Y-96396214D01*
X219784743Y-96431045D01*
X218102609Y-98113181D01*
X218041286Y-98146666D01*
X218014928Y-98149500D01*
X203585072Y-98149500D01*
X203518033Y-98129815D01*
X203497391Y-98113181D01*
X202606391Y-97222181D01*
X202572906Y-97160858D01*
X202577890Y-97091166D01*
X202619762Y-97035233D01*
X202685226Y-97010816D01*
X202694072Y-97010500D01*
X202733617Y-97010500D01*
X204784761Y-97010500D01*
X204851800Y-97030185D01*
X204883137Y-97059014D01*
X204978751Y-97183622D01*
X204978757Y-97183629D01*
X205136370Y-97341242D01*
X205136376Y-97341247D01*
X205313226Y-97476948D01*
X205506274Y-97588405D01*
X205712219Y-97673710D01*
X205927537Y-97731404D01*
X206148543Y-97760500D01*
X206148550Y-97760500D01*
X206371450Y-97760500D01*
X206371457Y-97760500D01*
X206592463Y-97731404D01*
X206807781Y-97673710D01*
X207013726Y-97588405D01*
X207206774Y-97476948D01*
X207383624Y-97341247D01*
X207541247Y-97183624D01*
X207676948Y-97006774D01*
X207788405Y-96813726D01*
X207873710Y-96607781D01*
X207931404Y-96392463D01*
X207960500Y-96171457D01*
X207960500Y-95948543D01*
X207931404Y-95727537D01*
X207873710Y-95512219D01*
X207788405Y-95306274D01*
X207676948Y-95113226D01*
X207541247Y-94936376D01*
X207482550Y-94877679D01*
X207449067Y-94816359D01*
X207454051Y-94746667D01*
X207482550Y-94702320D01*
X207541247Y-94643624D01*
X207676948Y-94466774D01*
X207788405Y-94273726D01*
X207873710Y-94067781D01*
X207931404Y-93852463D01*
X207960500Y-93631457D01*
X207960500Y-93408543D01*
X207931404Y-93187537D01*
X207873710Y-92972219D01*
X207788405Y-92766274D01*
X207676948Y-92573226D01*
X207541247Y-92396376D01*
X207482550Y-92337679D01*
X207449067Y-92276359D01*
X207454051Y-92206667D01*
X207482550Y-92162320D01*
X207541247Y-92103624D01*
X207676948Y-91926774D01*
X207788405Y-91733726D01*
X207873710Y-91527781D01*
X207931404Y-91312463D01*
X207960500Y-91091457D01*
X207960500Y-90868543D01*
X207931404Y-90647537D01*
X207873710Y-90432219D01*
X207788405Y-90226274D01*
X207676948Y-90033226D01*
X207654118Y-90003473D01*
X207541249Y-89856378D01*
X207541241Y-89856370D01*
X207482550Y-89797679D01*
X207449067Y-89736359D01*
X207454051Y-89666667D01*
X207482550Y-89622320D01*
X207541247Y-89563624D01*
X207676948Y-89386774D01*
X207788405Y-89193726D01*
X207873710Y-88987781D01*
X207931404Y-88772463D01*
X207960500Y-88551457D01*
X207960500Y-88328543D01*
X207931404Y-88107537D01*
X207873710Y-87892219D01*
X207788405Y-87686274D01*
X207676948Y-87493226D01*
X207541247Y-87316376D01*
X207482550Y-87257679D01*
X207449067Y-87196359D01*
X207454051Y-87126667D01*
X207482550Y-87082320D01*
X207541247Y-87023624D01*
X207676948Y-86846774D01*
X207788405Y-86653726D01*
X207873710Y-86447781D01*
X207931404Y-86232463D01*
X207960500Y-86011457D01*
X207960500Y-85788543D01*
X207931404Y-85567537D01*
X207873710Y-85352219D01*
X207788405Y-85146274D01*
X207676948Y-84953226D01*
X207572378Y-84816947D01*
X207541249Y-84776378D01*
X207541241Y-84776370D01*
X207482550Y-84717679D01*
X207449067Y-84656359D01*
X207454051Y-84586667D01*
X207482550Y-84542320D01*
X207541247Y-84483624D01*
X207676948Y-84306774D01*
X207788405Y-84113726D01*
X207873710Y-83907781D01*
X207931404Y-83692463D01*
X207960500Y-83471457D01*
X207960500Y-83248543D01*
X207931404Y-83027537D01*
X207873710Y-82812219D01*
X207788405Y-82606274D01*
X207676948Y-82413226D01*
X207541247Y-82236376D01*
X207482550Y-82177679D01*
X207449067Y-82116359D01*
X207454051Y-82046667D01*
X207482550Y-82002320D01*
X207541247Y-81943624D01*
X207676948Y-81766774D01*
X207788405Y-81573726D01*
X207873710Y-81367781D01*
X207931404Y-81152463D01*
X207960500Y-80931457D01*
X207960500Y-80708543D01*
X207931404Y-80487537D01*
X207873710Y-80272219D01*
X207788405Y-80066274D01*
X207676948Y-79873226D01*
X207600217Y-79773228D01*
X207541249Y-79696378D01*
X207533470Y-79688599D01*
X207482550Y-79637679D01*
X207449067Y-79576359D01*
X207454051Y-79506667D01*
X207482550Y-79462320D01*
X207541247Y-79403624D01*
X207676948Y-79226774D01*
X207788405Y-79033726D01*
X207873710Y-78827781D01*
X207931404Y-78612463D01*
X207960500Y-78391457D01*
X207960500Y-78168543D01*
X207931404Y-77947537D01*
X207873710Y-77732219D01*
X207788405Y-77526274D01*
X207676948Y-77333226D01*
X207583086Y-77210902D01*
X207541249Y-77156378D01*
X207541241Y-77156370D01*
X207482550Y-77097679D01*
X207449067Y-77036359D01*
X207454051Y-76966667D01*
X207482550Y-76922320D01*
X207541247Y-76863624D01*
X207676948Y-76686774D01*
X207788405Y-76493726D01*
X207873710Y-76287781D01*
X207931404Y-76072463D01*
X207960500Y-75851457D01*
X207960500Y-75628543D01*
X207931404Y-75407537D01*
X207873710Y-75192219D01*
X207863486Y-75167537D01*
X207788406Y-74986277D01*
X207788405Y-74986274D01*
X207676948Y-74793226D01*
X207541247Y-74616376D01*
X207482550Y-74557679D01*
X207449067Y-74496359D01*
X207454051Y-74426667D01*
X207482550Y-74382320D01*
X207541247Y-74323624D01*
X207676948Y-74146774D01*
X207788405Y-73953726D01*
X207873710Y-73747781D01*
X207931404Y-73532463D01*
X207960500Y-73311457D01*
X207960500Y-73088543D01*
X207931404Y-72867537D01*
X207873710Y-72652219D01*
X207852407Y-72600790D01*
X207788406Y-72446277D01*
X207788405Y-72446274D01*
X207676948Y-72253226D01*
X207612802Y-72169629D01*
X207541249Y-72076378D01*
X207541241Y-72076370D01*
X207482550Y-72017679D01*
X207449067Y-71956359D01*
X207454051Y-71886667D01*
X207482550Y-71842320D01*
X207541247Y-71783624D01*
X207676948Y-71606774D01*
X207788405Y-71413726D01*
X207873710Y-71207781D01*
X207931404Y-70992463D01*
X207960500Y-70771457D01*
X207960500Y-70548543D01*
X207931404Y-70327537D01*
X207873710Y-70112219D01*
X207863486Y-70087537D01*
X207788406Y-69906277D01*
X207788405Y-69906274D01*
X207676948Y-69713226D01*
X207541247Y-69536376D01*
X207541242Y-69536370D01*
X207383629Y-69378757D01*
X207383622Y-69378751D01*
X207206782Y-69243058D01*
X207206780Y-69243057D01*
X207206774Y-69243052D01*
X207013726Y-69131595D01*
X207013722Y-69131593D01*
X206863512Y-69069374D01*
X206823284Y-69042494D01*
X206300791Y-68520000D01*
X206312661Y-68520000D01*
X206414394Y-68492741D01*
X206505606Y-68440080D01*
X206580080Y-68365606D01*
X206632741Y-68274394D01*
X206660000Y-68172661D01*
X206660000Y-68160791D01*
X207490766Y-68991557D01*
X207490767Y-68991556D01*
X207549754Y-68910367D01*
X207657516Y-68698873D01*
X207730868Y-68473120D01*
X207768000Y-68238681D01*
X207768000Y-68001318D01*
X207730868Y-67766879D01*
X207657516Y-67541126D01*
X207549758Y-67329639D01*
X207490766Y-67248442D01*
X207490765Y-67248442D01*
X206660000Y-68079208D01*
X206660000Y-68067339D01*
X206632741Y-67965606D01*
X206580080Y-67874394D01*
X206505606Y-67799920D01*
X206414394Y-67747259D01*
X206312661Y-67720000D01*
X206300791Y-67720000D01*
X206823284Y-67197504D01*
X206863507Y-67170627D01*
X207013726Y-67108405D01*
X207206774Y-66996948D01*
X207383624Y-66861247D01*
X207541247Y-66703624D01*
X207676948Y-66526774D01*
X207788405Y-66333726D01*
X207873710Y-66127781D01*
X207931404Y-65912463D01*
X207960500Y-65691457D01*
X207960500Y-65468543D01*
X207931404Y-65247537D01*
X207873710Y-65032219D01*
X207863486Y-65007537D01*
X207788406Y-64826277D01*
X207788405Y-64826274D01*
X207676948Y-64633226D01*
X207541247Y-64456376D01*
X207482550Y-64397679D01*
X207449067Y-64336359D01*
X207454051Y-64266667D01*
X207482550Y-64222320D01*
X207541247Y-64163624D01*
X207676948Y-63986774D01*
X207788405Y-63793726D01*
X207873710Y-63587781D01*
X207931404Y-63372463D01*
X207960500Y-63151457D01*
X207960500Y-62928543D01*
X207931404Y-62707537D01*
X207873710Y-62492219D01*
X207788405Y-62286274D01*
X207788403Y-62286271D01*
X207788401Y-62286266D01*
X207717379Y-62163253D01*
X207700906Y-62095353D01*
X207723758Y-62029326D01*
X207737079Y-62013577D01*
X207815472Y-61935185D01*
X207903478Y-61789606D01*
X207954086Y-61627196D01*
X207960500Y-61556616D01*
X207960500Y-59443384D01*
X207954086Y-59372804D01*
X207903478Y-59210394D01*
X207815472Y-59064815D01*
X207815470Y-59064813D01*
X207815469Y-59064811D01*
X207695188Y-58944530D01*
X207549606Y-58856522D01*
X207387196Y-58805914D01*
X207387194Y-58805913D01*
X207387192Y-58805913D01*
X207337778Y-58801423D01*
X207316616Y-58799500D01*
X205203384Y-58799500D01*
X205184145Y-58801248D01*
X205132807Y-58805913D01*
X204970393Y-58856522D01*
X204824811Y-58944530D01*
X204704530Y-59064811D01*
X204616522Y-59210393D01*
X204565913Y-59372807D01*
X204559500Y-59443386D01*
X204559500Y-59529370D01*
X204539815Y-59596409D01*
X204487011Y-59642164D01*
X204482955Y-59643930D01*
X204449775Y-59657674D01*
X204449763Y-59657680D01*
X204294092Y-59761697D01*
X204294088Y-59761700D01*
X199702609Y-64353181D01*
X199641286Y-64386666D01*
X199614928Y-64389500D01*
X198882043Y-64389500D01*
X198815004Y-64369815D01*
X198769249Y-64317011D01*
X198759305Y-64247853D01*
X198775926Y-64201350D01*
X198798734Y-64163621D01*
X198843478Y-64089606D01*
X198894086Y-63927196D01*
X198900500Y-63856616D01*
X198900500Y-61743384D01*
X198894086Y-61672804D01*
X198843478Y-61510394D01*
X198755472Y-61364815D01*
X198755470Y-61364813D01*
X198755469Y-61364811D01*
X198635188Y-61244530D01*
X198489606Y-61156522D01*
X198327196Y-61105914D01*
X198327194Y-61105913D01*
X198327192Y-61105913D01*
X198277778Y-61101423D01*
X198256616Y-61099500D01*
X196143384Y-61099500D01*
X196124145Y-61101248D01*
X196072807Y-61105913D01*
X195910393Y-61156522D01*
X195764811Y-61244530D01*
X195644530Y-61364811D01*
X195556522Y-61510393D01*
X195505913Y-61672807D01*
X195499500Y-61743386D01*
X195499500Y-63856613D01*
X195505913Y-63927192D01*
X195505913Y-63927194D01*
X195505914Y-63927196D01*
X195556522Y-64089606D01*
X195600925Y-64163058D01*
X195644530Y-64235188D01*
X195722914Y-64313572D01*
X195756399Y-64374895D01*
X195751415Y-64444587D01*
X195742620Y-64463253D01*
X195671598Y-64586266D01*
X195671593Y-64586277D01*
X195586293Y-64792209D01*
X195586290Y-64792219D01*
X195528597Y-65007534D01*
X195528594Y-65007547D01*
X195499501Y-65228533D01*
X195499500Y-65228549D01*
X195499500Y-65451450D01*
X195499501Y-65451466D01*
X195528594Y-65672452D01*
X195528595Y-65672457D01*
X195528596Y-65672463D01*
X195533688Y-65691466D01*
X195586290Y-65887780D01*
X195586293Y-65887790D01*
X195596514Y-65912465D01*
X195671595Y-66093726D01*
X195783052Y-66286774D01*
X195783057Y-66286780D01*
X195783058Y-66286782D01*
X195918751Y-66463622D01*
X195918757Y-66463629D01*
X195977447Y-66522319D01*
X196010932Y-66583642D01*
X196005948Y-66653334D01*
X195977447Y-66697681D01*
X195918757Y-66756370D01*
X195918751Y-66756377D01*
X195783058Y-66933217D01*
X195783052Y-66933226D01*
X195671595Y-67126273D01*
X195671593Y-67126277D01*
X195586293Y-67332209D01*
X195586290Y-67332219D01*
X195528597Y-67547534D01*
X195528594Y-67547547D01*
X195499501Y-67768533D01*
X195499500Y-67768549D01*
X195499500Y-67991450D01*
X195499501Y-67991466D01*
X195528594Y-68212452D01*
X195528595Y-68212457D01*
X195528596Y-68212463D01*
X195586290Y-68427780D01*
X195586293Y-68427790D01*
X195613197Y-68492741D01*
X195671595Y-68633726D01*
X195783052Y-68826774D01*
X195783057Y-68826780D01*
X195783058Y-68826782D01*
X195918751Y-69003622D01*
X195918757Y-69003629D01*
X195977447Y-69062319D01*
X196010932Y-69123642D01*
X196005948Y-69193334D01*
X195977447Y-69237681D01*
X195918757Y-69296370D01*
X195918751Y-69296377D01*
X195783058Y-69473217D01*
X195783052Y-69473226D01*
X195671595Y-69666273D01*
X195671593Y-69666277D01*
X195586293Y-69872209D01*
X195586290Y-69872219D01*
X195528597Y-70087534D01*
X195528594Y-70087547D01*
X195499501Y-70308533D01*
X195499500Y-70308549D01*
X195499500Y-70531450D01*
X195499501Y-70531466D01*
X195528594Y-70752452D01*
X195528595Y-70752457D01*
X195528596Y-70752463D01*
X195533688Y-70771466D01*
X195586290Y-70967780D01*
X195586293Y-70967790D01*
X195596514Y-70992465D01*
X195671595Y-71173726D01*
X195783052Y-71366774D01*
X195783057Y-71366780D01*
X195783058Y-71366782D01*
X195918751Y-71543622D01*
X195918757Y-71543629D01*
X196076370Y-71701242D01*
X196076377Y-71701248D01*
X196183730Y-71783622D01*
X196253226Y-71836948D01*
X196446274Y-71948405D01*
X196446277Y-71948406D01*
X196446282Y-71948409D01*
X196553103Y-71992655D01*
X196596486Y-72010624D01*
X196636714Y-72037504D01*
X197159210Y-72560000D01*
X197147339Y-72560000D01*
X197045606Y-72587259D01*
X196954394Y-72639920D01*
X196879920Y-72714394D01*
X196827259Y-72805606D01*
X196800000Y-72907339D01*
X196800000Y-72919210D01*
X195969232Y-72088442D01*
X195969231Y-72088442D01*
X195910246Y-72169629D01*
X195802483Y-72381126D01*
X195729131Y-72606879D01*
X195692000Y-72841318D01*
X195692000Y-73078681D01*
X195729131Y-73313120D01*
X195802483Y-73538873D01*
X195910241Y-73750360D01*
X195969232Y-73831556D01*
X196800000Y-73000789D01*
X196800000Y-73012661D01*
X196827259Y-73114394D01*
X196879920Y-73205606D01*
X196954394Y-73280080D01*
X197045606Y-73332741D01*
X197147339Y-73360000D01*
X197159210Y-73360000D01*
X196636714Y-73882494D01*
X196596487Y-73909374D01*
X196446267Y-73971598D01*
X196253226Y-74083052D01*
X196253217Y-74083058D01*
X196076377Y-74218751D01*
X196076370Y-74218757D01*
X195918757Y-74376370D01*
X195918751Y-74376377D01*
X195783058Y-74553217D01*
X195783052Y-74553226D01*
X195671595Y-74746273D01*
X195671593Y-74746277D01*
X195586293Y-74952209D01*
X195586290Y-74952219D01*
X195528597Y-75167534D01*
X195528594Y-75167547D01*
X195499501Y-75388533D01*
X195499500Y-75388549D01*
X195499500Y-75611457D01*
X195518837Y-75758343D01*
X195508071Y-75827379D01*
X195483579Y-75862209D01*
X195212181Y-76133608D01*
X195150858Y-76167093D01*
X195081167Y-76162109D01*
X195025233Y-76120238D01*
X195000816Y-76054773D01*
X195000500Y-76045927D01*
X195000500Y-50624500D01*
X195020185Y-50557461D01*
X195072989Y-50511706D01*
X195124500Y-50500500D01*
X224335325Y-50500500D01*
X224402364Y-50520185D01*
G37*
G04 #@! TD.AperFunction*
G04 #@! TA.AperFunction,Conductor*
G36*
X204815438Y-64008274D02*
G01*
X204836913Y-64009810D01*
X204849524Y-64018661D01*
X204861679Y-64022366D01*
X204882894Y-64042084D01*
X204888115Y-64045749D01*
X204890092Y-64048078D01*
X204978753Y-64163624D01*
X205041023Y-64225894D01*
X205044302Y-64229757D01*
X205056516Y-64257242D01*
X205070932Y-64283642D01*
X205070560Y-64288842D01*
X205072677Y-64293606D01*
X205068093Y-64323327D01*
X205065948Y-64353334D01*
X205062683Y-64358413D01*
X205062029Y-64362659D01*
X205054443Y-64371235D01*
X205037447Y-64397681D01*
X204978757Y-64456370D01*
X204978751Y-64456377D01*
X204843058Y-64633217D01*
X204843052Y-64633226D01*
X204731595Y-64826273D01*
X204731593Y-64826277D01*
X204646293Y-65032209D01*
X204646290Y-65032219D01*
X204593686Y-65228543D01*
X204588597Y-65247534D01*
X204588594Y-65247547D01*
X204559501Y-65468533D01*
X204559500Y-65468549D01*
X204559500Y-65691450D01*
X204559501Y-65691466D01*
X204588594Y-65912452D01*
X204588595Y-65912457D01*
X204588596Y-65912463D01*
X204588597Y-65912465D01*
X204646290Y-66127780D01*
X204646293Y-66127790D01*
X204721844Y-66310185D01*
X204731595Y-66333726D01*
X204843052Y-66526774D01*
X204843057Y-66526780D01*
X204843058Y-66526782D01*
X204978751Y-66703622D01*
X204978757Y-66703629D01*
X205136370Y-66861242D01*
X205136377Y-66861248D01*
X205230170Y-66933217D01*
X205313226Y-66996948D01*
X205506274Y-67108405D01*
X205506277Y-67108406D01*
X205506282Y-67108409D01*
X205613103Y-67152655D01*
X205656486Y-67170624D01*
X205696714Y-67197504D01*
X206219210Y-67720000D01*
X206207339Y-67720000D01*
X206105606Y-67747259D01*
X206014394Y-67799920D01*
X205939920Y-67874394D01*
X205887259Y-67965606D01*
X205860000Y-68067339D01*
X205860000Y-68079210D01*
X205029232Y-67248442D01*
X205029231Y-67248442D01*
X204970246Y-67329629D01*
X204862483Y-67541126D01*
X204789131Y-67766879D01*
X204752000Y-68001318D01*
X204752000Y-68238681D01*
X204789131Y-68473120D01*
X204862483Y-68698873D01*
X204970241Y-68910360D01*
X205029232Y-68991556D01*
X205860000Y-68160789D01*
X205860000Y-68172661D01*
X205887259Y-68274394D01*
X205939920Y-68365606D01*
X206014394Y-68440080D01*
X206105606Y-68492741D01*
X206207339Y-68520000D01*
X206219210Y-68520000D01*
X205696714Y-69042494D01*
X205656487Y-69069374D01*
X205506267Y-69131598D01*
X205313226Y-69243052D01*
X205313217Y-69243058D01*
X205136377Y-69378751D01*
X205136370Y-69378757D01*
X204978757Y-69536370D01*
X204978751Y-69536377D01*
X204843058Y-69713217D01*
X204843052Y-69713226D01*
X204731595Y-69906273D01*
X204731593Y-69906277D01*
X204646293Y-70112209D01*
X204646290Y-70112219D01*
X204593686Y-70308543D01*
X204588597Y-70327534D01*
X204588594Y-70327547D01*
X204559501Y-70548533D01*
X204559500Y-70548549D01*
X204559500Y-70771450D01*
X204559501Y-70771466D01*
X204588594Y-70992452D01*
X204588595Y-70992457D01*
X204588596Y-70992463D01*
X204588597Y-70992465D01*
X204646290Y-71207780D01*
X204646293Y-71207790D01*
X204712150Y-71366782D01*
X204731595Y-71413726D01*
X204843052Y-71606774D01*
X204843057Y-71606780D01*
X204843058Y-71606782D01*
X204978751Y-71783622D01*
X204978757Y-71783629D01*
X205037447Y-71842319D01*
X205070932Y-71903642D01*
X205065948Y-71973334D01*
X205037447Y-72017681D01*
X204978757Y-72076370D01*
X204978751Y-72076377D01*
X204843058Y-72253217D01*
X204843052Y-72253226D01*
X204731595Y-72446273D01*
X204731593Y-72446277D01*
X204646293Y-72652209D01*
X204646290Y-72652219D01*
X204588597Y-72867534D01*
X204588594Y-72867547D01*
X204559501Y-73088533D01*
X204559500Y-73088549D01*
X204559500Y-73311450D01*
X204559501Y-73311466D01*
X204588594Y-73532452D01*
X204588595Y-73532457D01*
X204588596Y-73532463D01*
X204588597Y-73532465D01*
X204646290Y-73747780D01*
X204646293Y-73747790D01*
X204731593Y-73953722D01*
X204731595Y-73953726D01*
X204843052Y-74146774D01*
X204843057Y-74146780D01*
X204843058Y-74146782D01*
X204978751Y-74323622D01*
X204978757Y-74323629D01*
X205037447Y-74382319D01*
X205070932Y-74443642D01*
X205065948Y-74513334D01*
X205037447Y-74557681D01*
X204978757Y-74616370D01*
X204978751Y-74616377D01*
X204843058Y-74793217D01*
X204843052Y-74793226D01*
X204731595Y-74986273D01*
X204731593Y-74986277D01*
X204646293Y-75192209D01*
X204646290Y-75192219D01*
X204593686Y-75388543D01*
X204588597Y-75407534D01*
X204588594Y-75407547D01*
X204559501Y-75628533D01*
X204559500Y-75628549D01*
X204559500Y-75851450D01*
X204559501Y-75851466D01*
X204588594Y-76072452D01*
X204588595Y-76072457D01*
X204588596Y-76072463D01*
X204613952Y-76167093D01*
X204646290Y-76287780D01*
X204646293Y-76287790D01*
X204712150Y-76446782D01*
X204731595Y-76493726D01*
X204843052Y-76686774D01*
X204843057Y-76686780D01*
X204843058Y-76686782D01*
X204978751Y-76863622D01*
X204978757Y-76863629D01*
X205037447Y-76922319D01*
X205070932Y-76983642D01*
X205065948Y-77053334D01*
X205037447Y-77097681D01*
X204978757Y-77156370D01*
X204978751Y-77156377D01*
X204843058Y-77333217D01*
X204843052Y-77333226D01*
X204731595Y-77526273D01*
X204731593Y-77526277D01*
X204646293Y-77732209D01*
X204646290Y-77732219D01*
X204588671Y-77947259D01*
X204588597Y-77947534D01*
X204588594Y-77947547D01*
X204559501Y-78168533D01*
X204559500Y-78168549D01*
X204559500Y-78391450D01*
X204559501Y-78391466D01*
X204588594Y-78612452D01*
X204588595Y-78612457D01*
X204588596Y-78612463D01*
X204646290Y-78827780D01*
X204646293Y-78827790D01*
X204731593Y-79033722D01*
X204731595Y-79033726D01*
X204843052Y-79226774D01*
X204843057Y-79226780D01*
X204843058Y-79226782D01*
X204978751Y-79403622D01*
X204978757Y-79403629D01*
X205037447Y-79462319D01*
X205070932Y-79523642D01*
X205065948Y-79593334D01*
X205037447Y-79637681D01*
X204978757Y-79696370D01*
X204978751Y-79696377D01*
X204843058Y-79873217D01*
X204843052Y-79873226D01*
X204731595Y-80066273D01*
X204731593Y-80066277D01*
X204646293Y-80272209D01*
X204646290Y-80272219D01*
X204588597Y-80487534D01*
X204588594Y-80487547D01*
X204559501Y-80708533D01*
X204559500Y-80708549D01*
X204559500Y-80931450D01*
X204559501Y-80931466D01*
X204588594Y-81152452D01*
X204588595Y-81152457D01*
X204588596Y-81152463D01*
X204646290Y-81367780D01*
X204646293Y-81367790D01*
X204662862Y-81407790D01*
X204731595Y-81573726D01*
X204843052Y-81766774D01*
X204843057Y-81766780D01*
X204843058Y-81766782D01*
X204978751Y-81943622D01*
X204978757Y-81943629D01*
X205037447Y-82002319D01*
X205070932Y-82063642D01*
X205065948Y-82133334D01*
X205037447Y-82177681D01*
X204978757Y-82236370D01*
X204978751Y-82236377D01*
X204843058Y-82413217D01*
X204843052Y-82413226D01*
X204731595Y-82606273D01*
X204731593Y-82606277D01*
X204646293Y-82812209D01*
X204646290Y-82812219D01*
X204588597Y-83027534D01*
X204588594Y-83027547D01*
X204559501Y-83248533D01*
X204559500Y-83248549D01*
X204559500Y-83471450D01*
X204559501Y-83471466D01*
X204588594Y-83692452D01*
X204588595Y-83692457D01*
X204588596Y-83692463D01*
X204588597Y-83692465D01*
X204646290Y-83907780D01*
X204646293Y-83907790D01*
X204731593Y-84113722D01*
X204731595Y-84113726D01*
X204843052Y-84306774D01*
X204843057Y-84306780D01*
X204843058Y-84306782D01*
X204978751Y-84483622D01*
X204978757Y-84483629D01*
X205037447Y-84542319D01*
X205070932Y-84603642D01*
X205065948Y-84673334D01*
X205037447Y-84717681D01*
X204978757Y-84776370D01*
X204978751Y-84776377D01*
X204843058Y-84953217D01*
X204843052Y-84953226D01*
X204731595Y-85146273D01*
X204731593Y-85146277D01*
X204646293Y-85352209D01*
X204646290Y-85352219D01*
X204588597Y-85567534D01*
X204588594Y-85567547D01*
X204559501Y-85788533D01*
X204559500Y-85788549D01*
X204559500Y-86011450D01*
X204559501Y-86011466D01*
X204588594Y-86232452D01*
X204588595Y-86232457D01*
X204588596Y-86232463D01*
X204593688Y-86251466D01*
X204646290Y-86447780D01*
X204646293Y-86447790D01*
X204656514Y-86472465D01*
X204731595Y-86653726D01*
X204843052Y-86846774D01*
X204843057Y-86846780D01*
X204843058Y-86846782D01*
X204978751Y-87023622D01*
X204978757Y-87023629D01*
X205037447Y-87082319D01*
X205070932Y-87143642D01*
X205065948Y-87213334D01*
X205037447Y-87257681D01*
X204978757Y-87316370D01*
X204978751Y-87316377D01*
X204843058Y-87493217D01*
X204843052Y-87493226D01*
X204731595Y-87686273D01*
X204731593Y-87686277D01*
X204646293Y-87892209D01*
X204646290Y-87892219D01*
X204588597Y-88107534D01*
X204588594Y-88107547D01*
X204559501Y-88328533D01*
X204559500Y-88328549D01*
X204559500Y-88551450D01*
X204559501Y-88551466D01*
X204588594Y-88772452D01*
X204588595Y-88772457D01*
X204588596Y-88772463D01*
X204646290Y-88987780D01*
X204646293Y-88987790D01*
X204673197Y-89052741D01*
X204731595Y-89193726D01*
X204843052Y-89386774D01*
X204843057Y-89386780D01*
X204843058Y-89386782D01*
X204978751Y-89563622D01*
X204978757Y-89563629D01*
X205037447Y-89622319D01*
X205070932Y-89683642D01*
X205065948Y-89753334D01*
X205037447Y-89797681D01*
X204978757Y-89856370D01*
X204978751Y-89856377D01*
X204843058Y-90033217D01*
X204843052Y-90033226D01*
X204731595Y-90226273D01*
X204731593Y-90226277D01*
X204646293Y-90432209D01*
X204646290Y-90432219D01*
X204588597Y-90647534D01*
X204588594Y-90647547D01*
X204559501Y-90868533D01*
X204559500Y-90868549D01*
X204559500Y-91091450D01*
X204559501Y-91091466D01*
X204588594Y-91312452D01*
X204588595Y-91312457D01*
X204588596Y-91312463D01*
X204635411Y-91487179D01*
X204646290Y-91527780D01*
X204646293Y-91527790D01*
X204672495Y-91591046D01*
X204731595Y-91733726D01*
X204843052Y-91926774D01*
X204843057Y-91926780D01*
X204843058Y-91926782D01*
X204978751Y-92103622D01*
X204978757Y-92103629D01*
X205037447Y-92162319D01*
X205070932Y-92223642D01*
X205065948Y-92293334D01*
X205037447Y-92337681D01*
X204978757Y-92396370D01*
X204978751Y-92396377D01*
X204843058Y-92573217D01*
X204843052Y-92573226D01*
X204731595Y-92766273D01*
X204731593Y-92766277D01*
X204646293Y-92972209D01*
X204646290Y-92972219D01*
X204588597Y-93187534D01*
X204588594Y-93187547D01*
X204559501Y-93408533D01*
X204559500Y-93408549D01*
X204559500Y-93631450D01*
X204559501Y-93631466D01*
X204588594Y-93852452D01*
X204588595Y-93852457D01*
X204588596Y-93852463D01*
X204588597Y-93852465D01*
X204646290Y-94067780D01*
X204646293Y-94067790D01*
X204731593Y-94273722D01*
X204731595Y-94273726D01*
X204843052Y-94466774D01*
X204843057Y-94466780D01*
X204843058Y-94466782D01*
X204978751Y-94643622D01*
X204978757Y-94643629D01*
X205037447Y-94702319D01*
X205070932Y-94763642D01*
X205065948Y-94833334D01*
X205037447Y-94877681D01*
X204978757Y-94936370D01*
X204978751Y-94936377D01*
X204883137Y-95060986D01*
X204826710Y-95102189D01*
X204784761Y-95109500D01*
X203085072Y-95109500D01*
X203018033Y-95089815D01*
X202997391Y-95073181D01*
X199515256Y-91591046D01*
X199481771Y-91529723D01*
X199479998Y-91487179D01*
X199500499Y-91331464D01*
X199500500Y-91331457D01*
X199500500Y-91108543D01*
X199471404Y-90887537D01*
X199413710Y-90672219D01*
X199403486Y-90647537D01*
X199328406Y-90466277D01*
X199328405Y-90466274D01*
X199216948Y-90273226D01*
X199081247Y-90096376D01*
X199081242Y-90096370D01*
X198923629Y-89938757D01*
X198923622Y-89938751D01*
X198746782Y-89803058D01*
X198746780Y-89803057D01*
X198746774Y-89803052D01*
X198553726Y-89691595D01*
X198553722Y-89691593D01*
X198403512Y-89629374D01*
X198363284Y-89602494D01*
X197840791Y-89080000D01*
X197852661Y-89080000D01*
X197954394Y-89052741D01*
X198045606Y-89000080D01*
X198120080Y-88925606D01*
X198172741Y-88834394D01*
X198200000Y-88732661D01*
X198200000Y-88720791D01*
X199030766Y-89551557D01*
X199030767Y-89551556D01*
X199089754Y-89470367D01*
X199197516Y-89258873D01*
X199270868Y-89033120D01*
X199308000Y-88798681D01*
X199308000Y-88561318D01*
X199270868Y-88326879D01*
X199197516Y-88101126D01*
X199089758Y-87889639D01*
X199030766Y-87808442D01*
X199030765Y-87808442D01*
X198200000Y-88639208D01*
X198200000Y-88627339D01*
X198172741Y-88525606D01*
X198120080Y-88434394D01*
X198045606Y-88359920D01*
X197954394Y-88307259D01*
X197852661Y-88280000D01*
X197840789Y-88280000D01*
X198363284Y-87757504D01*
X198403507Y-87730627D01*
X198553726Y-87668405D01*
X198746774Y-87556948D01*
X198923624Y-87421247D01*
X199081247Y-87263624D01*
X199216948Y-87086774D01*
X199328405Y-86893726D01*
X199413710Y-86687781D01*
X199471404Y-86472463D01*
X199500500Y-86251457D01*
X199500500Y-86028543D01*
X199471404Y-85807537D01*
X199413710Y-85592219D01*
X199403486Y-85567537D01*
X199328406Y-85386277D01*
X199328401Y-85386266D01*
X199257379Y-85263253D01*
X199240906Y-85195353D01*
X199263758Y-85129326D01*
X199277079Y-85113577D01*
X199355472Y-85035185D01*
X199443478Y-84889606D01*
X199494086Y-84727196D01*
X199500500Y-84656616D01*
X199500500Y-82543384D01*
X199494086Y-82472804D01*
X199443478Y-82310394D01*
X199355472Y-82164815D01*
X199355470Y-82164813D01*
X199355469Y-82164811D01*
X199235188Y-82044530D01*
X199089606Y-81956522D01*
X199048214Y-81943624D01*
X198927196Y-81905914D01*
X198927194Y-81905913D01*
X198927192Y-81905913D01*
X198877778Y-81901423D01*
X198856616Y-81899500D01*
X196743384Y-81899500D01*
X196672804Y-81905914D01*
X196551786Y-81943624D01*
X196511389Y-81956212D01*
X196441529Y-81957362D01*
X196382137Y-81920561D01*
X196352069Y-81857492D01*
X196350500Y-81837826D01*
X196350500Y-77735071D01*
X196370185Y-77668032D01*
X196386815Y-77647394D01*
X196820117Y-77214091D01*
X196881438Y-77180608D01*
X196923981Y-77178835D01*
X197088543Y-77200500D01*
X197088550Y-77200500D01*
X197311450Y-77200500D01*
X197311457Y-77200500D01*
X197532463Y-77171404D01*
X197747781Y-77113710D01*
X197953726Y-77028405D01*
X198146774Y-76916948D01*
X198323624Y-76781247D01*
X198481247Y-76623624D01*
X198616948Y-76446774D01*
X198728405Y-76253726D01*
X198813710Y-76047781D01*
X198871404Y-75832463D01*
X198900500Y-75611457D01*
X198900500Y-75388543D01*
X198871404Y-75167537D01*
X198813710Y-74952219D01*
X198728405Y-74746274D01*
X198616948Y-74553226D01*
X198532862Y-74443642D01*
X198481248Y-74376377D01*
X198481242Y-74376370D01*
X198323629Y-74218757D01*
X198323622Y-74218751D01*
X198146782Y-74083058D01*
X198146780Y-74083057D01*
X198146774Y-74083052D01*
X197953726Y-73971595D01*
X197953722Y-73971593D01*
X197803512Y-73909374D01*
X197763284Y-73882494D01*
X197240791Y-73360000D01*
X197252661Y-73360000D01*
X197354394Y-73332741D01*
X197445606Y-73280080D01*
X197520080Y-73205606D01*
X197572741Y-73114394D01*
X197600000Y-73012661D01*
X197600000Y-73000790D01*
X198430766Y-73831557D01*
X198430767Y-73831556D01*
X198489754Y-73750367D01*
X198597516Y-73538873D01*
X198670868Y-73313120D01*
X198708000Y-73078681D01*
X198708000Y-72841318D01*
X198670868Y-72606879D01*
X198597516Y-72381126D01*
X198489758Y-72169639D01*
X198430766Y-72088442D01*
X198430765Y-72088442D01*
X197600000Y-72919208D01*
X197600000Y-72907339D01*
X197572741Y-72805606D01*
X197520080Y-72714394D01*
X197445606Y-72639920D01*
X197354394Y-72587259D01*
X197252661Y-72560000D01*
X197240791Y-72560000D01*
X197763284Y-72037504D01*
X197803507Y-72010627D01*
X197953726Y-71948405D01*
X198146774Y-71836948D01*
X198323624Y-71701247D01*
X198481247Y-71543624D01*
X198616948Y-71366774D01*
X198728405Y-71173726D01*
X198813710Y-70967781D01*
X198871404Y-70752463D01*
X198900500Y-70531457D01*
X198900500Y-70308543D01*
X198871404Y-70087537D01*
X198813710Y-69872219D01*
X198728405Y-69666274D01*
X198616948Y-69473226D01*
X198532862Y-69363642D01*
X198481249Y-69296378D01*
X198481241Y-69296370D01*
X198422550Y-69237679D01*
X198389067Y-69176359D01*
X198394051Y-69106667D01*
X198422550Y-69062320D01*
X198481247Y-69003624D01*
X198576863Y-68879013D01*
X198633290Y-68837811D01*
X198675239Y-68830500D01*
X199613618Y-68830500D01*
X199625286Y-68828178D01*
X199705433Y-68812236D01*
X199797251Y-68793973D01*
X199868901Y-68764294D01*
X199970230Y-68722323D01*
X200125908Y-68618302D01*
X200469816Y-68274394D01*
X200835446Y-67908765D01*
X203736676Y-65007534D01*
X204705900Y-64038309D01*
X204718267Y-64031556D01*
X204727607Y-64020998D01*
X204748327Y-64015142D01*
X204767221Y-64004826D01*
X204781278Y-64005831D01*
X204794844Y-64001998D01*
X204815438Y-64008274D01*
G37*
G04 #@! TD.AperFunction*
G04 #@! TA.AperFunction,Conductor*
G36*
X197400000Y-88732661D02*
G01*
X197427259Y-88834394D01*
X197479920Y-88925606D01*
X197554394Y-89000080D01*
X197645606Y-89052741D01*
X197747339Y-89080000D01*
X197759210Y-89080000D01*
X197236714Y-89602494D01*
X197196487Y-89629374D01*
X197046267Y-89691598D01*
X196853226Y-89803052D01*
X196853217Y-89803058D01*
X196676377Y-89938751D01*
X196676370Y-89938757D01*
X196562181Y-90052947D01*
X196500858Y-90086432D01*
X196431166Y-90081448D01*
X196375233Y-90039576D01*
X196350816Y-89974112D01*
X196350500Y-89965266D01*
X196350500Y-89632130D01*
X196370185Y-89565091D01*
X196422989Y-89519336D01*
X196492147Y-89509392D01*
X196555703Y-89538417D01*
X196567647Y-89551431D01*
X196569232Y-89551556D01*
X197400000Y-88720789D01*
X197400000Y-88732661D01*
G37*
G04 #@! TD.AperFunction*
M02*
