G04 #@! TF.GenerationSoftware,KiCad,Pcbnew,9.0.2*
G04 #@! TF.CreationDate,2025-05-21T14:09:47+02:00*
G04 #@! TF.ProjectId,Carte_Drone,43617274-655f-4447-926f-6e652e6b6963,rev?*
G04 #@! TF.SameCoordinates,Original*
G04 #@! TF.FileFunction,Copper,L2,Bot*
G04 #@! TF.FilePolarity,Positive*
%FSLAX46Y46*%
G04 Gerber Fmt 4.6, Leading zero omitted, Abs format (unit mm)*
G04 Created by KiCad (PCBNEW 9.0.2) date 2025-05-21 14:09:47*
%MOMM*%
%LPD*%
G01*
G04 APERTURE LIST*
%ADD10C,0.125000*%
G04 #@! TA.AperFunction,NonConductor*
%ADD11C,0.125000*%
G04 #@! TD*
G04 #@! TA.AperFunction,ComponentPad*
%ADD12R,1.530000X1.530000*%
G04 #@! TD*
G04 #@! TA.AperFunction,ComponentPad*
%ADD13C,1.530000*%
G04 #@! TD*
G04 #@! TA.AperFunction,Conductor*
%ADD14C,0.500000*%
G04 #@! TD*
G04 APERTURE END LIST*
D10*
D11*
X234279668Y-52271119D02*
X234279668Y-51271119D01*
X234279668Y-51271119D02*
X233898716Y-51271119D01*
X233898716Y-51271119D02*
X233803478Y-51318738D01*
X233803478Y-51318738D02*
X233755859Y-51366357D01*
X233755859Y-51366357D02*
X233708240Y-51461595D01*
X233708240Y-51461595D02*
X233708240Y-51604452D01*
X233708240Y-51604452D02*
X233755859Y-51699690D01*
X233755859Y-51699690D02*
X233803478Y-51747309D01*
X233803478Y-51747309D02*
X233898716Y-51794928D01*
X233898716Y-51794928D02*
X234279668Y-51794928D01*
X233279668Y-52271119D02*
X233279668Y-51604452D01*
X233279668Y-51794928D02*
X233232049Y-51699690D01*
X233232049Y-51699690D02*
X233184430Y-51652071D01*
X233184430Y-51652071D02*
X233089192Y-51604452D01*
X233089192Y-51604452D02*
X232993954Y-51604452D01*
X232517763Y-52271119D02*
X232613001Y-52223500D01*
X232613001Y-52223500D02*
X232660620Y-52175880D01*
X232660620Y-52175880D02*
X232708239Y-52080642D01*
X232708239Y-52080642D02*
X232708239Y-51794928D01*
X232708239Y-51794928D02*
X232660620Y-51699690D01*
X232660620Y-51699690D02*
X232613001Y-51652071D01*
X232613001Y-51652071D02*
X232517763Y-51604452D01*
X232517763Y-51604452D02*
X232374906Y-51604452D01*
X232374906Y-51604452D02*
X232279668Y-51652071D01*
X232279668Y-51652071D02*
X232232049Y-51699690D01*
X232232049Y-51699690D02*
X232184430Y-51794928D01*
X232184430Y-51794928D02*
X232184430Y-52080642D01*
X232184430Y-52080642D02*
X232232049Y-52175880D01*
X232232049Y-52175880D02*
X232279668Y-52223500D01*
X232279668Y-52223500D02*
X232374906Y-52271119D01*
X232374906Y-52271119D02*
X232517763Y-52271119D01*
X231755858Y-51604452D02*
X231755858Y-52461595D01*
X231755858Y-52461595D02*
X231803477Y-52556833D01*
X231803477Y-52556833D02*
X231898715Y-52604452D01*
X231898715Y-52604452D02*
X231946334Y-52604452D01*
X231755858Y-51271119D02*
X231803477Y-51318738D01*
X231803477Y-51318738D02*
X231755858Y-51366357D01*
X231755858Y-51366357D02*
X231708239Y-51318738D01*
X231708239Y-51318738D02*
X231755858Y-51271119D01*
X231755858Y-51271119D02*
X231755858Y-51366357D01*
X230898716Y-52223500D02*
X230993954Y-52271119D01*
X230993954Y-52271119D02*
X231184430Y-52271119D01*
X231184430Y-52271119D02*
X231279668Y-52223500D01*
X231279668Y-52223500D02*
X231327287Y-52128261D01*
X231327287Y-52128261D02*
X231327287Y-51747309D01*
X231327287Y-51747309D02*
X231279668Y-51652071D01*
X231279668Y-51652071D02*
X231184430Y-51604452D01*
X231184430Y-51604452D02*
X230993954Y-51604452D01*
X230993954Y-51604452D02*
X230898716Y-51652071D01*
X230898716Y-51652071D02*
X230851097Y-51747309D01*
X230851097Y-51747309D02*
X230851097Y-51842547D01*
X230851097Y-51842547D02*
X231327287Y-51937785D01*
X230565382Y-51604452D02*
X230184430Y-51604452D01*
X230422525Y-51271119D02*
X230422525Y-52128261D01*
X230422525Y-52128261D02*
X230374906Y-52223500D01*
X230374906Y-52223500D02*
X230279668Y-52271119D01*
X230279668Y-52271119D02*
X230184430Y-52271119D01*
X229089191Y-52271119D02*
X229089191Y-51271119D01*
X229089191Y-51271119D02*
X228851096Y-51271119D01*
X228851096Y-51271119D02*
X228708239Y-51318738D01*
X228708239Y-51318738D02*
X228613001Y-51413976D01*
X228613001Y-51413976D02*
X228565382Y-51509214D01*
X228565382Y-51509214D02*
X228517763Y-51699690D01*
X228517763Y-51699690D02*
X228517763Y-51842547D01*
X228517763Y-51842547D02*
X228565382Y-52033023D01*
X228565382Y-52033023D02*
X228613001Y-52128261D01*
X228613001Y-52128261D02*
X228708239Y-52223500D01*
X228708239Y-52223500D02*
X228851096Y-52271119D01*
X228851096Y-52271119D02*
X229089191Y-52271119D01*
X228089191Y-52271119D02*
X228089191Y-51604452D01*
X228089191Y-51794928D02*
X228041572Y-51699690D01*
X228041572Y-51699690D02*
X227993953Y-51652071D01*
X227993953Y-51652071D02*
X227898715Y-51604452D01*
X227898715Y-51604452D02*
X227803477Y-51604452D01*
X227327286Y-52271119D02*
X227422524Y-52223500D01*
X227422524Y-52223500D02*
X227470143Y-52175880D01*
X227470143Y-52175880D02*
X227517762Y-52080642D01*
X227517762Y-52080642D02*
X227517762Y-51794928D01*
X227517762Y-51794928D02*
X227470143Y-51699690D01*
X227470143Y-51699690D02*
X227422524Y-51652071D01*
X227422524Y-51652071D02*
X227327286Y-51604452D01*
X227327286Y-51604452D02*
X227184429Y-51604452D01*
X227184429Y-51604452D02*
X227089191Y-51652071D01*
X227089191Y-51652071D02*
X227041572Y-51699690D01*
X227041572Y-51699690D02*
X226993953Y-51794928D01*
X226993953Y-51794928D02*
X226993953Y-52080642D01*
X226993953Y-52080642D02*
X227041572Y-52175880D01*
X227041572Y-52175880D02*
X227089191Y-52223500D01*
X227089191Y-52223500D02*
X227184429Y-52271119D01*
X227184429Y-52271119D02*
X227327286Y-52271119D01*
X226565381Y-51604452D02*
X226565381Y-52271119D01*
X226565381Y-51699690D02*
X226517762Y-51652071D01*
X226517762Y-51652071D02*
X226422524Y-51604452D01*
X226422524Y-51604452D02*
X226279667Y-51604452D01*
X226279667Y-51604452D02*
X226184429Y-51652071D01*
X226184429Y-51652071D02*
X226136810Y-51747309D01*
X226136810Y-51747309D02*
X226136810Y-52271119D01*
X225279667Y-52223500D02*
X225374905Y-52271119D01*
X225374905Y-52271119D02*
X225565381Y-52271119D01*
X225565381Y-52271119D02*
X225660619Y-52223500D01*
X225660619Y-52223500D02*
X225708238Y-52128261D01*
X225708238Y-52128261D02*
X225708238Y-51747309D01*
X225708238Y-51747309D02*
X225660619Y-51652071D01*
X225660619Y-51652071D02*
X225565381Y-51604452D01*
X225565381Y-51604452D02*
X225374905Y-51604452D01*
X225374905Y-51604452D02*
X225279667Y-51652071D01*
X225279667Y-51652071D02*
X225232048Y-51747309D01*
X225232048Y-51747309D02*
X225232048Y-51842547D01*
X225232048Y-51842547D02*
X225708238Y-51937785D01*
D12*
X197800000Y-83600000D03*
D13*
X197800000Y-86140000D03*
X197800000Y-88680000D03*
X197800000Y-91220000D03*
X197800000Y-93760000D03*
X197800000Y-96300000D03*
D12*
X197200000Y-62800000D03*
D13*
X197200000Y-65340000D03*
X197200000Y-67880000D03*
X197200000Y-70420000D03*
X197200000Y-72960000D03*
X197200000Y-75500000D03*
D12*
X233620000Y-78320000D03*
D13*
X233620000Y-80860000D03*
X233620000Y-83400000D03*
D12*
X221500000Y-60500000D03*
D13*
X221500000Y-63040000D03*
X221500000Y-65580000D03*
X221500000Y-68120000D03*
X221500000Y-70660000D03*
X221500000Y-73200000D03*
X221500000Y-75740000D03*
X221500000Y-78280000D03*
X221500000Y-80820000D03*
X221500000Y-83360000D03*
X221500000Y-85900000D03*
X221500000Y-88440000D03*
X221500000Y-90980000D03*
X221500000Y-93520000D03*
X221500000Y-96060000D03*
X206260000Y-96060000D03*
X206260000Y-93520000D03*
X206260000Y-90980000D03*
X206260000Y-88440000D03*
X206260000Y-85900000D03*
X206260000Y-83360000D03*
X206260000Y-80820000D03*
X206260000Y-78280000D03*
X206260000Y-75740000D03*
X206260000Y-73200000D03*
X206260000Y-70660000D03*
X206260000Y-68120000D03*
X206260000Y-65580000D03*
X206260000Y-63040000D03*
D12*
X206260000Y-60500000D03*
D14*
X232040000Y-63040000D02*
X233620000Y-64620000D01*
X233620000Y-64620000D02*
X233620000Y-78320000D01*
X221500000Y-63040000D02*
X232040000Y-63040000D01*
X199575000Y-86895000D02*
X199575000Y-70575000D01*
X199575000Y-70575000D02*
X197190000Y-72960000D01*
X197790000Y-88680000D02*
X199575000Y-86895000D01*
X202030000Y-68120000D02*
X199575000Y-70575000D01*
X206260000Y-68120000D02*
X202030000Y-68120000D01*
X197790000Y-86140000D02*
X196660000Y-86140000D01*
X195400000Y-87400000D02*
X195400000Y-77200000D01*
X196660000Y-86140000D02*
X195400000Y-87400000D01*
X195490000Y-77200000D02*
X197190000Y-75500000D01*
X195400000Y-100000000D02*
X195400000Y-87400000D01*
X197000000Y-101600000D02*
X195400000Y-100000000D01*
X213420000Y-101600000D02*
X197000000Y-101600000D01*
X195400000Y-77200000D02*
X195490000Y-77200000D01*
X221500000Y-93520000D02*
X213420000Y-101600000D01*
X234709000Y-80860000D02*
X233610000Y-80860000D01*
X233080000Y-93520000D02*
X235249000Y-91351000D01*
X221500000Y-93520000D02*
X233080000Y-93520000D01*
X235249000Y-91351000D02*
X235249000Y-81400000D01*
X235249000Y-81400000D02*
X234709000Y-80860000D01*
X233560000Y-83360000D02*
X233600000Y-83400000D01*
X221500000Y-83360000D02*
X233560000Y-83360000D01*
X204740000Y-79800000D02*
X206260000Y-78280000D01*
X203800000Y-79800000D02*
X204740000Y-79800000D01*
X203000000Y-80600000D02*
X203800000Y-79800000D01*
X203000000Y-92600000D02*
X203000000Y-80600000D01*
X201840000Y-93760000D02*
X203000000Y-92600000D01*
X197790000Y-93760000D02*
X201840000Y-93760000D01*
X202860000Y-75740000D02*
X206260000Y-75740000D01*
X201600000Y-77000000D02*
X202860000Y-75740000D01*
X200580000Y-91220000D02*
X201600000Y-90200000D01*
X201600000Y-90200000D02*
X201600000Y-77000000D01*
X197790000Y-91220000D02*
X200580000Y-91220000D01*
X204400000Y-63000000D02*
X204440000Y-63040000D01*
X204440000Y-63040000D02*
X206260000Y-63040000D01*
X199520000Y-67880000D02*
X204400000Y-63000000D01*
X197190000Y-67880000D02*
X199520000Y-67880000D01*
X200060000Y-65340000D02*
X204900000Y-60500000D01*
X197190000Y-65340000D02*
X200060000Y-65340000D01*
X204900000Y-60500000D02*
X206260000Y-60500000D01*
G04 #@! TA.AperFunction,Conductor*
G36*
X224505613Y-50519454D02*
G01*
X224586395Y-50573430D01*
X224640371Y-50654212D01*
X224659325Y-50749500D01*
X224659325Y-53177174D01*
X224659326Y-53177174D01*
X234847667Y-53177174D01*
X234847668Y-53177174D01*
X234847668Y-50749500D01*
X234866622Y-50654212D01*
X234920598Y-50573430D01*
X235001380Y-50519454D01*
X235096668Y-50500500D01*
X235250500Y-50500500D01*
X235345788Y-50519454D01*
X235426570Y-50573430D01*
X235480546Y-50654212D01*
X235499500Y-50749500D01*
X235499500Y-80019730D01*
X235480546Y-80115018D01*
X235426570Y-80195800D01*
X235345788Y-80249776D01*
X235250500Y-80268730D01*
X235155212Y-80249776D01*
X235112175Y-80226774D01*
X235104859Y-80221886D01*
X235095825Y-80215850D01*
X235095817Y-80215842D01*
X235095816Y-80215844D01*
X235064495Y-80194916D01*
X234927913Y-80138342D01*
X234927911Y-80138341D01*
X234782920Y-80109500D01*
X234782918Y-80109500D01*
X234762326Y-80109500D01*
X234667038Y-80090546D01*
X234586256Y-80036570D01*
X234585270Y-80035584D01*
X234585269Y-80035582D01*
X234507377Y-79957690D01*
X234453404Y-79876912D01*
X234434450Y-79781624D01*
X234453404Y-79686336D01*
X234507380Y-79605554D01*
X234588162Y-79551578D01*
X234596438Y-79548322D01*
X234630962Y-79535445D01*
X234747900Y-79447906D01*
X234747906Y-79447900D01*
X234835445Y-79330962D01*
X234886495Y-79194092D01*
X234892999Y-79133593D01*
X234893000Y-79133588D01*
X234893000Y-78574001D01*
X234892999Y-78574000D01*
X234062251Y-78574000D01*
X234095245Y-78516853D01*
X234130000Y-78387143D01*
X234130000Y-78252857D01*
X234095245Y-78123147D01*
X234062251Y-78066000D01*
X234892999Y-78066000D01*
X234893000Y-78065999D01*
X234893000Y-77506412D01*
X234892999Y-77506406D01*
X234886495Y-77445907D01*
X234835445Y-77309037D01*
X234747906Y-77192099D01*
X234747900Y-77192093D01*
X234630962Y-77104554D01*
X234494092Y-77053504D01*
X234433593Y-77047000D01*
X233874001Y-77047000D01*
X233874000Y-77047001D01*
X233874000Y-77877749D01*
X233816853Y-77844755D01*
X233687143Y-77810000D01*
X233552857Y-77810000D01*
X233423147Y-77844755D01*
X233366000Y-77877749D01*
X233366000Y-77047001D01*
X233365999Y-77047000D01*
X232806406Y-77047000D01*
X232745907Y-77053504D01*
X232609037Y-77104554D01*
X232492099Y-77192093D01*
X232492093Y-77192099D01*
X232404554Y-77309037D01*
X232353504Y-77445907D01*
X232347000Y-77506406D01*
X232347000Y-78065999D01*
X232347001Y-78066000D01*
X233177749Y-78066000D01*
X233144755Y-78123147D01*
X233110000Y-78252857D01*
X233110000Y-78387143D01*
X233144755Y-78516853D01*
X233177749Y-78574000D01*
X232347001Y-78574000D01*
X232347000Y-78574001D01*
X232347000Y-79133593D01*
X232353504Y-79194092D01*
X232404554Y-79330962D01*
X232492093Y-79447900D01*
X232492099Y-79447906D01*
X232609036Y-79535445D01*
X232643562Y-79548322D01*
X232726219Y-79599380D01*
X232783046Y-79678182D01*
X232805390Y-79772733D01*
X232789851Y-79868637D01*
X232738793Y-79951294D01*
X232732620Y-79957693D01*
X232654728Y-80035584D01*
X232537647Y-80196732D01*
X232447215Y-80374216D01*
X232447213Y-80374221D01*
X232385660Y-80563663D01*
X232354500Y-80760393D01*
X232354500Y-80959606D01*
X232385660Y-81156336D01*
X232447213Y-81345778D01*
X232447215Y-81345783D01*
X232537647Y-81523267D01*
X232625666Y-81644414D01*
X232654731Y-81684418D01*
X232795582Y-81825269D01*
X232795585Y-81825271D01*
X232937742Y-81928555D01*
X232958249Y-81950740D01*
X232981843Y-81969607D01*
X232990920Y-81986084D01*
X233003691Y-81999899D01*
X233014147Y-82028242D01*
X233028725Y-82054702D01*
X233030806Y-82073398D01*
X233037318Y-82091049D01*
X233036131Y-82121236D01*
X233039474Y-82151261D01*
X233034241Y-82169331D01*
X233033503Y-82188129D01*
X233020855Y-82215564D01*
X233012453Y-82244582D01*
X233001730Y-82257048D01*
X232992828Y-82276359D01*
X232951776Y-82320460D01*
X232944948Y-82326209D01*
X232795582Y-82434731D01*
X232686213Y-82544099D01*
X232678067Y-82550960D01*
X232644670Y-82569359D01*
X232612962Y-82590546D01*
X232602402Y-82592646D01*
X232592972Y-82597842D01*
X232555072Y-82602061D01*
X232517674Y-82609500D01*
X222642326Y-82609500D01*
X222547038Y-82590546D01*
X222466256Y-82536570D01*
X222465271Y-82535585D01*
X222465269Y-82535582D01*
X222324418Y-82394731D01*
X222182256Y-82291444D01*
X222116309Y-82220102D01*
X222082682Y-82128952D01*
X222086496Y-82031872D01*
X222127171Y-81943641D01*
X222182257Y-81888555D01*
X222324418Y-81785269D01*
X222465269Y-81644418D01*
X222582353Y-81483266D01*
X222672785Y-81305783D01*
X222734339Y-81116339D01*
X222765500Y-80919597D01*
X222765500Y-80720403D01*
X222765499Y-80720400D01*
X222765499Y-80720393D01*
X222734339Y-80523663D01*
X222734339Y-80523661D01*
X222672785Y-80334217D01*
X222582353Y-80156734D01*
X222568990Y-80138342D01*
X222494331Y-80035582D01*
X222465269Y-79995582D01*
X222324418Y-79854731D01*
X222182256Y-79751444D01*
X222116309Y-79680102D01*
X222082682Y-79588952D01*
X222086496Y-79491872D01*
X222127171Y-79403641D01*
X222182257Y-79348555D01*
X222324418Y-79245269D01*
X222465269Y-79104418D01*
X222582353Y-78943266D01*
X222672785Y-78765783D01*
X222734339Y-78576339D01*
X222765500Y-78379597D01*
X222765500Y-78180403D01*
X222765499Y-78180400D01*
X222765499Y-78180393D01*
X222734339Y-77983663D01*
X222734339Y-77983661D01*
X222672785Y-77794217D01*
X222582353Y-77616734D01*
X222465269Y-77455582D01*
X222324418Y-77314731D01*
X222182256Y-77211444D01*
X222116309Y-77140102D01*
X222082682Y-77048952D01*
X222086496Y-76951872D01*
X222127171Y-76863641D01*
X222182257Y-76808555D01*
X222324418Y-76705269D01*
X222465269Y-76564418D01*
X222582353Y-76403266D01*
X222672785Y-76225783D01*
X222734339Y-76036339D01*
X222765500Y-75839597D01*
X222765500Y-75640403D01*
X222765499Y-75640400D01*
X222765499Y-75640393D01*
X222734339Y-75443663D01*
X222734339Y-75443661D01*
X222672785Y-75254217D01*
X222582353Y-75076734D01*
X222581032Y-75074916D01*
X222465271Y-74915585D01*
X222465269Y-74915582D01*
X222324418Y-74774731D01*
X222182256Y-74671444D01*
X222116309Y-74600102D01*
X222082682Y-74508952D01*
X222086496Y-74411872D01*
X222127171Y-74323641D01*
X222182257Y-74268555D01*
X222324418Y-74165269D01*
X222465269Y-74024418D01*
X222582353Y-73863266D01*
X222672785Y-73685783D01*
X222734339Y-73496339D01*
X222765500Y-73299597D01*
X222765500Y-73100403D01*
X222765499Y-73100400D01*
X222765499Y-73100393D01*
X222734339Y-72903663D01*
X222734339Y-72903661D01*
X222672785Y-72714217D01*
X222582353Y-72536734D01*
X222465269Y-72375582D01*
X222324418Y-72234731D01*
X222182256Y-72131444D01*
X222116309Y-72060102D01*
X222082682Y-71968952D01*
X222086496Y-71871872D01*
X222127171Y-71783641D01*
X222182257Y-71728555D01*
X222324418Y-71625269D01*
X222465269Y-71484418D01*
X222582353Y-71323266D01*
X222672785Y-71145783D01*
X222734339Y-70956339D01*
X222765500Y-70759597D01*
X222765500Y-70560403D01*
X222765499Y-70560400D01*
X222765499Y-70560393D01*
X222734339Y-70363663D01*
X222734339Y-70363661D01*
X222672785Y-70174217D01*
X222582353Y-69996734D01*
X222465269Y-69835582D01*
X222324418Y-69694731D01*
X222324412Y-69694727D01*
X222182257Y-69591445D01*
X222116309Y-69520102D01*
X222082682Y-69428952D01*
X222086496Y-69331872D01*
X222127171Y-69243641D01*
X222182257Y-69188555D01*
X222324418Y-69085269D01*
X222465269Y-68944418D01*
X222582353Y-68783266D01*
X222672785Y-68605783D01*
X222734339Y-68416339D01*
X222750778Y-68312543D01*
X222765499Y-68219606D01*
X222765500Y-68219594D01*
X222765500Y-68020405D01*
X222765499Y-68020393D01*
X222734339Y-67823663D01*
X222734339Y-67823661D01*
X222672785Y-67634217D01*
X222582353Y-67456734D01*
X222579496Y-67452802D01*
X222465271Y-67295585D01*
X222465269Y-67295582D01*
X222324418Y-67154731D01*
X222182256Y-67051444D01*
X222116309Y-66980102D01*
X222082682Y-66888952D01*
X222086496Y-66791872D01*
X222127171Y-66703641D01*
X222182257Y-66648555D01*
X222324418Y-66545269D01*
X222465269Y-66404418D01*
X222582353Y-66243266D01*
X222672785Y-66065783D01*
X222734339Y-65876339D01*
X222765500Y-65679597D01*
X222765500Y-65480403D01*
X222765499Y-65480400D01*
X222765499Y-65480393D01*
X222734339Y-65283663D01*
X222734339Y-65283661D01*
X222672785Y-65094217D01*
X222582353Y-64916734D01*
X222465269Y-64755582D01*
X222324418Y-64614731D01*
X222324414Y-64614728D01*
X222188636Y-64516079D01*
X222122687Y-64444735D01*
X222089060Y-64353585D01*
X222092875Y-64256505D01*
X222133550Y-64168275D01*
X222188635Y-64113190D01*
X222203313Y-64102524D01*
X221633112Y-63532323D01*
X221696853Y-63515245D01*
X221813147Y-63448102D01*
X221908102Y-63353147D01*
X221975245Y-63236853D01*
X221992323Y-63173112D01*
X222562525Y-63743314D01*
X222588765Y-63707199D01*
X222588767Y-63707196D01*
X222679734Y-63528662D01*
X222679736Y-63528657D01*
X222741654Y-63338092D01*
X222772999Y-63140196D01*
X222773000Y-63140184D01*
X222773000Y-62939815D01*
X222772999Y-62939803D01*
X222741654Y-62741907D01*
X222679736Y-62551342D01*
X222679732Y-62551332D01*
X222588767Y-62372803D01*
X222588765Y-62372799D01*
X222562524Y-62336683D01*
X221992323Y-62906885D01*
X221975245Y-62843147D01*
X221908102Y-62726853D01*
X221813147Y-62631898D01*
X221696853Y-62564755D01*
X221633112Y-62547676D01*
X222211439Y-61969349D01*
X222217594Y-61917347D01*
X222265066Y-61832579D01*
X222341363Y-61772430D01*
X222367393Y-61760989D01*
X222372481Y-61759091D01*
X222372483Y-61759091D01*
X222507331Y-61708796D01*
X222622546Y-61622546D01*
X222708796Y-61507331D01*
X222759091Y-61372483D01*
X222765500Y-61312873D01*
X222765499Y-59687128D01*
X222759091Y-59627517D01*
X222708796Y-59492669D01*
X222622546Y-59377454D01*
X222507331Y-59291204D01*
X222427117Y-59261286D01*
X222372481Y-59240908D01*
X222312873Y-59234500D01*
X220687134Y-59234500D01*
X220687130Y-59234500D01*
X220687128Y-59234501D01*
X220674314Y-59235878D01*
X220627519Y-59240908D01*
X220627515Y-59240909D01*
X220492670Y-59291203D01*
X220377455Y-59377453D01*
X220377453Y-59377455D01*
X220291204Y-59492669D01*
X220240908Y-59627518D01*
X220234500Y-59687123D01*
X220234500Y-61312865D01*
X220234500Y-61312868D01*
X220234501Y-61312872D01*
X220236567Y-61332093D01*
X220240908Y-61372480D01*
X220240909Y-61372484D01*
X220291203Y-61507329D01*
X220291204Y-61507331D01*
X220377454Y-61622546D01*
X220492669Y-61708796D01*
X220627517Y-61759091D01*
X220627518Y-61759091D01*
X220632604Y-61760988D01*
X220715261Y-61812046D01*
X220772087Y-61890849D01*
X220791279Y-61972068D01*
X221366887Y-62547676D01*
X221303147Y-62564755D01*
X221186853Y-62631898D01*
X221091898Y-62726853D01*
X221024755Y-62843147D01*
X221007676Y-62906887D01*
X220437473Y-62336684D01*
X220411234Y-62372800D01*
X220411233Y-62372802D01*
X220320265Y-62551337D01*
X220320263Y-62551342D01*
X220258345Y-62741907D01*
X220227000Y-62939803D01*
X220227000Y-63140196D01*
X220258345Y-63338092D01*
X220320263Y-63528657D01*
X220320267Y-63528667D01*
X220411232Y-63707196D01*
X220411233Y-63707198D01*
X220437473Y-63743314D01*
X221007676Y-63173112D01*
X221024755Y-63236853D01*
X221091898Y-63353147D01*
X221186853Y-63448102D01*
X221303147Y-63515245D01*
X221366885Y-63532323D01*
X220796683Y-64102524D01*
X220796683Y-64102525D01*
X220811363Y-64113191D01*
X220877311Y-64184534D01*
X220910938Y-64275684D01*
X220907123Y-64372764D01*
X220866447Y-64460995D01*
X220811363Y-64516079D01*
X220675586Y-64614727D01*
X220534728Y-64755585D01*
X220417647Y-64916732D01*
X220327215Y-65094216D01*
X220327213Y-65094221D01*
X220265660Y-65283663D01*
X220234500Y-65480393D01*
X220234500Y-65679606D01*
X220265660Y-65876336D01*
X220327213Y-66065778D01*
X220327215Y-66065783D01*
X220417647Y-66243267D01*
X220462696Y-66305271D01*
X220534731Y-66404418D01*
X220675582Y-66545269D01*
X220675585Y-66545271D01*
X220817742Y-66648555D01*
X220883691Y-66719899D01*
X220917318Y-66811049D01*
X220913503Y-66908129D01*
X220872828Y-66996359D01*
X220817742Y-67051445D01*
X220675585Y-67154728D01*
X220534728Y-67295585D01*
X220417647Y-67456732D01*
X220327215Y-67634216D01*
X220327213Y-67634221D01*
X220265660Y-67823663D01*
X220234500Y-68020393D01*
X220234500Y-68219606D01*
X220265660Y-68416336D01*
X220327213Y-68605778D01*
X220327215Y-68605783D01*
X220417647Y-68783267D01*
X220462696Y-68845271D01*
X220534731Y-68944418D01*
X220675582Y-69085269D01*
X220675585Y-69085271D01*
X220817742Y-69188555D01*
X220883691Y-69259899D01*
X220917318Y-69351049D01*
X220913503Y-69448129D01*
X220872828Y-69536359D01*
X220817742Y-69591445D01*
X220675585Y-69694728D01*
X220534728Y-69835585D01*
X220417647Y-69996732D01*
X220327215Y-70174216D01*
X220327213Y-70174221D01*
X220265660Y-70363663D01*
X220234500Y-70560393D01*
X220234500Y-70759606D01*
X220265660Y-70956336D01*
X220327213Y-71145778D01*
X220327215Y-71145783D01*
X220417647Y-71323267D01*
X220462696Y-71385271D01*
X220534731Y-71484418D01*
X220675582Y-71625269D01*
X220704683Y-71646412D01*
X220817742Y-71728555D01*
X220883691Y-71799899D01*
X220917318Y-71891049D01*
X220913503Y-71988129D01*
X220872828Y-72076359D01*
X220817742Y-72131445D01*
X220675585Y-72234728D01*
X220534728Y-72375585D01*
X220417647Y-72536732D01*
X220327215Y-72714216D01*
X220327213Y-72714221D01*
X220265660Y-72903663D01*
X220234500Y-73100393D01*
X220234500Y-73299606D01*
X220265660Y-73496336D01*
X220327213Y-73685778D01*
X220327215Y-73685783D01*
X220417647Y-73863267D01*
X220533355Y-74022524D01*
X220534731Y-74024418D01*
X220675582Y-74165269D01*
X220675585Y-74165271D01*
X220817742Y-74268555D01*
X220883691Y-74339899D01*
X220917318Y-74431049D01*
X220913503Y-74528129D01*
X220872828Y-74616359D01*
X220817742Y-74671445D01*
X220675585Y-74774728D01*
X220534728Y-74915585D01*
X220417647Y-75076732D01*
X220327215Y-75254216D01*
X220327213Y-75254221D01*
X220265660Y-75443663D01*
X220234500Y-75640393D01*
X220234500Y-75839606D01*
X220265660Y-76036336D01*
X220327213Y-76225778D01*
X220327215Y-76225783D01*
X220417647Y-76403267D01*
X220524926Y-76550923D01*
X220534731Y-76564418D01*
X220675582Y-76705269D01*
X220675585Y-76705271D01*
X220817742Y-76808555D01*
X220883691Y-76879899D01*
X220917318Y-76971049D01*
X220913503Y-77068129D01*
X220872828Y-77156359D01*
X220817742Y-77211445D01*
X220675585Y-77314728D01*
X220534728Y-77455585D01*
X220417647Y-77616732D01*
X220327215Y-77794216D01*
X220327213Y-77794221D01*
X220265660Y-77983663D01*
X220234500Y-78180393D01*
X220234500Y-78379606D01*
X220265660Y-78576336D01*
X220327213Y-78765778D01*
X220327215Y-78765783D01*
X220417647Y-78943267D01*
X220534728Y-79104414D01*
X220534731Y-79104418D01*
X220675582Y-79245269D01*
X220675585Y-79245271D01*
X220817742Y-79348555D01*
X220883691Y-79419899D01*
X220917318Y-79511049D01*
X220913503Y-79608129D01*
X220872828Y-79696359D01*
X220817742Y-79751445D01*
X220675585Y-79854728D01*
X220534728Y-79995585D01*
X220417647Y-80156732D01*
X220327215Y-80334216D01*
X220327213Y-80334221D01*
X220265660Y-80523663D01*
X220234500Y-80720393D01*
X220234500Y-80919606D01*
X220265660Y-81116336D01*
X220327213Y-81305778D01*
X220327215Y-81305783D01*
X220417647Y-81483267D01*
X220446709Y-81523267D01*
X220534731Y-81644418D01*
X220675582Y-81785269D01*
X220675585Y-81785271D01*
X220817742Y-81888555D01*
X220883691Y-81959899D01*
X220917318Y-82051049D01*
X220913503Y-82148129D01*
X220872828Y-82236359D01*
X220817742Y-82291445D01*
X220675585Y-82394728D01*
X220534728Y-82535585D01*
X220417647Y-82696732D01*
X220327215Y-82874216D01*
X220327213Y-82874221D01*
X220265660Y-83063663D01*
X220234500Y-83260393D01*
X220234500Y-83459606D01*
X220265660Y-83656336D01*
X220327213Y-83845778D01*
X220327215Y-83845783D01*
X220417647Y-84023267D01*
X220481026Y-84110500D01*
X220534731Y-84184418D01*
X220675582Y-84325269D01*
X220675585Y-84325271D01*
X220817742Y-84428555D01*
X220883691Y-84499899D01*
X220917318Y-84591049D01*
X220913503Y-84688129D01*
X220872828Y-84776359D01*
X220817742Y-84831445D01*
X220675585Y-84934728D01*
X220534728Y-85075585D01*
X220417647Y-85236732D01*
X220327215Y-85414216D01*
X220327213Y-85414221D01*
X220265660Y-85603663D01*
X220234500Y-85800393D01*
X220234500Y-85999606D01*
X220265660Y-86196336D01*
X220327213Y-86385778D01*
X220327215Y-86385783D01*
X220417647Y-86563267D01*
X220463068Y-86625783D01*
X220534731Y-86724418D01*
X220675582Y-86865269D01*
X220675585Y-86865271D01*
X220817742Y-86968555D01*
X220883691Y-87039899D01*
X220917318Y-87131049D01*
X220913503Y-87228129D01*
X220872828Y-87316359D01*
X220817742Y-87371445D01*
X220675585Y-87474728D01*
X220534728Y-87615585D01*
X220417647Y-87776732D01*
X220327215Y-87954216D01*
X220327213Y-87954221D01*
X220265660Y-88143663D01*
X220234500Y-88340393D01*
X220234500Y-88539606D01*
X220265660Y-88736336D01*
X220327213Y-88925778D01*
X220327215Y-88925783D01*
X220417647Y-89103267D01*
X220420930Y-89107785D01*
X220534731Y-89264418D01*
X220675582Y-89405269D01*
X220675585Y-89405271D01*
X220817742Y-89508555D01*
X220883691Y-89579899D01*
X220917318Y-89671049D01*
X220913503Y-89768129D01*
X220872828Y-89856359D01*
X220817742Y-89911445D01*
X220675585Y-90014728D01*
X220534728Y-90155585D01*
X220417647Y-90316732D01*
X220327215Y-90494216D01*
X220327213Y-90494221D01*
X220265660Y-90683663D01*
X220234500Y-90880393D01*
X220234500Y-91079606D01*
X220265660Y-91276336D01*
X220327213Y-91465778D01*
X220327215Y-91465783D01*
X220417647Y-91643267D01*
X220533666Y-91802952D01*
X220534731Y-91804418D01*
X220675582Y-91945269D01*
X220675585Y-91945271D01*
X220817742Y-92048555D01*
X220883691Y-92119899D01*
X220917318Y-92211049D01*
X220913503Y-92308129D01*
X220872828Y-92396359D01*
X220817742Y-92451445D01*
X220675585Y-92554728D01*
X220534728Y-92695585D01*
X220417647Y-92856732D01*
X220327215Y-93034216D01*
X220327213Y-93034221D01*
X220265660Y-93223663D01*
X220234500Y-93420393D01*
X220234500Y-93620992D01*
X220215546Y-93716280D01*
X220161570Y-93797062D01*
X213182062Y-100776570D01*
X213101280Y-100830546D01*
X213005992Y-100849500D01*
X197414008Y-100849500D01*
X197318720Y-100830546D01*
X197237938Y-100776570D01*
X196223430Y-99762062D01*
X196169454Y-99681280D01*
X196150500Y-99585992D01*
X196150500Y-96886698D01*
X196169454Y-96791410D01*
X196223430Y-96710628D01*
X196304212Y-96656652D01*
X196399500Y-96637698D01*
X196494788Y-96656652D01*
X196575570Y-96710628D01*
X196620676Y-96778135D01*
X196622774Y-96777067D01*
X196717647Y-96963267D01*
X196762696Y-97025271D01*
X196834731Y-97124418D01*
X196975582Y-97265269D01*
X196975585Y-97265271D01*
X197136732Y-97382352D01*
X197136734Y-97382353D01*
X197314217Y-97472785D01*
X197503661Y-97534339D01*
X197572857Y-97545298D01*
X197700393Y-97565499D01*
X197700400Y-97565499D01*
X197700403Y-97565500D01*
X197700406Y-97565500D01*
X197899594Y-97565500D01*
X197899597Y-97565500D01*
X197899600Y-97565499D01*
X197899606Y-97565499D01*
X197992543Y-97550778D01*
X198096339Y-97534339D01*
X198285783Y-97472785D01*
X198463266Y-97382353D01*
X198624418Y-97265269D01*
X198765269Y-97124418D01*
X198882353Y-96963266D01*
X198972785Y-96785783D01*
X199034339Y-96596339D01*
X199065500Y-96399597D01*
X199065500Y-96200403D01*
X199065499Y-96200400D01*
X199065499Y-96200393D01*
X199034339Y-96003663D01*
X199034339Y-96003661D01*
X198972785Y-95814217D01*
X198882353Y-95636734D01*
X198765269Y-95475582D01*
X198624418Y-95334731D01*
X198482256Y-95231444D01*
X198462723Y-95210313D01*
X198440039Y-95192603D01*
X198430057Y-95174975D01*
X198416309Y-95160102D01*
X198406349Y-95133104D01*
X198392168Y-95108060D01*
X198389692Y-95087953D01*
X198382682Y-95068952D01*
X198383811Y-95040199D01*
X198380294Y-95011633D01*
X198385700Y-94992110D01*
X198386496Y-94971872D01*
X198398543Y-94945738D01*
X198406225Y-94918003D01*
X198417379Y-94904880D01*
X198427171Y-94883641D01*
X198466013Y-94841423D01*
X198473866Y-94834651D01*
X198624418Y-94725269D01*
X198765269Y-94584418D01*
X198767276Y-94581655D01*
X198779723Y-94570923D01*
X198814144Y-94551432D01*
X198847038Y-94529454D01*
X198856166Y-94527638D01*
X198864266Y-94523052D01*
X198903529Y-94518217D01*
X198942326Y-94510500D01*
X201913919Y-94510500D01*
X201913919Y-94510499D01*
X202058913Y-94481658D01*
X202145039Y-94445983D01*
X202195491Y-94425086D01*
X202195492Y-94425085D01*
X202195495Y-94425084D01*
X202244729Y-94392186D01*
X202318416Y-94342952D01*
X203582952Y-93078416D01*
X203651988Y-92975094D01*
X203665084Y-92955495D01*
X203688518Y-92898920D01*
X203721659Y-92818912D01*
X203750500Y-92673917D01*
X203750500Y-92526082D01*
X203750500Y-81014008D01*
X203769454Y-80918720D01*
X203823430Y-80837938D01*
X204037938Y-80623430D01*
X204118720Y-80569454D01*
X204214008Y-80550500D01*
X204745500Y-80550500D01*
X204840788Y-80569454D01*
X204921570Y-80623430D01*
X204975546Y-80704212D01*
X204994500Y-80799500D01*
X204994500Y-80919606D01*
X205025660Y-81116336D01*
X205087213Y-81305778D01*
X205087215Y-81305783D01*
X205177647Y-81483267D01*
X205206709Y-81523267D01*
X205294731Y-81644418D01*
X205435582Y-81785269D01*
X205435585Y-81785271D01*
X205577742Y-81888555D01*
X205643691Y-81959899D01*
X205677318Y-82051049D01*
X205673503Y-82148129D01*
X205632828Y-82236359D01*
X205577742Y-82291445D01*
X205435585Y-82394728D01*
X205294728Y-82535585D01*
X205177647Y-82696732D01*
X205087215Y-82874216D01*
X205087213Y-82874221D01*
X205025660Y-83063663D01*
X204994500Y-83260393D01*
X204994500Y-83459606D01*
X205025660Y-83656336D01*
X205087213Y-83845778D01*
X205087215Y-83845783D01*
X205177647Y-84023267D01*
X205241026Y-84110500D01*
X205294731Y-84184418D01*
X205435582Y-84325269D01*
X205435585Y-84325271D01*
X205577742Y-84428555D01*
X205643691Y-84499899D01*
X205677318Y-84591049D01*
X205673503Y-84688129D01*
X205632828Y-84776359D01*
X205577742Y-84831445D01*
X205435585Y-84934728D01*
X205294728Y-85075585D01*
X205177647Y-85236732D01*
X205087215Y-85414216D01*
X205087213Y-85414221D01*
X205025660Y-85603663D01*
X204994500Y-85800393D01*
X204994500Y-85999606D01*
X205025660Y-86196336D01*
X205087213Y-86385778D01*
X205087215Y-86385783D01*
X205177647Y-86563267D01*
X205223068Y-86625783D01*
X205294731Y-86724418D01*
X205435582Y-86865269D01*
X205435585Y-86865271D01*
X205577742Y-86968555D01*
X205643691Y-87039899D01*
X205677318Y-87131049D01*
X205673503Y-87228129D01*
X205632828Y-87316359D01*
X205577742Y-87371445D01*
X205435585Y-87474728D01*
X205294728Y-87615585D01*
X205177647Y-87776732D01*
X205087215Y-87954216D01*
X205087213Y-87954221D01*
X205025660Y-88143663D01*
X204994500Y-88340393D01*
X204994500Y-88539606D01*
X205025660Y-88736336D01*
X205087213Y-88925778D01*
X205087215Y-88925783D01*
X205177647Y-89103267D01*
X205180930Y-89107785D01*
X205294731Y-89264418D01*
X205435582Y-89405269D01*
X205435585Y-89405271D01*
X205577742Y-89508555D01*
X205643691Y-89579899D01*
X205677318Y-89671049D01*
X205673503Y-89768129D01*
X205632828Y-89856359D01*
X205577742Y-89911445D01*
X205435585Y-90014728D01*
X205294728Y-90155585D01*
X205177647Y-90316732D01*
X205087215Y-90494216D01*
X205087213Y-90494221D01*
X205025660Y-90683663D01*
X204994500Y-90880393D01*
X204994500Y-91079606D01*
X205025660Y-91276336D01*
X205087213Y-91465778D01*
X205087215Y-91465783D01*
X205177647Y-91643267D01*
X205293666Y-91802952D01*
X205294731Y-91804418D01*
X205435582Y-91945269D01*
X205435585Y-91945271D01*
X205577742Y-92048555D01*
X205643691Y-92119899D01*
X205677318Y-92211049D01*
X205673503Y-92308129D01*
X205632828Y-92396359D01*
X205577742Y-92451445D01*
X205435585Y-92554728D01*
X205294728Y-92695585D01*
X205177647Y-92856732D01*
X205087215Y-93034216D01*
X205087213Y-93034221D01*
X205025660Y-93223663D01*
X204994500Y-93420393D01*
X204994500Y-93619606D01*
X205025660Y-93816336D01*
X205087213Y-94005778D01*
X205087215Y-94005783D01*
X205177647Y-94183267D01*
X205241026Y-94270500D01*
X205294731Y-94344418D01*
X205435582Y-94485269D01*
X205435585Y-94485271D01*
X205577742Y-94588555D01*
X205643691Y-94659899D01*
X205677318Y-94751049D01*
X205673503Y-94848129D01*
X205632828Y-94936359D01*
X205577742Y-94991445D01*
X205435585Y-95094728D01*
X205294728Y-95235585D01*
X205177647Y-95396732D01*
X205087215Y-95574216D01*
X205087213Y-95574221D01*
X205025660Y-95763663D01*
X204994500Y-95960393D01*
X204994500Y-96159606D01*
X205025660Y-96356336D01*
X205087213Y-96545778D01*
X205087215Y-96545783D01*
X205177647Y-96723267D01*
X205294728Y-96884414D01*
X205294731Y-96884418D01*
X205435582Y-97025269D01*
X205435585Y-97025271D01*
X205596732Y-97142352D01*
X205596734Y-97142353D01*
X205774217Y-97232785D01*
X205963661Y-97294339D01*
X206032857Y-97305298D01*
X206160393Y-97325499D01*
X206160400Y-97325499D01*
X206160403Y-97325500D01*
X206160406Y-97325500D01*
X206359594Y-97325500D01*
X206359597Y-97325500D01*
X206359600Y-97325499D01*
X206359606Y-97325499D01*
X206452543Y-97310778D01*
X206556339Y-97294339D01*
X206745783Y-97232785D01*
X206923266Y-97142353D01*
X207084418Y-97025269D01*
X207225269Y-96884418D01*
X207342353Y-96723266D01*
X207432785Y-96545783D01*
X207494339Y-96356339D01*
X207519039Y-96200393D01*
X207525499Y-96159606D01*
X207525500Y-96159594D01*
X207525500Y-95960405D01*
X207525499Y-95960393D01*
X207494339Y-95763663D01*
X207494339Y-95763661D01*
X207432785Y-95574217D01*
X207342353Y-95396734D01*
X207225269Y-95235582D01*
X207084418Y-95094731D01*
X206942256Y-94991444D01*
X206876309Y-94920102D01*
X206842682Y-94828952D01*
X206846496Y-94731872D01*
X206887171Y-94643641D01*
X206942257Y-94588555D01*
X206947957Y-94584414D01*
X207084418Y-94485269D01*
X207225269Y-94344418D01*
X207342353Y-94183266D01*
X207432785Y-94005783D01*
X207494339Y-93816339D01*
X207525500Y-93619597D01*
X207525500Y-93420403D01*
X207525499Y-93420400D01*
X207525499Y-93420393D01*
X207494339Y-93223663D01*
X207494339Y-93223661D01*
X207432785Y-93034217D01*
X207342353Y-92856734D01*
X207225269Y-92695582D01*
X207084418Y-92554731D01*
X206942256Y-92451444D01*
X206876309Y-92380102D01*
X206842682Y-92288952D01*
X206846496Y-92191872D01*
X206887171Y-92103641D01*
X206942257Y-92048555D01*
X206949311Y-92043430D01*
X207084418Y-91945269D01*
X207225269Y-91804418D01*
X207342353Y-91643266D01*
X207432785Y-91465783D01*
X207494339Y-91276339D01*
X207525500Y-91079597D01*
X207525500Y-90880403D01*
X207525499Y-90880400D01*
X207525499Y-90880393D01*
X207494339Y-90683663D01*
X207494339Y-90683661D01*
X207432785Y-90494217D01*
X207342353Y-90316734D01*
X207225269Y-90155582D01*
X207084418Y-90014731D01*
X206942256Y-89911444D01*
X206876309Y-89840102D01*
X206842682Y-89748952D01*
X206846496Y-89651872D01*
X206887171Y-89563641D01*
X206942257Y-89508555D01*
X207084418Y-89405269D01*
X207225269Y-89264418D01*
X207342353Y-89103266D01*
X207432785Y-88925783D01*
X207494339Y-88736339D01*
X207525500Y-88539597D01*
X207525500Y-88340403D01*
X207525499Y-88340400D01*
X207525499Y-88340393D01*
X207494339Y-88143663D01*
X207494339Y-88143661D01*
X207432785Y-87954217D01*
X207342353Y-87776734D01*
X207225269Y-87615582D01*
X207084418Y-87474731D01*
X207068947Y-87463491D01*
X206989130Y-87405500D01*
X206942256Y-87371444D01*
X206876309Y-87300102D01*
X206842682Y-87208952D01*
X206846496Y-87111872D01*
X206887171Y-87023641D01*
X206942257Y-86968555D01*
X206947957Y-86964414D01*
X207084418Y-86865269D01*
X207225269Y-86724418D01*
X207342353Y-86563266D01*
X207432785Y-86385783D01*
X207494339Y-86196339D01*
X207525500Y-85999597D01*
X207525500Y-85800403D01*
X207525499Y-85800400D01*
X207525499Y-85800393D01*
X207494339Y-85603663D01*
X207494339Y-85603661D01*
X207432785Y-85414217D01*
X207342353Y-85236734D01*
X207225269Y-85075582D01*
X207084418Y-84934731D01*
X206942256Y-84831444D01*
X206876309Y-84760102D01*
X206842682Y-84668952D01*
X206846496Y-84571872D01*
X206887171Y-84483641D01*
X206942257Y-84428555D01*
X207084418Y-84325269D01*
X207225269Y-84184418D01*
X207342353Y-84023266D01*
X207432785Y-83845783D01*
X207494339Y-83656339D01*
X207525500Y-83459597D01*
X207525500Y-83260403D01*
X207525499Y-83260400D01*
X207525499Y-83260393D01*
X207494339Y-83063663D01*
X207494339Y-83063661D01*
X207432785Y-82874217D01*
X207342353Y-82696734D01*
X207329992Y-82679721D01*
X207225271Y-82535585D01*
X207225269Y-82535582D01*
X207084418Y-82394731D01*
X206942256Y-82291444D01*
X206876309Y-82220102D01*
X206842682Y-82128952D01*
X206846496Y-82031872D01*
X206887171Y-81943641D01*
X206942257Y-81888555D01*
X207084418Y-81785269D01*
X207225269Y-81644418D01*
X207342353Y-81483266D01*
X207432785Y-81305783D01*
X207494339Y-81116339D01*
X207525500Y-80919597D01*
X207525500Y-80720403D01*
X207525499Y-80720400D01*
X207525499Y-80720393D01*
X207494339Y-80523663D01*
X207494339Y-80523661D01*
X207432785Y-80334217D01*
X207342353Y-80156734D01*
X207328990Y-80138342D01*
X207254331Y-80035582D01*
X207225269Y-79995582D01*
X207084418Y-79854731D01*
X206942256Y-79751444D01*
X206876309Y-79680102D01*
X206842682Y-79588952D01*
X206846496Y-79491872D01*
X206887171Y-79403641D01*
X206942257Y-79348555D01*
X207084418Y-79245269D01*
X207225269Y-79104418D01*
X207342353Y-78943266D01*
X207432785Y-78765783D01*
X207494339Y-78576339D01*
X207525500Y-78379597D01*
X207525500Y-78180403D01*
X207525499Y-78180400D01*
X207525499Y-78180393D01*
X207494339Y-77983663D01*
X207494339Y-77983661D01*
X207432785Y-77794217D01*
X207342353Y-77616734D01*
X207225269Y-77455582D01*
X207084418Y-77314731D01*
X206942256Y-77211444D01*
X206876309Y-77140102D01*
X206842682Y-77048952D01*
X206846496Y-76951872D01*
X206887171Y-76863641D01*
X206942257Y-76808555D01*
X207084418Y-76705269D01*
X207225269Y-76564418D01*
X207342353Y-76403266D01*
X207432785Y-76225783D01*
X207494339Y-76036339D01*
X207525500Y-75839597D01*
X207525500Y-75640403D01*
X207525499Y-75640400D01*
X207525499Y-75640393D01*
X207494339Y-75443663D01*
X207494339Y-75443661D01*
X207432785Y-75254217D01*
X207342353Y-75076734D01*
X207341032Y-75074916D01*
X207225271Y-74915585D01*
X207225269Y-74915582D01*
X207084418Y-74774731D01*
X206942256Y-74671444D01*
X206876309Y-74600102D01*
X206842682Y-74508952D01*
X206846496Y-74411872D01*
X206887171Y-74323641D01*
X206942257Y-74268555D01*
X207084418Y-74165269D01*
X207225269Y-74024418D01*
X207342353Y-73863266D01*
X207432785Y-73685783D01*
X207494339Y-73496339D01*
X207525500Y-73299597D01*
X207525500Y-73100403D01*
X207525499Y-73100400D01*
X207525499Y-73100393D01*
X207494339Y-72903663D01*
X207494339Y-72903661D01*
X207432785Y-72714217D01*
X207342353Y-72536734D01*
X207225269Y-72375582D01*
X207084418Y-72234731D01*
X206942256Y-72131444D01*
X206876309Y-72060102D01*
X206842682Y-71968952D01*
X206846496Y-71871872D01*
X206887171Y-71783641D01*
X206942257Y-71728555D01*
X207084418Y-71625269D01*
X207225269Y-71484418D01*
X207342353Y-71323266D01*
X207432785Y-71145783D01*
X207494339Y-70956339D01*
X207525500Y-70759597D01*
X207525500Y-70560403D01*
X207525499Y-70560400D01*
X207525499Y-70560393D01*
X207494339Y-70363663D01*
X207494339Y-70363661D01*
X207432785Y-70174217D01*
X207342353Y-69996734D01*
X207225269Y-69835582D01*
X207084418Y-69694731D01*
X207084414Y-69694728D01*
X206948636Y-69596079D01*
X206882687Y-69524735D01*
X206849060Y-69433585D01*
X206852875Y-69336505D01*
X206893550Y-69248275D01*
X206948635Y-69193190D01*
X206963313Y-69182524D01*
X206393112Y-68612323D01*
X206456853Y-68595245D01*
X206573147Y-68528102D01*
X206668102Y-68433147D01*
X206735245Y-68316853D01*
X206752323Y-68253112D01*
X207322525Y-68823314D01*
X207348765Y-68787199D01*
X207348767Y-68787196D01*
X207439734Y-68608662D01*
X207439736Y-68608657D01*
X207501654Y-68418092D01*
X207532999Y-68220196D01*
X207533000Y-68220184D01*
X207533000Y-68019815D01*
X207532999Y-68019803D01*
X207501654Y-67821907D01*
X207439736Y-67631342D01*
X207439732Y-67631332D01*
X207348767Y-67452803D01*
X207348765Y-67452799D01*
X207322524Y-67416683D01*
X206752323Y-67986885D01*
X206735245Y-67923147D01*
X206668102Y-67806853D01*
X206573147Y-67711898D01*
X206456853Y-67644755D01*
X206393112Y-67627676D01*
X206963315Y-67057473D01*
X206948639Y-67046811D01*
X206882689Y-66975468D01*
X206849062Y-66884319D01*
X206852876Y-66787239D01*
X206893550Y-66699008D01*
X206948637Y-66643920D01*
X207001517Y-66605500D01*
X207084418Y-66545269D01*
X207225269Y-66404418D01*
X207342353Y-66243266D01*
X207432785Y-66065783D01*
X207494339Y-65876339D01*
X207525500Y-65679597D01*
X207525500Y-65480403D01*
X207525499Y-65480400D01*
X207525499Y-65480393D01*
X207494339Y-65283663D01*
X207494339Y-65283661D01*
X207432785Y-65094217D01*
X207342353Y-64916734D01*
X207225269Y-64755582D01*
X207084418Y-64614731D01*
X207084412Y-64614727D01*
X206942257Y-64511445D01*
X206876309Y-64440102D01*
X206842682Y-64348952D01*
X206846496Y-64251872D01*
X206887171Y-64163641D01*
X206942257Y-64108555D01*
X207084418Y-64005269D01*
X207225269Y-63864418D01*
X207342353Y-63703266D01*
X207432785Y-63525783D01*
X207494339Y-63336339D01*
X207510778Y-63232543D01*
X207525499Y-63139606D01*
X207525500Y-63139594D01*
X207525500Y-62940399D01*
X207494339Y-62743663D01*
X207494339Y-62743661D01*
X207432785Y-62554217D01*
X207342353Y-62376734D01*
X207339496Y-62372802D01*
X207225271Y-62215585D01*
X207225269Y-62215582D01*
X207141547Y-62131860D01*
X207087574Y-62051082D01*
X207068620Y-61955794D01*
X207087574Y-61860506D01*
X207141550Y-61779724D01*
X207222332Y-61725748D01*
X207230550Y-61722514D01*
X207267331Y-61708796D01*
X207382546Y-61622546D01*
X207468796Y-61507331D01*
X207519091Y-61372483D01*
X207525500Y-61312873D01*
X207525499Y-59687128D01*
X207519091Y-59627517D01*
X207468796Y-59492669D01*
X207382546Y-59377454D01*
X207267331Y-59291204D01*
X207187117Y-59261286D01*
X207132481Y-59240908D01*
X207072873Y-59234500D01*
X205447134Y-59234500D01*
X205447130Y-59234500D01*
X205447128Y-59234501D01*
X205434314Y-59235878D01*
X205387519Y-59240908D01*
X205387515Y-59240909D01*
X205252670Y-59291203D01*
X205137455Y-59377453D01*
X205137453Y-59377455D01*
X205051203Y-59492670D01*
X205014302Y-59591606D01*
X204963243Y-59674262D01*
X204884439Y-59731087D01*
X204829579Y-59748804D01*
X204811501Y-59752399D01*
X204797242Y-59755235D01*
X204681090Y-59778340D01*
X204601076Y-59811482D01*
X204544511Y-59834912D01*
X204544505Y-59834915D01*
X204544505Y-59834916D01*
X204462373Y-59889794D01*
X204435181Y-59907963D01*
X204421586Y-59917047D01*
X199822062Y-64516570D01*
X199741280Y-64570546D01*
X199645992Y-64589500D01*
X198342326Y-64589500D01*
X198247038Y-64570546D01*
X198166256Y-64516570D01*
X198165270Y-64515584D01*
X198165269Y-64515582D01*
X198081547Y-64431860D01*
X198027574Y-64351082D01*
X198008620Y-64255794D01*
X198027574Y-64160506D01*
X198081550Y-64079724D01*
X198162332Y-64025748D01*
X198170550Y-64022514D01*
X198207331Y-64008796D01*
X198322546Y-63922546D01*
X198408796Y-63807331D01*
X198459091Y-63672483D01*
X198465500Y-63612873D01*
X198465499Y-61987128D01*
X198459091Y-61927517D01*
X198408796Y-61792669D01*
X198322546Y-61677454D01*
X198207331Y-61591204D01*
X198127117Y-61561286D01*
X198072481Y-61540908D01*
X198012873Y-61534500D01*
X196387134Y-61534500D01*
X196387130Y-61534500D01*
X196387128Y-61534501D01*
X196374314Y-61535878D01*
X196327519Y-61540908D01*
X196327515Y-61540909D01*
X196192670Y-61591203D01*
X196077455Y-61677453D01*
X196077453Y-61677455D01*
X195991204Y-61792669D01*
X195940908Y-61927518D01*
X195934500Y-61987123D01*
X195934500Y-63612865D01*
X195934500Y-63612868D01*
X195934501Y-63612872D01*
X195936567Y-63632093D01*
X195940908Y-63672480D01*
X195940909Y-63672484D01*
X195953856Y-63707196D01*
X195991204Y-63807331D01*
X196077454Y-63922546D01*
X196192669Y-64008796D01*
X196229390Y-64022492D01*
X196229393Y-64022493D01*
X196312050Y-64073550D01*
X196368876Y-64152353D01*
X196391220Y-64246904D01*
X196375680Y-64342808D01*
X196324623Y-64425465D01*
X196318450Y-64431863D01*
X196234728Y-64515584D01*
X196117647Y-64676732D01*
X196027215Y-64854216D01*
X196027213Y-64854221D01*
X195965660Y-65043663D01*
X195934500Y-65240393D01*
X195934500Y-65439606D01*
X195965660Y-65636336D01*
X196027213Y-65825778D01*
X196027215Y-65825783D01*
X196117647Y-66003267D01*
X196163068Y-66065783D01*
X196234731Y-66164418D01*
X196375582Y-66305269D01*
X196375585Y-66305271D01*
X196517742Y-66408555D01*
X196583691Y-66479899D01*
X196617318Y-66571049D01*
X196613503Y-66668129D01*
X196572828Y-66756359D01*
X196517742Y-66811445D01*
X196375585Y-66914728D01*
X196234728Y-67055585D01*
X196117647Y-67216732D01*
X196027215Y-67394216D01*
X196027213Y-67394221D01*
X195965660Y-67583663D01*
X195934500Y-67780393D01*
X195934500Y-67979606D01*
X195965660Y-68176336D01*
X196027213Y-68365778D01*
X196027215Y-68365783D01*
X196117647Y-68543267D01*
X196181026Y-68630500D01*
X196234731Y-68704418D01*
X196375582Y-68845269D01*
X196375585Y-68845271D01*
X196517742Y-68948555D01*
X196583691Y-69019899D01*
X196617318Y-69111049D01*
X196613503Y-69208129D01*
X196572828Y-69296359D01*
X196517742Y-69351445D01*
X196375585Y-69454728D01*
X196234728Y-69595585D01*
X196117647Y-69756732D01*
X196027215Y-69934216D01*
X196027213Y-69934221D01*
X195965660Y-70123663D01*
X195934500Y-70320393D01*
X195934500Y-70519606D01*
X195965660Y-70716336D01*
X196027213Y-70905778D01*
X196027215Y-70905783D01*
X196117647Y-71083267D01*
X196163068Y-71145783D01*
X196234731Y-71244418D01*
X196375582Y-71385269D01*
X196375585Y-71385271D01*
X196511362Y-71483919D01*
X196577311Y-71555262D01*
X196610937Y-71646412D01*
X196607123Y-71743492D01*
X196566448Y-71831723D01*
X196511359Y-71886811D01*
X196496683Y-71897472D01*
X197066887Y-72467676D01*
X197003147Y-72484755D01*
X196886853Y-72551898D01*
X196791898Y-72646853D01*
X196724755Y-72763147D01*
X196707676Y-72826887D01*
X196137473Y-72256684D01*
X196111234Y-72292800D01*
X196111233Y-72292802D01*
X196020265Y-72471337D01*
X196020263Y-72471342D01*
X195958345Y-72661907D01*
X195927000Y-72859803D01*
X195927000Y-73060196D01*
X195958345Y-73258092D01*
X196020263Y-73448657D01*
X196020267Y-73448667D01*
X196111232Y-73627196D01*
X196111233Y-73627198D01*
X196137473Y-73663314D01*
X196707676Y-73093112D01*
X196724755Y-73156853D01*
X196791898Y-73273147D01*
X196886853Y-73368102D01*
X197003147Y-73435245D01*
X197066885Y-73452323D01*
X196496683Y-74022524D01*
X196496683Y-74022525D01*
X196511363Y-74033191D01*
X196577311Y-74104534D01*
X196610938Y-74195684D01*
X196607123Y-74292764D01*
X196566447Y-74380995D01*
X196511363Y-74436079D01*
X196375586Y-74534727D01*
X196234728Y-74675585D01*
X196117647Y-74836732D01*
X196027215Y-75014216D01*
X196027213Y-75014221D01*
X195965660Y-75203663D01*
X195934500Y-75400393D01*
X195934500Y-75590991D01*
X195915546Y-75686279D01*
X195861570Y-75767061D01*
X195425570Y-76203061D01*
X195344788Y-76257037D01*
X195249500Y-76275991D01*
X195154212Y-76257037D01*
X195073430Y-76203061D01*
X195019454Y-76122279D01*
X195000500Y-76026991D01*
X195000500Y-50749500D01*
X195019454Y-50654212D01*
X195073430Y-50573430D01*
X195154212Y-50519454D01*
X195249500Y-50500500D01*
X224410325Y-50500500D01*
X224505613Y-50519454D01*
G37*
G04 #@! TD.AperFunction*
G04 #@! TA.AperFunction,Conductor*
G36*
X197324755Y-88876853D02*
G01*
X197391898Y-88993147D01*
X197486853Y-89088102D01*
X197603147Y-89155245D01*
X197666885Y-89172323D01*
X197096683Y-89742524D01*
X197096683Y-89742525D01*
X197111363Y-89753191D01*
X197177311Y-89824534D01*
X197210938Y-89915684D01*
X197207123Y-90012764D01*
X197166447Y-90100995D01*
X197111363Y-90156079D01*
X196975586Y-90254727D01*
X196834728Y-90395585D01*
X196717647Y-90556732D01*
X196622774Y-90742933D01*
X196620676Y-90741864D01*
X196575564Y-90809376D01*
X196494781Y-90863350D01*
X196399493Y-90882301D01*
X196304205Y-90863344D01*
X196223425Y-90809365D01*
X196169451Y-90728582D01*
X196150500Y-90633301D01*
X196150500Y-89283855D01*
X196169454Y-89188567D01*
X196223430Y-89107785D01*
X196304212Y-89053809D01*
X196399500Y-89034855D01*
X196494788Y-89053809D01*
X196575570Y-89107785D01*
X196621361Y-89170812D01*
X196711235Y-89347200D01*
X196737473Y-89383314D01*
X197307676Y-88813112D01*
X197324755Y-88876853D01*
G37*
G04 #@! TD.AperFunction*
G04 #@! TA.AperFunction,Conductor*
G36*
X205212962Y-63809454D02*
G01*
X205293744Y-63863430D01*
X205294728Y-63864414D01*
X205294731Y-63864418D01*
X205435582Y-64005269D01*
X205459287Y-64022492D01*
X205577742Y-64108555D01*
X205643691Y-64179899D01*
X205677318Y-64271049D01*
X205673503Y-64368129D01*
X205632828Y-64456359D01*
X205577742Y-64511445D01*
X205435585Y-64614728D01*
X205294728Y-64755585D01*
X205177647Y-64916732D01*
X205087215Y-65094216D01*
X205087213Y-65094221D01*
X205025660Y-65283663D01*
X204994500Y-65480393D01*
X204994500Y-65679606D01*
X205025660Y-65876336D01*
X205087213Y-66065778D01*
X205087215Y-66065783D01*
X205177647Y-66243267D01*
X205222696Y-66305271D01*
X205294731Y-66404418D01*
X205435582Y-66545269D01*
X205563869Y-66638475D01*
X205571362Y-66643919D01*
X205637311Y-66715262D01*
X205670937Y-66806412D01*
X205667123Y-66903492D01*
X205626448Y-66991723D01*
X205571359Y-67046811D01*
X205556683Y-67057472D01*
X206126887Y-67627676D01*
X206063147Y-67644755D01*
X205946853Y-67711898D01*
X205851898Y-67806853D01*
X205784755Y-67923147D01*
X205767676Y-67986887D01*
X205197473Y-67416684D01*
X205171234Y-67452800D01*
X205171233Y-67452802D01*
X205080265Y-67631337D01*
X205080263Y-67631342D01*
X205018345Y-67821907D01*
X204987000Y-68019803D01*
X204987000Y-68220196D01*
X205018345Y-68418092D01*
X205080263Y-68608657D01*
X205080267Y-68608667D01*
X205171232Y-68787196D01*
X205171233Y-68787198D01*
X205197473Y-68823314D01*
X205767676Y-68253112D01*
X205784755Y-68316853D01*
X205851898Y-68433147D01*
X205946853Y-68528102D01*
X206063147Y-68595245D01*
X206126885Y-68612323D01*
X205556683Y-69182524D01*
X205556683Y-69182525D01*
X205571363Y-69193191D01*
X205637311Y-69264534D01*
X205670938Y-69355684D01*
X205667123Y-69452764D01*
X205626447Y-69540995D01*
X205571363Y-69596079D01*
X205435586Y-69694727D01*
X205294728Y-69835585D01*
X205177647Y-69996732D01*
X205087215Y-70174216D01*
X205087213Y-70174221D01*
X205025660Y-70363663D01*
X204994500Y-70560393D01*
X204994500Y-70759606D01*
X205025660Y-70956336D01*
X205087213Y-71145778D01*
X205087215Y-71145783D01*
X205177647Y-71323267D01*
X205222696Y-71385271D01*
X205294731Y-71484418D01*
X205435582Y-71625269D01*
X205464683Y-71646412D01*
X205577742Y-71728555D01*
X205643691Y-71799899D01*
X205677318Y-71891049D01*
X205673503Y-71988129D01*
X205632828Y-72076359D01*
X205577742Y-72131445D01*
X205435585Y-72234728D01*
X205294728Y-72375585D01*
X205177647Y-72536732D01*
X205087215Y-72714216D01*
X205087213Y-72714221D01*
X205025660Y-72903663D01*
X204994500Y-73100393D01*
X204994500Y-73299606D01*
X205025660Y-73496336D01*
X205087213Y-73685778D01*
X205087215Y-73685783D01*
X205177647Y-73863267D01*
X205293355Y-74022524D01*
X205294731Y-74024418D01*
X205435582Y-74165269D01*
X205435585Y-74165271D01*
X205577742Y-74268555D01*
X205597276Y-74289687D01*
X205619960Y-74307397D01*
X205629941Y-74325024D01*
X205643691Y-74339899D01*
X205653651Y-74366898D01*
X205667831Y-74391940D01*
X205670306Y-74412043D01*
X205677318Y-74431049D01*
X205676187Y-74459804D01*
X205679705Y-74488366D01*
X205674298Y-74507887D01*
X205673503Y-74528129D01*
X205661454Y-74554263D01*
X205653774Y-74581997D01*
X205642619Y-74595119D01*
X205632828Y-74616359D01*
X205593986Y-74658577D01*
X205586127Y-74665353D01*
X205435582Y-74774731D01*
X205294731Y-74915582D01*
X205292723Y-74918344D01*
X205280277Y-74929077D01*
X205245855Y-74948567D01*
X205212962Y-74970546D01*
X205203833Y-74972361D01*
X205195734Y-74976948D01*
X205156469Y-74981783D01*
X205117674Y-74989500D01*
X202786079Y-74989500D01*
X202641088Y-75018341D01*
X202504507Y-75074915D01*
X202504503Y-75074917D01*
X202400356Y-75144506D01*
X202381587Y-75157046D01*
X202381584Y-75157049D01*
X201017048Y-76521584D01*
X200976445Y-76582352D01*
X200967812Y-76595272D01*
X200934917Y-76644502D01*
X200934915Y-76644507D01*
X200878341Y-76781088D01*
X200849500Y-76926079D01*
X200849500Y-89785992D01*
X200830546Y-89881280D01*
X200776570Y-89962062D01*
X200342062Y-90396570D01*
X200261280Y-90450546D01*
X200165992Y-90469500D01*
X198942326Y-90469500D01*
X198903337Y-90461744D01*
X198863884Y-90456822D01*
X198856890Y-90452505D01*
X198847038Y-90450546D01*
X198779419Y-90408814D01*
X198767207Y-90398250D01*
X198765269Y-90395582D01*
X198624418Y-90254731D01*
X198480090Y-90149870D01*
X198472088Y-90142948D01*
X198448624Y-90112794D01*
X198422687Y-90084735D01*
X198418987Y-90074706D01*
X198412424Y-90066272D01*
X198402286Y-90029436D01*
X198389060Y-89993585D01*
X198389479Y-89982903D01*
X198386644Y-89972600D01*
X198391374Y-89934686D01*
X198392875Y-89896505D01*
X198397349Y-89886799D01*
X198398673Y-89876192D01*
X198417553Y-89842973D01*
X198433550Y-89808275D01*
X198442181Y-89799643D01*
X198446681Y-89791727D01*
X198462082Y-89779742D01*
X198488635Y-89753190D01*
X198503313Y-89742524D01*
X197933112Y-89172323D01*
X197996853Y-89155245D01*
X198113147Y-89088102D01*
X198208102Y-88993147D01*
X198275245Y-88876853D01*
X198292323Y-88813112D01*
X198862525Y-89383314D01*
X198888765Y-89347199D01*
X198888767Y-89347196D01*
X198979734Y-89168662D01*
X198979736Y-89168657D01*
X199041654Y-88978092D01*
X199072999Y-88780196D01*
X199073000Y-88780184D01*
X199073000Y-88579815D01*
X199072999Y-88579803D01*
X199041654Y-88381907D01*
X198979736Y-88191342D01*
X198979732Y-88191332D01*
X198888767Y-88012803D01*
X198888765Y-88012799D01*
X198862524Y-87976683D01*
X198292323Y-88546885D01*
X198275245Y-88483147D01*
X198208102Y-88366853D01*
X198113147Y-88271898D01*
X197996853Y-88204755D01*
X197933112Y-88187676D01*
X198503315Y-87617473D01*
X198488639Y-87606811D01*
X198422689Y-87535468D01*
X198389062Y-87444319D01*
X198392876Y-87347239D01*
X198433550Y-87259008D01*
X198488637Y-87203920D01*
X198544563Y-87163287D01*
X198624418Y-87105269D01*
X198765269Y-86964418D01*
X198882353Y-86803266D01*
X198972785Y-86625783D01*
X199034339Y-86436339D01*
X199065500Y-86239597D01*
X199065500Y-86040403D01*
X199065499Y-86040400D01*
X199065499Y-86040393D01*
X199034339Y-85843663D01*
X199034339Y-85843661D01*
X198972785Y-85654217D01*
X198882353Y-85476734D01*
X198881032Y-85474916D01*
X198765271Y-85315585D01*
X198765269Y-85315582D01*
X198681547Y-85231860D01*
X198627574Y-85151082D01*
X198608620Y-85055794D01*
X198627574Y-84960506D01*
X198681550Y-84879724D01*
X198762332Y-84825748D01*
X198770550Y-84822514D01*
X198807331Y-84808796D01*
X198922546Y-84722546D01*
X199008796Y-84607331D01*
X199059091Y-84472483D01*
X199065500Y-84412873D01*
X199065499Y-82787128D01*
X199059091Y-82727517D01*
X199008796Y-82592669D01*
X198922546Y-82477454D01*
X198807331Y-82391204D01*
X198727117Y-82361286D01*
X198672481Y-82340908D01*
X198612873Y-82334500D01*
X196987134Y-82334500D01*
X196987130Y-82334500D01*
X196987128Y-82334501D01*
X196974314Y-82335878D01*
X196927519Y-82340908D01*
X196927515Y-82340909D01*
X196792670Y-82391203D01*
X196677455Y-82477453D01*
X196677449Y-82477459D01*
X196598833Y-82582477D01*
X196526555Y-82647400D01*
X196434934Y-82679721D01*
X196337919Y-82674520D01*
X196250278Y-82632588D01*
X196185355Y-82560310D01*
X196153034Y-82468689D01*
X196150500Y-82433255D01*
X196150500Y-77704006D01*
X196169454Y-77608718D01*
X196223428Y-77527939D01*
X196913056Y-76838310D01*
X196993835Y-76784336D01*
X197089123Y-76765382D01*
X197092120Y-76765500D01*
X197100403Y-76765500D01*
X197299594Y-76765500D01*
X197299597Y-76765500D01*
X197299600Y-76765499D01*
X197299606Y-76765499D01*
X197398476Y-76749839D01*
X197496339Y-76734339D01*
X197685783Y-76672785D01*
X197863266Y-76582353D01*
X198024418Y-76465269D01*
X198165269Y-76324418D01*
X198282353Y-76163266D01*
X198372785Y-75985783D01*
X198434339Y-75796339D01*
X198465500Y-75599597D01*
X198465500Y-75400403D01*
X198465499Y-75400400D01*
X198465499Y-75400393D01*
X198434339Y-75203663D01*
X198434339Y-75203661D01*
X198372785Y-75014217D01*
X198282353Y-74836734D01*
X198165269Y-74675582D01*
X198024418Y-74534731D01*
X198024414Y-74534728D01*
X197888636Y-74436079D01*
X197822687Y-74364735D01*
X197789060Y-74273585D01*
X197792875Y-74176505D01*
X197833550Y-74088275D01*
X197888635Y-74033190D01*
X197903313Y-74022524D01*
X197333112Y-73452323D01*
X197396853Y-73435245D01*
X197513147Y-73368102D01*
X197608102Y-73273147D01*
X197675245Y-73156853D01*
X197692323Y-73093112D01*
X198262525Y-73663314D01*
X198288765Y-73627199D01*
X198288767Y-73627196D01*
X198379734Y-73448662D01*
X198379736Y-73448657D01*
X198441654Y-73258092D01*
X198472999Y-73060196D01*
X198473000Y-73060184D01*
X198473000Y-72859815D01*
X198472999Y-72859803D01*
X198441654Y-72661907D01*
X198379736Y-72471342D01*
X198379732Y-72471332D01*
X198288767Y-72292803D01*
X198288765Y-72292799D01*
X198262524Y-72256683D01*
X197692323Y-72826885D01*
X197675245Y-72763147D01*
X197608102Y-72646853D01*
X197513147Y-72551898D01*
X197396853Y-72484755D01*
X197333112Y-72467676D01*
X197903315Y-71897473D01*
X197888639Y-71886811D01*
X197822689Y-71815468D01*
X197789062Y-71724319D01*
X197792876Y-71627239D01*
X197833550Y-71539008D01*
X197888637Y-71483920D01*
X197907353Y-71470321D01*
X198024418Y-71385269D01*
X198165269Y-71244418D01*
X198282353Y-71083266D01*
X198372785Y-70905783D01*
X198434339Y-70716339D01*
X198465500Y-70519597D01*
X198465500Y-70320403D01*
X198465499Y-70320400D01*
X198465499Y-70320393D01*
X198434339Y-70123663D01*
X198434339Y-70123661D01*
X198372785Y-69934217D01*
X198282353Y-69756734D01*
X198165269Y-69595582D01*
X198024418Y-69454731D01*
X197882256Y-69351444D01*
X197862723Y-69330313D01*
X197840039Y-69312603D01*
X197830057Y-69294975D01*
X197816309Y-69280102D01*
X197806349Y-69253104D01*
X197792168Y-69228060D01*
X197789692Y-69207953D01*
X197782682Y-69188952D01*
X197783811Y-69160199D01*
X197780294Y-69131633D01*
X197785700Y-69112110D01*
X197786496Y-69091872D01*
X197798543Y-69065738D01*
X197806225Y-69038003D01*
X197817379Y-69024880D01*
X197827171Y-69003641D01*
X197866013Y-68961423D01*
X197873866Y-68954651D01*
X198024418Y-68845269D01*
X198165269Y-68704418D01*
X198167276Y-68701655D01*
X198179723Y-68690923D01*
X198214144Y-68671432D01*
X198247038Y-68649454D01*
X198256166Y-68647638D01*
X198264266Y-68643052D01*
X198303529Y-68638217D01*
X198342326Y-68630500D01*
X199593919Y-68630500D01*
X199593919Y-68630499D01*
X199738913Y-68601658D01*
X199825039Y-68565983D01*
X199875491Y-68545086D01*
X199875492Y-68545085D01*
X199875495Y-68545084D01*
X199924729Y-68512186D01*
X199998416Y-68462952D01*
X204597937Y-63863429D01*
X204678719Y-63809454D01*
X204774007Y-63790500D01*
X205117674Y-63790500D01*
X205212962Y-63809454D01*
G37*
G04 #@! TD.AperFunction*
G04 #@! TA.AperFunction,Conductor*
G36*
X196902944Y-87096083D02*
G01*
X196932277Y-87097236D01*
X196950142Y-87105471D01*
X196969438Y-87109310D01*
X197020509Y-87137910D01*
X197111362Y-87203919D01*
X197177310Y-87275261D01*
X197210937Y-87366411D01*
X197207123Y-87463491D01*
X197166449Y-87551722D01*
X197111359Y-87606811D01*
X197096683Y-87617472D01*
X197666887Y-88187676D01*
X197603147Y-88204755D01*
X197486853Y-88271898D01*
X197391898Y-88366853D01*
X197324755Y-88483147D01*
X197307676Y-88546887D01*
X196737473Y-87976684D01*
X196711234Y-88012800D01*
X196711233Y-88012802D01*
X196621361Y-88189187D01*
X196561213Y-88265485D01*
X196476445Y-88312957D01*
X196379964Y-88324376D01*
X196286457Y-88298005D01*
X196210159Y-88237857D01*
X196162687Y-88153089D01*
X196150500Y-88076144D01*
X196150500Y-87814007D01*
X196169454Y-87718719D01*
X196223430Y-87637938D01*
X196698080Y-87163287D01*
X196722487Y-87146978D01*
X196744047Y-87127049D01*
X196762504Y-87120239D01*
X196778862Y-87109310D01*
X196807655Y-87103582D01*
X196835197Y-87093422D01*
X196854853Y-87094194D01*
X196874150Y-87090356D01*
X196902944Y-87096083D01*
G37*
G04 #@! TD.AperFunction*
M02*
