M48
; DRILL file {KiCad 9.0.2} date 2025-06-03T09:35:51+0200
; FORMAT={-:-/ absolute / metric / decimal}
; #@! TF.CreationDate,2025-06-03T09:35:51+02:00
; #@! TF.GenerationSoftware,Kicad,Pcbnew,9.0.2
; #@! TF.FileFunction,MixedPlating,1,2
FMAT,2
METRIC
; #@! TA.AperFunction,Plated,PTH,ComponentDrill
T1C0.800
%
G90
G05
T1
X197.2Y-62.8
X197.2Y-65.34
X197.2Y-67.88
X197.2Y-70.42
X197.2Y-72.96
X197.2Y-75.5
X197.8Y-83.6
X197.8Y-86.14
X197.8Y-88.68
X197.8Y-91.22
X197.8Y-93.76
X197.8Y-96.3
X206.26Y-60.5
X206.26Y-63.04
X206.26Y-65.58
X206.26Y-68.12
X206.26Y-70.66
X206.26Y-73.2
X206.26Y-75.74
X206.26Y-78.28
X206.26Y-80.82
X206.26Y-83.36
X206.26Y-85.9
X206.26Y-88.44
X206.26Y-90.98
X206.26Y-93.52
X206.26Y-96.06
X221.5Y-60.5
X221.5Y-63.04
X221.5Y-65.58
X221.5Y-68.12
X221.5Y-70.66
X221.5Y-73.2
X221.5Y-75.74
X221.5Y-78.28
X221.5Y-80.82
X221.5Y-83.36
X221.5Y-85.9
X221.5Y-88.44
X221.5Y-90.98
X221.5Y-93.52
X221.5Y-96.06
X233.62Y-78.32
X233.62Y-80.86
X233.62Y-83.4
M30
