G04 #@! TF.GenerationSoftware,KiCad,Pcbnew,9.0.2*
G04 #@! TF.CreationDate,2025-05-20T14:27:34+02:00*
G04 #@! TF.ProjectId,Carte_Drone,43617274-655f-4447-926f-6e652e6b6963,rev?*
G04 #@! TF.SameCoordinates,Original*
G04 #@! TF.FileFunction,Copper,L2,Bot*
G04 #@! TF.FilePolarity,Positive*
%FSLAX46Y46*%
G04 Gerber Fmt 4.6, Leading zero omitted, Abs format (unit mm)*
G04 Created by KiCad (PCBNEW 9.0.2) date 2025-05-20 14:27:34*
%MOMM*%
%LPD*%
G01*
G04 APERTURE LIST*
%ADD10C,0.100000*%
G04 #@! TA.AperFunction,ComponentPad*
%ADD11R,1.530000X1.530000*%
G04 #@! TD*
G04 #@! TA.AperFunction,ComponentPad*
%ADD12C,1.530000*%
G04 #@! TD*
G04 #@! TA.AperFunction,ComponentPad*
%ADD13R,1.000000X1.000000*%
G04 #@! TD*
G04 #@! TA.AperFunction,ComponentPad*
%ADD14C,1.000000*%
G04 #@! TD*
G04 #@! TA.AperFunction,Conductor*
%ADD15C,0.500000*%
G04 #@! TD*
G04 #@! TA.AperFunction,Conductor*
%ADD16C,0.200000*%
G04 #@! TD*
G04 APERTURE END LIST*
D10*
G36*
X227854086Y-51875995D02*
G01*
X227877068Y-51921959D01*
X227877068Y-51992023D01*
X227619926Y-51940594D01*
X227619926Y-51921959D01*
X227642908Y-51875995D01*
X227688871Y-51853014D01*
X227808123Y-51853014D01*
X227854086Y-51875995D01*
G37*
G36*
X229183165Y-51879821D02*
G01*
X229207403Y-51904059D01*
X229234210Y-51957673D01*
X229234210Y-52148354D01*
X229207403Y-52201966D01*
X229183163Y-52226207D01*
X229129551Y-52253014D01*
X229046013Y-52253014D01*
X228992401Y-52226208D01*
X228968160Y-52201967D01*
X228941353Y-52148353D01*
X228941353Y-51957674D01*
X228968160Y-51904059D01*
X228992399Y-51879821D01*
X229046013Y-51853014D01*
X229129551Y-51853014D01*
X229183165Y-51879821D01*
G37*
G36*
X230412782Y-52253014D02*
G01*
X230292325Y-52253014D01*
X230204076Y-52223598D01*
X230146732Y-52166254D01*
X230117101Y-52106991D01*
X230084211Y-51975430D01*
X230084211Y-51880596D01*
X230117100Y-51749036D01*
X230146732Y-51689774D01*
X230204076Y-51632429D01*
X230292325Y-51603014D01*
X230412782Y-51603014D01*
X230412782Y-52253014D01*
G37*
G36*
X232068371Y-51875995D02*
G01*
X232091353Y-51921959D01*
X232091353Y-51992023D01*
X231834211Y-51940594D01*
X231834211Y-51921959D01*
X231857193Y-51875995D01*
X231903156Y-51853014D01*
X232022408Y-51853014D01*
X232068371Y-51875995D01*
G37*
G36*
X233076022Y-51879821D02*
G01*
X233100260Y-51904059D01*
X233127067Y-51957673D01*
X233127067Y-52148354D01*
X233100260Y-52201966D01*
X233076020Y-52226207D01*
X233022408Y-52253014D01*
X232938870Y-52253014D01*
X232885258Y-52226208D01*
X232861017Y-52201967D01*
X232834210Y-52148353D01*
X232834210Y-51957674D01*
X232861017Y-51904059D01*
X232885256Y-51879821D01*
X232938870Y-51853014D01*
X233022408Y-51853014D01*
X233076022Y-51879821D01*
G37*
G36*
X234305639Y-51895871D02*
G01*
X234081728Y-51895871D01*
X234028116Y-51869065D01*
X234003874Y-51844823D01*
X233977068Y-51791211D01*
X233977068Y-51707673D01*
X234003875Y-51654058D01*
X234028113Y-51629820D01*
X234081728Y-51603014D01*
X234305639Y-51603014D01*
X234305639Y-51895871D01*
G37*
G36*
X234488972Y-52686347D02*
G01*
X227436593Y-52686347D01*
X227436593Y-51910157D01*
X227519926Y-51910157D01*
X227519926Y-51981585D01*
X227521367Y-51988833D01*
X227520877Y-51991288D01*
X227522272Y-51993381D01*
X227523732Y-52000719D01*
X227534028Y-52011015D01*
X227542104Y-52023129D01*
X227549012Y-52025999D01*
X227550792Y-52027779D01*
X227553296Y-52027779D01*
X227560120Y-52030614D01*
X227877068Y-52094004D01*
X227877068Y-52184068D01*
X227854086Y-52230032D01*
X227808123Y-52253014D01*
X227688871Y-52253014D01*
X227628001Y-52222579D01*
X227609185Y-52217426D01*
X227572880Y-52229527D01*
X227555766Y-52263755D01*
X227567867Y-52300060D01*
X227583279Y-52312021D01*
X227654707Y-52347735D01*
X227657122Y-52348396D01*
X227657934Y-52349208D01*
X227665795Y-52350771D01*
X227673523Y-52352888D01*
X227674611Y-52352525D01*
X227677068Y-52353014D01*
X227819926Y-52353014D01*
X227822382Y-52352525D01*
X227823471Y-52352888D01*
X227831198Y-52350771D01*
X227839060Y-52349208D01*
X227839871Y-52348396D01*
X227842287Y-52347735D01*
X227913715Y-52312021D01*
X227921580Y-52305916D01*
X227924114Y-52305072D01*
X227926302Y-52302252D01*
X227929127Y-52300060D01*
X227929972Y-52297523D01*
X227936075Y-52289660D01*
X227971790Y-52218231D01*
X227972451Y-52215815D01*
X227973262Y-52215005D01*
X227974825Y-52207144D01*
X227976942Y-52199415D01*
X227976579Y-52198327D01*
X227977068Y-52195871D01*
X227977068Y-51910157D01*
X228198497Y-51910157D01*
X228198497Y-52303014D01*
X228202303Y-52322148D01*
X228229363Y-52349208D01*
X228267631Y-52349208D01*
X228294691Y-52322148D01*
X228298497Y-52303014D01*
X228298497Y-51921959D01*
X228321479Y-51875995D01*
X228367442Y-51853014D01*
X228450980Y-51853014D01*
X228504594Y-51879821D01*
X228519925Y-51895152D01*
X228519925Y-52303014D01*
X228523731Y-52322148D01*
X228550791Y-52349208D01*
X228589059Y-52349208D01*
X228616119Y-52322148D01*
X228619925Y-52303014D01*
X228619925Y-51945871D01*
X228841353Y-51945871D01*
X228841353Y-52160157D01*
X228841841Y-52162613D01*
X228841479Y-52163702D01*
X228843595Y-52171429D01*
X228845159Y-52179291D01*
X228845970Y-52180102D01*
X228846632Y-52182518D01*
X228882347Y-52253946D01*
X228887258Y-52260274D01*
X228891712Y-52266940D01*
X228927426Y-52302655D01*
X228934092Y-52307109D01*
X228940421Y-52312021D01*
X229011849Y-52347735D01*
X229014264Y-52348396D01*
X229015076Y-52349208D01*
X229022937Y-52350771D01*
X229030665Y-52352888D01*
X229031753Y-52352525D01*
X229034210Y-52353014D01*
X229141353Y-52353014D01*
X229143809Y-52352525D01*
X229144897Y-52352888D01*
X229152621Y-52350772D01*
X229160487Y-52349208D01*
X229161298Y-52348396D01*
X229163713Y-52347735D01*
X229235143Y-52312021D01*
X229241471Y-52307109D01*
X229248138Y-52302655D01*
X229283852Y-52266940D01*
X229288305Y-52260274D01*
X229293217Y-52253946D01*
X229328931Y-52182518D01*
X229329592Y-52180102D01*
X229330404Y-52179291D01*
X229331967Y-52171429D01*
X229334084Y-52163702D01*
X229333721Y-52162613D01*
X229334210Y-52160157D01*
X229334210Y-51945871D01*
X229333721Y-51943414D01*
X229334084Y-51942327D01*
X229331967Y-51934597D01*
X229330404Y-51926737D01*
X229329593Y-51925926D01*
X229328932Y-51923511D01*
X229293217Y-51852082D01*
X229288305Y-51845753D01*
X229283851Y-51839087D01*
X229248137Y-51803373D01*
X229241477Y-51798922D01*
X229235143Y-51794007D01*
X229214888Y-51783880D01*
X229452302Y-51783880D01*
X229452302Y-51822148D01*
X229479362Y-51849208D01*
X229498496Y-51853014D01*
X229558123Y-51853014D01*
X229611737Y-51879821D01*
X229635975Y-51904059D01*
X229662782Y-51957673D01*
X229662782Y-52303014D01*
X229666588Y-52322148D01*
X229693648Y-52349208D01*
X229731916Y-52349208D01*
X229758976Y-52322148D01*
X229762782Y-52303014D01*
X229762782Y-51874442D01*
X229984211Y-51874442D01*
X229984211Y-51981585D01*
X229985406Y-51987594D01*
X229985704Y-51993712D01*
X230021418Y-52136569D01*
X230023758Y-52141523D01*
X230025204Y-52146802D01*
X230060918Y-52218232D01*
X230065833Y-52224566D01*
X230070284Y-52231226D01*
X230141713Y-52302655D01*
X230143794Y-52304045D01*
X230144308Y-52305073D01*
X230151273Y-52309043D01*
X230157934Y-52313494D01*
X230159082Y-52313494D01*
X230161257Y-52314734D01*
X230268400Y-52350448D01*
X230276347Y-52351449D01*
X230284211Y-52353014D01*
X230462782Y-52353014D01*
X230481916Y-52349208D01*
X230508976Y-52322148D01*
X230512782Y-52303014D01*
X230512782Y-51783880D01*
X231238017Y-51783880D01*
X231238017Y-51822148D01*
X231265077Y-51849208D01*
X231284211Y-51853014D01*
X231412782Y-51853014D01*
X231412782Y-52184068D01*
X231389800Y-52230031D01*
X231343837Y-52253014D01*
X231284211Y-52253014D01*
X231265077Y-52256820D01*
X231238017Y-52283880D01*
X231238017Y-52322148D01*
X231265077Y-52349208D01*
X231284211Y-52353014D01*
X231355639Y-52353014D01*
X231358095Y-52352525D01*
X231359183Y-52352888D01*
X231366907Y-52350772D01*
X231374773Y-52349208D01*
X231375584Y-52348396D01*
X231377999Y-52347735D01*
X231449429Y-52312021D01*
X231457294Y-52305916D01*
X231459828Y-52305072D01*
X231462016Y-52302252D01*
X231464841Y-52300060D01*
X231465686Y-52297523D01*
X231471789Y-52289660D01*
X231507504Y-52218231D01*
X231508165Y-52215815D01*
X231508976Y-52215005D01*
X231510539Y-52207144D01*
X231512656Y-52199415D01*
X231512293Y-52198327D01*
X231512782Y-52195871D01*
X231512782Y-51910157D01*
X231734211Y-51910157D01*
X231734211Y-51981585D01*
X231735652Y-51988833D01*
X231735162Y-51991288D01*
X231736557Y-51993381D01*
X231738017Y-52000719D01*
X231748313Y-52011015D01*
X231756389Y-52023129D01*
X231763297Y-52025999D01*
X231765077Y-52027779D01*
X231767581Y-52027779D01*
X231774405Y-52030614D01*
X232091353Y-52094004D01*
X232091353Y-52184068D01*
X232068371Y-52230032D01*
X232022408Y-52253014D01*
X231903156Y-52253014D01*
X231842286Y-52222579D01*
X231823470Y-52217426D01*
X231787165Y-52229527D01*
X231770051Y-52263755D01*
X231782152Y-52300060D01*
X231797564Y-52312021D01*
X231868992Y-52347735D01*
X231871407Y-52348396D01*
X231872219Y-52349208D01*
X231880080Y-52350771D01*
X231887808Y-52352888D01*
X231888896Y-52352525D01*
X231891353Y-52353014D01*
X232034211Y-52353014D01*
X232036667Y-52352525D01*
X232037756Y-52352888D01*
X232045483Y-52350771D01*
X232053345Y-52349208D01*
X232054156Y-52348396D01*
X232056572Y-52347735D01*
X232128000Y-52312021D01*
X232135865Y-52305916D01*
X232138399Y-52305072D01*
X232140587Y-52302252D01*
X232143412Y-52300060D01*
X232144257Y-52297523D01*
X232150360Y-52289660D01*
X232186075Y-52218231D01*
X232186736Y-52215815D01*
X232187547Y-52215005D01*
X232189110Y-52207144D01*
X232191227Y-52199415D01*
X232190864Y-52198327D01*
X232191353Y-52195871D01*
X232191353Y-51910157D01*
X232190864Y-51907700D01*
X232191227Y-51906613D01*
X232189110Y-51898883D01*
X232187547Y-51891023D01*
X232186736Y-51890212D01*
X232186075Y-51887797D01*
X232150360Y-51816368D01*
X232144257Y-51808504D01*
X232143412Y-51805968D01*
X232140587Y-51803775D01*
X232139996Y-51803014D01*
X232412782Y-51803014D01*
X232412782Y-52445871D01*
X232413270Y-52448327D01*
X232412908Y-52449415D01*
X232415023Y-52457139D01*
X232416588Y-52465005D01*
X232417399Y-52465816D01*
X232418061Y-52468231D01*
X232453775Y-52539661D01*
X232459879Y-52547526D01*
X232460724Y-52550060D01*
X232463543Y-52552248D01*
X232465736Y-52555073D01*
X232468272Y-52555918D01*
X232476136Y-52562021D01*
X232547565Y-52597736D01*
X232549980Y-52598397D01*
X232550791Y-52599208D01*
X232558651Y-52600771D01*
X232566381Y-52602888D01*
X232567468Y-52602525D01*
X232569925Y-52603014D01*
X232605639Y-52603014D01*
X232624773Y-52599208D01*
X232651833Y-52572148D01*
X232651833Y-52533880D01*
X232624773Y-52506820D01*
X232605639Y-52503014D01*
X232581728Y-52503014D01*
X232535764Y-52480032D01*
X232512782Y-52434068D01*
X232512782Y-51945871D01*
X232734210Y-51945871D01*
X232734210Y-52160157D01*
X232734698Y-52162613D01*
X232734336Y-52163702D01*
X232736452Y-52171429D01*
X232738016Y-52179291D01*
X232738827Y-52180102D01*
X232739489Y-52182518D01*
X232775204Y-52253946D01*
X232780115Y-52260274D01*
X232784569Y-52266940D01*
X232820283Y-52302655D01*
X232826949Y-52307109D01*
X232833278Y-52312021D01*
X232904706Y-52347735D01*
X232907121Y-52348396D01*
X232907933Y-52349208D01*
X232915794Y-52350771D01*
X232923522Y-52352888D01*
X232924610Y-52352525D01*
X232927067Y-52353014D01*
X233034210Y-52353014D01*
X233036666Y-52352525D01*
X233037754Y-52352888D01*
X233045478Y-52350772D01*
X233053344Y-52349208D01*
X233054155Y-52348396D01*
X233056570Y-52347735D01*
X233128000Y-52312021D01*
X233134328Y-52307109D01*
X233140995Y-52302655D01*
X233176709Y-52266940D01*
X233181162Y-52260274D01*
X233186074Y-52253946D01*
X233221788Y-52182518D01*
X233222449Y-52180102D01*
X233223261Y-52179291D01*
X233224824Y-52171429D01*
X233226941Y-52163702D01*
X233226578Y-52162613D01*
X233227067Y-52160157D01*
X233227067Y-51945871D01*
X233226578Y-51943414D01*
X233226941Y-51942327D01*
X233224824Y-51934597D01*
X233223261Y-51926737D01*
X233222450Y-51925926D01*
X233221789Y-51923511D01*
X233186074Y-51852082D01*
X233181162Y-51845753D01*
X233176708Y-51839087D01*
X233140994Y-51803373D01*
X233134334Y-51798922D01*
X233128000Y-51794007D01*
X233107745Y-51783880D01*
X233345159Y-51783880D01*
X233345159Y-51822148D01*
X233372219Y-51849208D01*
X233391353Y-51853014D01*
X233450980Y-51853014D01*
X233504594Y-51879821D01*
X233528832Y-51904059D01*
X233555639Y-51957673D01*
X233555639Y-52303014D01*
X233559445Y-52322148D01*
X233586505Y-52349208D01*
X233624773Y-52349208D01*
X233651833Y-52322148D01*
X233655639Y-52303014D01*
X233655639Y-51803014D01*
X233651833Y-51783880D01*
X233624773Y-51756820D01*
X233586505Y-51756820D01*
X233559445Y-51783880D01*
X233557315Y-51794584D01*
X233556572Y-51794007D01*
X233485142Y-51758293D01*
X233482727Y-51757631D01*
X233481916Y-51756820D01*
X233474050Y-51755255D01*
X233466326Y-51753140D01*
X233465238Y-51753502D01*
X233462782Y-51753014D01*
X233391353Y-51753014D01*
X233372219Y-51756820D01*
X233345159Y-51783880D01*
X233107745Y-51783880D01*
X233056570Y-51758293D01*
X233054155Y-51757631D01*
X233053344Y-51756820D01*
X233045478Y-51755255D01*
X233037754Y-51753140D01*
X233036666Y-51753502D01*
X233034210Y-51753014D01*
X232927067Y-51753014D01*
X232924610Y-51753502D01*
X232923522Y-51753140D01*
X232915794Y-51755256D01*
X232907933Y-51756820D01*
X232907121Y-51757631D01*
X232904706Y-51758293D01*
X232833278Y-51794007D01*
X232826943Y-51798922D01*
X232820284Y-51803373D01*
X232784570Y-51839087D01*
X232780117Y-51845749D01*
X232775204Y-51852081D01*
X232739489Y-51923510D01*
X232738827Y-51925925D01*
X232738016Y-51926737D01*
X232736452Y-51934598D01*
X232734336Y-51942326D01*
X232734698Y-51943414D01*
X232734210Y-51945871D01*
X232512782Y-51945871D01*
X232512782Y-51803014D01*
X232508976Y-51783880D01*
X232481916Y-51756820D01*
X232443648Y-51756820D01*
X232416588Y-51783880D01*
X232412782Y-51803014D01*
X232139996Y-51803014D01*
X232138399Y-51800956D01*
X232135865Y-51800111D01*
X232128000Y-51794007D01*
X232056572Y-51758293D01*
X232054156Y-51757631D01*
X232053345Y-51756820D01*
X232045483Y-51755256D01*
X232037756Y-51753140D01*
X232036667Y-51753502D01*
X232034211Y-51753014D01*
X231891353Y-51753014D01*
X231888896Y-51753502D01*
X231887808Y-51753140D01*
X231880080Y-51755256D01*
X231872219Y-51756820D01*
X231871407Y-51757631D01*
X231868992Y-51758293D01*
X231797564Y-51794007D01*
X231789700Y-51800109D01*
X231787165Y-51800955D01*
X231784974Y-51803777D01*
X231782152Y-51805968D01*
X231781306Y-51808503D01*
X231775204Y-51816367D01*
X231739490Y-51887797D01*
X231738828Y-51890211D01*
X231738017Y-51891023D01*
X231736452Y-51898888D01*
X231734337Y-51906613D01*
X231734699Y-51907700D01*
X231734211Y-51910157D01*
X231512782Y-51910157D01*
X231512782Y-51853014D01*
X231569925Y-51853014D01*
X231589059Y-51849208D01*
X231616119Y-51822148D01*
X231616119Y-51783880D01*
X231589059Y-51756820D01*
X231569925Y-51753014D01*
X231512782Y-51753014D01*
X231512782Y-51695871D01*
X233877068Y-51695871D01*
X233877068Y-51803014D01*
X233877556Y-51805470D01*
X233877194Y-51806559D01*
X233879310Y-51814286D01*
X233880874Y-51822148D01*
X233881685Y-51822959D01*
X233882347Y-51825375D01*
X233918061Y-51896803D01*
X233922972Y-51903131D01*
X233927426Y-51909797D01*
X233963140Y-51945512D01*
X233969814Y-51949971D01*
X233976136Y-51954878D01*
X234047565Y-51990593D01*
X234049980Y-51991254D01*
X234050791Y-51992065D01*
X234058651Y-51993628D01*
X234066381Y-51995745D01*
X234067468Y-51995382D01*
X234069925Y-51995871D01*
X234305639Y-51995871D01*
X234305639Y-52303014D01*
X234309445Y-52322148D01*
X234336505Y-52349208D01*
X234374773Y-52349208D01*
X234401833Y-52322148D01*
X234405639Y-52303014D01*
X234405639Y-51553014D01*
X234401833Y-51533880D01*
X234374773Y-51506820D01*
X234355639Y-51503014D01*
X234069925Y-51503014D01*
X234067468Y-51503502D01*
X234066381Y-51503140D01*
X234058651Y-51505256D01*
X234050791Y-51506820D01*
X234049980Y-51507630D01*
X234047565Y-51508292D01*
X233976136Y-51544007D01*
X233969807Y-51548918D01*
X233963141Y-51553373D01*
X233927427Y-51589087D01*
X233922976Y-51595746D01*
X233918061Y-51602081D01*
X233882347Y-51673511D01*
X233881685Y-51675925D01*
X233880874Y-51676737D01*
X233879309Y-51684602D01*
X233877194Y-51692327D01*
X233877556Y-51693414D01*
X233877068Y-51695871D01*
X231512782Y-51695871D01*
X231512782Y-51569594D01*
X232380874Y-51569594D01*
X232380874Y-51607862D01*
X232391713Y-51624083D01*
X232427427Y-51659797D01*
X232443648Y-51670636D01*
X232481916Y-51670636D01*
X232498137Y-51659797D01*
X232533851Y-51624083D01*
X232544690Y-51607862D01*
X232544690Y-51569594D01*
X232533851Y-51553373D01*
X232498137Y-51517659D01*
X232481916Y-51506820D01*
X232443648Y-51506820D01*
X232427427Y-51517659D01*
X232391713Y-51553373D01*
X232380874Y-51569594D01*
X231512782Y-51569594D01*
X231512782Y-51553014D01*
X231508976Y-51533880D01*
X231481916Y-51506820D01*
X231443648Y-51506820D01*
X231416588Y-51533880D01*
X231412782Y-51553014D01*
X231412782Y-51753014D01*
X231284211Y-51753014D01*
X231265077Y-51756820D01*
X231238017Y-51783880D01*
X230512782Y-51783880D01*
X230512782Y-51553014D01*
X230508976Y-51533880D01*
X230481916Y-51506820D01*
X230462782Y-51503014D01*
X230284211Y-51503014D01*
X230276347Y-51504578D01*
X230268400Y-51505580D01*
X230161257Y-51541294D01*
X230159082Y-51542534D01*
X230157934Y-51542534D01*
X230151273Y-51546984D01*
X230144308Y-51550955D01*
X230143794Y-51551982D01*
X230141713Y-51553373D01*
X230070284Y-51624802D01*
X230065833Y-51631461D01*
X230060918Y-51637796D01*
X230025204Y-51709224D01*
X230023757Y-51714505D01*
X230021418Y-51719458D01*
X229985704Y-51862315D01*
X229985406Y-51868432D01*
X229984211Y-51874442D01*
X229762782Y-51874442D01*
X229762782Y-51803014D01*
X229758976Y-51783880D01*
X229731916Y-51756820D01*
X229693648Y-51756820D01*
X229666588Y-51783880D01*
X229664458Y-51794584D01*
X229663715Y-51794007D01*
X229592285Y-51758293D01*
X229589870Y-51757631D01*
X229589059Y-51756820D01*
X229581193Y-51755255D01*
X229573469Y-51753140D01*
X229572381Y-51753502D01*
X229569925Y-51753014D01*
X229498496Y-51753014D01*
X229479362Y-51756820D01*
X229452302Y-51783880D01*
X229214888Y-51783880D01*
X229163713Y-51758293D01*
X229161298Y-51757631D01*
X229160487Y-51756820D01*
X229152621Y-51755255D01*
X229144897Y-51753140D01*
X229143809Y-51753502D01*
X229141353Y-51753014D01*
X229034210Y-51753014D01*
X229031753Y-51753502D01*
X229030665Y-51753140D01*
X229022937Y-51755256D01*
X229015076Y-51756820D01*
X229014264Y-51757631D01*
X229011849Y-51758293D01*
X228940421Y-51794007D01*
X228934086Y-51798922D01*
X228927427Y-51803373D01*
X228891713Y-51839087D01*
X228887260Y-51845749D01*
X228882347Y-51852081D01*
X228846632Y-51923510D01*
X228845970Y-51925925D01*
X228845159Y-51926737D01*
X228843595Y-51934598D01*
X228841479Y-51942326D01*
X228841841Y-51943414D01*
X228841353Y-51945871D01*
X228619925Y-51945871D01*
X228619925Y-51803014D01*
X228616119Y-51783880D01*
X228589059Y-51756820D01*
X228550791Y-51756820D01*
X228527926Y-51779684D01*
X228485142Y-51758293D01*
X228482727Y-51757631D01*
X228481916Y-51756820D01*
X228474050Y-51755255D01*
X228466326Y-51753140D01*
X228465238Y-51753502D01*
X228462782Y-51753014D01*
X228355639Y-51753014D01*
X228353182Y-51753502D01*
X228352094Y-51753140D01*
X228344366Y-51755256D01*
X228336505Y-51756820D01*
X228335693Y-51757631D01*
X228333278Y-51758293D01*
X228261850Y-51794007D01*
X228253986Y-51800109D01*
X228251451Y-51800955D01*
X228249260Y-51803777D01*
X228246438Y-51805968D01*
X228245592Y-51808503D01*
X228239490Y-51816367D01*
X228203776Y-51887797D01*
X228203114Y-51890211D01*
X228202303Y-51891023D01*
X228200738Y-51898888D01*
X228198623Y-51906613D01*
X228198985Y-51907700D01*
X228198497Y-51910157D01*
X227977068Y-51910157D01*
X227976579Y-51907700D01*
X227976942Y-51906613D01*
X227974825Y-51898883D01*
X227973262Y-51891023D01*
X227972451Y-51890212D01*
X227971790Y-51887797D01*
X227936075Y-51816368D01*
X227929972Y-51808504D01*
X227929127Y-51805968D01*
X227926302Y-51803775D01*
X227924114Y-51800956D01*
X227921580Y-51800111D01*
X227913715Y-51794007D01*
X227842287Y-51758293D01*
X227839871Y-51757631D01*
X227839060Y-51756820D01*
X227831198Y-51755256D01*
X227823471Y-51753140D01*
X227822382Y-51753502D01*
X227819926Y-51753014D01*
X227677068Y-51753014D01*
X227674611Y-51753502D01*
X227673523Y-51753140D01*
X227665795Y-51755256D01*
X227657934Y-51756820D01*
X227657122Y-51757631D01*
X227654707Y-51758293D01*
X227583279Y-51794007D01*
X227575415Y-51800109D01*
X227572880Y-51800955D01*
X227570689Y-51803777D01*
X227567867Y-51805968D01*
X227567021Y-51808503D01*
X227560919Y-51816367D01*
X227525205Y-51887797D01*
X227524543Y-51890211D01*
X227523732Y-51891023D01*
X227522167Y-51898888D01*
X227520052Y-51906613D01*
X227520414Y-51907700D01*
X227519926Y-51910157D01*
X227436593Y-51910157D01*
X227436593Y-51419681D01*
X234488972Y-51419681D01*
X234488972Y-52686347D01*
G37*
D11*
X221500000Y-60500000D03*
D12*
X221500000Y-63040000D03*
X221500000Y-65580000D03*
X221500000Y-68120000D03*
X221500000Y-70660000D03*
X221500000Y-73200000D03*
X221500000Y-75740000D03*
X221500000Y-78280000D03*
X221500000Y-80820000D03*
X221500000Y-83360000D03*
X221500000Y-85900000D03*
X221500000Y-88440000D03*
X221500000Y-90980000D03*
X221500000Y-93520000D03*
X221500000Y-96060000D03*
X206260000Y-96060000D03*
X206260000Y-93520000D03*
X206260000Y-90980000D03*
X206260000Y-88440000D03*
X206260000Y-85900000D03*
X206260000Y-83360000D03*
X206260000Y-80820000D03*
X206260000Y-78280000D03*
X206260000Y-75740000D03*
X206260000Y-73200000D03*
X206260000Y-70660000D03*
X206260000Y-68120000D03*
X206260000Y-65580000D03*
X206260000Y-63040000D03*
D11*
X206260000Y-60500000D03*
D13*
X197500000Y-72000000D03*
D14*
X197500000Y-73270000D03*
X197500000Y-74540000D03*
X197500000Y-75810000D03*
X197500000Y-77080000D03*
X197500000Y-78350000D03*
D13*
X233500000Y-80500000D03*
D14*
X233500000Y-81770000D03*
X233500000Y-83040000D03*
D13*
X197500000Y-92500000D03*
D14*
X197500000Y-93770000D03*
X197500000Y-95040000D03*
X197500000Y-96310000D03*
X197500000Y-97580000D03*
X197500000Y-98850000D03*
D15*
X234770000Y-81770000D02*
X233500000Y-81770000D01*
X235249000Y-90200000D02*
X235249000Y-82249000D01*
X235249000Y-82249000D02*
X234770000Y-81770000D01*
X231929000Y-93520000D02*
X235249000Y-90200000D01*
X221500000Y-93520000D02*
X231929000Y-93520000D01*
X211539232Y-63040000D02*
X229240000Y-63040000D01*
X201000000Y-73579232D02*
X211539232Y-63040000D01*
X199760000Y-95040000D02*
X201000000Y-93800000D01*
X197500000Y-95040000D02*
X199760000Y-95040000D01*
X201000000Y-93800000D02*
X201000000Y-73579232D01*
X204060000Y-75740000D02*
X206260000Y-75740000D01*
X203200000Y-76600000D02*
X204060000Y-75740000D01*
X203200000Y-94800000D02*
X203200000Y-76600000D01*
X201690000Y-96310000D02*
X203200000Y-94800000D01*
X197500000Y-96310000D02*
X201690000Y-96310000D01*
X199920000Y-77080000D02*
X200890000Y-76110000D01*
X197500000Y-77080000D02*
X199920000Y-77080000D01*
X196230000Y-93770000D02*
X195600000Y-94400000D01*
X197500000Y-93770000D02*
X196230000Y-93770000D01*
X195600000Y-94400000D02*
X195600000Y-79200000D01*
X195600000Y-99400000D02*
X195600000Y-94400000D01*
X196800000Y-100600000D02*
X195600000Y-99400000D01*
X195600000Y-79200000D02*
X196450000Y-78350000D01*
X214420000Y-100600000D02*
X196800000Y-100600000D01*
X196450000Y-78350000D02*
X197500000Y-78350000D01*
X221500000Y-93520000D02*
X214420000Y-100600000D01*
X233500000Y-67300000D02*
X229240000Y-63040000D01*
X233500000Y-80500000D02*
X233500000Y-67300000D01*
X221500000Y-83360000D02*
X233180000Y-83360000D01*
X195251000Y-72851000D02*
X195800000Y-73400000D01*
X195800000Y-73400000D02*
X197400000Y-73400000D01*
X197700000Y-60500000D02*
X195251000Y-62949000D01*
X206260000Y-60500000D02*
X197700000Y-60500000D01*
X195251000Y-62949000D02*
X195251000Y-72851000D01*
D16*
X200400000Y-96310000D02*
X197500000Y-96310000D01*
X195200000Y-63000000D02*
X195200000Y-63200000D01*
X197500000Y-95040000D02*
X198360000Y-95040000D01*
D15*
X210400000Y-96180000D02*
X209000000Y-97580000D01*
X210400000Y-80000000D02*
X210400000Y-96180000D01*
X208680000Y-78280000D02*
X210400000Y-80000000D01*
X206260000Y-78280000D02*
X208680000Y-78280000D01*
X209000000Y-97580000D02*
X197500000Y-97580000D01*
X203760000Y-63040000D02*
X206260000Y-63040000D01*
X202200000Y-64600000D02*
X203760000Y-63040000D01*
X202200000Y-71000000D02*
X202200000Y-64600000D01*
X198660000Y-74540000D02*
X202200000Y-71000000D01*
X197500000Y-74540000D02*
X198660000Y-74540000D01*
G04 #@! TA.AperFunction,Conductor*
G36*
X235345788Y-50519454D02*
G01*
X235426570Y-50573430D01*
X235480546Y-50654212D01*
X235499500Y-50749500D01*
X235499500Y-80889393D01*
X235480546Y-80984681D01*
X235426570Y-81065463D01*
X235345788Y-81119439D01*
X235250500Y-81138393D01*
X235155212Y-81119439D01*
X235133132Y-81108996D01*
X235125501Y-81104918D01*
X234988914Y-81048342D01*
X234988911Y-81048341D01*
X234843920Y-81019500D01*
X234843918Y-81019500D01*
X234757000Y-81019500D01*
X234661712Y-81000546D01*
X234580930Y-80946570D01*
X234526954Y-80865788D01*
X234508000Y-80770500D01*
X234508000Y-80754001D01*
X234507999Y-80754000D01*
X233740975Y-80754000D01*
X233780070Y-80714905D01*
X233826148Y-80635095D01*
X233850000Y-80546078D01*
X233850000Y-80453922D01*
X233826148Y-80364905D01*
X233780070Y-80285095D01*
X233714905Y-80219930D01*
X233635095Y-80173852D01*
X233546078Y-80150000D01*
X233453922Y-80150000D01*
X233364905Y-80173852D01*
X233285095Y-80219930D01*
X233219930Y-80285095D01*
X233173852Y-80364905D01*
X233150000Y-80453922D01*
X233150000Y-80546078D01*
X233173852Y-80635095D01*
X233219930Y-80714905D01*
X233259025Y-80754000D01*
X232492001Y-80754000D01*
X232492000Y-80754001D01*
X232492000Y-81048593D01*
X232498504Y-81109092D01*
X232555390Y-81261609D01*
X232570930Y-81357513D01*
X232552137Y-81443908D01*
X232537950Y-81478158D01*
X232537948Y-81478167D01*
X232499500Y-81671454D01*
X232499500Y-81868545D01*
X232537947Y-82061830D01*
X232537949Y-82061835D01*
X232618049Y-82255216D01*
X232616774Y-82255743D01*
X232641148Y-82336104D01*
X232631621Y-82432790D01*
X232585819Y-82518472D01*
X232510715Y-82580103D01*
X232417742Y-82608302D01*
X232393346Y-82609500D01*
X222642326Y-82609500D01*
X222603529Y-82601782D01*
X222564266Y-82596948D01*
X222557133Y-82592554D01*
X222547038Y-82590546D01*
X222479723Y-82549077D01*
X222467276Y-82538344D01*
X222465269Y-82535582D01*
X222324418Y-82394731D01*
X222173866Y-82285348D01*
X222166013Y-82278577D01*
X222142376Y-82248302D01*
X222116309Y-82220102D01*
X222112679Y-82210264D01*
X222106225Y-82201997D01*
X222095972Y-82164976D01*
X222082682Y-82128952D01*
X222083093Y-82118475D01*
X222080294Y-82108367D01*
X222084988Y-82070243D01*
X222086496Y-82031872D01*
X222090886Y-82022348D01*
X222092168Y-82011940D01*
X222111091Y-81978519D01*
X222127171Y-81943641D01*
X222135632Y-81935179D01*
X222140039Y-81927397D01*
X222155435Y-81915376D01*
X222182257Y-81888555D01*
X222324418Y-81785269D01*
X222465269Y-81644418D01*
X222582353Y-81483266D01*
X222672785Y-81305783D01*
X222734339Y-81116339D01*
X222765500Y-80919597D01*
X222765500Y-80720403D01*
X222765499Y-80720400D01*
X222765499Y-80720393D01*
X222745298Y-80592857D01*
X222734339Y-80523661D01*
X222672785Y-80334217D01*
X222582353Y-80156734D01*
X222577460Y-80150000D01*
X222534667Y-80091100D01*
X222465271Y-79995585D01*
X222465269Y-79995582D01*
X222421093Y-79951406D01*
X232492000Y-79951406D01*
X232492000Y-80245999D01*
X232492001Y-80246000D01*
X233245999Y-80246000D01*
X233246000Y-80245999D01*
X233246000Y-79492001D01*
X233754000Y-79492001D01*
X233754000Y-80245999D01*
X233754001Y-80246000D01*
X234507999Y-80246000D01*
X234508000Y-80245999D01*
X234508000Y-79951412D01*
X234507999Y-79951406D01*
X234501495Y-79890907D01*
X234450445Y-79754037D01*
X234362906Y-79637099D01*
X234362900Y-79637093D01*
X234245962Y-79549554D01*
X234109092Y-79498504D01*
X234048593Y-79492000D01*
X233754001Y-79492000D01*
X233754000Y-79492001D01*
X233246000Y-79492001D01*
X233245999Y-79492000D01*
X232951406Y-79492000D01*
X232890907Y-79498504D01*
X232754037Y-79549554D01*
X232637099Y-79637093D01*
X232637093Y-79637099D01*
X232549554Y-79754037D01*
X232498504Y-79890907D01*
X232492000Y-79951406D01*
X222421093Y-79951406D01*
X222324418Y-79854731D01*
X222182256Y-79751444D01*
X222116309Y-79680102D01*
X222082682Y-79588952D01*
X222086496Y-79491872D01*
X222127171Y-79403641D01*
X222182257Y-79348555D01*
X222232499Y-79312052D01*
X222324418Y-79245269D01*
X222465269Y-79104418D01*
X222582353Y-78943266D01*
X222672785Y-78765783D01*
X222734339Y-78576339D01*
X222754580Y-78448541D01*
X222765499Y-78379606D01*
X222765500Y-78379594D01*
X222765500Y-78180405D01*
X222765499Y-78180393D01*
X222734339Y-77983663D01*
X222734339Y-77983661D01*
X222672785Y-77794217D01*
X222582353Y-77616734D01*
X222581032Y-77614916D01*
X222465271Y-77455585D01*
X222465269Y-77455582D01*
X222324418Y-77314731D01*
X222182256Y-77211444D01*
X222116309Y-77140102D01*
X222082682Y-77048952D01*
X222086496Y-76951872D01*
X222127171Y-76863641D01*
X222182257Y-76808555D01*
X222324418Y-76705269D01*
X222465269Y-76564418D01*
X222582353Y-76403266D01*
X222672785Y-76225783D01*
X222734339Y-76036339D01*
X222754580Y-75908541D01*
X222765499Y-75839606D01*
X222765500Y-75839594D01*
X222765500Y-75640405D01*
X222765499Y-75640393D01*
X222745298Y-75512857D01*
X222734339Y-75443661D01*
X222672785Y-75254217D01*
X222582353Y-75076734D01*
X222581032Y-75074916D01*
X222465271Y-74915585D01*
X222465269Y-74915582D01*
X222324418Y-74774731D01*
X222182256Y-74671444D01*
X222116309Y-74600102D01*
X222082682Y-74508952D01*
X222086496Y-74411872D01*
X222127171Y-74323641D01*
X222182257Y-74268555D01*
X222324418Y-74165269D01*
X222465269Y-74024418D01*
X222582353Y-73863266D01*
X222672785Y-73685783D01*
X222734339Y-73496339D01*
X222765115Y-73302028D01*
X222765499Y-73299606D01*
X222765500Y-73299594D01*
X222765500Y-73100405D01*
X222765499Y-73100393D01*
X222734339Y-72903663D01*
X222734339Y-72903661D01*
X222672785Y-72714217D01*
X222582353Y-72536734D01*
X222465269Y-72375582D01*
X222324418Y-72234731D01*
X222182256Y-72131444D01*
X222116309Y-72060102D01*
X222082682Y-71968952D01*
X222086496Y-71871872D01*
X222127171Y-71783641D01*
X222182257Y-71728555D01*
X222324418Y-71625269D01*
X222465269Y-71484418D01*
X222582353Y-71323266D01*
X222672785Y-71145783D01*
X222734339Y-70956339D01*
X222765500Y-70759597D01*
X222765500Y-70560403D01*
X222765499Y-70560400D01*
X222765499Y-70560393D01*
X222734339Y-70363663D01*
X222734339Y-70363661D01*
X222672785Y-70174217D01*
X222582353Y-69996734D01*
X222465269Y-69835582D01*
X222324418Y-69694731D01*
X222324412Y-69694727D01*
X222182257Y-69591445D01*
X222116309Y-69520102D01*
X222082682Y-69428952D01*
X222086496Y-69331872D01*
X222127171Y-69243641D01*
X222182257Y-69188555D01*
X222190558Y-69182524D01*
X222324418Y-69085269D01*
X222465269Y-68944418D01*
X222582353Y-68783266D01*
X222672785Y-68605783D01*
X222734339Y-68416339D01*
X222750778Y-68312543D01*
X222765499Y-68219606D01*
X222765500Y-68219594D01*
X222765500Y-68020405D01*
X222765499Y-68020393D01*
X222734339Y-67823663D01*
X222734339Y-67823661D01*
X222672785Y-67634217D01*
X222582353Y-67456734D01*
X222579496Y-67452802D01*
X222465271Y-67295585D01*
X222465269Y-67295582D01*
X222324418Y-67154731D01*
X222182256Y-67051444D01*
X222116309Y-66980102D01*
X222082682Y-66888952D01*
X222086496Y-66791872D01*
X222127171Y-66703641D01*
X222182257Y-66648555D01*
X222324418Y-66545269D01*
X222465269Y-66404418D01*
X222582353Y-66243266D01*
X222672785Y-66065783D01*
X222734339Y-65876339D01*
X222765500Y-65679597D01*
X222765500Y-65480403D01*
X222765499Y-65480400D01*
X222765499Y-65480393D01*
X222734339Y-65283663D01*
X222734339Y-65283661D01*
X222672785Y-65094217D01*
X222582353Y-64916734D01*
X222578090Y-64910867D01*
X222465271Y-64755585D01*
X222465269Y-64755582D01*
X222324418Y-64614731D01*
X222324414Y-64614728D01*
X222188636Y-64516079D01*
X222122687Y-64444735D01*
X222089060Y-64353585D01*
X222092875Y-64256505D01*
X222133550Y-64168275D01*
X222188635Y-64113190D01*
X222203313Y-64102524D01*
X221633112Y-63532323D01*
X221696853Y-63515245D01*
X221813147Y-63448102D01*
X221908102Y-63353147D01*
X221975245Y-63236853D01*
X221992323Y-63173112D01*
X222562525Y-63743314D01*
X222588765Y-63707199D01*
X222588767Y-63707196D01*
X222679734Y-63528662D01*
X222679736Y-63528657D01*
X222741654Y-63338092D01*
X222772999Y-63140196D01*
X222773000Y-63140184D01*
X222773000Y-62939815D01*
X222772999Y-62939803D01*
X222741654Y-62741907D01*
X222679736Y-62551342D01*
X222679732Y-62551332D01*
X222588767Y-62372803D01*
X222588765Y-62372799D01*
X222562524Y-62336683D01*
X221992323Y-62906885D01*
X221975245Y-62843147D01*
X221908102Y-62726853D01*
X221813147Y-62631898D01*
X221696853Y-62564755D01*
X221633112Y-62547676D01*
X222211439Y-61969349D01*
X222217594Y-61917347D01*
X222265066Y-61832579D01*
X222341363Y-61772430D01*
X222367393Y-61760989D01*
X222372481Y-61759091D01*
X222372483Y-61759091D01*
X222507331Y-61708796D01*
X222622546Y-61622546D01*
X222708796Y-61507331D01*
X222759091Y-61372483D01*
X222765500Y-61312873D01*
X222765499Y-59687128D01*
X222759091Y-59627517D01*
X222708796Y-59492669D01*
X222622546Y-59377454D01*
X222507331Y-59291204D01*
X222427117Y-59261286D01*
X222372481Y-59240908D01*
X222312873Y-59234500D01*
X220687134Y-59234500D01*
X220687130Y-59234500D01*
X220687128Y-59234501D01*
X220674314Y-59235878D01*
X220627519Y-59240908D01*
X220627515Y-59240909D01*
X220492670Y-59291203D01*
X220377455Y-59377453D01*
X220377453Y-59377455D01*
X220291204Y-59492669D01*
X220240908Y-59627518D01*
X220234500Y-59687123D01*
X220234500Y-61312865D01*
X220234500Y-61312868D01*
X220234501Y-61312872D01*
X220235636Y-61323430D01*
X220240908Y-61372480D01*
X220240909Y-61372484D01*
X220291203Y-61507329D01*
X220291204Y-61507331D01*
X220377454Y-61622546D01*
X220492669Y-61708796D01*
X220627517Y-61759091D01*
X220627518Y-61759091D01*
X220632604Y-61760988D01*
X220715261Y-61812046D01*
X220772087Y-61890849D01*
X220791279Y-61972068D01*
X221366887Y-62547676D01*
X221303147Y-62564755D01*
X221186853Y-62631898D01*
X221091898Y-62726853D01*
X221024755Y-62843147D01*
X221007676Y-62906887D01*
X220437473Y-62336684D01*
X220411234Y-62372800D01*
X220411233Y-62372802D01*
X220320265Y-62551337D01*
X220320263Y-62551342D01*
X220258345Y-62741907D01*
X220227000Y-62939803D01*
X220227000Y-63140196D01*
X220258345Y-63338092D01*
X220320263Y-63528657D01*
X220320267Y-63528667D01*
X220411232Y-63707196D01*
X220411233Y-63707198D01*
X220437473Y-63743314D01*
X221007676Y-63173112D01*
X221024755Y-63236853D01*
X221091898Y-63353147D01*
X221186853Y-63448102D01*
X221303147Y-63515245D01*
X221366885Y-63532323D01*
X220796683Y-64102524D01*
X220796683Y-64102525D01*
X220811363Y-64113191D01*
X220877311Y-64184534D01*
X220910938Y-64275684D01*
X220907123Y-64372764D01*
X220866447Y-64460995D01*
X220811363Y-64516079D01*
X220675586Y-64614727D01*
X220534728Y-64755585D01*
X220417647Y-64916732D01*
X220327215Y-65094216D01*
X220327213Y-65094221D01*
X220265660Y-65283663D01*
X220234500Y-65480393D01*
X220234500Y-65679606D01*
X220265660Y-65876336D01*
X220327213Y-66065778D01*
X220327215Y-66065783D01*
X220417647Y-66243267D01*
X220534728Y-66404414D01*
X220534731Y-66404418D01*
X220675582Y-66545269D01*
X220675585Y-66545271D01*
X220817742Y-66648555D01*
X220883691Y-66719899D01*
X220917318Y-66811049D01*
X220913503Y-66908129D01*
X220872828Y-66996359D01*
X220817742Y-67051445D01*
X220675585Y-67154728D01*
X220534728Y-67295585D01*
X220417647Y-67456732D01*
X220327215Y-67634216D01*
X220327213Y-67634221D01*
X220265660Y-67823663D01*
X220234500Y-68020393D01*
X220234500Y-68219606D01*
X220265660Y-68416336D01*
X220327213Y-68605778D01*
X220327215Y-68605783D01*
X220417647Y-68783267D01*
X220534728Y-68944414D01*
X220534731Y-68944418D01*
X220675582Y-69085269D01*
X220675585Y-69085271D01*
X220817742Y-69188555D01*
X220883691Y-69259899D01*
X220917318Y-69351049D01*
X220913503Y-69448129D01*
X220872828Y-69536359D01*
X220817742Y-69591445D01*
X220675585Y-69694728D01*
X220534728Y-69835585D01*
X220417647Y-69996732D01*
X220327215Y-70174216D01*
X220327213Y-70174221D01*
X220265660Y-70363663D01*
X220234500Y-70560393D01*
X220234500Y-70759606D01*
X220265660Y-70956336D01*
X220327213Y-71145778D01*
X220327215Y-71145783D01*
X220417647Y-71323267D01*
X220511267Y-71452123D01*
X220534731Y-71484418D01*
X220675582Y-71625269D01*
X220675585Y-71625271D01*
X220817742Y-71728555D01*
X220883691Y-71799899D01*
X220917318Y-71891049D01*
X220913503Y-71988129D01*
X220872828Y-72076359D01*
X220817742Y-72131445D01*
X220675585Y-72234728D01*
X220534728Y-72375585D01*
X220417647Y-72536732D01*
X220327215Y-72714216D01*
X220327213Y-72714221D01*
X220265660Y-72903663D01*
X220234500Y-73100393D01*
X220234500Y-73299606D01*
X220265660Y-73496336D01*
X220327213Y-73685778D01*
X220327215Y-73685783D01*
X220417647Y-73863267D01*
X220504603Y-73982951D01*
X220534731Y-74024418D01*
X220675582Y-74165269D01*
X220675585Y-74165271D01*
X220817742Y-74268555D01*
X220883691Y-74339899D01*
X220917318Y-74431049D01*
X220913503Y-74528129D01*
X220872828Y-74616359D01*
X220817742Y-74671445D01*
X220675585Y-74774728D01*
X220534728Y-74915585D01*
X220417647Y-75076732D01*
X220327215Y-75254216D01*
X220327213Y-75254221D01*
X220265660Y-75443663D01*
X220234500Y-75640393D01*
X220234500Y-75839606D01*
X220265660Y-76036336D01*
X220327213Y-76225778D01*
X220327215Y-76225783D01*
X220417647Y-76403267D01*
X220478359Y-76486829D01*
X220534731Y-76564418D01*
X220675582Y-76705269D01*
X220675585Y-76705271D01*
X220817742Y-76808555D01*
X220883691Y-76879899D01*
X220917318Y-76971049D01*
X220913503Y-77068129D01*
X220872828Y-77156359D01*
X220817742Y-77211445D01*
X220675585Y-77314728D01*
X220534728Y-77455585D01*
X220417647Y-77616732D01*
X220327215Y-77794216D01*
X220327213Y-77794221D01*
X220265660Y-77983663D01*
X220234500Y-78180393D01*
X220234500Y-78379606D01*
X220265660Y-78576336D01*
X220327213Y-78765778D01*
X220327215Y-78765783D01*
X220417647Y-78943267D01*
X220481026Y-79030500D01*
X220534731Y-79104418D01*
X220675582Y-79245269D01*
X220675585Y-79245271D01*
X220817742Y-79348555D01*
X220883691Y-79419899D01*
X220917318Y-79511049D01*
X220913503Y-79608129D01*
X220872828Y-79696359D01*
X220817742Y-79751445D01*
X220675585Y-79854728D01*
X220534728Y-79995585D01*
X220417647Y-80156732D01*
X220327215Y-80334216D01*
X220327213Y-80334221D01*
X220265660Y-80523663D01*
X220234500Y-80720393D01*
X220234500Y-80919606D01*
X220265660Y-81116336D01*
X220327213Y-81305778D01*
X220327215Y-81305783D01*
X220417647Y-81483267D01*
X220534728Y-81644414D01*
X220534731Y-81644418D01*
X220675582Y-81785269D01*
X220675585Y-81785271D01*
X220817742Y-81888555D01*
X220883691Y-81959899D01*
X220917318Y-82051049D01*
X220913503Y-82148129D01*
X220872828Y-82236359D01*
X220817742Y-82291445D01*
X220675585Y-82394728D01*
X220534728Y-82535585D01*
X220417647Y-82696732D01*
X220327215Y-82874216D01*
X220327213Y-82874221D01*
X220265660Y-83063663D01*
X220234500Y-83260393D01*
X220234500Y-83459606D01*
X220265660Y-83656336D01*
X220327213Y-83845778D01*
X220327215Y-83845783D01*
X220417647Y-84023267D01*
X220481026Y-84110500D01*
X220534731Y-84184418D01*
X220675582Y-84325269D01*
X220675585Y-84325271D01*
X220817742Y-84428555D01*
X220883691Y-84499899D01*
X220917318Y-84591049D01*
X220913503Y-84688129D01*
X220872828Y-84776359D01*
X220817742Y-84831445D01*
X220675585Y-84934728D01*
X220534728Y-85075585D01*
X220417647Y-85236732D01*
X220327215Y-85414216D01*
X220327213Y-85414221D01*
X220265660Y-85603663D01*
X220234500Y-85800393D01*
X220234500Y-85999606D01*
X220265660Y-86196336D01*
X220327213Y-86385778D01*
X220327215Y-86385783D01*
X220417647Y-86563267D01*
X220534728Y-86724414D01*
X220534731Y-86724418D01*
X220675582Y-86865269D01*
X220675585Y-86865271D01*
X220817742Y-86968555D01*
X220883691Y-87039899D01*
X220917318Y-87131049D01*
X220913503Y-87228129D01*
X220872828Y-87316359D01*
X220817742Y-87371445D01*
X220675585Y-87474728D01*
X220534728Y-87615585D01*
X220417647Y-87776732D01*
X220327215Y-87954216D01*
X220327213Y-87954221D01*
X220265660Y-88143663D01*
X220234500Y-88340393D01*
X220234500Y-88539606D01*
X220265660Y-88736336D01*
X220327213Y-88925778D01*
X220327215Y-88925783D01*
X220417647Y-89103267D01*
X220534728Y-89264414D01*
X220534731Y-89264418D01*
X220675582Y-89405269D01*
X220675585Y-89405271D01*
X220817742Y-89508555D01*
X220883691Y-89579899D01*
X220917318Y-89671049D01*
X220913503Y-89768129D01*
X220872828Y-89856359D01*
X220817742Y-89911445D01*
X220675585Y-90014728D01*
X220534728Y-90155585D01*
X220417647Y-90316732D01*
X220327215Y-90494216D01*
X220327213Y-90494221D01*
X220265660Y-90683663D01*
X220234500Y-90880393D01*
X220234500Y-91079606D01*
X220265660Y-91276336D01*
X220327213Y-91465778D01*
X220327215Y-91465783D01*
X220417647Y-91643267D01*
X220534728Y-91804414D01*
X220534731Y-91804418D01*
X220675582Y-91945269D01*
X220685031Y-91952134D01*
X220817742Y-92048555D01*
X220883691Y-92119899D01*
X220917318Y-92211049D01*
X220913503Y-92308129D01*
X220872828Y-92396359D01*
X220817742Y-92451445D01*
X220675585Y-92554728D01*
X220534728Y-92695585D01*
X220417647Y-92856732D01*
X220327215Y-93034216D01*
X220327213Y-93034221D01*
X220265660Y-93223663D01*
X220234500Y-93420393D01*
X220234500Y-93620991D01*
X220215546Y-93716279D01*
X220161570Y-93797061D01*
X214182062Y-99776570D01*
X214101280Y-99830546D01*
X214005992Y-99849500D01*
X198501293Y-99849500D01*
X198406005Y-99830546D01*
X198325223Y-99776570D01*
X198271247Y-99695788D01*
X198252293Y-99600500D01*
X198271247Y-99505212D01*
X198294257Y-99462163D01*
X198330075Y-99408557D01*
X198386632Y-99323914D01*
X198462051Y-99141835D01*
X198500500Y-98948541D01*
X198500500Y-98751459D01*
X198475958Y-98628078D01*
X198475957Y-98530923D01*
X198513137Y-98441164D01*
X198581835Y-98372465D01*
X198671595Y-98335285D01*
X198720173Y-98330500D01*
X209073919Y-98330500D01*
X209073919Y-98330499D01*
X209218913Y-98301658D01*
X209305039Y-98265983D01*
X209355491Y-98245086D01*
X209355492Y-98245085D01*
X209355495Y-98245084D01*
X209404729Y-98212186D01*
X209478416Y-98162952D01*
X210982952Y-96658416D01*
X211049992Y-96558082D01*
X211065084Y-96535495D01*
X211121658Y-96398913D01*
X211150500Y-96253918D01*
X211150500Y-79926082D01*
X211121658Y-79781087D01*
X211065084Y-79644505D01*
X210982951Y-79521584D01*
X210953239Y-79491872D01*
X210878416Y-79417048D01*
X210878416Y-79417049D01*
X209158416Y-77697048D01*
X209055591Y-77628344D01*
X209055589Y-77628342D01*
X209035495Y-77614915D01*
X209035492Y-77614913D01*
X208898914Y-77558342D01*
X208898911Y-77558341D01*
X208753920Y-77529500D01*
X208753918Y-77529500D01*
X207402326Y-77529500D01*
X207363529Y-77521782D01*
X207324266Y-77516948D01*
X207317133Y-77512554D01*
X207307038Y-77510546D01*
X207239723Y-77469077D01*
X207227276Y-77458344D01*
X207225269Y-77455582D01*
X207084418Y-77314731D01*
X206933866Y-77205348D01*
X206926013Y-77198577D01*
X206902376Y-77168302D01*
X206876309Y-77140102D01*
X206872679Y-77130264D01*
X206866225Y-77121997D01*
X206855972Y-77084976D01*
X206842682Y-77048952D01*
X206843093Y-77038475D01*
X206840294Y-77028367D01*
X206844988Y-76990243D01*
X206846496Y-76951872D01*
X206850886Y-76942348D01*
X206852168Y-76931940D01*
X206871091Y-76898519D01*
X206887171Y-76863641D01*
X206895632Y-76855179D01*
X206900039Y-76847397D01*
X206915435Y-76835376D01*
X206942257Y-76808555D01*
X207084418Y-76705269D01*
X207225269Y-76564418D01*
X207342353Y-76403266D01*
X207432785Y-76225783D01*
X207494339Y-76036339D01*
X207514580Y-75908541D01*
X207525499Y-75839606D01*
X207525500Y-75839594D01*
X207525500Y-75640405D01*
X207525499Y-75640393D01*
X207505298Y-75512857D01*
X207494339Y-75443661D01*
X207432785Y-75254217D01*
X207342353Y-75076734D01*
X207341032Y-75074916D01*
X207225271Y-74915585D01*
X207225269Y-74915582D01*
X207084418Y-74774731D01*
X206942256Y-74671444D01*
X206876309Y-74600102D01*
X206842682Y-74508952D01*
X206846496Y-74411872D01*
X206887171Y-74323641D01*
X206942257Y-74268555D01*
X207084418Y-74165269D01*
X207225269Y-74024418D01*
X207342353Y-73863266D01*
X207432785Y-73685783D01*
X207494339Y-73496339D01*
X207525115Y-73302028D01*
X207525499Y-73299606D01*
X207525500Y-73299594D01*
X207525500Y-73100405D01*
X207525499Y-73100393D01*
X207494339Y-72903663D01*
X207494339Y-72903661D01*
X207432785Y-72714217D01*
X207342353Y-72536734D01*
X207225269Y-72375582D01*
X207084418Y-72234731D01*
X206942256Y-72131444D01*
X206876309Y-72060102D01*
X206842682Y-71968952D01*
X206846496Y-71871872D01*
X206887171Y-71783641D01*
X206942257Y-71728555D01*
X207084418Y-71625269D01*
X207225269Y-71484418D01*
X207342353Y-71323266D01*
X207432785Y-71145783D01*
X207494339Y-70956339D01*
X207525500Y-70759597D01*
X207525500Y-70560403D01*
X207525499Y-70560400D01*
X207525499Y-70560393D01*
X207494339Y-70363663D01*
X207494339Y-70363661D01*
X207432785Y-70174217D01*
X207342353Y-69996734D01*
X207225269Y-69835582D01*
X207084418Y-69694731D01*
X207084414Y-69694728D01*
X206948636Y-69596079D01*
X206882687Y-69524735D01*
X206849060Y-69433585D01*
X206852875Y-69336505D01*
X206893550Y-69248275D01*
X206948635Y-69193190D01*
X206963313Y-69182524D01*
X206393112Y-68612323D01*
X206456853Y-68595245D01*
X206573147Y-68528102D01*
X206668102Y-68433147D01*
X206735245Y-68316853D01*
X206752323Y-68253112D01*
X207322525Y-68823314D01*
X207348765Y-68787199D01*
X207348767Y-68787196D01*
X207439734Y-68608662D01*
X207439736Y-68608657D01*
X207501654Y-68418092D01*
X207532999Y-68220196D01*
X207533000Y-68220184D01*
X207533000Y-68019815D01*
X207532999Y-68019803D01*
X207501654Y-67821907D01*
X207439736Y-67631342D01*
X207439732Y-67631332D01*
X207348767Y-67452803D01*
X207348765Y-67452799D01*
X207322524Y-67416683D01*
X206752323Y-67986885D01*
X206735245Y-67923147D01*
X206668102Y-67806853D01*
X206573147Y-67711898D01*
X206456853Y-67644755D01*
X206393112Y-67627676D01*
X206963315Y-67057473D01*
X206948639Y-67046811D01*
X206882689Y-66975468D01*
X206849062Y-66884319D01*
X206852876Y-66787239D01*
X206893550Y-66699008D01*
X206948637Y-66643920D01*
X206967353Y-66630321D01*
X207084418Y-66545269D01*
X207225269Y-66404418D01*
X207342353Y-66243266D01*
X207432785Y-66065783D01*
X207494339Y-65876339D01*
X207525500Y-65679597D01*
X207525500Y-65480403D01*
X207525499Y-65480400D01*
X207525499Y-65480393D01*
X207494339Y-65283663D01*
X207494339Y-65283661D01*
X207432785Y-65094217D01*
X207342353Y-64916734D01*
X207338090Y-64910867D01*
X207225271Y-64755585D01*
X207225269Y-64755582D01*
X207084418Y-64614731D01*
X207084412Y-64614727D01*
X206942257Y-64511445D01*
X206876309Y-64440102D01*
X206842682Y-64348952D01*
X206846496Y-64251872D01*
X206887171Y-64163641D01*
X206942257Y-64108555D01*
X206950558Y-64102524D01*
X207084418Y-64005269D01*
X207225269Y-63864418D01*
X207342353Y-63703266D01*
X207432785Y-63525783D01*
X207494339Y-63336339D01*
X207518002Y-63186938D01*
X207525499Y-63139606D01*
X207525500Y-63139594D01*
X207525500Y-62940399D01*
X207494339Y-62743663D01*
X207494339Y-62743661D01*
X207432785Y-62554217D01*
X207342353Y-62376734D01*
X207341032Y-62374916D01*
X207225271Y-62215585D01*
X207225269Y-62215582D01*
X207141547Y-62131860D01*
X207087574Y-62051082D01*
X207068620Y-61955794D01*
X207087574Y-61860506D01*
X207141550Y-61779724D01*
X207222332Y-61725748D01*
X207230550Y-61722514D01*
X207267331Y-61708796D01*
X207382546Y-61622546D01*
X207468796Y-61507331D01*
X207519091Y-61372483D01*
X207525500Y-61312873D01*
X207525499Y-59687128D01*
X207519091Y-59627517D01*
X207468796Y-59492669D01*
X207382546Y-59377454D01*
X207267331Y-59291204D01*
X207187117Y-59261286D01*
X207132481Y-59240908D01*
X207072873Y-59234500D01*
X205447134Y-59234500D01*
X205447130Y-59234500D01*
X205447128Y-59234501D01*
X205434314Y-59235878D01*
X205387519Y-59240908D01*
X205387515Y-59240909D01*
X205252670Y-59291203D01*
X205137455Y-59377453D01*
X205137453Y-59377455D01*
X205051203Y-59492670D01*
X205015829Y-59587515D01*
X204964771Y-59670172D01*
X204885968Y-59726998D01*
X204791417Y-59749341D01*
X204782528Y-59749500D01*
X197626079Y-59749500D01*
X197481088Y-59778341D01*
X197344507Y-59834915D01*
X197344503Y-59834917D01*
X197313184Y-59855844D01*
X197313182Y-59855845D01*
X197221588Y-59917044D01*
X195425570Y-61713062D01*
X195344788Y-61767038D01*
X195249500Y-61785992D01*
X195154212Y-61767038D01*
X195073430Y-61713062D01*
X195019454Y-61632280D01*
X195000500Y-61536992D01*
X195000500Y-52611741D01*
X227511199Y-52611741D01*
X227511200Y-52611741D01*
X234410638Y-52611741D01*
X234410639Y-52611741D01*
X234410639Y-51494287D01*
X227511199Y-51494287D01*
X227511199Y-52611741D01*
X195000500Y-52611741D01*
X195000500Y-50749500D01*
X195019454Y-50654212D01*
X195073430Y-50573430D01*
X195154212Y-50519454D01*
X195249500Y-50500500D01*
X235250500Y-50500500D01*
X235345788Y-50519454D01*
G37*
G04 #@! TD.AperFunction*
G04 #@! TA.AperFunction,Conductor*
G36*
X205156469Y-63798216D02*
G01*
X205195734Y-63803052D01*
X205202866Y-63807445D01*
X205212962Y-63809454D01*
X205280277Y-63850923D01*
X205292723Y-63861655D01*
X205294731Y-63864418D01*
X205435582Y-64005269D01*
X205586127Y-64114646D01*
X205593986Y-64121423D01*
X205617622Y-64151697D01*
X205643691Y-64179899D01*
X205647320Y-64189736D01*
X205653774Y-64198003D01*
X205664024Y-64235015D01*
X205677318Y-64271049D01*
X205676906Y-64281528D01*
X205679705Y-64291634D01*
X205675011Y-64329751D01*
X205673503Y-64368129D01*
X205669112Y-64377652D01*
X205667831Y-64388060D01*
X205648908Y-64421479D01*
X205632828Y-64456359D01*
X205624366Y-64464820D01*
X205619960Y-64472603D01*
X205604563Y-64484623D01*
X205577742Y-64511445D01*
X205435585Y-64614728D01*
X205294728Y-64755585D01*
X205177647Y-64916732D01*
X205087215Y-65094216D01*
X205087213Y-65094221D01*
X205025660Y-65283663D01*
X204994500Y-65480393D01*
X204994500Y-65679606D01*
X205025660Y-65876336D01*
X205087213Y-66065778D01*
X205087215Y-66065783D01*
X205177647Y-66243267D01*
X205294728Y-66404414D01*
X205294731Y-66404418D01*
X205435582Y-66545269D01*
X205435585Y-66545271D01*
X205571362Y-66643919D01*
X205637311Y-66715262D01*
X205670937Y-66806412D01*
X205667123Y-66903492D01*
X205626448Y-66991723D01*
X205571359Y-67046811D01*
X205556683Y-67057472D01*
X206126887Y-67627676D01*
X206063147Y-67644755D01*
X205946853Y-67711898D01*
X205851898Y-67806853D01*
X205784755Y-67923147D01*
X205767676Y-67986887D01*
X205197473Y-67416684D01*
X205171234Y-67452800D01*
X205171233Y-67452802D01*
X205080265Y-67631337D01*
X205080263Y-67631342D01*
X205018345Y-67821907D01*
X204987000Y-68019803D01*
X204987000Y-68220196D01*
X205018345Y-68418092D01*
X205080263Y-68608657D01*
X205080267Y-68608667D01*
X205171232Y-68787196D01*
X205171233Y-68787198D01*
X205197473Y-68823314D01*
X205767676Y-68253112D01*
X205784755Y-68316853D01*
X205851898Y-68433147D01*
X205946853Y-68528102D01*
X206063147Y-68595245D01*
X206126885Y-68612323D01*
X205556683Y-69182524D01*
X205556683Y-69182525D01*
X205571363Y-69193191D01*
X205637311Y-69264534D01*
X205670938Y-69355684D01*
X205667123Y-69452764D01*
X205626447Y-69540995D01*
X205571363Y-69596079D01*
X205435586Y-69694727D01*
X205294728Y-69835585D01*
X205177647Y-69996732D01*
X205087215Y-70174216D01*
X205087213Y-70174221D01*
X205025660Y-70363663D01*
X204994500Y-70560393D01*
X204994500Y-70759606D01*
X205025660Y-70956336D01*
X205087213Y-71145778D01*
X205087215Y-71145783D01*
X205177647Y-71323267D01*
X205271267Y-71452123D01*
X205294731Y-71484418D01*
X205435582Y-71625269D01*
X205435585Y-71625271D01*
X205577742Y-71728555D01*
X205643691Y-71799899D01*
X205677318Y-71891049D01*
X205673503Y-71988129D01*
X205632828Y-72076359D01*
X205577742Y-72131445D01*
X205435585Y-72234728D01*
X205294728Y-72375585D01*
X205177647Y-72536732D01*
X205087215Y-72714216D01*
X205087213Y-72714221D01*
X205025660Y-72903663D01*
X204994500Y-73100393D01*
X204994500Y-73299606D01*
X205025660Y-73496336D01*
X205087213Y-73685778D01*
X205087215Y-73685783D01*
X205177647Y-73863267D01*
X205264603Y-73982951D01*
X205294731Y-74024418D01*
X205435582Y-74165269D01*
X205435585Y-74165271D01*
X205577742Y-74268555D01*
X205597276Y-74289687D01*
X205619960Y-74307397D01*
X205629941Y-74325024D01*
X205643691Y-74339899D01*
X205653651Y-74366898D01*
X205667831Y-74391940D01*
X205670306Y-74412043D01*
X205677318Y-74431049D01*
X205676187Y-74459804D01*
X205679705Y-74488366D01*
X205674298Y-74507887D01*
X205673503Y-74528129D01*
X205661454Y-74554263D01*
X205653774Y-74581997D01*
X205642619Y-74595119D01*
X205632828Y-74616359D01*
X205593986Y-74658577D01*
X205586127Y-74665353D01*
X205435582Y-74774731D01*
X205294731Y-74915582D01*
X205292723Y-74918344D01*
X205280277Y-74929077D01*
X205245855Y-74948567D01*
X205212962Y-74970546D01*
X205203833Y-74972361D01*
X205195734Y-74976948D01*
X205156469Y-74981783D01*
X205117674Y-74989500D01*
X203986082Y-74989500D01*
X203972589Y-74992184D01*
X203972588Y-74992183D01*
X203841092Y-75018339D01*
X203841087Y-75018341D01*
X203761081Y-75051479D01*
X203761082Y-75051480D01*
X203704503Y-75074916D01*
X203632615Y-75122951D01*
X203632614Y-75122952D01*
X203581584Y-75157048D01*
X202617050Y-76121581D01*
X202617049Y-76121582D01*
X202567812Y-76195272D01*
X202534917Y-76244502D01*
X202534915Y-76244507D01*
X202478341Y-76381088D01*
X202449500Y-76526079D01*
X202449500Y-94385992D01*
X202430546Y-94481280D01*
X202376570Y-94562062D01*
X201452062Y-95486570D01*
X201371280Y-95540546D01*
X201275992Y-95559500D01*
X198727820Y-95559500D01*
X198632532Y-95540546D01*
X198551750Y-95486570D01*
X198497774Y-95405788D01*
X198478820Y-95310500D01*
X198483605Y-95261922D01*
X198507999Y-95139283D01*
X198508000Y-95139278D01*
X198508000Y-94940723D01*
X198469261Y-94745974D01*
X198393280Y-94562537D01*
X198393279Y-94562535D01*
X198375942Y-94536589D01*
X198338762Y-94446829D01*
X198338761Y-94349674D01*
X198375940Y-94259915D01*
X198386632Y-94243914D01*
X198462051Y-94061835D01*
X198500500Y-93868541D01*
X198500500Y-93671459D01*
X198462051Y-93478165D01*
X198443650Y-93433741D01*
X198424698Y-93338456D01*
X198440397Y-93251442D01*
X198443794Y-93242333D01*
X198443796Y-93242331D01*
X198494091Y-93107483D01*
X198500500Y-93047873D01*
X198500499Y-91952128D01*
X198494091Y-91892517D01*
X198443796Y-91757669D01*
X198357546Y-91642454D01*
X198242331Y-91556204D01*
X198125927Y-91512788D01*
X198107481Y-91505908D01*
X198047873Y-91499500D01*
X196952134Y-91499500D01*
X196952130Y-91499500D01*
X196952128Y-91499501D01*
X196939314Y-91500878D01*
X196892519Y-91505908D01*
X196892515Y-91505909D01*
X196757668Y-91556204D01*
X196748720Y-91562903D01*
X196661079Y-91604833D01*
X196564063Y-91610033D01*
X196472442Y-91577711D01*
X196400165Y-91512788D01*
X196358235Y-91425147D01*
X196350500Y-91363568D01*
X196350500Y-79614007D01*
X196369454Y-79518719D01*
X196423430Y-79437938D01*
X196640997Y-79220370D01*
X196721778Y-79166393D01*
X196817066Y-79147439D01*
X196912355Y-79166393D01*
X196955401Y-79189401D01*
X196985798Y-79209712D01*
X197026082Y-79236630D01*
X197026085Y-79236631D01*
X197026086Y-79236632D01*
X197208165Y-79312051D01*
X197208167Y-79312051D01*
X197208169Y-79312052D01*
X197391681Y-79348555D01*
X197401459Y-79350500D01*
X197598541Y-79350500D01*
X197791835Y-79312051D01*
X197973914Y-79236632D01*
X198137782Y-79127139D01*
X198277139Y-78987782D01*
X198386632Y-78823914D01*
X198462051Y-78641835D01*
X198500500Y-78448541D01*
X198500500Y-78251459D01*
X198462051Y-78058165D01*
X198386632Y-77876086D01*
X198375939Y-77860083D01*
X198338762Y-77770327D01*
X198338761Y-77673172D01*
X198375941Y-77583413D01*
X198375943Y-77583409D01*
X198393277Y-77557466D01*
X198393281Y-77557459D01*
X198469261Y-77374025D01*
X198508000Y-77179276D01*
X198508000Y-76980723D01*
X198469261Y-76785974D01*
X198393280Y-76602537D01*
X198393279Y-76602535D01*
X198375942Y-76576589D01*
X198338762Y-76486829D01*
X198338761Y-76389674D01*
X198375940Y-76299915D01*
X198375941Y-76299914D01*
X198386632Y-76283914D01*
X198462051Y-76101835D01*
X198500500Y-75908541D01*
X198500500Y-75711459D01*
X198475958Y-75588078D01*
X198475957Y-75490923D01*
X198513137Y-75401164D01*
X198581835Y-75332465D01*
X198671595Y-75295285D01*
X198720173Y-75290500D01*
X198733919Y-75290500D01*
X198733919Y-75290499D01*
X198878913Y-75261658D01*
X199015495Y-75205084D01*
X199087385Y-75157049D01*
X199138416Y-75122952D01*
X202782952Y-71478416D01*
X202840347Y-71392517D01*
X202865084Y-71355495D01*
X202921658Y-71218913D01*
X202950500Y-71073918D01*
X202950500Y-65014007D01*
X202969454Y-64918719D01*
X203023430Y-64837937D01*
X203997937Y-63863430D01*
X204078719Y-63809454D01*
X204174007Y-63790500D01*
X205117674Y-63790500D01*
X205156469Y-63798216D01*
G37*
G04 #@! TD.AperFunction*
M02*
