G04 #@! TF.GenerationSoftware,KiCad,Pcbnew,9.0.2*
G04 #@! TF.CreationDate,2025-05-22T15:12:37+02:00*
G04 #@! TF.ProjectId,Carte_Drone,43617274-655f-4447-926f-6e652e6b6963,rev?*
G04 #@! TF.SameCoordinates,Original*
G04 #@! TF.FileFunction,Copper,L2,Bot*
G04 #@! TF.FilePolarity,Positive*
%FSLAX46Y46*%
G04 Gerber Fmt 4.6, Leading zero omitted, Abs format (unit mm)*
G04 Created by KiCad (PCBNEW 9.0.2) date 2025-05-22 15:12:37*
%MOMM*%
%LPD*%
G01*
G04 APERTURE LIST*
%ADD10C,0.125000*%
G04 #@! TA.AperFunction,NonConductor*
%ADD11C,0.125000*%
G04 #@! TD*
G04 #@! TA.AperFunction,ComponentPad*
%ADD12R,2.000000X2.000000*%
G04 #@! TD*
G04 #@! TA.AperFunction,ComponentPad*
%ADD13C,2.000000*%
G04 #@! TD*
G04 #@! TA.AperFunction,Conductor*
%ADD14C,0.500000*%
G04 #@! TD*
G04 APERTURE END LIST*
D10*
D11*
X234279668Y-52271119D02*
X234279668Y-51271119D01*
X234279668Y-51271119D02*
X233898716Y-51271119D01*
X233898716Y-51271119D02*
X233803478Y-51318738D01*
X233803478Y-51318738D02*
X233755859Y-51366357D01*
X233755859Y-51366357D02*
X233708240Y-51461595D01*
X233708240Y-51461595D02*
X233708240Y-51604452D01*
X233708240Y-51604452D02*
X233755859Y-51699690D01*
X233755859Y-51699690D02*
X233803478Y-51747309D01*
X233803478Y-51747309D02*
X233898716Y-51794928D01*
X233898716Y-51794928D02*
X234279668Y-51794928D01*
X233279668Y-52271119D02*
X233279668Y-51604452D01*
X233279668Y-51794928D02*
X233232049Y-51699690D01*
X233232049Y-51699690D02*
X233184430Y-51652071D01*
X233184430Y-51652071D02*
X233089192Y-51604452D01*
X233089192Y-51604452D02*
X232993954Y-51604452D01*
X232517763Y-52271119D02*
X232613001Y-52223500D01*
X232613001Y-52223500D02*
X232660620Y-52175880D01*
X232660620Y-52175880D02*
X232708239Y-52080642D01*
X232708239Y-52080642D02*
X232708239Y-51794928D01*
X232708239Y-51794928D02*
X232660620Y-51699690D01*
X232660620Y-51699690D02*
X232613001Y-51652071D01*
X232613001Y-51652071D02*
X232517763Y-51604452D01*
X232517763Y-51604452D02*
X232374906Y-51604452D01*
X232374906Y-51604452D02*
X232279668Y-51652071D01*
X232279668Y-51652071D02*
X232232049Y-51699690D01*
X232232049Y-51699690D02*
X232184430Y-51794928D01*
X232184430Y-51794928D02*
X232184430Y-52080642D01*
X232184430Y-52080642D02*
X232232049Y-52175880D01*
X232232049Y-52175880D02*
X232279668Y-52223500D01*
X232279668Y-52223500D02*
X232374906Y-52271119D01*
X232374906Y-52271119D02*
X232517763Y-52271119D01*
X231755858Y-51604452D02*
X231755858Y-52461595D01*
X231755858Y-52461595D02*
X231803477Y-52556833D01*
X231803477Y-52556833D02*
X231898715Y-52604452D01*
X231898715Y-52604452D02*
X231946334Y-52604452D01*
X231755858Y-51271119D02*
X231803477Y-51318738D01*
X231803477Y-51318738D02*
X231755858Y-51366357D01*
X231755858Y-51366357D02*
X231708239Y-51318738D01*
X231708239Y-51318738D02*
X231755858Y-51271119D01*
X231755858Y-51271119D02*
X231755858Y-51366357D01*
X230898716Y-52223500D02*
X230993954Y-52271119D01*
X230993954Y-52271119D02*
X231184430Y-52271119D01*
X231184430Y-52271119D02*
X231279668Y-52223500D01*
X231279668Y-52223500D02*
X231327287Y-52128261D01*
X231327287Y-52128261D02*
X231327287Y-51747309D01*
X231327287Y-51747309D02*
X231279668Y-51652071D01*
X231279668Y-51652071D02*
X231184430Y-51604452D01*
X231184430Y-51604452D02*
X230993954Y-51604452D01*
X230993954Y-51604452D02*
X230898716Y-51652071D01*
X230898716Y-51652071D02*
X230851097Y-51747309D01*
X230851097Y-51747309D02*
X230851097Y-51842547D01*
X230851097Y-51842547D02*
X231327287Y-51937785D01*
X230565382Y-51604452D02*
X230184430Y-51604452D01*
X230422525Y-51271119D02*
X230422525Y-52128261D01*
X230422525Y-52128261D02*
X230374906Y-52223500D01*
X230374906Y-52223500D02*
X230279668Y-52271119D01*
X230279668Y-52271119D02*
X230184430Y-52271119D01*
X229089191Y-52271119D02*
X229089191Y-51271119D01*
X229089191Y-51271119D02*
X228851096Y-51271119D01*
X228851096Y-51271119D02*
X228708239Y-51318738D01*
X228708239Y-51318738D02*
X228613001Y-51413976D01*
X228613001Y-51413976D02*
X228565382Y-51509214D01*
X228565382Y-51509214D02*
X228517763Y-51699690D01*
X228517763Y-51699690D02*
X228517763Y-51842547D01*
X228517763Y-51842547D02*
X228565382Y-52033023D01*
X228565382Y-52033023D02*
X228613001Y-52128261D01*
X228613001Y-52128261D02*
X228708239Y-52223500D01*
X228708239Y-52223500D02*
X228851096Y-52271119D01*
X228851096Y-52271119D02*
X229089191Y-52271119D01*
X228089191Y-52271119D02*
X228089191Y-51604452D01*
X228089191Y-51794928D02*
X228041572Y-51699690D01*
X228041572Y-51699690D02*
X227993953Y-51652071D01*
X227993953Y-51652071D02*
X227898715Y-51604452D01*
X227898715Y-51604452D02*
X227803477Y-51604452D01*
X227327286Y-52271119D02*
X227422524Y-52223500D01*
X227422524Y-52223500D02*
X227470143Y-52175880D01*
X227470143Y-52175880D02*
X227517762Y-52080642D01*
X227517762Y-52080642D02*
X227517762Y-51794928D01*
X227517762Y-51794928D02*
X227470143Y-51699690D01*
X227470143Y-51699690D02*
X227422524Y-51652071D01*
X227422524Y-51652071D02*
X227327286Y-51604452D01*
X227327286Y-51604452D02*
X227184429Y-51604452D01*
X227184429Y-51604452D02*
X227089191Y-51652071D01*
X227089191Y-51652071D02*
X227041572Y-51699690D01*
X227041572Y-51699690D02*
X226993953Y-51794928D01*
X226993953Y-51794928D02*
X226993953Y-52080642D01*
X226993953Y-52080642D02*
X227041572Y-52175880D01*
X227041572Y-52175880D02*
X227089191Y-52223500D01*
X227089191Y-52223500D02*
X227184429Y-52271119D01*
X227184429Y-52271119D02*
X227327286Y-52271119D01*
X226565381Y-51604452D02*
X226565381Y-52271119D01*
X226565381Y-51699690D02*
X226517762Y-51652071D01*
X226517762Y-51652071D02*
X226422524Y-51604452D01*
X226422524Y-51604452D02*
X226279667Y-51604452D01*
X226279667Y-51604452D02*
X226184429Y-51652071D01*
X226184429Y-51652071D02*
X226136810Y-51747309D01*
X226136810Y-51747309D02*
X226136810Y-52271119D01*
X225279667Y-52223500D02*
X225374905Y-52271119D01*
X225374905Y-52271119D02*
X225565381Y-52271119D01*
X225565381Y-52271119D02*
X225660619Y-52223500D01*
X225660619Y-52223500D02*
X225708238Y-52128261D01*
X225708238Y-52128261D02*
X225708238Y-51747309D01*
X225708238Y-51747309D02*
X225660619Y-51652071D01*
X225660619Y-51652071D02*
X225565381Y-51604452D01*
X225565381Y-51604452D02*
X225374905Y-51604452D01*
X225374905Y-51604452D02*
X225279667Y-51652071D01*
X225279667Y-51652071D02*
X225232048Y-51747309D01*
X225232048Y-51747309D02*
X225232048Y-51842547D01*
X225232048Y-51842547D02*
X225708238Y-51937785D01*
D12*
X233620000Y-78320000D03*
D13*
X233620000Y-80860000D03*
X233620000Y-83400000D03*
D12*
X197800000Y-83600000D03*
D13*
X197800000Y-86140000D03*
X197800000Y-88680000D03*
X197800000Y-91220000D03*
X197800000Y-93760000D03*
X197800000Y-96300000D03*
D12*
X197200000Y-62800000D03*
D13*
X197200000Y-65340000D03*
X197200000Y-67880000D03*
X197200000Y-70420000D03*
X197200000Y-72960000D03*
X197200000Y-75500000D03*
D12*
X221500000Y-60500000D03*
D13*
X221500000Y-63040000D03*
X221500000Y-65580000D03*
X221500000Y-68120000D03*
X221500000Y-70660000D03*
X221500000Y-73200000D03*
X221500000Y-75740000D03*
X221500000Y-78280000D03*
X221500000Y-80820000D03*
X221500000Y-83360000D03*
X221500000Y-85900000D03*
X221500000Y-88440000D03*
X221500000Y-90980000D03*
X221500000Y-93520000D03*
X221500000Y-96060000D03*
X206260000Y-96060000D03*
X206260000Y-93520000D03*
X206260000Y-90980000D03*
X206260000Y-88440000D03*
X206260000Y-85900000D03*
X206260000Y-83360000D03*
X206260000Y-80820000D03*
X206260000Y-78280000D03*
X206260000Y-75740000D03*
X206260000Y-73200000D03*
X206260000Y-70660000D03*
X206260000Y-68120000D03*
X206260000Y-65580000D03*
X206260000Y-63040000D03*
D12*
X206260000Y-60500000D03*
D14*
X206260000Y-68120000D02*
X202030000Y-68120000D01*
X221500000Y-63040000D02*
X232040000Y-63040000D01*
X233620000Y-64620000D02*
X233620000Y-78320000D01*
X199575000Y-70575000D02*
X197190000Y-72960000D01*
X232040000Y-63040000D02*
X233620000Y-64620000D01*
X199575000Y-86895000D02*
X199575000Y-70575000D01*
X197790000Y-88680000D02*
X199575000Y-86895000D01*
X202030000Y-68120000D02*
X199575000Y-70575000D01*
X195400000Y-100000000D02*
X195400000Y-87400000D01*
X221500000Y-93520000D02*
X233080000Y-93520000D01*
X221500000Y-93520000D02*
X213420000Y-101600000D01*
X196660000Y-86140000D02*
X195400000Y-87400000D01*
X233080000Y-93520000D02*
X235249000Y-91351000D01*
X195490000Y-77200000D02*
X197190000Y-75500000D01*
X235249000Y-91351000D02*
X235249000Y-81400000D01*
X213420000Y-101600000D02*
X197000000Y-101600000D01*
X197000000Y-101600000D02*
X195400000Y-100000000D01*
X197790000Y-86140000D02*
X196660000Y-86140000D01*
X235249000Y-81400000D02*
X234709000Y-80860000D01*
X234709000Y-80860000D02*
X233610000Y-80860000D01*
X195400000Y-77200000D02*
X195490000Y-77200000D01*
X195400000Y-87400000D02*
X195400000Y-77200000D01*
X221500000Y-83360000D02*
X233560000Y-83360000D01*
X233560000Y-83360000D02*
X233600000Y-83400000D01*
X202860000Y-75740000D02*
X206260000Y-75740000D01*
X201600000Y-90200000D02*
X201600000Y-77000000D01*
X200580000Y-91220000D02*
X201600000Y-90200000D01*
X197790000Y-91220000D02*
X200580000Y-91220000D01*
X201600000Y-77000000D02*
X202860000Y-75740000D01*
X203000000Y-80600000D02*
X203800000Y-79800000D01*
X203000000Y-92600000D02*
X203000000Y-80600000D01*
X203800000Y-79800000D02*
X204740000Y-79800000D01*
X204740000Y-79800000D02*
X206260000Y-78280000D01*
X197790000Y-93760000D02*
X201840000Y-93760000D01*
X201840000Y-93760000D02*
X203000000Y-92600000D01*
X197190000Y-67880000D02*
X199520000Y-67880000D01*
X199520000Y-67880000D02*
X204400000Y-63000000D01*
X204400000Y-63000000D02*
X204440000Y-63040000D01*
X204440000Y-63040000D02*
X206260000Y-63040000D01*
X197190000Y-65340000D02*
X200060000Y-65340000D01*
X204900000Y-60500000D02*
X206260000Y-60500000D01*
X200060000Y-65340000D02*
X204900000Y-60500000D01*
G04 #@! TA.AperFunction,Conductor*
G36*
X224305613Y-50519454D02*
G01*
X224386395Y-50573430D01*
X224440371Y-50654212D01*
X224459325Y-50749500D01*
X224459325Y-53377174D01*
X224459326Y-53377174D01*
X235047667Y-53377174D01*
X235047668Y-53377174D01*
X235047668Y-53377173D01*
X235074430Y-53350411D01*
X235155212Y-53296435D01*
X235250500Y-53277481D01*
X235345788Y-53296435D01*
X235426570Y-53350411D01*
X235480546Y-53431193D01*
X235499500Y-53526481D01*
X235499500Y-76899061D01*
X235480546Y-76994349D01*
X235426570Y-77075131D01*
X235345788Y-77129107D01*
X235250500Y-77148061D01*
X235155212Y-77129107D01*
X235074430Y-77075131D01*
X235051166Y-77048282D01*
X234982907Y-76957100D01*
X234982900Y-76957093D01*
X234865962Y-76869554D01*
X234729092Y-76818504D01*
X234668593Y-76812000D01*
X233874001Y-76812000D01*
X233874000Y-76812001D01*
X233874000Y-77877749D01*
X233816853Y-77844755D01*
X233687143Y-77810000D01*
X233552857Y-77810000D01*
X233423147Y-77844755D01*
X233366000Y-77877749D01*
X233366000Y-76812001D01*
X233365999Y-76812000D01*
X232571406Y-76812000D01*
X232510907Y-76818504D01*
X232374037Y-76869554D01*
X232257099Y-76957093D01*
X232257093Y-76957099D01*
X232169554Y-77074037D01*
X232118504Y-77210907D01*
X232112000Y-77271406D01*
X232112000Y-78065999D01*
X232112001Y-78066000D01*
X233177749Y-78066000D01*
X233144755Y-78123147D01*
X233110000Y-78252857D01*
X233110000Y-78387143D01*
X233144755Y-78516853D01*
X233177749Y-78574000D01*
X232112001Y-78574000D01*
X232112000Y-78574001D01*
X232112000Y-79368593D01*
X232118504Y-79429092D01*
X232169554Y-79565962D01*
X232204585Y-79612758D01*
X232246515Y-79700399D01*
X232251716Y-79797414D01*
X232219394Y-79889035D01*
X232205325Y-79909822D01*
X232203055Y-79913220D01*
X232091594Y-80106275D01*
X232091592Y-80106279D01*
X232006292Y-80312211D01*
X232006291Y-80312215D01*
X231948595Y-80527541D01*
X231919500Y-80748543D01*
X231919500Y-80971456D01*
X231948595Y-81192458D01*
X232006291Y-81407784D01*
X232006292Y-81407788D01*
X232091592Y-81613720D01*
X232091594Y-81613724D01*
X232091595Y-81613726D01*
X232203052Y-81806774D01*
X232334760Y-81978420D01*
X232342021Y-81993144D01*
X232352848Y-82005489D01*
X232363320Y-82036335D01*
X232377729Y-82065554D01*
X232378802Y-82081940D01*
X232384081Y-82097487D01*
X232381952Y-82129991D01*
X232384083Y-82162501D01*
X232378805Y-82178049D01*
X232377732Y-82194434D01*
X232363324Y-82223652D01*
X232352853Y-82254500D01*
X232334765Y-82281571D01*
X232311363Y-82312072D01*
X232238321Y-82376135D01*
X232146323Y-82407368D01*
X232113811Y-82409500D01*
X223036882Y-82409500D01*
X222941594Y-82390546D01*
X222860812Y-82336570D01*
X222839340Y-82312084D01*
X222785241Y-82241581D01*
X222785239Y-82241578D01*
X222742270Y-82154442D01*
X222735917Y-82057495D01*
X222767147Y-81965496D01*
X222785240Y-81938420D01*
X222916948Y-81766774D01*
X223028405Y-81573726D01*
X223113710Y-81367781D01*
X223171404Y-81152463D01*
X223200500Y-80931457D01*
X223200500Y-80708543D01*
X223171404Y-80487537D01*
X223113710Y-80272219D01*
X223028405Y-80066274D01*
X222916948Y-79873226D01*
X222785238Y-79701577D01*
X222742270Y-79614445D01*
X222735916Y-79517498D01*
X222767146Y-79425499D01*
X222785233Y-79398428D01*
X222916948Y-79226774D01*
X223028405Y-79033726D01*
X223113710Y-78827781D01*
X223171404Y-78612463D01*
X223200500Y-78391457D01*
X223200500Y-78168543D01*
X223171404Y-77947537D01*
X223113710Y-77732219D01*
X223028405Y-77526274D01*
X222916948Y-77333226D01*
X222785238Y-77161577D01*
X222742270Y-77074445D01*
X222735916Y-76977498D01*
X222767146Y-76885499D01*
X222785239Y-76858421D01*
X222916948Y-76686774D01*
X223028405Y-76493726D01*
X223113710Y-76287781D01*
X223171404Y-76072463D01*
X223200500Y-75851457D01*
X223200500Y-75628543D01*
X223171404Y-75407537D01*
X223113710Y-75192219D01*
X223103486Y-75167537D01*
X223028407Y-74986279D01*
X223028405Y-74986275D01*
X223028405Y-74986274D01*
X222916948Y-74793226D01*
X222785238Y-74621577D01*
X222742270Y-74534445D01*
X222735916Y-74437498D01*
X222767146Y-74345499D01*
X222785233Y-74318428D01*
X222916948Y-74146774D01*
X223028405Y-73953726D01*
X223113710Y-73747781D01*
X223171404Y-73532463D01*
X223200500Y-73311457D01*
X223200500Y-73088543D01*
X223171404Y-72867537D01*
X223113710Y-72652219D01*
X223111487Y-72646853D01*
X223028407Y-72446279D01*
X223028405Y-72446275D01*
X223028405Y-72446274D01*
X222916948Y-72253226D01*
X222785238Y-72081577D01*
X222742270Y-71994445D01*
X222735916Y-71897498D01*
X222767146Y-71805499D01*
X222785233Y-71778428D01*
X222916948Y-71606774D01*
X223028405Y-71413726D01*
X223113710Y-71207781D01*
X223171404Y-70992463D01*
X223200500Y-70771457D01*
X223200500Y-70548543D01*
X223171404Y-70327537D01*
X223113710Y-70112219D01*
X223103486Y-70087537D01*
X223028407Y-69906279D01*
X223028405Y-69906275D01*
X223028405Y-69906274D01*
X222916948Y-69713226D01*
X222785238Y-69541577D01*
X222742270Y-69454445D01*
X222735916Y-69357498D01*
X222767146Y-69265499D01*
X222785233Y-69238428D01*
X222916948Y-69066774D01*
X223028405Y-68873726D01*
X223113710Y-68667781D01*
X223171404Y-68452463D01*
X223200500Y-68231457D01*
X223200500Y-68008543D01*
X223171404Y-67787537D01*
X223113710Y-67572219D01*
X223103486Y-67547537D01*
X223028407Y-67366279D01*
X223028405Y-67366275D01*
X223028405Y-67366274D01*
X222916948Y-67173226D01*
X222785238Y-67001577D01*
X222742270Y-66914445D01*
X222735916Y-66817498D01*
X222767146Y-66725499D01*
X222785233Y-66698428D01*
X222916948Y-66526774D01*
X223028405Y-66333726D01*
X223113710Y-66127781D01*
X223171404Y-65912463D01*
X223200500Y-65691457D01*
X223200500Y-65468543D01*
X223171404Y-65247537D01*
X223113710Y-65032219D01*
X223103486Y-65007537D01*
X223028407Y-64826279D01*
X223028405Y-64826275D01*
X223028405Y-64826274D01*
X222916948Y-64633226D01*
X222781247Y-64456376D01*
X222654418Y-64329547D01*
X222600443Y-64248766D01*
X222581489Y-64153478D01*
X222600443Y-64058190D01*
X222654419Y-63977408D01*
X222709817Y-63940392D01*
X222789754Y-63830367D01*
X222789757Y-63830363D01*
X222897515Y-63618876D01*
X222897519Y-63618866D01*
X222970868Y-63393120D01*
X223007998Y-63158692D01*
X223008000Y-63158677D01*
X223008000Y-62921322D01*
X223007998Y-62921307D01*
X222970868Y-62686879D01*
X222897519Y-62461133D01*
X222853499Y-62374738D01*
X222827128Y-62281230D01*
X222838547Y-62184749D01*
X222886019Y-62099982D01*
X222925008Y-62066902D01*
X222923330Y-62064760D01*
X222935179Y-62055476D01*
X222935179Y-62055475D01*
X222935185Y-62055472D01*
X223055472Y-61935185D01*
X223143478Y-61789606D01*
X223194086Y-61627196D01*
X223200500Y-61556616D01*
X223200500Y-59443384D01*
X223194086Y-59372804D01*
X223143478Y-59210394D01*
X223143477Y-59210393D01*
X223143477Y-59210391D01*
X223092987Y-59126873D01*
X223055472Y-59064815D01*
X222935185Y-58944528D01*
X222913723Y-58931553D01*
X222789608Y-58856522D01*
X222627196Y-58805914D01*
X222627188Y-58805912D01*
X222556630Y-58799500D01*
X222556616Y-58799500D01*
X220443384Y-58799500D01*
X220443369Y-58799500D01*
X220372811Y-58805912D01*
X220372803Y-58805914D01*
X220210391Y-58856522D01*
X220064816Y-58944527D01*
X219944527Y-59064816D01*
X219856522Y-59210391D01*
X219805914Y-59372803D01*
X219805912Y-59372811D01*
X219799500Y-59443369D01*
X219799500Y-61556630D01*
X219805912Y-61627188D01*
X219805914Y-61627196D01*
X219856522Y-61789608D01*
X219931553Y-61913723D01*
X219944528Y-61935185D01*
X220064815Y-62055472D01*
X220064817Y-62055473D01*
X220064820Y-62055476D01*
X220076670Y-62064760D01*
X220074363Y-62067704D01*
X220125159Y-62114071D01*
X220166389Y-62202044D01*
X220170814Y-62299098D01*
X220146501Y-62374736D01*
X220102480Y-62461133D01*
X220029131Y-62686879D01*
X219992001Y-62921307D01*
X219992000Y-62921322D01*
X219992000Y-63158677D01*
X219992001Y-63158692D01*
X220029131Y-63393120D01*
X220102480Y-63618866D01*
X220102484Y-63618876D01*
X220210241Y-63830360D01*
X220210247Y-63830371D01*
X220285484Y-63933927D01*
X220358852Y-63991767D01*
X220406324Y-64076534D01*
X220417742Y-64173016D01*
X220391370Y-64266523D01*
X220345580Y-64329547D01*
X220218764Y-64456363D01*
X220218755Y-64456373D01*
X220083049Y-64633230D01*
X219971594Y-64826275D01*
X219971592Y-64826279D01*
X219886292Y-65032211D01*
X219886291Y-65032215D01*
X219828595Y-65247541D01*
X219799500Y-65468543D01*
X219799500Y-65691456D01*
X219825346Y-65887781D01*
X219828596Y-65912463D01*
X219877165Y-66093726D01*
X219886291Y-66127784D01*
X219886292Y-66127788D01*
X219971592Y-66333720D01*
X219971594Y-66333724D01*
X219971595Y-66333726D01*
X220083052Y-66526774D01*
X220097464Y-66545556D01*
X220214759Y-66698420D01*
X220257729Y-66785556D01*
X220264083Y-66882503D01*
X220232852Y-66974502D01*
X220214759Y-67001580D01*
X220083052Y-67173226D01*
X219971594Y-67366275D01*
X219971592Y-67366279D01*
X219886292Y-67572211D01*
X219886291Y-67572215D01*
X219828595Y-67787541D01*
X219799500Y-68008543D01*
X219799500Y-68231456D01*
X219825346Y-68427781D01*
X219828596Y-68452463D01*
X219877165Y-68633726D01*
X219886291Y-68667784D01*
X219886292Y-68667788D01*
X219971592Y-68873720D01*
X219971594Y-68873724D01*
X219971595Y-68873726D01*
X220083052Y-69066774D01*
X220121974Y-69117498D01*
X220214759Y-69238420D01*
X220257729Y-69325556D01*
X220264083Y-69422503D01*
X220232852Y-69514502D01*
X220214759Y-69541580D01*
X220083052Y-69713226D01*
X219971594Y-69906275D01*
X219971592Y-69906279D01*
X219886292Y-70112211D01*
X219886291Y-70112215D01*
X219828595Y-70327541D01*
X219799500Y-70548543D01*
X219799500Y-70771456D01*
X219825346Y-70967781D01*
X219828596Y-70992463D01*
X219877165Y-71173726D01*
X219886291Y-71207784D01*
X219886292Y-71207788D01*
X219971592Y-71413720D01*
X219971594Y-71413724D01*
X219971595Y-71413726D01*
X220083052Y-71606774D01*
X220131912Y-71670450D01*
X220214759Y-71778420D01*
X220257729Y-71865556D01*
X220264083Y-71962503D01*
X220232852Y-72054502D01*
X220214759Y-72081580D01*
X220083052Y-72253226D01*
X219971594Y-72446275D01*
X219971592Y-72446279D01*
X219886292Y-72652211D01*
X219886291Y-72652215D01*
X219828595Y-72867541D01*
X219799500Y-73088543D01*
X219799500Y-73311456D01*
X219820372Y-73470000D01*
X219828596Y-73532463D01*
X219847645Y-73603554D01*
X219886291Y-73747784D01*
X219886292Y-73747788D01*
X219971592Y-73953720D01*
X219971594Y-73953724D01*
X219971595Y-73953726D01*
X220083052Y-74146774D01*
X220138283Y-74218753D01*
X220214759Y-74318420D01*
X220257729Y-74405556D01*
X220264083Y-74502503D01*
X220232852Y-74594502D01*
X220214759Y-74621580D01*
X220083052Y-74793226D01*
X219971594Y-74986275D01*
X219971592Y-74986279D01*
X219886292Y-75192211D01*
X219886291Y-75192215D01*
X219828595Y-75407541D01*
X219799500Y-75628543D01*
X219799500Y-75851456D01*
X219825346Y-76047781D01*
X219828596Y-76072463D01*
X219877165Y-76253726D01*
X219886291Y-76287784D01*
X219886292Y-76287788D01*
X219971592Y-76493720D01*
X219971594Y-76493724D01*
X219971595Y-76493726D01*
X220083052Y-76686774D01*
X220141872Y-76763430D01*
X220214759Y-76858420D01*
X220257729Y-76945556D01*
X220264083Y-77042503D01*
X220232852Y-77134502D01*
X220214759Y-77161580D01*
X220083052Y-77333226D01*
X219971594Y-77526275D01*
X219971592Y-77526279D01*
X219886292Y-77732211D01*
X219886291Y-77732215D01*
X219828595Y-77947541D01*
X219799500Y-78168543D01*
X219799500Y-78391456D01*
X219824718Y-78583012D01*
X219828596Y-78612463D01*
X219850614Y-78694634D01*
X219886291Y-78827784D01*
X219886292Y-78827788D01*
X219971592Y-79033720D01*
X219971594Y-79033724D01*
X219971595Y-79033726D01*
X220083052Y-79226774D01*
X220145414Y-79308046D01*
X220214759Y-79398420D01*
X220257729Y-79485556D01*
X220264083Y-79582503D01*
X220232852Y-79674502D01*
X220214759Y-79701580D01*
X220083052Y-79873226D01*
X219971594Y-80066275D01*
X219971592Y-80066279D01*
X219886292Y-80272211D01*
X219886291Y-80272215D01*
X219828595Y-80487541D01*
X219799500Y-80708543D01*
X219799500Y-80931456D01*
X219828595Y-81152458D01*
X219886291Y-81367784D01*
X219886292Y-81367788D01*
X219971592Y-81573720D01*
X219971594Y-81573724D01*
X219971595Y-81573726D01*
X220083052Y-81766774D01*
X220113741Y-81806769D01*
X220214759Y-81938420D01*
X220257729Y-82025556D01*
X220264083Y-82122503D01*
X220232852Y-82214502D01*
X220214759Y-82241580D01*
X220083052Y-82413226D01*
X219971594Y-82606275D01*
X219971592Y-82606279D01*
X219886292Y-82812211D01*
X219886291Y-82812215D01*
X219828595Y-83027541D01*
X219799500Y-83248543D01*
X219799500Y-83471456D01*
X219828595Y-83692458D01*
X219886291Y-83907784D01*
X219886292Y-83907788D01*
X219971592Y-84113720D01*
X219971594Y-84113724D01*
X219971595Y-84113726D01*
X220083052Y-84306774D01*
X220100455Y-84329454D01*
X220214759Y-84478420D01*
X220257729Y-84565556D01*
X220264083Y-84662503D01*
X220232852Y-84754502D01*
X220214759Y-84781580D01*
X220083052Y-84953226D01*
X219971594Y-85146275D01*
X219971592Y-85146279D01*
X219886292Y-85352211D01*
X219886291Y-85352215D01*
X219828595Y-85567541D01*
X219799500Y-85788543D01*
X219799500Y-86011457D01*
X219828596Y-86232463D01*
X219886290Y-86447781D01*
X219886291Y-86447784D01*
X219886292Y-86447788D01*
X219971592Y-86653720D01*
X219971594Y-86653724D01*
X219971595Y-86653726D01*
X220083052Y-86846774D01*
X220145414Y-86928046D01*
X220214759Y-87018420D01*
X220257729Y-87105556D01*
X220264083Y-87202503D01*
X220232852Y-87294502D01*
X220214759Y-87321580D01*
X220083052Y-87493226D01*
X219971594Y-87686275D01*
X219971592Y-87686279D01*
X219886292Y-87892211D01*
X219886291Y-87892215D01*
X219828595Y-88107541D01*
X219799500Y-88328543D01*
X219799500Y-88551456D01*
X219825262Y-88747143D01*
X219828596Y-88772463D01*
X219886290Y-88987781D01*
X219886291Y-88987784D01*
X219886292Y-88987788D01*
X219971592Y-89193720D01*
X219971594Y-89193724D01*
X219971595Y-89193726D01*
X220083052Y-89386774D01*
X220145414Y-89468046D01*
X220214759Y-89558420D01*
X220257729Y-89645556D01*
X220264083Y-89742503D01*
X220232852Y-89834502D01*
X220214759Y-89861580D01*
X220083052Y-90033226D01*
X219971594Y-90226275D01*
X219971592Y-90226279D01*
X219886292Y-90432211D01*
X219886291Y-90432215D01*
X219886290Y-90432219D01*
X219828596Y-90647537D01*
X219799500Y-90868543D01*
X219799500Y-91091457D01*
X219828596Y-91312463D01*
X219869683Y-91465803D01*
X219886291Y-91527784D01*
X219886292Y-91527788D01*
X219971592Y-91733720D01*
X219971594Y-91733724D01*
X219971595Y-91733726D01*
X220083052Y-91926774D01*
X220107246Y-91958304D01*
X220214759Y-92098420D01*
X220257729Y-92185556D01*
X220264083Y-92282503D01*
X220232852Y-92374502D01*
X220214759Y-92401580D01*
X220083052Y-92573226D01*
X219971594Y-92766275D01*
X219971592Y-92766279D01*
X219886292Y-92972211D01*
X219886291Y-92972215D01*
X219828595Y-93187541D01*
X219799500Y-93408543D01*
X219799500Y-93631456D01*
X219811955Y-93726062D01*
X219805601Y-93823009D01*
X219762630Y-93910145D01*
X219741155Y-93934633D01*
X213099220Y-100576570D01*
X213018438Y-100630546D01*
X212923150Y-100649500D01*
X197496850Y-100649500D01*
X197401562Y-100630546D01*
X197320780Y-100576570D01*
X196423430Y-99679220D01*
X196369454Y-99598438D01*
X196350500Y-99503150D01*
X196350500Y-97836114D01*
X196369454Y-97740826D01*
X196423430Y-97660044D01*
X196504212Y-97606068D01*
X196599500Y-97587114D01*
X196694788Y-97606068D01*
X196751073Y-97638564D01*
X196853226Y-97716948D01*
X197046274Y-97828405D01*
X197046279Y-97828407D01*
X197252211Y-97913707D01*
X197252212Y-97913707D01*
X197252219Y-97913710D01*
X197467537Y-97971404D01*
X197688543Y-98000500D01*
X197911457Y-98000500D01*
X198132463Y-97971404D01*
X198347781Y-97913710D01*
X198553726Y-97828405D01*
X198746774Y-97716948D01*
X198923624Y-97581247D01*
X199081247Y-97423624D01*
X199216948Y-97246774D01*
X199328405Y-97053726D01*
X199413710Y-96847781D01*
X199471404Y-96632463D01*
X199500500Y-96411457D01*
X199500500Y-96188543D01*
X199471404Y-95967537D01*
X199413710Y-95752219D01*
X199403486Y-95727537D01*
X199328407Y-95546279D01*
X199328405Y-95546275D01*
X199328405Y-95546274D01*
X199216948Y-95353226D01*
X199085238Y-95181577D01*
X199077975Y-95166849D01*
X199067146Y-95154501D01*
X199056676Y-95123658D01*
X199042270Y-95094445D01*
X199041195Y-95078055D01*
X199035916Y-95062502D01*
X199038046Y-95030000D01*
X199035916Y-94997498D01*
X199041195Y-94981944D01*
X199042270Y-94965555D01*
X199056676Y-94936341D01*
X199067146Y-94905499D01*
X199085233Y-94878428D01*
X199139339Y-94807915D01*
X199212381Y-94743860D01*
X199304380Y-94712630D01*
X199336882Y-94710500D01*
X201933615Y-94710500D01*
X201933617Y-94710500D01*
X202025433Y-94692236D01*
X202117251Y-94673973D01*
X202194889Y-94641814D01*
X202290230Y-94602323D01*
X202445908Y-94498302D01*
X203738302Y-93205908D01*
X203842323Y-93050230D01*
X203884294Y-92948901D01*
X203913973Y-92877251D01*
X203942982Y-92731412D01*
X203950500Y-92693617D01*
X203950500Y-92506383D01*
X203950500Y-81096850D01*
X203969454Y-81001562D01*
X204023430Y-80920780D01*
X204120780Y-80823430D01*
X204201562Y-80769454D01*
X204296850Y-80750500D01*
X204317309Y-80750500D01*
X204412597Y-80769454D01*
X204493379Y-80823430D01*
X204547355Y-80904212D01*
X204564179Y-80966999D01*
X204588595Y-81152458D01*
X204646291Y-81367784D01*
X204646292Y-81367788D01*
X204731592Y-81573720D01*
X204731594Y-81573724D01*
X204731595Y-81573726D01*
X204843052Y-81766774D01*
X204873741Y-81806769D01*
X204974759Y-81938420D01*
X205017729Y-82025556D01*
X205024083Y-82122503D01*
X204992852Y-82214502D01*
X204974759Y-82241580D01*
X204843052Y-82413226D01*
X204731594Y-82606275D01*
X204731592Y-82606279D01*
X204646292Y-82812211D01*
X204646291Y-82812215D01*
X204588595Y-83027541D01*
X204559500Y-83248543D01*
X204559500Y-83471456D01*
X204588595Y-83692458D01*
X204646291Y-83907784D01*
X204646292Y-83907788D01*
X204731592Y-84113720D01*
X204731594Y-84113724D01*
X204731595Y-84113726D01*
X204843052Y-84306774D01*
X204860455Y-84329454D01*
X204974759Y-84478420D01*
X205017729Y-84565556D01*
X205024083Y-84662503D01*
X204992852Y-84754502D01*
X204974759Y-84781580D01*
X204843052Y-84953226D01*
X204731594Y-85146275D01*
X204731592Y-85146279D01*
X204646292Y-85352211D01*
X204646291Y-85352215D01*
X204588595Y-85567541D01*
X204559500Y-85788543D01*
X204559500Y-86011457D01*
X204588596Y-86232463D01*
X204646290Y-86447781D01*
X204646291Y-86447784D01*
X204646292Y-86447788D01*
X204731592Y-86653720D01*
X204731594Y-86653724D01*
X204731595Y-86653726D01*
X204843052Y-86846774D01*
X204905414Y-86928046D01*
X204974759Y-87018420D01*
X205017729Y-87105556D01*
X205024083Y-87202503D01*
X204992852Y-87294502D01*
X204974759Y-87321580D01*
X204843052Y-87493226D01*
X204731594Y-87686275D01*
X204731592Y-87686279D01*
X204646292Y-87892211D01*
X204646291Y-87892215D01*
X204588595Y-88107541D01*
X204559500Y-88328543D01*
X204559500Y-88551456D01*
X204585262Y-88747143D01*
X204588596Y-88772463D01*
X204646290Y-88987781D01*
X204646291Y-88987784D01*
X204646292Y-88987788D01*
X204731592Y-89193720D01*
X204731594Y-89193724D01*
X204731595Y-89193726D01*
X204843052Y-89386774D01*
X204905414Y-89468046D01*
X204974759Y-89558420D01*
X205017729Y-89645556D01*
X205024083Y-89742503D01*
X204992852Y-89834502D01*
X204974759Y-89861580D01*
X204843052Y-90033226D01*
X204731594Y-90226275D01*
X204731592Y-90226279D01*
X204646292Y-90432211D01*
X204646291Y-90432215D01*
X204646290Y-90432219D01*
X204588596Y-90647537D01*
X204559500Y-90868543D01*
X204559500Y-91091457D01*
X204588596Y-91312463D01*
X204629683Y-91465803D01*
X204646291Y-91527784D01*
X204646292Y-91527788D01*
X204731592Y-91733720D01*
X204731594Y-91733724D01*
X204731595Y-91733726D01*
X204843052Y-91926774D01*
X204867246Y-91958304D01*
X204974759Y-92098420D01*
X205017729Y-92185556D01*
X205024083Y-92282503D01*
X204992852Y-92374502D01*
X204974759Y-92401580D01*
X204843052Y-92573226D01*
X204731594Y-92766275D01*
X204731592Y-92766279D01*
X204646292Y-92972211D01*
X204646291Y-92972215D01*
X204646290Y-92972219D01*
X204588596Y-93187537D01*
X204559500Y-93408543D01*
X204559500Y-93631457D01*
X204588596Y-93852463D01*
X204646290Y-94067781D01*
X204646291Y-94067784D01*
X204646292Y-94067788D01*
X204731592Y-94273720D01*
X204731594Y-94273724D01*
X204731595Y-94273726D01*
X204843052Y-94466774D01*
X204867246Y-94498304D01*
X204974759Y-94638420D01*
X205017729Y-94725556D01*
X205024083Y-94822503D01*
X204992852Y-94914502D01*
X204974759Y-94941580D01*
X204843052Y-95113226D01*
X204731594Y-95306275D01*
X204731592Y-95306279D01*
X204646292Y-95512211D01*
X204646291Y-95512215D01*
X204588595Y-95727541D01*
X204559500Y-95948543D01*
X204559500Y-96171457D01*
X204588596Y-96392463D01*
X204618847Y-96505362D01*
X204646291Y-96607784D01*
X204646292Y-96607788D01*
X204731592Y-96813720D01*
X204731594Y-96813724D01*
X204731595Y-96813726D01*
X204843052Y-97006774D01*
X204978753Y-97183624D01*
X205136376Y-97341247D01*
X205313226Y-97476948D01*
X205506274Y-97588405D01*
X205506279Y-97588407D01*
X205712211Y-97673707D01*
X205712212Y-97673707D01*
X205712219Y-97673710D01*
X205927537Y-97731404D01*
X206148543Y-97760500D01*
X206371457Y-97760500D01*
X206592463Y-97731404D01*
X206807781Y-97673710D01*
X207013726Y-97588405D01*
X207206774Y-97476948D01*
X207383624Y-97341247D01*
X207541247Y-97183624D01*
X207676948Y-97006774D01*
X207788405Y-96813726D01*
X207873710Y-96607781D01*
X207931404Y-96392463D01*
X207960500Y-96171457D01*
X207960500Y-95948543D01*
X207931404Y-95727537D01*
X207873710Y-95512219D01*
X207788405Y-95306274D01*
X207676948Y-95113226D01*
X207545238Y-94941577D01*
X207502270Y-94854445D01*
X207495916Y-94757498D01*
X207527146Y-94665499D01*
X207545233Y-94638428D01*
X207676948Y-94466774D01*
X207788405Y-94273726D01*
X207873710Y-94067781D01*
X207931404Y-93852463D01*
X207960500Y-93631457D01*
X207960500Y-93408543D01*
X207931404Y-93187537D01*
X207873710Y-92972219D01*
X207864051Y-92948901D01*
X207788407Y-92766279D01*
X207788405Y-92766275D01*
X207788405Y-92766274D01*
X207676948Y-92573226D01*
X207545238Y-92401577D01*
X207502270Y-92314445D01*
X207495916Y-92217498D01*
X207527146Y-92125499D01*
X207545233Y-92098428D01*
X207676948Y-91926774D01*
X207788405Y-91733726D01*
X207873710Y-91527781D01*
X207931404Y-91312463D01*
X207960500Y-91091457D01*
X207960500Y-90868543D01*
X207931404Y-90647537D01*
X207873710Y-90432219D01*
X207788405Y-90226274D01*
X207676948Y-90033226D01*
X207545238Y-89861577D01*
X207502270Y-89774445D01*
X207495916Y-89677498D01*
X207527146Y-89585499D01*
X207545233Y-89558428D01*
X207676948Y-89386774D01*
X207788405Y-89193726D01*
X207873710Y-88987781D01*
X207931404Y-88772463D01*
X207960500Y-88551457D01*
X207960500Y-88328543D01*
X207931404Y-88107537D01*
X207873710Y-87892219D01*
X207872639Y-87889634D01*
X207788407Y-87686279D01*
X207788405Y-87686275D01*
X207788405Y-87686274D01*
X207676948Y-87493226D01*
X207545238Y-87321577D01*
X207502270Y-87234445D01*
X207495916Y-87137498D01*
X207527146Y-87045499D01*
X207545233Y-87018428D01*
X207676948Y-86846774D01*
X207788405Y-86653726D01*
X207873710Y-86447781D01*
X207931404Y-86232463D01*
X207960500Y-86011457D01*
X207960500Y-85788543D01*
X207931404Y-85567537D01*
X207873710Y-85352219D01*
X207825641Y-85236171D01*
X207788407Y-85146279D01*
X207788405Y-85146275D01*
X207788405Y-85146274D01*
X207676948Y-84953226D01*
X207545238Y-84781577D01*
X207502270Y-84694445D01*
X207495916Y-84597498D01*
X207527146Y-84505499D01*
X207545233Y-84478428D01*
X207676948Y-84306774D01*
X207788405Y-84113726D01*
X207873710Y-83907781D01*
X207931404Y-83692463D01*
X207960500Y-83471457D01*
X207960500Y-83248543D01*
X207931404Y-83027537D01*
X207873710Y-82812219D01*
X207788405Y-82606274D01*
X207676948Y-82413226D01*
X207545238Y-82241577D01*
X207502270Y-82154445D01*
X207495916Y-82057498D01*
X207527146Y-81965499D01*
X207545233Y-81938428D01*
X207676948Y-81766774D01*
X207788405Y-81573726D01*
X207873710Y-81367781D01*
X207931404Y-81152463D01*
X207960500Y-80931457D01*
X207960500Y-80708543D01*
X207931404Y-80487537D01*
X207873710Y-80272219D01*
X207788405Y-80066274D01*
X207676948Y-79873226D01*
X207545238Y-79701577D01*
X207502270Y-79614445D01*
X207495916Y-79517498D01*
X207527146Y-79425499D01*
X207545233Y-79398428D01*
X207676948Y-79226774D01*
X207788405Y-79033726D01*
X207873710Y-78827781D01*
X207931404Y-78612463D01*
X207960500Y-78391457D01*
X207960500Y-78168543D01*
X207931404Y-77947537D01*
X207873710Y-77732219D01*
X207788405Y-77526274D01*
X207676948Y-77333226D01*
X207545238Y-77161577D01*
X207502270Y-77074445D01*
X207495916Y-76977498D01*
X207527146Y-76885499D01*
X207545239Y-76858421D01*
X207676948Y-76686774D01*
X207788405Y-76493726D01*
X207873710Y-76287781D01*
X207931404Y-76072463D01*
X207960500Y-75851457D01*
X207960500Y-75628543D01*
X207931404Y-75407537D01*
X207873710Y-75192219D01*
X207863486Y-75167537D01*
X207788407Y-74986279D01*
X207788405Y-74986275D01*
X207788405Y-74986274D01*
X207676948Y-74793226D01*
X207545238Y-74621577D01*
X207502270Y-74534445D01*
X207495916Y-74437498D01*
X207527146Y-74345499D01*
X207545233Y-74318428D01*
X207676948Y-74146774D01*
X207788405Y-73953726D01*
X207873710Y-73747781D01*
X207931404Y-73532463D01*
X207960500Y-73311457D01*
X207960500Y-73088543D01*
X207931404Y-72867537D01*
X207873710Y-72652219D01*
X207871487Y-72646853D01*
X207788407Y-72446279D01*
X207788405Y-72446275D01*
X207788405Y-72446274D01*
X207676948Y-72253226D01*
X207545238Y-72081577D01*
X207502270Y-71994445D01*
X207495916Y-71897498D01*
X207527146Y-71805499D01*
X207545233Y-71778428D01*
X207676948Y-71606774D01*
X207788405Y-71413726D01*
X207873710Y-71207781D01*
X207931404Y-70992463D01*
X207960500Y-70771457D01*
X207960500Y-70548543D01*
X207931404Y-70327537D01*
X207873710Y-70112219D01*
X207863486Y-70087537D01*
X207788407Y-69906279D01*
X207788405Y-69906275D01*
X207788405Y-69906274D01*
X207676948Y-69713226D01*
X207541247Y-69536376D01*
X207414418Y-69409547D01*
X207360443Y-69328766D01*
X207341489Y-69233478D01*
X207360443Y-69138190D01*
X207414419Y-69057408D01*
X207469817Y-69020392D01*
X207549754Y-68910367D01*
X207549757Y-68910363D01*
X207657515Y-68698876D01*
X207657519Y-68698866D01*
X207730868Y-68473120D01*
X207767998Y-68238692D01*
X207768000Y-68238677D01*
X207768000Y-68001322D01*
X207767998Y-68001307D01*
X207730868Y-67766879D01*
X207657519Y-67541133D01*
X207657515Y-67541123D01*
X207549757Y-67329636D01*
X207549755Y-67329634D01*
X207474510Y-67226066D01*
X207401147Y-67168230D01*
X207353676Y-67083463D01*
X207342258Y-66986981D01*
X207368631Y-66893474D01*
X207414421Y-66830450D01*
X207541236Y-66703635D01*
X207541247Y-66703624D01*
X207676948Y-66526774D01*
X207788405Y-66333726D01*
X207873710Y-66127781D01*
X207931404Y-65912463D01*
X207960500Y-65691457D01*
X207960500Y-65468543D01*
X207931404Y-65247537D01*
X207873710Y-65032219D01*
X207863486Y-65007537D01*
X207788407Y-64826279D01*
X207788405Y-64826275D01*
X207788405Y-64826274D01*
X207676948Y-64633226D01*
X207545238Y-64461577D01*
X207502270Y-64374445D01*
X207495916Y-64277498D01*
X207527146Y-64185499D01*
X207545233Y-64158428D01*
X207676948Y-63986774D01*
X207788405Y-63793726D01*
X207873710Y-63587781D01*
X207931404Y-63372463D01*
X207960500Y-63151457D01*
X207960500Y-62928543D01*
X207931404Y-62707537D01*
X207873710Y-62492219D01*
X207788405Y-62286274D01*
X207765335Y-62246316D01*
X207734107Y-62154319D01*
X207740462Y-62057372D01*
X207783432Y-61970236D01*
X207804904Y-61945752D01*
X207815472Y-61935185D01*
X207903478Y-61789606D01*
X207954086Y-61627196D01*
X207960500Y-61556616D01*
X207960500Y-59443384D01*
X207954086Y-59372804D01*
X207903478Y-59210394D01*
X207903477Y-59210393D01*
X207903477Y-59210391D01*
X207852987Y-59126873D01*
X207815472Y-59064815D01*
X207695185Y-58944528D01*
X207673723Y-58931553D01*
X207549608Y-58856522D01*
X207387196Y-58805914D01*
X207387188Y-58805912D01*
X207316630Y-58799500D01*
X207316616Y-58799500D01*
X205203384Y-58799500D01*
X205203369Y-58799500D01*
X205132811Y-58805912D01*
X205132803Y-58805914D01*
X204970391Y-58856522D01*
X204824816Y-58944527D01*
X204704527Y-59064816D01*
X204616522Y-59210391D01*
X204565914Y-59372803D01*
X204565912Y-59372811D01*
X204559500Y-59443369D01*
X204559500Y-59451264D01*
X204540546Y-59546552D01*
X204486570Y-59627334D01*
X204448838Y-59658300D01*
X204294093Y-59761697D01*
X199739220Y-64316570D01*
X199658438Y-64370546D01*
X199563150Y-64389500D01*
X199088428Y-64389500D01*
X198993140Y-64370546D01*
X198912358Y-64316570D01*
X198858382Y-64235788D01*
X198839428Y-64140500D01*
X198850702Y-64066424D01*
X198868630Y-64008889D01*
X198894086Y-63927196D01*
X198895777Y-63908596D01*
X198900499Y-63856630D01*
X198900500Y-63856609D01*
X198900500Y-61743390D01*
X198900499Y-61743369D01*
X198894087Y-61672811D01*
X198894086Y-61672808D01*
X198894086Y-61672804D01*
X198843478Y-61510394D01*
X198843477Y-61510393D01*
X198843477Y-61510391D01*
X198792987Y-61426873D01*
X198755472Y-61364815D01*
X198635185Y-61244528D01*
X198613723Y-61231553D01*
X198489608Y-61156522D01*
X198327196Y-61105914D01*
X198327188Y-61105912D01*
X198256630Y-61099500D01*
X198256616Y-61099500D01*
X196143384Y-61099500D01*
X196143369Y-61099500D01*
X196072811Y-61105912D01*
X196072803Y-61105914D01*
X195910391Y-61156522D01*
X195764816Y-61244527D01*
X195644527Y-61364816D01*
X195556522Y-61510391D01*
X195505914Y-61672803D01*
X195505912Y-61672811D01*
X195499500Y-61743369D01*
X195499500Y-63856630D01*
X195505912Y-63927188D01*
X195505914Y-63927196D01*
X195556522Y-64089608D01*
X195631553Y-64213723D01*
X195644528Y-64235185D01*
X195655094Y-64245751D01*
X195709068Y-64326530D01*
X195728022Y-64421818D01*
X195709068Y-64517106D01*
X195694665Y-64546314D01*
X195671594Y-64586274D01*
X195671592Y-64586279D01*
X195586292Y-64792211D01*
X195586291Y-64792215D01*
X195528595Y-65007541D01*
X195499500Y-65228543D01*
X195499500Y-65451457D01*
X195528596Y-65672463D01*
X195586290Y-65887781D01*
X195586291Y-65887784D01*
X195586292Y-65887788D01*
X195671592Y-66093720D01*
X195671594Y-66093724D01*
X195671595Y-66093726D01*
X195783052Y-66286774D01*
X195845414Y-66368046D01*
X195914759Y-66458420D01*
X195957729Y-66545556D01*
X195964083Y-66642503D01*
X195932852Y-66734502D01*
X195914759Y-66761580D01*
X195783052Y-66933226D01*
X195671594Y-67126275D01*
X195671592Y-67126279D01*
X195586292Y-67332211D01*
X195586291Y-67332215D01*
X195528595Y-67547541D01*
X195515797Y-67644755D01*
X195499500Y-67768543D01*
X195499500Y-67991457D01*
X195507583Y-68052857D01*
X195525262Y-68187143D01*
X195528596Y-68212463D01*
X195535620Y-68238677D01*
X195586291Y-68427784D01*
X195586292Y-68427788D01*
X195671592Y-68633720D01*
X195671594Y-68633724D01*
X195671595Y-68633726D01*
X195783052Y-68826774D01*
X195845414Y-68908046D01*
X195914759Y-68998420D01*
X195957729Y-69085556D01*
X195964083Y-69182503D01*
X195932852Y-69274502D01*
X195914759Y-69301580D01*
X195783052Y-69473226D01*
X195671594Y-69666275D01*
X195671592Y-69666279D01*
X195586292Y-69872211D01*
X195586291Y-69872215D01*
X195528595Y-70087541D01*
X195499500Y-70308543D01*
X195499500Y-70531457D01*
X195528596Y-70752463D01*
X195586290Y-70967781D01*
X195586291Y-70967784D01*
X195586292Y-70967788D01*
X195671592Y-71173720D01*
X195671594Y-71173724D01*
X195671595Y-71173726D01*
X195783052Y-71366774D01*
X195918753Y-71543624D01*
X195918755Y-71543626D01*
X196045579Y-71670450D01*
X196099555Y-71751232D01*
X196118509Y-71846520D01*
X196099555Y-71941808D01*
X196045579Y-72022590D01*
X195990184Y-72059602D01*
X195910239Y-72169641D01*
X195802482Y-72381128D01*
X195802480Y-72381133D01*
X195729131Y-72606879D01*
X195692001Y-72841307D01*
X195692000Y-72841322D01*
X195692000Y-73078677D01*
X195692001Y-73078692D01*
X195729131Y-73313120D01*
X195802480Y-73538866D01*
X195802484Y-73538876D01*
X195910241Y-73750360D01*
X195910247Y-73750371D01*
X195985484Y-73853927D01*
X196058852Y-73911767D01*
X196106324Y-73996534D01*
X196117742Y-74093016D01*
X196091370Y-74186523D01*
X196045580Y-74249547D01*
X195918764Y-74376363D01*
X195918755Y-74376373D01*
X195783049Y-74553230D01*
X195671594Y-74746275D01*
X195671592Y-74746279D01*
X195586292Y-74952211D01*
X195586291Y-74952215D01*
X195528595Y-75167541D01*
X195499500Y-75388543D01*
X195499500Y-75611459D01*
X195510791Y-75697228D01*
X195504436Y-75794175D01*
X195461465Y-75881310D01*
X195439997Y-75905790D01*
X195425576Y-75920212D01*
X195344796Y-75974192D01*
X195249509Y-75993149D01*
X195154220Y-75974198D01*
X195073437Y-75920225D01*
X195019457Y-75839445D01*
X195000500Y-75744158D01*
X195000500Y-50749500D01*
X195019454Y-50654212D01*
X195073430Y-50573430D01*
X195154212Y-50519454D01*
X195249500Y-50500500D01*
X224210325Y-50500500D01*
X224305613Y-50519454D01*
G37*
G04 #@! TD.AperFunction*
G04 #@! TA.AperFunction,Conductor*
G36*
X204842373Y-64119218D02*
G01*
X204923155Y-64173194D01*
X204977131Y-64253976D01*
X204996085Y-64349264D01*
X204977131Y-64444552D01*
X204944631Y-64500844D01*
X204843052Y-64633226D01*
X204731594Y-64826275D01*
X204731592Y-64826279D01*
X204646292Y-65032211D01*
X204646291Y-65032215D01*
X204588595Y-65247541D01*
X204559500Y-65468543D01*
X204559500Y-65691456D01*
X204585346Y-65887781D01*
X204588596Y-65912463D01*
X204637165Y-66093726D01*
X204646291Y-66127784D01*
X204646292Y-66127788D01*
X204731592Y-66333720D01*
X204731594Y-66333724D01*
X204731595Y-66333726D01*
X204843052Y-66526774D01*
X204974760Y-66698420D01*
X204978755Y-66703626D01*
X205105579Y-66830450D01*
X205159555Y-66911232D01*
X205178509Y-67006520D01*
X205159555Y-67101808D01*
X205105579Y-67182590D01*
X205050184Y-67219602D01*
X204970239Y-67329641D01*
X204862482Y-67541128D01*
X204862480Y-67541133D01*
X204789131Y-67766879D01*
X204752001Y-68001307D01*
X204752000Y-68001322D01*
X204752000Y-68238677D01*
X204752001Y-68238692D01*
X204789131Y-68473120D01*
X204862480Y-68698866D01*
X204862484Y-68698876D01*
X204970241Y-68910360D01*
X204970247Y-68910371D01*
X205045484Y-69013927D01*
X205118852Y-69071767D01*
X205166324Y-69156534D01*
X205177742Y-69253016D01*
X205151370Y-69346523D01*
X205105580Y-69409547D01*
X204978764Y-69536363D01*
X204978755Y-69536373D01*
X204843049Y-69713230D01*
X204731594Y-69906275D01*
X204731592Y-69906279D01*
X204646292Y-70112211D01*
X204646291Y-70112215D01*
X204588595Y-70327541D01*
X204559500Y-70548543D01*
X204559500Y-70771456D01*
X204585346Y-70967781D01*
X204588596Y-70992463D01*
X204637165Y-71173726D01*
X204646291Y-71207784D01*
X204646292Y-71207788D01*
X204731592Y-71413720D01*
X204731594Y-71413724D01*
X204731595Y-71413726D01*
X204843052Y-71606774D01*
X204891912Y-71670450D01*
X204974759Y-71778420D01*
X205017729Y-71865556D01*
X205024083Y-71962503D01*
X204992852Y-72054502D01*
X204974759Y-72081580D01*
X204843052Y-72253226D01*
X204731594Y-72446275D01*
X204731592Y-72446279D01*
X204646292Y-72652211D01*
X204646291Y-72652215D01*
X204588595Y-72867541D01*
X204559500Y-73088543D01*
X204559500Y-73311456D01*
X204580372Y-73470000D01*
X204588596Y-73532463D01*
X204607645Y-73603554D01*
X204646291Y-73747784D01*
X204646292Y-73747788D01*
X204731592Y-73953720D01*
X204731594Y-73953724D01*
X204731595Y-73953726D01*
X204843052Y-74146774D01*
X204974759Y-74318419D01*
X204982023Y-74333148D01*
X204992851Y-74345495D01*
X205003321Y-74376337D01*
X205017729Y-74405554D01*
X205018803Y-74421942D01*
X205024082Y-74437493D01*
X205021952Y-74469994D01*
X205024083Y-74502501D01*
X205018803Y-74518053D01*
X205017730Y-74534440D01*
X205003323Y-74563654D01*
X204992853Y-74594500D01*
X204974761Y-74621577D01*
X204943979Y-74661694D01*
X204920663Y-74692080D01*
X204847622Y-74756138D01*
X204755624Y-74787369D01*
X204723118Y-74789500D01*
X202766381Y-74789500D01*
X202674564Y-74807763D01*
X202582748Y-74826026D01*
X202532081Y-74847013D01*
X202409772Y-74897675D01*
X202409764Y-74897680D01*
X202254094Y-75001696D01*
X200861695Y-76394095D01*
X200757678Y-76549767D01*
X200733311Y-76608596D01*
X200686027Y-76722746D01*
X200649500Y-76906385D01*
X200649500Y-89703150D01*
X200630546Y-89798438D01*
X200576570Y-89879220D01*
X200259220Y-90196570D01*
X200178438Y-90250546D01*
X200083150Y-90269500D01*
X199336882Y-90269500D01*
X199241594Y-90250546D01*
X199160812Y-90196570D01*
X199139336Y-90172080D01*
X199081250Y-90096380D01*
X199081247Y-90096376D01*
X198954419Y-89969548D01*
X198900443Y-89888766D01*
X198881489Y-89793478D01*
X198900443Y-89698190D01*
X198954419Y-89617408D01*
X199009817Y-89580392D01*
X199089754Y-89470367D01*
X199089757Y-89470363D01*
X199197515Y-89258876D01*
X199197519Y-89258866D01*
X199270868Y-89033120D01*
X199307998Y-88798692D01*
X199308000Y-88798677D01*
X199308000Y-88561322D01*
X199307998Y-88561307D01*
X199270868Y-88326879D01*
X199197519Y-88101133D01*
X199197515Y-88101123D01*
X199089757Y-87889636D01*
X199089755Y-87889634D01*
X199014510Y-87786066D01*
X198941147Y-87728230D01*
X198893676Y-87643463D01*
X198882258Y-87546981D01*
X198908631Y-87453474D01*
X198954421Y-87390450D01*
X199081236Y-87263635D01*
X199081247Y-87263624D01*
X199216948Y-87086774D01*
X199328405Y-86893726D01*
X199413710Y-86687781D01*
X199471404Y-86472463D01*
X199500500Y-86251457D01*
X199500500Y-86028543D01*
X199471404Y-85807537D01*
X199413710Y-85592219D01*
X199403486Y-85567537D01*
X199328407Y-85386279D01*
X199328405Y-85386274D01*
X199305335Y-85346316D01*
X199274107Y-85254319D01*
X199280462Y-85157372D01*
X199323432Y-85070236D01*
X199344904Y-85045752D01*
X199355472Y-85035185D01*
X199443478Y-84889606D01*
X199494086Y-84727196D01*
X199497063Y-84694445D01*
X199500499Y-84656630D01*
X199500500Y-84656609D01*
X199500500Y-82543390D01*
X199500499Y-82543369D01*
X199494087Y-82472811D01*
X199494086Y-82472808D01*
X199494086Y-82472804D01*
X199443478Y-82310394D01*
X199443477Y-82310393D01*
X199443477Y-82310391D01*
X199363472Y-82178049D01*
X199355472Y-82164815D01*
X199235185Y-82044528D01*
X199203802Y-82025556D01*
X199089608Y-81956522D01*
X198927196Y-81905914D01*
X198927188Y-81905912D01*
X198856630Y-81899500D01*
X198856616Y-81899500D01*
X196743384Y-81899500D01*
X196743369Y-81899500D01*
X196672811Y-81905912D01*
X196659887Y-81908484D01*
X196659622Y-81907155D01*
X196576955Y-81915924D01*
X196483774Y-81888420D01*
X196408212Y-81827351D01*
X196361771Y-81742014D01*
X196350500Y-81667947D01*
X196350500Y-77786848D01*
X196369454Y-77691560D01*
X196423428Y-77610781D01*
X196776529Y-77257679D01*
X196857307Y-77203705D01*
X196952596Y-77184751D01*
X196985095Y-77186880D01*
X197088543Y-77200500D01*
X197311457Y-77200500D01*
X197532463Y-77171404D01*
X197747781Y-77113710D01*
X197953726Y-77028405D01*
X198146774Y-76916948D01*
X198323624Y-76781247D01*
X198481247Y-76623624D01*
X198616948Y-76446774D01*
X198728405Y-76253726D01*
X198813710Y-76047781D01*
X198871404Y-75832463D01*
X198900500Y-75611457D01*
X198900500Y-75388543D01*
X198871404Y-75167537D01*
X198813710Y-74952219D01*
X198728405Y-74746274D01*
X198616948Y-74553226D01*
X198481247Y-74376376D01*
X198354418Y-74249547D01*
X198300443Y-74168766D01*
X198281489Y-74073478D01*
X198300443Y-73978190D01*
X198354419Y-73897408D01*
X198409817Y-73860392D01*
X198489754Y-73750367D01*
X198489757Y-73750363D01*
X198597515Y-73538876D01*
X198597519Y-73538866D01*
X198670868Y-73313120D01*
X198707998Y-73078692D01*
X198708000Y-73078677D01*
X198708000Y-72841322D01*
X198707998Y-72841307D01*
X198670868Y-72606879D01*
X198597519Y-72381133D01*
X198597515Y-72381123D01*
X198489757Y-72169636D01*
X198489755Y-72169634D01*
X198414510Y-72066066D01*
X198341147Y-72008230D01*
X198293676Y-71923463D01*
X198282258Y-71826981D01*
X198308631Y-71733474D01*
X198354421Y-71670450D01*
X198481236Y-71543635D01*
X198481247Y-71543624D01*
X198616948Y-71366774D01*
X198728405Y-71173726D01*
X198813710Y-70967781D01*
X198871404Y-70752463D01*
X198900500Y-70531457D01*
X198900500Y-70308543D01*
X198871404Y-70087537D01*
X198813710Y-69872219D01*
X198728405Y-69666274D01*
X198616948Y-69473226D01*
X198485238Y-69301577D01*
X198477975Y-69286849D01*
X198467146Y-69274501D01*
X198456676Y-69243658D01*
X198442270Y-69214445D01*
X198441195Y-69198055D01*
X198435916Y-69182502D01*
X198438046Y-69150000D01*
X198435916Y-69117498D01*
X198441195Y-69101944D01*
X198442270Y-69085555D01*
X198456676Y-69056341D01*
X198467146Y-69025499D01*
X198485233Y-68998428D01*
X198539339Y-68927915D01*
X198612381Y-68863860D01*
X198704380Y-68832630D01*
X198736882Y-68830500D01*
X199613615Y-68830500D01*
X199613617Y-68830500D01*
X199705433Y-68812236D01*
X199797251Y-68793973D01*
X199892692Y-68754440D01*
X199970230Y-68722323D01*
X200125908Y-68618302D01*
X204571018Y-64173191D01*
X204651797Y-64119218D01*
X204747085Y-64100264D01*
X204842373Y-64119218D01*
G37*
G04 #@! TD.AperFunction*
G04 #@! TA.AperFunction,Conductor*
G36*
X198721984Y-89242773D02*
G01*
X198738957Y-89268176D01*
X198775960Y-89323554D01*
X198783846Y-89363198D01*
X198794914Y-89418843D01*
X198775960Y-89514131D01*
X198721984Y-89594913D01*
X198688317Y-89617408D01*
X198641203Y-89648889D01*
X198545915Y-89667843D01*
X198545914Y-89667842D01*
X198545914Y-89667843D01*
X198450627Y-89648889D01*
X198426487Y-89638890D01*
X198345705Y-89584914D01*
X198345704Y-89584914D01*
X197933113Y-89172323D01*
X197996853Y-89155245D01*
X198113147Y-89088102D01*
X198208102Y-88993147D01*
X198275245Y-88876853D01*
X198292323Y-88813112D01*
X198721984Y-89242773D01*
G37*
G04 #@! TD.AperFunction*
G04 #@! TA.AperFunction,Conductor*
G36*
X198641211Y-87711112D02*
G01*
X198721990Y-87765091D01*
X198775964Y-87845875D01*
X198794915Y-87941163D01*
X198775958Y-88036451D01*
X198721985Y-88117225D01*
X198292323Y-88546885D01*
X198275245Y-88483147D01*
X198208102Y-88366853D01*
X198113147Y-88271898D01*
X197996853Y-88204755D01*
X197933112Y-88187675D01*
X198345703Y-87775085D01*
X198426477Y-87721112D01*
X198450637Y-87711105D01*
X198545923Y-87692155D01*
X198641211Y-87711112D01*
G37*
G04 #@! TD.AperFunction*
G04 #@! TA.AperFunction,Conductor*
G36*
X196724755Y-73156853D02*
G01*
X196791898Y-73273147D01*
X196886853Y-73368102D01*
X197003147Y-73435245D01*
X197066886Y-73452323D01*
X196654295Y-73864913D01*
X196639329Y-73874913D01*
X196573515Y-73918889D01*
X196549373Y-73928889D01*
X196454084Y-73947843D01*
X196358796Y-73928889D01*
X196278015Y-73874913D01*
X196224038Y-73794132D01*
X196205084Y-73698843D01*
X196224038Y-73603555D01*
X196278014Y-73522774D01*
X196278015Y-73522773D01*
X196707676Y-73093112D01*
X196724755Y-73156853D01*
G37*
G04 #@! TD.AperFunction*
G04 #@! TA.AperFunction,Conductor*
G36*
X198121984Y-73522773D02*
G01*
X198138957Y-73548176D01*
X198175960Y-73603554D01*
X198183846Y-73643198D01*
X198194914Y-73698843D01*
X198175960Y-73794131D01*
X198121984Y-73874913D01*
X198088317Y-73897408D01*
X198041203Y-73928889D01*
X197945915Y-73947843D01*
X197945914Y-73947842D01*
X197945914Y-73947843D01*
X197850627Y-73928889D01*
X197826487Y-73918890D01*
X197745705Y-73864914D01*
X197745704Y-73864913D01*
X197333113Y-73452323D01*
X197396853Y-73435245D01*
X197513147Y-73368102D01*
X197608102Y-73273147D01*
X197675245Y-73156853D01*
X197692323Y-73093112D01*
X198121984Y-73522773D01*
G37*
G04 #@! TD.AperFunction*
G04 #@! TA.AperFunction,Conductor*
G36*
X196549357Y-71991106D02*
G01*
X196549367Y-71991108D01*
X196570331Y-71999791D01*
X196573503Y-72001105D01*
X196573506Y-72001106D01*
X196654289Y-72055080D01*
X196654293Y-72055084D01*
X197066886Y-72467676D01*
X197003147Y-72484755D01*
X196886853Y-72551898D01*
X196791898Y-72646853D01*
X196724755Y-72763147D01*
X196707676Y-72826887D01*
X196278015Y-72397226D01*
X196249049Y-72353875D01*
X196224041Y-72316450D01*
X196224040Y-72316445D01*
X196224039Y-72316444D01*
X196212813Y-72260008D01*
X196205085Y-72221162D01*
X196205085Y-72221156D01*
X196222051Y-72135860D01*
X196224037Y-72125874D01*
X196224038Y-72125872D01*
X196224039Y-72125868D01*
X196271334Y-72055085D01*
X196278011Y-72045091D01*
X196278012Y-72045090D01*
X196278015Y-72045086D01*
X196321365Y-72016120D01*
X196358791Y-71991112D01*
X196358795Y-71991111D01*
X196358797Y-71991110D01*
X196397217Y-71983467D01*
X196454079Y-71972156D01*
X196454085Y-71972156D01*
X196549357Y-71991106D01*
G37*
G04 #@! TD.AperFunction*
G04 #@! TA.AperFunction,Conductor*
G36*
X198041211Y-71991112D02*
G01*
X198121990Y-72045091D01*
X198175964Y-72125875D01*
X198194915Y-72221163D01*
X198175958Y-72316451D01*
X198121985Y-72397224D01*
X197692323Y-72826885D01*
X197675245Y-72763147D01*
X197608102Y-72646853D01*
X197513147Y-72551898D01*
X197396853Y-72484755D01*
X197333112Y-72467675D01*
X197745709Y-72055079D01*
X197777845Y-72033607D01*
X197826475Y-72001113D01*
X197850637Y-71991105D01*
X197945923Y-71972155D01*
X198041211Y-71991112D01*
G37*
G04 #@! TD.AperFunction*
G04 #@! TA.AperFunction,Conductor*
G36*
X205784755Y-68316853D02*
G01*
X205851898Y-68433147D01*
X205946853Y-68528102D01*
X206063147Y-68595245D01*
X206126886Y-68612323D01*
X205714295Y-69024913D01*
X205661323Y-69060308D01*
X205633515Y-69078889D01*
X205609373Y-69088889D01*
X205514084Y-69107843D01*
X205418796Y-69088889D01*
X205338015Y-69034913D01*
X205284038Y-68954132D01*
X205265084Y-68858843D01*
X205284038Y-68763555D01*
X205338014Y-68682774D01*
X205338015Y-68682773D01*
X205767676Y-68253112D01*
X205784755Y-68316853D01*
G37*
G04 #@! TD.AperFunction*
G04 #@! TA.AperFunction,Conductor*
G36*
X207181984Y-68682773D02*
G01*
X207205281Y-68717640D01*
X207235960Y-68763554D01*
X207246881Y-68818455D01*
X207254914Y-68858843D01*
X207235960Y-68954131D01*
X207181984Y-69034913D01*
X207143977Y-69060308D01*
X207101203Y-69088889D01*
X207005915Y-69107843D01*
X207005914Y-69107842D01*
X207005914Y-69107843D01*
X206910627Y-69088889D01*
X206886487Y-69078890D01*
X206805705Y-69024914D01*
X206805704Y-69024913D01*
X206393113Y-68612323D01*
X206456853Y-68595245D01*
X206573147Y-68528102D01*
X206668102Y-68433147D01*
X206735245Y-68316853D01*
X206752323Y-68253112D01*
X207181984Y-68682773D01*
G37*
G04 #@! TD.AperFunction*
G04 #@! TA.AperFunction,Conductor*
G36*
X205609357Y-67151106D02*
G01*
X205609367Y-67151108D01*
X205630331Y-67159791D01*
X205633503Y-67161105D01*
X205633506Y-67161106D01*
X205714289Y-67215080D01*
X205714293Y-67215084D01*
X206126886Y-67627676D01*
X206063147Y-67644755D01*
X205946853Y-67711898D01*
X205851898Y-67806853D01*
X205784755Y-67923147D01*
X205767676Y-67986887D01*
X205338015Y-67557226D01*
X205309049Y-67513875D01*
X205284041Y-67476450D01*
X205284040Y-67476445D01*
X205284039Y-67476444D01*
X205276154Y-67436802D01*
X205265085Y-67381162D01*
X205265085Y-67381156D01*
X205282051Y-67295860D01*
X205284037Y-67285874D01*
X205284038Y-67285872D01*
X205284039Y-67285868D01*
X205331334Y-67215085D01*
X205338011Y-67205091D01*
X205338012Y-67205090D01*
X205338015Y-67205086D01*
X205381365Y-67176120D01*
X205418791Y-67151112D01*
X205418795Y-67151111D01*
X205418797Y-67151110D01*
X205457217Y-67143467D01*
X205514079Y-67132156D01*
X205514085Y-67132156D01*
X205609357Y-67151106D01*
G37*
G04 #@! TD.AperFunction*
G04 #@! TA.AperFunction,Conductor*
G36*
X207101211Y-67151112D02*
G01*
X207181990Y-67205091D01*
X207235964Y-67285875D01*
X207254915Y-67381163D01*
X207235958Y-67476451D01*
X207181985Y-67557224D01*
X206752323Y-67986885D01*
X206735245Y-67923147D01*
X206668102Y-67806853D01*
X206573147Y-67711898D01*
X206456853Y-67644755D01*
X206393112Y-67627675D01*
X206805709Y-67215079D01*
X206837845Y-67193607D01*
X206886475Y-67161113D01*
X206910637Y-67151105D01*
X207005923Y-67132155D01*
X207101211Y-67151112D01*
G37*
G04 #@! TD.AperFunction*
G04 #@! TA.AperFunction,Conductor*
G36*
X221024755Y-63236853D02*
G01*
X221091898Y-63353147D01*
X221186853Y-63448102D01*
X221303147Y-63515245D01*
X221366884Y-63532323D01*
X220954295Y-63944913D01*
X220873518Y-63998887D01*
X220849377Y-64008887D01*
X220754089Y-64027843D01*
X220658801Y-64008891D01*
X220578018Y-63954916D01*
X220524041Y-63874135D01*
X220505085Y-63778847D01*
X220524037Y-63683559D01*
X220578012Y-63602776D01*
X220578016Y-63602773D01*
X221007676Y-63173113D01*
X221024755Y-63236853D01*
G37*
G04 #@! TD.AperFunction*
G04 #@! TA.AperFunction,Conductor*
G36*
X222421983Y-63602773D02*
G01*
X222475960Y-63683554D01*
X222483846Y-63723198D01*
X222494914Y-63778843D01*
X222475960Y-63874131D01*
X222431872Y-63940113D01*
X222421984Y-63954912D01*
X222341203Y-64008889D01*
X222245915Y-64027843D01*
X222245914Y-64027842D01*
X222245914Y-64027843D01*
X222150627Y-64008889D01*
X222126487Y-63998890D01*
X222045705Y-63944914D01*
X222045704Y-63944913D01*
X221633113Y-63532323D01*
X221696853Y-63515245D01*
X221813147Y-63448102D01*
X221908102Y-63353147D01*
X221975245Y-63236853D01*
X221992323Y-63173114D01*
X222421983Y-63602773D01*
G37*
G04 #@! TD.AperFunction*
M02*
