M48
; DRILL file {KiCad 9.0.2} date 2025-05-20T08:38:19+0200
; FORMAT={-:-/ absolute / metric / decimal}
; #@! TF.CreationDate,2025-05-20T08:38:19+02:00
; #@! TF.GenerationSoftware,Kicad,Pcbnew,9.0.2
; #@! TF.FileFunction,MixedPlating,1,2
FMAT,2
METRIC
; #@! TA.AperFunction,Plated,PTH,ComponentDrill
T1C0.700
; #@! TA.AperFunction,Plated,PTH,ComponentDrill
T2C1.020
%
G90
G05
T1
X197.5Y-72.0
X197.5Y-73.27
X197.5Y-74.54
X197.5Y-75.81
X197.5Y-77.08
X197.5Y-78.35
X197.5Y-92.5
X197.5Y-93.77
X197.5Y-95.04
X197.5Y-96.31
X197.5Y-97.58
X197.5Y-98.85
X233.5Y-80.5
X233.5Y-81.77
X233.5Y-83.04
T2
X206.26Y-60.5
X206.26Y-63.04
X206.26Y-65.58
X206.26Y-68.12
X206.26Y-70.66
X206.26Y-73.2
X206.26Y-75.74
X206.26Y-78.28
X206.26Y-80.82
X206.26Y-83.36
X206.26Y-85.9
X206.26Y-88.44
X206.26Y-90.98
X206.26Y-93.52
X206.26Y-96.06
X221.5Y-60.5
X221.5Y-63.04
X221.5Y-65.58
X221.5Y-68.12
X221.5Y-70.66
X221.5Y-73.2
X221.5Y-75.74
X221.5Y-78.28
X221.5Y-80.82
X221.5Y-83.36
X221.5Y-85.9
X221.5Y-88.44
X221.5Y-90.98
X221.5Y-93.52
X221.5Y-96.06
M30
