%TF.GenerationSoftware,KiCad,Pcbnew,9.0.2*%
%TF.CreationDate,2025-05-13T11:15:57+02:00*%
%TF.ProjectId,Carte_Drone,43617274-655f-4447-926f-6e652e6b6963,rev?*%
%TF.SameCoordinates,Original*%
%TF.FileFunction,Copper,L1,Top*%
%TF.FilePolarity,Positive*%
%FSLAX46Y46*%
G04 Gerber Fmt 4.6, Leading zero omitted, Abs format (unit mm)*
G04 Created by KiCad (PCBNEW 9.0.2) date 2025-05-13 11:15:57*
%MOMM*%
%LPD*%
G01*
G04 APERTURE LIST*
%ADD10C,0.100000*%
%TA.AperFunction,NonConductor*%
%ADD11C,0.100000*%
%TD*%
%ADD12C,0.125000*%
%TA.AperFunction,NonConductor*%
%ADD13C,0.125000*%
%TD*%
%TA.AperFunction,ComponentPad*%
%ADD14R,1.530000X1.530000*%
%TD*%
%TA.AperFunction,ComponentPad*%
%ADD15C,1.530000*%
%TD*%
%TA.AperFunction,ComponentPad*%
%ADD16R,1.000000X1.000000*%
%TD*%
%TA.AperFunction,ComponentPad*%
%ADD17C,1.000000*%
%TD*%
G04 APERTURE END LIST*
D10*
D11*
X223384836Y-67943133D02*
X223765789Y-67943133D01*
X223575312Y-68133609D02*
X223575312Y-67752657D01*
X224241979Y-67633609D02*
X224003884Y-67633609D01*
X224003884Y-67633609D02*
X223980075Y-67871704D01*
X223980075Y-67871704D02*
X224003884Y-67847895D01*
X224003884Y-67847895D02*
X224051503Y-67824085D01*
X224051503Y-67824085D02*
X224170551Y-67824085D01*
X224170551Y-67824085D02*
X224218170Y-67847895D01*
X224218170Y-67847895D02*
X224241979Y-67871704D01*
X224241979Y-67871704D02*
X224265789Y-67919323D01*
X224265789Y-67919323D02*
X224265789Y-68038371D01*
X224265789Y-68038371D02*
X224241979Y-68085990D01*
X224241979Y-68085990D02*
X224218170Y-68109800D01*
X224218170Y-68109800D02*
X224170551Y-68133609D01*
X224170551Y-68133609D02*
X224051503Y-68133609D01*
X224051503Y-68133609D02*
X224003884Y-68109800D01*
X224003884Y-68109800D02*
X223980075Y-68085990D01*
X224408646Y-67633609D02*
X224575312Y-68133609D01*
X224575312Y-68133609D02*
X224741979Y-67633609D01*
D10*
D11*
X226844360Y-51873182D02*
X226844360Y-51123182D01*
X226844360Y-51123182D02*
X227130074Y-51123182D01*
X227130074Y-51123182D02*
X227201503Y-51158896D01*
X227201503Y-51158896D02*
X227237217Y-51194610D01*
X227237217Y-51194610D02*
X227272931Y-51266039D01*
X227272931Y-51266039D02*
X227272931Y-51373182D01*
X227272931Y-51373182D02*
X227237217Y-51444610D01*
X227237217Y-51444610D02*
X227201503Y-51480325D01*
X227201503Y-51480325D02*
X227130074Y-51516039D01*
X227130074Y-51516039D02*
X226844360Y-51516039D01*
X227594360Y-51873182D02*
X227594360Y-51373182D01*
X227594360Y-51516039D02*
X227630074Y-51444610D01*
X227630074Y-51444610D02*
X227665789Y-51408896D01*
X227665789Y-51408896D02*
X227737217Y-51373182D01*
X227737217Y-51373182D02*
X227808646Y-51373182D01*
X228165789Y-51873182D02*
X228094360Y-51837468D01*
X228094360Y-51837468D02*
X228058646Y-51801753D01*
X228058646Y-51801753D02*
X228022932Y-51730325D01*
X228022932Y-51730325D02*
X228022932Y-51516039D01*
X228022932Y-51516039D02*
X228058646Y-51444610D01*
X228058646Y-51444610D02*
X228094360Y-51408896D01*
X228094360Y-51408896D02*
X228165789Y-51373182D01*
X228165789Y-51373182D02*
X228272932Y-51373182D01*
X228272932Y-51373182D02*
X228344360Y-51408896D01*
X228344360Y-51408896D02*
X228380075Y-51444610D01*
X228380075Y-51444610D02*
X228415789Y-51516039D01*
X228415789Y-51516039D02*
X228415789Y-51730325D01*
X228415789Y-51730325D02*
X228380075Y-51801753D01*
X228380075Y-51801753D02*
X228344360Y-51837468D01*
X228344360Y-51837468D02*
X228272932Y-51873182D01*
X228272932Y-51873182D02*
X228165789Y-51873182D01*
X228737217Y-51373182D02*
X228737217Y-52016039D01*
X228737217Y-52016039D02*
X228701503Y-52087468D01*
X228701503Y-52087468D02*
X228630074Y-52123182D01*
X228630074Y-52123182D02*
X228594360Y-52123182D01*
X228737217Y-51123182D02*
X228701503Y-51158896D01*
X228701503Y-51158896D02*
X228737217Y-51194610D01*
X228737217Y-51194610D02*
X228772931Y-51158896D01*
X228772931Y-51158896D02*
X228737217Y-51123182D01*
X228737217Y-51123182D02*
X228737217Y-51194610D01*
X229380074Y-51837468D02*
X229308646Y-51873182D01*
X229308646Y-51873182D02*
X229165789Y-51873182D01*
X229165789Y-51873182D02*
X229094360Y-51837468D01*
X229094360Y-51837468D02*
X229058646Y-51766039D01*
X229058646Y-51766039D02*
X229058646Y-51480325D01*
X229058646Y-51480325D02*
X229094360Y-51408896D01*
X229094360Y-51408896D02*
X229165789Y-51373182D01*
X229165789Y-51373182D02*
X229308646Y-51373182D01*
X229308646Y-51373182D02*
X229380074Y-51408896D01*
X229380074Y-51408896D02*
X229415789Y-51480325D01*
X229415789Y-51480325D02*
X229415789Y-51551753D01*
X229415789Y-51551753D02*
X229058646Y-51623182D01*
X229630074Y-51373182D02*
X229915788Y-51373182D01*
X229737217Y-51123182D02*
X229737217Y-51766039D01*
X229737217Y-51766039D02*
X229772931Y-51837468D01*
X229772931Y-51837468D02*
X229844360Y-51873182D01*
X229844360Y-51873182D02*
X229915788Y-51873182D01*
X230737217Y-51873182D02*
X230737217Y-51123182D01*
X230737217Y-51123182D02*
X230915788Y-51123182D01*
X230915788Y-51123182D02*
X231022931Y-51158896D01*
X231022931Y-51158896D02*
X231094360Y-51230325D01*
X231094360Y-51230325D02*
X231130074Y-51301753D01*
X231130074Y-51301753D02*
X231165788Y-51444610D01*
X231165788Y-51444610D02*
X231165788Y-51551753D01*
X231165788Y-51551753D02*
X231130074Y-51694610D01*
X231130074Y-51694610D02*
X231094360Y-51766039D01*
X231094360Y-51766039D02*
X231022931Y-51837468D01*
X231022931Y-51837468D02*
X230915788Y-51873182D01*
X230915788Y-51873182D02*
X230737217Y-51873182D01*
X231487217Y-51873182D02*
X231487217Y-51373182D01*
X231487217Y-51516039D02*
X231522931Y-51444610D01*
X231522931Y-51444610D02*
X231558646Y-51408896D01*
X231558646Y-51408896D02*
X231630074Y-51373182D01*
X231630074Y-51373182D02*
X231701503Y-51373182D01*
X232058646Y-51873182D02*
X231987217Y-51837468D01*
X231987217Y-51837468D02*
X231951503Y-51801753D01*
X231951503Y-51801753D02*
X231915789Y-51730325D01*
X231915789Y-51730325D02*
X231915789Y-51516039D01*
X231915789Y-51516039D02*
X231951503Y-51444610D01*
X231951503Y-51444610D02*
X231987217Y-51408896D01*
X231987217Y-51408896D02*
X232058646Y-51373182D01*
X232058646Y-51373182D02*
X232165789Y-51373182D01*
X232165789Y-51373182D02*
X232237217Y-51408896D01*
X232237217Y-51408896D02*
X232272932Y-51444610D01*
X232272932Y-51444610D02*
X232308646Y-51516039D01*
X232308646Y-51516039D02*
X232308646Y-51730325D01*
X232308646Y-51730325D02*
X232272932Y-51801753D01*
X232272932Y-51801753D02*
X232237217Y-51837468D01*
X232237217Y-51837468D02*
X232165789Y-51873182D01*
X232165789Y-51873182D02*
X232058646Y-51873182D01*
X232630074Y-51373182D02*
X232630074Y-51873182D01*
X232630074Y-51444610D02*
X232665788Y-51408896D01*
X232665788Y-51408896D02*
X232737217Y-51373182D01*
X232737217Y-51373182D02*
X232844360Y-51373182D01*
X232844360Y-51373182D02*
X232915788Y-51408896D01*
X232915788Y-51408896D02*
X232951503Y-51480325D01*
X232951503Y-51480325D02*
X232951503Y-51873182D01*
X233594359Y-51837468D02*
X233522931Y-51873182D01*
X233522931Y-51873182D02*
X233380074Y-51873182D01*
X233380074Y-51873182D02*
X233308645Y-51837468D01*
X233308645Y-51837468D02*
X233272931Y-51766039D01*
X233272931Y-51766039D02*
X233272931Y-51480325D01*
X233272931Y-51480325D02*
X233308645Y-51408896D01*
X233308645Y-51408896D02*
X233380074Y-51373182D01*
X233380074Y-51373182D02*
X233522931Y-51373182D01*
X233522931Y-51373182D02*
X233594359Y-51408896D01*
X233594359Y-51408896D02*
X233630074Y-51480325D01*
X233630074Y-51480325D02*
X233630074Y-51551753D01*
X233630074Y-51551753D02*
X233272931Y-51623182D01*
X227094360Y-52687783D02*
X227201503Y-52723497D01*
X227201503Y-52723497D02*
X227237217Y-52759211D01*
X227237217Y-52759211D02*
X227272931Y-52830640D01*
X227272931Y-52830640D02*
X227272931Y-52937783D01*
X227272931Y-52937783D02*
X227237217Y-53009211D01*
X227237217Y-53009211D02*
X227201503Y-53044926D01*
X227201503Y-53044926D02*
X227130074Y-53080640D01*
X227130074Y-53080640D02*
X226844360Y-53080640D01*
X226844360Y-53080640D02*
X226844360Y-52330640D01*
X226844360Y-52330640D02*
X227094360Y-52330640D01*
X227094360Y-52330640D02*
X227165789Y-52366354D01*
X227165789Y-52366354D02*
X227201503Y-52402068D01*
X227201503Y-52402068D02*
X227237217Y-52473497D01*
X227237217Y-52473497D02*
X227237217Y-52544926D01*
X227237217Y-52544926D02*
X227201503Y-52616354D01*
X227201503Y-52616354D02*
X227165789Y-52652068D01*
X227165789Y-52652068D02*
X227094360Y-52687783D01*
X227094360Y-52687783D02*
X226844360Y-52687783D01*
X227915789Y-53080640D02*
X227915789Y-52687783D01*
X227915789Y-52687783D02*
X227880074Y-52616354D01*
X227880074Y-52616354D02*
X227808646Y-52580640D01*
X227808646Y-52580640D02*
X227665789Y-52580640D01*
X227665789Y-52580640D02*
X227594360Y-52616354D01*
X227915789Y-53044926D02*
X227844360Y-53080640D01*
X227844360Y-53080640D02*
X227665789Y-53080640D01*
X227665789Y-53080640D02*
X227594360Y-53044926D01*
X227594360Y-53044926D02*
X227558646Y-52973497D01*
X227558646Y-52973497D02*
X227558646Y-52902068D01*
X227558646Y-52902068D02*
X227594360Y-52830640D01*
X227594360Y-52830640D02*
X227665789Y-52794926D01*
X227665789Y-52794926D02*
X227844360Y-52794926D01*
X227844360Y-52794926D02*
X227915789Y-52759211D01*
X228272931Y-52580640D02*
X228272931Y-53330640D01*
X228272931Y-52616354D02*
X228344360Y-52580640D01*
X228344360Y-52580640D02*
X228487217Y-52580640D01*
X228487217Y-52580640D02*
X228558645Y-52616354D01*
X228558645Y-52616354D02*
X228594360Y-52652068D01*
X228594360Y-52652068D02*
X228630074Y-52723497D01*
X228630074Y-52723497D02*
X228630074Y-52937783D01*
X228630074Y-52937783D02*
X228594360Y-53009211D01*
X228594360Y-53009211D02*
X228558645Y-53044926D01*
X228558645Y-53044926D02*
X228487217Y-53080640D01*
X228487217Y-53080640D02*
X228344360Y-53080640D01*
X228344360Y-53080640D02*
X228272931Y-53044926D01*
X228844359Y-52580640D02*
X229130073Y-52580640D01*
X228951502Y-52330640D02*
X228951502Y-52973497D01*
X228951502Y-52973497D02*
X228987216Y-53044926D01*
X228987216Y-53044926D02*
X229058645Y-53080640D01*
X229058645Y-53080640D02*
X229130073Y-53080640D01*
X229380073Y-53080640D02*
X229380073Y-52580640D01*
X229380073Y-52330640D02*
X229344359Y-52366354D01*
X229344359Y-52366354D02*
X229380073Y-52402068D01*
X229380073Y-52402068D02*
X229415787Y-52366354D01*
X229415787Y-52366354D02*
X229380073Y-52330640D01*
X229380073Y-52330640D02*
X229380073Y-52402068D01*
X229701502Y-53044926D02*
X229772930Y-53080640D01*
X229772930Y-53080640D02*
X229915787Y-53080640D01*
X229915787Y-53080640D02*
X229987216Y-53044926D01*
X229987216Y-53044926D02*
X230022930Y-52973497D01*
X230022930Y-52973497D02*
X230022930Y-52937783D01*
X230022930Y-52937783D02*
X229987216Y-52866354D01*
X229987216Y-52866354D02*
X229915787Y-52830640D01*
X229915787Y-52830640D02*
X229808645Y-52830640D01*
X229808645Y-52830640D02*
X229737216Y-52794926D01*
X229737216Y-52794926D02*
X229701502Y-52723497D01*
X229701502Y-52723497D02*
X229701502Y-52687783D01*
X229701502Y-52687783D02*
X229737216Y-52616354D01*
X229737216Y-52616354D02*
X229808645Y-52580640D01*
X229808645Y-52580640D02*
X229915787Y-52580640D01*
X229915787Y-52580640D02*
X229987216Y-52616354D01*
X230237216Y-52580640D02*
X230522930Y-52580640D01*
X230344359Y-52330640D02*
X230344359Y-52973497D01*
X230344359Y-52973497D02*
X230380073Y-53044926D01*
X230380073Y-53044926D02*
X230451502Y-53080640D01*
X230451502Y-53080640D02*
X230522930Y-53080640D01*
X231058644Y-53044926D02*
X230987216Y-53080640D01*
X230987216Y-53080640D02*
X230844359Y-53080640D01*
X230844359Y-53080640D02*
X230772930Y-53044926D01*
X230772930Y-53044926D02*
X230737216Y-52973497D01*
X230737216Y-52973497D02*
X230737216Y-52687783D01*
X230737216Y-52687783D02*
X230772930Y-52616354D01*
X230772930Y-52616354D02*
X230844359Y-52580640D01*
X230844359Y-52580640D02*
X230987216Y-52580640D01*
X230987216Y-52580640D02*
X231058644Y-52616354D01*
X231058644Y-52616354D02*
X231094359Y-52687783D01*
X231094359Y-52687783D02*
X231094359Y-52759211D01*
X231094359Y-52759211D02*
X230737216Y-52830640D01*
X227272931Y-54288098D02*
X227022931Y-53930955D01*
X226844360Y-54288098D02*
X226844360Y-53538098D01*
X226844360Y-53538098D02*
X227130074Y-53538098D01*
X227130074Y-53538098D02*
X227201503Y-53573812D01*
X227201503Y-53573812D02*
X227237217Y-53609526D01*
X227237217Y-53609526D02*
X227272931Y-53680955D01*
X227272931Y-53680955D02*
X227272931Y-53788098D01*
X227272931Y-53788098D02*
X227237217Y-53859526D01*
X227237217Y-53859526D02*
X227201503Y-53895241D01*
X227201503Y-53895241D02*
X227130074Y-53930955D01*
X227130074Y-53930955D02*
X226844360Y-53930955D01*
X227915789Y-54288098D02*
X227915789Y-53895241D01*
X227915789Y-53895241D02*
X227880074Y-53823812D01*
X227880074Y-53823812D02*
X227808646Y-53788098D01*
X227808646Y-53788098D02*
X227665789Y-53788098D01*
X227665789Y-53788098D02*
X227594360Y-53823812D01*
X227915789Y-54252384D02*
X227844360Y-54288098D01*
X227844360Y-54288098D02*
X227665789Y-54288098D01*
X227665789Y-54288098D02*
X227594360Y-54252384D01*
X227594360Y-54252384D02*
X227558646Y-54180955D01*
X227558646Y-54180955D02*
X227558646Y-54109526D01*
X227558646Y-54109526D02*
X227594360Y-54038098D01*
X227594360Y-54038098D02*
X227665789Y-54002384D01*
X227665789Y-54002384D02*
X227844360Y-54002384D01*
X227844360Y-54002384D02*
X227915789Y-53966669D01*
X228201502Y-53788098D02*
X228380074Y-54288098D01*
X228558645Y-53788098D02*
X228380074Y-54288098D01*
X228380074Y-54288098D02*
X228308645Y-54466669D01*
X228308645Y-54466669D02*
X228272931Y-54502384D01*
X228272931Y-54502384D02*
X228201502Y-54538098D01*
X229165789Y-54288098D02*
X229165789Y-53895241D01*
X229165789Y-53895241D02*
X229130074Y-53823812D01*
X229130074Y-53823812D02*
X229058646Y-53788098D01*
X229058646Y-53788098D02*
X228915789Y-53788098D01*
X228915789Y-53788098D02*
X228844360Y-53823812D01*
X229165789Y-54252384D02*
X229094360Y-54288098D01*
X229094360Y-54288098D02*
X228915789Y-54288098D01*
X228915789Y-54288098D02*
X228844360Y-54252384D01*
X228844360Y-54252384D02*
X228808646Y-54180955D01*
X228808646Y-54180955D02*
X228808646Y-54109526D01*
X228808646Y-54109526D02*
X228844360Y-54038098D01*
X228844360Y-54038098D02*
X228915789Y-54002384D01*
X228915789Y-54002384D02*
X229094360Y-54002384D01*
X229094360Y-54002384D02*
X229165789Y-53966669D01*
X229522931Y-53788098D02*
X229522931Y-54288098D01*
X229522931Y-53859526D02*
X229558645Y-53823812D01*
X229558645Y-53823812D02*
X229630074Y-53788098D01*
X229630074Y-53788098D02*
X229737217Y-53788098D01*
X229737217Y-53788098D02*
X229808645Y-53823812D01*
X229808645Y-53823812D02*
X229844360Y-53895241D01*
X229844360Y-53895241D02*
X229844360Y-54288098D01*
X227094360Y-55102699D02*
X227201503Y-55138413D01*
X227201503Y-55138413D02*
X227237217Y-55174127D01*
X227237217Y-55174127D02*
X227272931Y-55245556D01*
X227272931Y-55245556D02*
X227272931Y-55352699D01*
X227272931Y-55352699D02*
X227237217Y-55424127D01*
X227237217Y-55424127D02*
X227201503Y-55459842D01*
X227201503Y-55459842D02*
X227130074Y-55495556D01*
X227130074Y-55495556D02*
X226844360Y-55495556D01*
X226844360Y-55495556D02*
X226844360Y-54745556D01*
X226844360Y-54745556D02*
X227094360Y-54745556D01*
X227094360Y-54745556D02*
X227165789Y-54781270D01*
X227165789Y-54781270D02*
X227201503Y-54816984D01*
X227201503Y-54816984D02*
X227237217Y-54888413D01*
X227237217Y-54888413D02*
X227237217Y-54959842D01*
X227237217Y-54959842D02*
X227201503Y-55031270D01*
X227201503Y-55031270D02*
X227165789Y-55066984D01*
X227165789Y-55066984D02*
X227094360Y-55102699D01*
X227094360Y-55102699D02*
X226844360Y-55102699D01*
X227701503Y-55495556D02*
X227630074Y-55459842D01*
X227630074Y-55459842D02*
X227594360Y-55424127D01*
X227594360Y-55424127D02*
X227558646Y-55352699D01*
X227558646Y-55352699D02*
X227558646Y-55138413D01*
X227558646Y-55138413D02*
X227594360Y-55066984D01*
X227594360Y-55066984D02*
X227630074Y-55031270D01*
X227630074Y-55031270D02*
X227701503Y-54995556D01*
X227701503Y-54995556D02*
X227808646Y-54995556D01*
X227808646Y-54995556D02*
X227880074Y-55031270D01*
X227880074Y-55031270D02*
X227915789Y-55066984D01*
X227915789Y-55066984D02*
X227951503Y-55138413D01*
X227951503Y-55138413D02*
X227951503Y-55352699D01*
X227951503Y-55352699D02*
X227915789Y-55424127D01*
X227915789Y-55424127D02*
X227880074Y-55459842D01*
X227880074Y-55459842D02*
X227808646Y-55495556D01*
X227808646Y-55495556D02*
X227701503Y-55495556D01*
X228594360Y-54995556D02*
X228594360Y-55495556D01*
X228272931Y-54995556D02*
X228272931Y-55388413D01*
X228272931Y-55388413D02*
X228308645Y-55459842D01*
X228308645Y-55459842D02*
X228380074Y-55495556D01*
X228380074Y-55495556D02*
X228487217Y-55495556D01*
X228487217Y-55495556D02*
X228558645Y-55459842D01*
X228558645Y-55459842D02*
X228594360Y-55424127D01*
X228951502Y-54995556D02*
X228951502Y-55495556D01*
X228951502Y-55066984D02*
X228987216Y-55031270D01*
X228987216Y-55031270D02*
X229058645Y-54995556D01*
X229058645Y-54995556D02*
X229165788Y-54995556D01*
X229165788Y-54995556D02*
X229237216Y-55031270D01*
X229237216Y-55031270D02*
X229272931Y-55102699D01*
X229272931Y-55102699D02*
X229272931Y-55495556D01*
X229951502Y-55495556D02*
X229951502Y-55102699D01*
X229951502Y-55102699D02*
X229915787Y-55031270D01*
X229915787Y-55031270D02*
X229844359Y-54995556D01*
X229844359Y-54995556D02*
X229701502Y-54995556D01*
X229701502Y-54995556D02*
X229630073Y-55031270D01*
X229951502Y-55459842D02*
X229880073Y-55495556D01*
X229880073Y-55495556D02*
X229701502Y-55495556D01*
X229701502Y-55495556D02*
X229630073Y-55459842D01*
X229630073Y-55459842D02*
X229594359Y-55388413D01*
X229594359Y-55388413D02*
X229594359Y-55316984D01*
X229594359Y-55316984D02*
X229630073Y-55245556D01*
X229630073Y-55245556D02*
X229701502Y-55209842D01*
X229701502Y-55209842D02*
X229880073Y-55209842D01*
X229880073Y-55209842D02*
X229951502Y-55174127D01*
X226808646Y-56488728D02*
X227165789Y-56488728D01*
X226737217Y-56703014D02*
X226987217Y-55953014D01*
X226987217Y-55953014D02*
X227237217Y-56703014D01*
X227487217Y-56703014D02*
X227487217Y-55953014D01*
X227487217Y-56238728D02*
X227558646Y-56203014D01*
X227558646Y-56203014D02*
X227701503Y-56203014D01*
X227701503Y-56203014D02*
X227772931Y-56238728D01*
X227772931Y-56238728D02*
X227808646Y-56274442D01*
X227808646Y-56274442D02*
X227844360Y-56345871D01*
X227844360Y-56345871D02*
X227844360Y-56560157D01*
X227844360Y-56560157D02*
X227808646Y-56631585D01*
X227808646Y-56631585D02*
X227772931Y-56667300D01*
X227772931Y-56667300D02*
X227701503Y-56703014D01*
X227701503Y-56703014D02*
X227558646Y-56703014D01*
X227558646Y-56703014D02*
X227487217Y-56667300D01*
X228487217Y-56703014D02*
X228487217Y-55953014D01*
X228487217Y-56667300D02*
X228415788Y-56703014D01*
X228415788Y-56703014D02*
X228272931Y-56703014D01*
X228272931Y-56703014D02*
X228201502Y-56667300D01*
X228201502Y-56667300D02*
X228165788Y-56631585D01*
X228165788Y-56631585D02*
X228130074Y-56560157D01*
X228130074Y-56560157D02*
X228130074Y-56345871D01*
X228130074Y-56345871D02*
X228165788Y-56274442D01*
X228165788Y-56274442D02*
X228201502Y-56238728D01*
X228201502Y-56238728D02*
X228272931Y-56203014D01*
X228272931Y-56203014D02*
X228415788Y-56203014D01*
X228415788Y-56203014D02*
X228487217Y-56238728D01*
X229130073Y-56667300D02*
X229058645Y-56703014D01*
X229058645Y-56703014D02*
X228915788Y-56703014D01*
X228915788Y-56703014D02*
X228844359Y-56667300D01*
X228844359Y-56667300D02*
X228808645Y-56595871D01*
X228808645Y-56595871D02*
X228808645Y-56310157D01*
X228808645Y-56310157D02*
X228844359Y-56238728D01*
X228844359Y-56238728D02*
X228915788Y-56203014D01*
X228915788Y-56203014D02*
X229058645Y-56203014D01*
X229058645Y-56203014D02*
X229130073Y-56238728D01*
X229130073Y-56238728D02*
X229165788Y-56310157D01*
X229165788Y-56310157D02*
X229165788Y-56381585D01*
X229165788Y-56381585D02*
X228808645Y-56453014D01*
X229487216Y-56703014D02*
X229487216Y-56203014D01*
X229487216Y-56345871D02*
X229522930Y-56274442D01*
X229522930Y-56274442D02*
X229558645Y-56238728D01*
X229558645Y-56238728D02*
X229630073Y-56203014D01*
X229630073Y-56203014D02*
X229701502Y-56203014D01*
X229951502Y-56703014D02*
X229951502Y-56203014D01*
X229951502Y-56345871D02*
X229987216Y-56274442D01*
X229987216Y-56274442D02*
X230022931Y-56238728D01*
X230022931Y-56238728D02*
X230094359Y-56203014D01*
X230094359Y-56203014D02*
X230165788Y-56203014D01*
X230737217Y-56703014D02*
X230737217Y-56310157D01*
X230737217Y-56310157D02*
X230701502Y-56238728D01*
X230701502Y-56238728D02*
X230630074Y-56203014D01*
X230630074Y-56203014D02*
X230487217Y-56203014D01*
X230487217Y-56203014D02*
X230415788Y-56238728D01*
X230737217Y-56667300D02*
X230665788Y-56703014D01*
X230665788Y-56703014D02*
X230487217Y-56703014D01*
X230487217Y-56703014D02*
X230415788Y-56667300D01*
X230415788Y-56667300D02*
X230380074Y-56595871D01*
X230380074Y-56595871D02*
X230380074Y-56524442D01*
X230380074Y-56524442D02*
X230415788Y-56453014D01*
X230415788Y-56453014D02*
X230487217Y-56417300D01*
X230487217Y-56417300D02*
X230665788Y-56417300D01*
X230665788Y-56417300D02*
X230737217Y-56381585D01*
X231094359Y-56703014D02*
X231094359Y-55953014D01*
X231415788Y-56703014D02*
X231415788Y-56310157D01*
X231415788Y-56310157D02*
X231380073Y-56238728D01*
X231380073Y-56238728D02*
X231308645Y-56203014D01*
X231308645Y-56203014D02*
X231201502Y-56203014D01*
X231201502Y-56203014D02*
X231130073Y-56238728D01*
X231130073Y-56238728D02*
X231094359Y-56274442D01*
X231772930Y-56703014D02*
X231772930Y-56203014D01*
X231772930Y-56274442D02*
X231808644Y-56238728D01*
X231808644Y-56238728D02*
X231880073Y-56203014D01*
X231880073Y-56203014D02*
X231987216Y-56203014D01*
X231987216Y-56203014D02*
X232058644Y-56238728D01*
X232058644Y-56238728D02*
X232094359Y-56310157D01*
X232094359Y-56310157D02*
X232094359Y-56703014D01*
X232094359Y-56310157D02*
X232130073Y-56238728D01*
X232130073Y-56238728D02*
X232201501Y-56203014D01*
X232201501Y-56203014D02*
X232308644Y-56203014D01*
X232308644Y-56203014D02*
X232380073Y-56238728D01*
X232380073Y-56238728D02*
X232415787Y-56310157D01*
X232415787Y-56310157D02*
X232415787Y-56703014D01*
X233094359Y-56703014D02*
X233094359Y-56310157D01*
X233094359Y-56310157D02*
X233058644Y-56238728D01*
X233058644Y-56238728D02*
X232987216Y-56203014D01*
X232987216Y-56203014D02*
X232844359Y-56203014D01*
X232844359Y-56203014D02*
X232772930Y-56238728D01*
X233094359Y-56667300D02*
X233022930Y-56703014D01*
X233022930Y-56703014D02*
X232844359Y-56703014D01*
X232844359Y-56703014D02*
X232772930Y-56667300D01*
X232772930Y-56667300D02*
X232737216Y-56595871D01*
X232737216Y-56595871D02*
X232737216Y-56524442D01*
X232737216Y-56524442D02*
X232772930Y-56453014D01*
X232772930Y-56453014D02*
X232844359Y-56417300D01*
X232844359Y-56417300D02*
X233022930Y-56417300D01*
X233022930Y-56417300D02*
X233094359Y-56381585D01*
X233451501Y-56203014D02*
X233451501Y-56703014D01*
X233451501Y-56274442D02*
X233487215Y-56238728D01*
X233487215Y-56238728D02*
X233558644Y-56203014D01*
X233558644Y-56203014D02*
X233665787Y-56203014D01*
X233665787Y-56203014D02*
X233737215Y-56238728D01*
X233737215Y-56238728D02*
X233772930Y-56310157D01*
X233772930Y-56310157D02*
X233772930Y-56703014D01*
X234415786Y-56667300D02*
X234344358Y-56703014D01*
X234344358Y-56703014D02*
X234201501Y-56703014D01*
X234201501Y-56703014D02*
X234130072Y-56667300D01*
X234130072Y-56667300D02*
X234094358Y-56595871D01*
X234094358Y-56595871D02*
X234094358Y-56310157D01*
X234094358Y-56310157D02*
X234130072Y-56238728D01*
X234130072Y-56238728D02*
X234201501Y-56203014D01*
X234201501Y-56203014D02*
X234344358Y-56203014D01*
X234344358Y-56203014D02*
X234415786Y-56238728D01*
X234415786Y-56238728D02*
X234451501Y-56310157D01*
X234451501Y-56310157D02*
X234451501Y-56381585D01*
X234451501Y-56381585D02*
X234094358Y-56453014D01*
D10*
D11*
X203584836Y-70933609D02*
X203584836Y-70433609D01*
X203584836Y-70433609D02*
X203703884Y-70433609D01*
X203703884Y-70433609D02*
X203775312Y-70457419D01*
X203775312Y-70457419D02*
X203822931Y-70505038D01*
X203822931Y-70505038D02*
X203846741Y-70552657D01*
X203846741Y-70552657D02*
X203870550Y-70647895D01*
X203870550Y-70647895D02*
X203870550Y-70719323D01*
X203870550Y-70719323D02*
X203846741Y-70814561D01*
X203846741Y-70814561D02*
X203822931Y-70862180D01*
X203822931Y-70862180D02*
X203775312Y-70909800D01*
X203775312Y-70909800D02*
X203703884Y-70933609D01*
X203703884Y-70933609D02*
X203584836Y-70933609D01*
X204061027Y-70481228D02*
X204084836Y-70457419D01*
X204084836Y-70457419D02*
X204132455Y-70433609D01*
X204132455Y-70433609D02*
X204251503Y-70433609D01*
X204251503Y-70433609D02*
X204299122Y-70457419D01*
X204299122Y-70457419D02*
X204322931Y-70481228D01*
X204322931Y-70481228D02*
X204346741Y-70528847D01*
X204346741Y-70528847D02*
X204346741Y-70576466D01*
X204346741Y-70576466D02*
X204322931Y-70647895D01*
X204322931Y-70647895D02*
X204037217Y-70933609D01*
X204037217Y-70933609D02*
X204346741Y-70933609D01*
D10*
D11*
X203584836Y-73533609D02*
X203584836Y-73033609D01*
X203584836Y-73033609D02*
X203703884Y-73033609D01*
X203703884Y-73033609D02*
X203775312Y-73057419D01*
X203775312Y-73057419D02*
X203822931Y-73105038D01*
X203822931Y-73105038D02*
X203846741Y-73152657D01*
X203846741Y-73152657D02*
X203870550Y-73247895D01*
X203870550Y-73247895D02*
X203870550Y-73319323D01*
X203870550Y-73319323D02*
X203846741Y-73414561D01*
X203846741Y-73414561D02*
X203822931Y-73462180D01*
X203822931Y-73462180D02*
X203775312Y-73509800D01*
X203775312Y-73509800D02*
X203703884Y-73533609D01*
X203703884Y-73533609D02*
X203584836Y-73533609D01*
X204037217Y-73033609D02*
X204346741Y-73033609D01*
X204346741Y-73033609D02*
X204180074Y-73224085D01*
X204180074Y-73224085D02*
X204251503Y-73224085D01*
X204251503Y-73224085D02*
X204299122Y-73247895D01*
X204299122Y-73247895D02*
X204322931Y-73271704D01*
X204322931Y-73271704D02*
X204346741Y-73319323D01*
X204346741Y-73319323D02*
X204346741Y-73438371D01*
X204346741Y-73438371D02*
X204322931Y-73485990D01*
X204322931Y-73485990D02*
X204299122Y-73509800D01*
X204299122Y-73509800D02*
X204251503Y-73533609D01*
X204251503Y-73533609D02*
X204108646Y-73533609D01*
X204108646Y-73533609D02*
X204061027Y-73509800D01*
X204061027Y-73509800D02*
X204037217Y-73485990D01*
D10*
D11*
X203584836Y-81133609D02*
X203584836Y-80633609D01*
X203584836Y-80633609D02*
X203703884Y-80633609D01*
X203703884Y-80633609D02*
X203775312Y-80657419D01*
X203775312Y-80657419D02*
X203822931Y-80705038D01*
X203822931Y-80705038D02*
X203846741Y-80752657D01*
X203846741Y-80752657D02*
X203870550Y-80847895D01*
X203870550Y-80847895D02*
X203870550Y-80919323D01*
X203870550Y-80919323D02*
X203846741Y-81014561D01*
X203846741Y-81014561D02*
X203822931Y-81062180D01*
X203822931Y-81062180D02*
X203775312Y-81109800D01*
X203775312Y-81109800D02*
X203703884Y-81133609D01*
X203703884Y-81133609D02*
X203584836Y-81133609D01*
X204299122Y-80633609D02*
X204203884Y-80633609D01*
X204203884Y-80633609D02*
X204156265Y-80657419D01*
X204156265Y-80657419D02*
X204132455Y-80681228D01*
X204132455Y-80681228D02*
X204084836Y-80752657D01*
X204084836Y-80752657D02*
X204061027Y-80847895D01*
X204061027Y-80847895D02*
X204061027Y-81038371D01*
X204061027Y-81038371D02*
X204084836Y-81085990D01*
X204084836Y-81085990D02*
X204108646Y-81109800D01*
X204108646Y-81109800D02*
X204156265Y-81133609D01*
X204156265Y-81133609D02*
X204251503Y-81133609D01*
X204251503Y-81133609D02*
X204299122Y-81109800D01*
X204299122Y-81109800D02*
X204322931Y-81085990D01*
X204322931Y-81085990D02*
X204346741Y-81038371D01*
X204346741Y-81038371D02*
X204346741Y-80919323D01*
X204346741Y-80919323D02*
X204322931Y-80871704D01*
X204322931Y-80871704D02*
X204299122Y-80847895D01*
X204299122Y-80847895D02*
X204251503Y-80824085D01*
X204251503Y-80824085D02*
X204156265Y-80824085D01*
X204156265Y-80824085D02*
X204108646Y-80847895D01*
X204108646Y-80847895D02*
X204084836Y-80871704D01*
X204084836Y-80871704D02*
X204061027Y-80919323D01*
D10*
D11*
X203584836Y-83533609D02*
X203584836Y-83033609D01*
X203584836Y-83033609D02*
X203703884Y-83033609D01*
X203703884Y-83033609D02*
X203775312Y-83057419D01*
X203775312Y-83057419D02*
X203822931Y-83105038D01*
X203822931Y-83105038D02*
X203846741Y-83152657D01*
X203846741Y-83152657D02*
X203870550Y-83247895D01*
X203870550Y-83247895D02*
X203870550Y-83319323D01*
X203870550Y-83319323D02*
X203846741Y-83414561D01*
X203846741Y-83414561D02*
X203822931Y-83462180D01*
X203822931Y-83462180D02*
X203775312Y-83509800D01*
X203775312Y-83509800D02*
X203703884Y-83533609D01*
X203703884Y-83533609D02*
X203584836Y-83533609D01*
X204037217Y-83033609D02*
X204370550Y-83033609D01*
X204370550Y-83033609D02*
X204156265Y-83533609D01*
D10*
D11*
X203584836Y-86133609D02*
X203584836Y-85633609D01*
X203584836Y-85633609D02*
X203703884Y-85633609D01*
X203703884Y-85633609D02*
X203775312Y-85657419D01*
X203775312Y-85657419D02*
X203822931Y-85705038D01*
X203822931Y-85705038D02*
X203846741Y-85752657D01*
X203846741Y-85752657D02*
X203870550Y-85847895D01*
X203870550Y-85847895D02*
X203870550Y-85919323D01*
X203870550Y-85919323D02*
X203846741Y-86014561D01*
X203846741Y-86014561D02*
X203822931Y-86062180D01*
X203822931Y-86062180D02*
X203775312Y-86109800D01*
X203775312Y-86109800D02*
X203703884Y-86133609D01*
X203703884Y-86133609D02*
X203584836Y-86133609D01*
X204156265Y-85847895D02*
X204108646Y-85824085D01*
X204108646Y-85824085D02*
X204084836Y-85800276D01*
X204084836Y-85800276D02*
X204061027Y-85752657D01*
X204061027Y-85752657D02*
X204061027Y-85728847D01*
X204061027Y-85728847D02*
X204084836Y-85681228D01*
X204084836Y-85681228D02*
X204108646Y-85657419D01*
X204108646Y-85657419D02*
X204156265Y-85633609D01*
X204156265Y-85633609D02*
X204251503Y-85633609D01*
X204251503Y-85633609D02*
X204299122Y-85657419D01*
X204299122Y-85657419D02*
X204322931Y-85681228D01*
X204322931Y-85681228D02*
X204346741Y-85728847D01*
X204346741Y-85728847D02*
X204346741Y-85752657D01*
X204346741Y-85752657D02*
X204322931Y-85800276D01*
X204322931Y-85800276D02*
X204299122Y-85824085D01*
X204299122Y-85824085D02*
X204251503Y-85847895D01*
X204251503Y-85847895D02*
X204156265Y-85847895D01*
X204156265Y-85847895D02*
X204108646Y-85871704D01*
X204108646Y-85871704D02*
X204084836Y-85895514D01*
X204084836Y-85895514D02*
X204061027Y-85943133D01*
X204061027Y-85943133D02*
X204061027Y-86038371D01*
X204061027Y-86038371D02*
X204084836Y-86085990D01*
X204084836Y-86085990D02*
X204108646Y-86109800D01*
X204108646Y-86109800D02*
X204156265Y-86133609D01*
X204156265Y-86133609D02*
X204251503Y-86133609D01*
X204251503Y-86133609D02*
X204299122Y-86109800D01*
X204299122Y-86109800D02*
X204322931Y-86085990D01*
X204322931Y-86085990D02*
X204346741Y-86038371D01*
X204346741Y-86038371D02*
X204346741Y-85943133D01*
X204346741Y-85943133D02*
X204322931Y-85895514D01*
X204322931Y-85895514D02*
X204299122Y-85871704D01*
X204299122Y-85871704D02*
X204251503Y-85847895D01*
D10*
D11*
X203584836Y-88533609D02*
X203584836Y-88033609D01*
X203584836Y-88033609D02*
X203703884Y-88033609D01*
X203703884Y-88033609D02*
X203775312Y-88057419D01*
X203775312Y-88057419D02*
X203822931Y-88105038D01*
X203822931Y-88105038D02*
X203846741Y-88152657D01*
X203846741Y-88152657D02*
X203870550Y-88247895D01*
X203870550Y-88247895D02*
X203870550Y-88319323D01*
X203870550Y-88319323D02*
X203846741Y-88414561D01*
X203846741Y-88414561D02*
X203822931Y-88462180D01*
X203822931Y-88462180D02*
X203775312Y-88509800D01*
X203775312Y-88509800D02*
X203703884Y-88533609D01*
X203703884Y-88533609D02*
X203584836Y-88533609D01*
X204108646Y-88533609D02*
X204203884Y-88533609D01*
X204203884Y-88533609D02*
X204251503Y-88509800D01*
X204251503Y-88509800D02*
X204275312Y-88485990D01*
X204275312Y-88485990D02*
X204322931Y-88414561D01*
X204322931Y-88414561D02*
X204346741Y-88319323D01*
X204346741Y-88319323D02*
X204346741Y-88128847D01*
X204346741Y-88128847D02*
X204322931Y-88081228D01*
X204322931Y-88081228D02*
X204299122Y-88057419D01*
X204299122Y-88057419D02*
X204251503Y-88033609D01*
X204251503Y-88033609D02*
X204156265Y-88033609D01*
X204156265Y-88033609D02*
X204108646Y-88057419D01*
X204108646Y-88057419D02*
X204084836Y-88081228D01*
X204084836Y-88081228D02*
X204061027Y-88128847D01*
X204061027Y-88128847D02*
X204061027Y-88247895D01*
X204061027Y-88247895D02*
X204084836Y-88295514D01*
X204084836Y-88295514D02*
X204108646Y-88319323D01*
X204108646Y-88319323D02*
X204156265Y-88343133D01*
X204156265Y-88343133D02*
X204251503Y-88343133D01*
X204251503Y-88343133D02*
X204299122Y-88319323D01*
X204299122Y-88319323D02*
X204322931Y-88295514D01*
X204322931Y-88295514D02*
X204346741Y-88247895D01*
D10*
D11*
X203184836Y-91133609D02*
X203184836Y-90633609D01*
X203184836Y-90633609D02*
X203303884Y-90633609D01*
X203303884Y-90633609D02*
X203375312Y-90657419D01*
X203375312Y-90657419D02*
X203422931Y-90705038D01*
X203422931Y-90705038D02*
X203446741Y-90752657D01*
X203446741Y-90752657D02*
X203470550Y-90847895D01*
X203470550Y-90847895D02*
X203470550Y-90919323D01*
X203470550Y-90919323D02*
X203446741Y-91014561D01*
X203446741Y-91014561D02*
X203422931Y-91062180D01*
X203422931Y-91062180D02*
X203375312Y-91109800D01*
X203375312Y-91109800D02*
X203303884Y-91133609D01*
X203303884Y-91133609D02*
X203184836Y-91133609D01*
X203946741Y-91133609D02*
X203661027Y-91133609D01*
X203803884Y-91133609D02*
X203803884Y-90633609D01*
X203803884Y-90633609D02*
X203756265Y-90705038D01*
X203756265Y-90705038D02*
X203708646Y-90752657D01*
X203708646Y-90752657D02*
X203661027Y-90776466D01*
X204256264Y-90633609D02*
X204303883Y-90633609D01*
X204303883Y-90633609D02*
X204351502Y-90657419D01*
X204351502Y-90657419D02*
X204375312Y-90681228D01*
X204375312Y-90681228D02*
X204399121Y-90728847D01*
X204399121Y-90728847D02*
X204422931Y-90824085D01*
X204422931Y-90824085D02*
X204422931Y-90943133D01*
X204422931Y-90943133D02*
X204399121Y-91038371D01*
X204399121Y-91038371D02*
X204375312Y-91085990D01*
X204375312Y-91085990D02*
X204351502Y-91109800D01*
X204351502Y-91109800D02*
X204303883Y-91133609D01*
X204303883Y-91133609D02*
X204256264Y-91133609D01*
X204256264Y-91133609D02*
X204208645Y-91109800D01*
X204208645Y-91109800D02*
X204184836Y-91085990D01*
X204184836Y-91085990D02*
X204161026Y-91038371D01*
X204161026Y-91038371D02*
X204137217Y-90943133D01*
X204137217Y-90943133D02*
X204137217Y-90824085D01*
X204137217Y-90824085D02*
X204161026Y-90728847D01*
X204161026Y-90728847D02*
X204184836Y-90681228D01*
X204184836Y-90681228D02*
X204208645Y-90657419D01*
X204208645Y-90657419D02*
X204256264Y-90633609D01*
D10*
D11*
X203184836Y-93733609D02*
X203184836Y-93233609D01*
X203184836Y-93233609D02*
X203303884Y-93233609D01*
X203303884Y-93233609D02*
X203375312Y-93257419D01*
X203375312Y-93257419D02*
X203422931Y-93305038D01*
X203422931Y-93305038D02*
X203446741Y-93352657D01*
X203446741Y-93352657D02*
X203470550Y-93447895D01*
X203470550Y-93447895D02*
X203470550Y-93519323D01*
X203470550Y-93519323D02*
X203446741Y-93614561D01*
X203446741Y-93614561D02*
X203422931Y-93662180D01*
X203422931Y-93662180D02*
X203375312Y-93709800D01*
X203375312Y-93709800D02*
X203303884Y-93733609D01*
X203303884Y-93733609D02*
X203184836Y-93733609D01*
X203946741Y-93733609D02*
X203661027Y-93733609D01*
X203803884Y-93733609D02*
X203803884Y-93233609D01*
X203803884Y-93233609D02*
X203756265Y-93305038D01*
X203756265Y-93305038D02*
X203708646Y-93352657D01*
X203708646Y-93352657D02*
X203661027Y-93376466D01*
X204422931Y-93733609D02*
X204137217Y-93733609D01*
X204280074Y-93733609D02*
X204280074Y-93233609D01*
X204280074Y-93233609D02*
X204232455Y-93305038D01*
X204232455Y-93305038D02*
X204184836Y-93352657D01*
X204184836Y-93352657D02*
X204137217Y-93376466D01*
D10*
D11*
X203184836Y-96333609D02*
X203184836Y-95833609D01*
X203184836Y-95833609D02*
X203303884Y-95833609D01*
X203303884Y-95833609D02*
X203375312Y-95857419D01*
X203375312Y-95857419D02*
X203422931Y-95905038D01*
X203422931Y-95905038D02*
X203446741Y-95952657D01*
X203446741Y-95952657D02*
X203470550Y-96047895D01*
X203470550Y-96047895D02*
X203470550Y-96119323D01*
X203470550Y-96119323D02*
X203446741Y-96214561D01*
X203446741Y-96214561D02*
X203422931Y-96262180D01*
X203422931Y-96262180D02*
X203375312Y-96309800D01*
X203375312Y-96309800D02*
X203303884Y-96333609D01*
X203303884Y-96333609D02*
X203184836Y-96333609D01*
X203946741Y-96333609D02*
X203661027Y-96333609D01*
X203803884Y-96333609D02*
X203803884Y-95833609D01*
X203803884Y-95833609D02*
X203756265Y-95905038D01*
X203756265Y-95905038D02*
X203708646Y-95952657D01*
X203708646Y-95952657D02*
X203661027Y-95976466D01*
X204137217Y-95881228D02*
X204161026Y-95857419D01*
X204161026Y-95857419D02*
X204208645Y-95833609D01*
X204208645Y-95833609D02*
X204327693Y-95833609D01*
X204327693Y-95833609D02*
X204375312Y-95857419D01*
X204375312Y-95857419D02*
X204399121Y-95881228D01*
X204399121Y-95881228D02*
X204422931Y-95928847D01*
X204422931Y-95928847D02*
X204422931Y-95976466D01*
X204422931Y-95976466D02*
X204399121Y-96047895D01*
X204399121Y-96047895D02*
X204113407Y-96333609D01*
X204113407Y-96333609D02*
X204422931Y-96333609D01*
D10*
D11*
X223361027Y-70790752D02*
X223599122Y-70790752D01*
X223313408Y-70933609D02*
X223480074Y-70433609D01*
X223480074Y-70433609D02*
X223646741Y-70933609D01*
X223765788Y-70433609D02*
X224099121Y-70433609D01*
X224099121Y-70433609D02*
X223884836Y-70933609D01*
D10*
D11*
X223361027Y-73190752D02*
X223599122Y-73190752D01*
X223313408Y-73333609D02*
X223480074Y-72833609D01*
X223480074Y-72833609D02*
X223646741Y-73333609D01*
X224027693Y-72833609D02*
X223932455Y-72833609D01*
X223932455Y-72833609D02*
X223884836Y-72857419D01*
X223884836Y-72857419D02*
X223861026Y-72881228D01*
X223861026Y-72881228D02*
X223813407Y-72952657D01*
X223813407Y-72952657D02*
X223789598Y-73047895D01*
X223789598Y-73047895D02*
X223789598Y-73238371D01*
X223789598Y-73238371D02*
X223813407Y-73285990D01*
X223813407Y-73285990D02*
X223837217Y-73309800D01*
X223837217Y-73309800D02*
X223884836Y-73333609D01*
X223884836Y-73333609D02*
X223980074Y-73333609D01*
X223980074Y-73333609D02*
X224027693Y-73309800D01*
X224027693Y-73309800D02*
X224051502Y-73285990D01*
X224051502Y-73285990D02*
X224075312Y-73238371D01*
X224075312Y-73238371D02*
X224075312Y-73119323D01*
X224075312Y-73119323D02*
X224051502Y-73071704D01*
X224051502Y-73071704D02*
X224027693Y-73047895D01*
X224027693Y-73047895D02*
X223980074Y-73024085D01*
X223980074Y-73024085D02*
X223884836Y-73024085D01*
X223884836Y-73024085D02*
X223837217Y-73047895D01*
X223837217Y-73047895D02*
X223813407Y-73071704D01*
X223813407Y-73071704D02*
X223789598Y-73119323D01*
D10*
D11*
X223361027Y-75790752D02*
X223599122Y-75790752D01*
X223313408Y-75933609D02*
X223480074Y-75433609D01*
X223480074Y-75433609D02*
X223646741Y-75933609D01*
X224051502Y-75433609D02*
X223813407Y-75433609D01*
X223813407Y-75433609D02*
X223789598Y-75671704D01*
X223789598Y-75671704D02*
X223813407Y-75647895D01*
X223813407Y-75647895D02*
X223861026Y-75624085D01*
X223861026Y-75624085D02*
X223980074Y-75624085D01*
X223980074Y-75624085D02*
X224027693Y-75647895D01*
X224027693Y-75647895D02*
X224051502Y-75671704D01*
X224051502Y-75671704D02*
X224075312Y-75719323D01*
X224075312Y-75719323D02*
X224075312Y-75838371D01*
X224075312Y-75838371D02*
X224051502Y-75885990D01*
X224051502Y-75885990D02*
X224027693Y-75909800D01*
X224027693Y-75909800D02*
X223980074Y-75933609D01*
X223980074Y-75933609D02*
X223861026Y-75933609D01*
X223861026Y-75933609D02*
X223813407Y-75909800D01*
X223813407Y-75909800D02*
X223789598Y-75885990D01*
D10*
D11*
X223311027Y-78390752D02*
X223549122Y-78390752D01*
X223263408Y-78533609D02*
X223430074Y-78033609D01*
X223430074Y-78033609D02*
X223596741Y-78533609D01*
X223977693Y-78200276D02*
X223977693Y-78533609D01*
X223858645Y-78009800D02*
X223739598Y-78366942D01*
X223739598Y-78366942D02*
X224049121Y-78366942D01*
D10*
D11*
X223361027Y-80790752D02*
X223599122Y-80790752D01*
X223313408Y-80933609D02*
X223480074Y-80433609D01*
X223480074Y-80433609D02*
X223646741Y-80933609D01*
X223765788Y-80433609D02*
X224075312Y-80433609D01*
X224075312Y-80433609D02*
X223908645Y-80624085D01*
X223908645Y-80624085D02*
X223980074Y-80624085D01*
X223980074Y-80624085D02*
X224027693Y-80647895D01*
X224027693Y-80647895D02*
X224051502Y-80671704D01*
X224051502Y-80671704D02*
X224075312Y-80719323D01*
X224075312Y-80719323D02*
X224075312Y-80838371D01*
X224075312Y-80838371D02*
X224051502Y-80885990D01*
X224051502Y-80885990D02*
X224027693Y-80909800D01*
X224027693Y-80909800D02*
X223980074Y-80933609D01*
X223980074Y-80933609D02*
X223837217Y-80933609D01*
X223837217Y-80933609D02*
X223789598Y-80909800D01*
X223789598Y-80909800D02*
X223765788Y-80885990D01*
D10*
D11*
X223361027Y-88390752D02*
X223599122Y-88390752D01*
X223313408Y-88533609D02*
X223480074Y-88033609D01*
X223480074Y-88033609D02*
X223646741Y-88533609D01*
X223908645Y-88033609D02*
X223956264Y-88033609D01*
X223956264Y-88033609D02*
X224003883Y-88057419D01*
X224003883Y-88057419D02*
X224027693Y-88081228D01*
X224027693Y-88081228D02*
X224051502Y-88128847D01*
X224051502Y-88128847D02*
X224075312Y-88224085D01*
X224075312Y-88224085D02*
X224075312Y-88343133D01*
X224075312Y-88343133D02*
X224051502Y-88438371D01*
X224051502Y-88438371D02*
X224027693Y-88485990D01*
X224027693Y-88485990D02*
X224003883Y-88509800D01*
X224003883Y-88509800D02*
X223956264Y-88533609D01*
X223956264Y-88533609D02*
X223908645Y-88533609D01*
X223908645Y-88533609D02*
X223861026Y-88509800D01*
X223861026Y-88509800D02*
X223837217Y-88485990D01*
X223837217Y-88485990D02*
X223813407Y-88438371D01*
X223813407Y-88438371D02*
X223789598Y-88343133D01*
X223789598Y-88343133D02*
X223789598Y-88224085D01*
X223789598Y-88224085D02*
X223813407Y-88128847D01*
X223813407Y-88128847D02*
X223837217Y-88081228D01*
X223837217Y-88081228D02*
X223861026Y-88057419D01*
X223861026Y-88057419D02*
X223908645Y-88033609D01*
D10*
D11*
X202784836Y-65933609D02*
X202784836Y-65433609D01*
X202784836Y-65433609D02*
X203070550Y-65933609D01*
X203070550Y-65933609D02*
X203070550Y-65433609D01*
X203594360Y-65933609D02*
X203427694Y-65695514D01*
X203308646Y-65933609D02*
X203308646Y-65433609D01*
X203308646Y-65433609D02*
X203499122Y-65433609D01*
X203499122Y-65433609D02*
X203546741Y-65457419D01*
X203546741Y-65457419D02*
X203570551Y-65481228D01*
X203570551Y-65481228D02*
X203594360Y-65528847D01*
X203594360Y-65528847D02*
X203594360Y-65600276D01*
X203594360Y-65600276D02*
X203570551Y-65647895D01*
X203570551Y-65647895D02*
X203546741Y-65671704D01*
X203546741Y-65671704D02*
X203499122Y-65695514D01*
X203499122Y-65695514D02*
X203308646Y-65695514D01*
X203784837Y-65909800D02*
X203856265Y-65933609D01*
X203856265Y-65933609D02*
X203975313Y-65933609D01*
X203975313Y-65933609D02*
X204022932Y-65909800D01*
X204022932Y-65909800D02*
X204046741Y-65885990D01*
X204046741Y-65885990D02*
X204070551Y-65838371D01*
X204070551Y-65838371D02*
X204070551Y-65790752D01*
X204070551Y-65790752D02*
X204046741Y-65743133D01*
X204046741Y-65743133D02*
X204022932Y-65719323D01*
X204022932Y-65719323D02*
X203975313Y-65695514D01*
X203975313Y-65695514D02*
X203880075Y-65671704D01*
X203880075Y-65671704D02*
X203832456Y-65647895D01*
X203832456Y-65647895D02*
X203808646Y-65624085D01*
X203808646Y-65624085D02*
X203784837Y-65576466D01*
X203784837Y-65576466D02*
X203784837Y-65528847D01*
X203784837Y-65528847D02*
X203808646Y-65481228D01*
X203808646Y-65481228D02*
X203832456Y-65457419D01*
X203832456Y-65457419D02*
X203880075Y-65433609D01*
X203880075Y-65433609D02*
X203999122Y-65433609D01*
X203999122Y-65433609D02*
X204070551Y-65457419D01*
X204213408Y-65433609D02*
X204499122Y-65433609D01*
X204356265Y-65933609D02*
X204356265Y-65433609D01*
D10*
D11*
X223313408Y-60233609D02*
X223480074Y-60733609D01*
X223480074Y-60733609D02*
X223646741Y-60233609D01*
X223813407Y-60733609D02*
X223813407Y-60233609D01*
X224051502Y-60733609D02*
X224051502Y-60233609D01*
X224051502Y-60233609D02*
X224337216Y-60733609D01*
X224337216Y-60733609D02*
X224337216Y-60233609D01*
D10*
D11*
X223384836Y-65733609D02*
X223384836Y-65233609D01*
X223384836Y-65233609D02*
X223670550Y-65733609D01*
X223670550Y-65733609D02*
X223670550Y-65233609D01*
X224194360Y-65733609D02*
X224027694Y-65495514D01*
X223908646Y-65733609D02*
X223908646Y-65233609D01*
X223908646Y-65233609D02*
X224099122Y-65233609D01*
X224099122Y-65233609D02*
X224146741Y-65257419D01*
X224146741Y-65257419D02*
X224170551Y-65281228D01*
X224170551Y-65281228D02*
X224194360Y-65328847D01*
X224194360Y-65328847D02*
X224194360Y-65400276D01*
X224194360Y-65400276D02*
X224170551Y-65447895D01*
X224170551Y-65447895D02*
X224146741Y-65471704D01*
X224146741Y-65471704D02*
X224099122Y-65495514D01*
X224099122Y-65495514D02*
X223908646Y-65495514D01*
X224384837Y-65709800D02*
X224456265Y-65733609D01*
X224456265Y-65733609D02*
X224575313Y-65733609D01*
X224575313Y-65733609D02*
X224622932Y-65709800D01*
X224622932Y-65709800D02*
X224646741Y-65685990D01*
X224646741Y-65685990D02*
X224670551Y-65638371D01*
X224670551Y-65638371D02*
X224670551Y-65590752D01*
X224670551Y-65590752D02*
X224646741Y-65543133D01*
X224646741Y-65543133D02*
X224622932Y-65519323D01*
X224622932Y-65519323D02*
X224575313Y-65495514D01*
X224575313Y-65495514D02*
X224480075Y-65471704D01*
X224480075Y-65471704D02*
X224432456Y-65447895D01*
X224432456Y-65447895D02*
X224408646Y-65424085D01*
X224408646Y-65424085D02*
X224384837Y-65376466D01*
X224384837Y-65376466D02*
X224384837Y-65328847D01*
X224384837Y-65328847D02*
X224408646Y-65281228D01*
X224408646Y-65281228D02*
X224432456Y-65257419D01*
X224432456Y-65257419D02*
X224480075Y-65233609D01*
X224480075Y-65233609D02*
X224599122Y-65233609D01*
X224599122Y-65233609D02*
X224670551Y-65257419D01*
X224813408Y-65233609D02*
X225099122Y-65233609D01*
X224956265Y-65733609D02*
X224956265Y-65233609D01*
D10*
D11*
X223361027Y-85790752D02*
X223599122Y-85790752D01*
X223313408Y-85933609D02*
X223480074Y-85433609D01*
X223480074Y-85433609D02*
X223646741Y-85933609D01*
X224075312Y-85933609D02*
X223789598Y-85933609D01*
X223932455Y-85933609D02*
X223932455Y-85433609D01*
X223932455Y-85433609D02*
X223884836Y-85505038D01*
X223884836Y-85505038D02*
X223837217Y-85552657D01*
X223837217Y-85552657D02*
X223789598Y-85576466D01*
D10*
D11*
X223361027Y-90990752D02*
X223599122Y-90990752D01*
X223313408Y-91133609D02*
X223480074Y-90633609D01*
X223480074Y-90633609D02*
X223646741Y-91133609D01*
X224099121Y-91133609D02*
X223932455Y-90895514D01*
X223813407Y-91133609D02*
X223813407Y-90633609D01*
X223813407Y-90633609D02*
X224003883Y-90633609D01*
X224003883Y-90633609D02*
X224051502Y-90657419D01*
X224051502Y-90657419D02*
X224075312Y-90681228D01*
X224075312Y-90681228D02*
X224099121Y-90728847D01*
X224099121Y-90728847D02*
X224099121Y-90800276D01*
X224099121Y-90800276D02*
X224075312Y-90847895D01*
X224075312Y-90847895D02*
X224051502Y-90871704D01*
X224051502Y-90871704D02*
X224003883Y-90895514D01*
X224003883Y-90895514D02*
X223813407Y-90895514D01*
X224313407Y-90871704D02*
X224480074Y-90871704D01*
X224551502Y-91133609D02*
X224313407Y-91133609D01*
X224313407Y-91133609D02*
X224313407Y-90633609D01*
X224313407Y-90633609D02*
X224551502Y-90633609D01*
X224932455Y-90871704D02*
X224765788Y-90871704D01*
X224765788Y-91133609D02*
X224765788Y-90633609D01*
X224765788Y-90633609D02*
X225003883Y-90633609D01*
D10*
D11*
X223384836Y-96333609D02*
X223384836Y-95833609D01*
X223384836Y-95833609D02*
X223503884Y-95833609D01*
X223503884Y-95833609D02*
X223575312Y-95857419D01*
X223575312Y-95857419D02*
X223622931Y-95905038D01*
X223622931Y-95905038D02*
X223646741Y-95952657D01*
X223646741Y-95952657D02*
X223670550Y-96047895D01*
X223670550Y-96047895D02*
X223670550Y-96119323D01*
X223670550Y-96119323D02*
X223646741Y-96214561D01*
X223646741Y-96214561D02*
X223622931Y-96262180D01*
X223622931Y-96262180D02*
X223575312Y-96309800D01*
X223575312Y-96309800D02*
X223503884Y-96333609D01*
X223503884Y-96333609D02*
X223384836Y-96333609D01*
X224146741Y-96333609D02*
X223861027Y-96333609D01*
X224003884Y-96333609D02*
X224003884Y-95833609D01*
X224003884Y-95833609D02*
X223956265Y-95905038D01*
X223956265Y-95905038D02*
X223908646Y-95952657D01*
X223908646Y-95952657D02*
X223861027Y-95976466D01*
X224313407Y-95833609D02*
X224622931Y-95833609D01*
X224622931Y-95833609D02*
X224456264Y-96024085D01*
X224456264Y-96024085D02*
X224527693Y-96024085D01*
X224527693Y-96024085D02*
X224575312Y-96047895D01*
X224575312Y-96047895D02*
X224599121Y-96071704D01*
X224599121Y-96071704D02*
X224622931Y-96119323D01*
X224622931Y-96119323D02*
X224622931Y-96238371D01*
X224622931Y-96238371D02*
X224599121Y-96285990D01*
X224599121Y-96285990D02*
X224575312Y-96309800D01*
X224575312Y-96309800D02*
X224527693Y-96333609D01*
X224527693Y-96333609D02*
X224384836Y-96333609D01*
X224384836Y-96333609D02*
X224337217Y-96309800D01*
X224337217Y-96309800D02*
X224313407Y-96285990D01*
D10*
D11*
X199014836Y-92733609D02*
X199014836Y-92233609D01*
X199300550Y-92733609D02*
X199086265Y-92447895D01*
X199300550Y-92233609D02*
X199014836Y-92519323D01*
X199514836Y-92471704D02*
X199681503Y-92471704D01*
X199752931Y-92733609D02*
X199514836Y-92733609D01*
X199514836Y-92733609D02*
X199514836Y-92233609D01*
X199514836Y-92233609D02*
X199752931Y-92233609D01*
X200062455Y-92495514D02*
X200062455Y-92733609D01*
X199895789Y-92233609D02*
X200062455Y-92495514D01*
X200062455Y-92495514D02*
X200229122Y-92233609D01*
D10*
D11*
X198961027Y-99109800D02*
X199032455Y-99133609D01*
X199032455Y-99133609D02*
X199151503Y-99133609D01*
X199151503Y-99133609D02*
X199199122Y-99109800D01*
X199199122Y-99109800D02*
X199222931Y-99085990D01*
X199222931Y-99085990D02*
X199246741Y-99038371D01*
X199246741Y-99038371D02*
X199246741Y-98990752D01*
X199246741Y-98990752D02*
X199222931Y-98943133D01*
X199222931Y-98943133D02*
X199199122Y-98919323D01*
X199199122Y-98919323D02*
X199151503Y-98895514D01*
X199151503Y-98895514D02*
X199056265Y-98871704D01*
X199056265Y-98871704D02*
X199008646Y-98847895D01*
X199008646Y-98847895D02*
X198984836Y-98824085D01*
X198984836Y-98824085D02*
X198961027Y-98776466D01*
X198961027Y-98776466D02*
X198961027Y-98728847D01*
X198961027Y-98728847D02*
X198984836Y-98681228D01*
X198984836Y-98681228D02*
X199008646Y-98657419D01*
X199008646Y-98657419D02*
X199056265Y-98633609D01*
X199056265Y-98633609D02*
X199175312Y-98633609D01*
X199175312Y-98633609D02*
X199246741Y-98657419D01*
X199389598Y-98633609D02*
X199675312Y-98633609D01*
X199532455Y-99133609D02*
X199532455Y-98633609D01*
X199818169Y-98990752D02*
X200056264Y-98990752D01*
X199770550Y-99133609D02*
X199937216Y-98633609D01*
X199937216Y-98633609D02*
X200103883Y-99133609D01*
X200199121Y-98633609D02*
X200484835Y-98633609D01*
X200341978Y-99133609D02*
X200341978Y-98633609D01*
X200651501Y-98633609D02*
X200651501Y-99038371D01*
X200651501Y-99038371D02*
X200675311Y-99085990D01*
X200675311Y-99085990D02*
X200699120Y-99109800D01*
X200699120Y-99109800D02*
X200746739Y-99133609D01*
X200746739Y-99133609D02*
X200841977Y-99133609D01*
X200841977Y-99133609D02*
X200889596Y-99109800D01*
X200889596Y-99109800D02*
X200913406Y-99085990D01*
X200913406Y-99085990D02*
X200937215Y-99038371D01*
X200937215Y-99038371D02*
X200937215Y-98633609D01*
X201151502Y-99109800D02*
X201222930Y-99133609D01*
X201222930Y-99133609D02*
X201341978Y-99133609D01*
X201341978Y-99133609D02*
X201389597Y-99109800D01*
X201389597Y-99109800D02*
X201413406Y-99085990D01*
X201413406Y-99085990D02*
X201437216Y-99038371D01*
X201437216Y-99038371D02*
X201437216Y-98990752D01*
X201437216Y-98990752D02*
X201413406Y-98943133D01*
X201413406Y-98943133D02*
X201389597Y-98919323D01*
X201389597Y-98919323D02*
X201341978Y-98895514D01*
X201341978Y-98895514D02*
X201246740Y-98871704D01*
X201246740Y-98871704D02*
X201199121Y-98847895D01*
X201199121Y-98847895D02*
X201175311Y-98824085D01*
X201175311Y-98824085D02*
X201151502Y-98776466D01*
X201151502Y-98776466D02*
X201151502Y-98728847D01*
X201151502Y-98728847D02*
X201175311Y-98681228D01*
X201175311Y-98681228D02*
X201199121Y-98657419D01*
X201199121Y-98657419D02*
X201246740Y-98633609D01*
X201246740Y-98633609D02*
X201365787Y-98633609D01*
X201365787Y-98633609D02*
X201437216Y-98657419D01*
D10*
D11*
X199276741Y-76133609D02*
X198991027Y-76133609D01*
X199133884Y-76133609D02*
X199133884Y-75633609D01*
X199133884Y-75633609D02*
X199086265Y-75705038D01*
X199086265Y-75705038D02*
X199038646Y-75752657D01*
X199038646Y-75752657D02*
X198991027Y-75776466D01*
X199491026Y-76133609D02*
X199491026Y-75633609D01*
X199491026Y-75633609D02*
X199681502Y-75633609D01*
X199681502Y-75633609D02*
X199729121Y-75657419D01*
X199729121Y-75657419D02*
X199752931Y-75681228D01*
X199752931Y-75681228D02*
X199776740Y-75728847D01*
X199776740Y-75728847D02*
X199776740Y-75800276D01*
X199776740Y-75800276D02*
X199752931Y-75847895D01*
X199752931Y-75847895D02*
X199729121Y-75871704D01*
X199729121Y-75871704D02*
X199681502Y-75895514D01*
X199681502Y-75895514D02*
X199491026Y-75895514D01*
X199991026Y-76133609D02*
X199991026Y-75633609D01*
X199991026Y-75633609D02*
X200181502Y-75633609D01*
X200181502Y-75633609D02*
X200229121Y-75657419D01*
X200229121Y-75657419D02*
X200252931Y-75681228D01*
X200252931Y-75681228D02*
X200276740Y-75728847D01*
X200276740Y-75728847D02*
X200276740Y-75800276D01*
X200276740Y-75800276D02*
X200252931Y-75847895D01*
X200252931Y-75847895D02*
X200229121Y-75871704D01*
X200229121Y-75871704D02*
X200181502Y-75895514D01*
X200181502Y-75895514D02*
X199991026Y-75895514D01*
X200467217Y-76109800D02*
X200538645Y-76133609D01*
X200538645Y-76133609D02*
X200657693Y-76133609D01*
X200657693Y-76133609D02*
X200705312Y-76109800D01*
X200705312Y-76109800D02*
X200729121Y-76085990D01*
X200729121Y-76085990D02*
X200752931Y-76038371D01*
X200752931Y-76038371D02*
X200752931Y-75990752D01*
X200752931Y-75990752D02*
X200729121Y-75943133D01*
X200729121Y-75943133D02*
X200705312Y-75919323D01*
X200705312Y-75919323D02*
X200657693Y-75895514D01*
X200657693Y-75895514D02*
X200562455Y-75871704D01*
X200562455Y-75871704D02*
X200514836Y-75847895D01*
X200514836Y-75847895D02*
X200491026Y-75824085D01*
X200491026Y-75824085D02*
X200467217Y-75776466D01*
X200467217Y-75776466D02*
X200467217Y-75728847D01*
X200467217Y-75728847D02*
X200491026Y-75681228D01*
X200491026Y-75681228D02*
X200514836Y-75657419D01*
X200514836Y-75657419D02*
X200562455Y-75633609D01*
X200562455Y-75633609D02*
X200681502Y-75633609D01*
X200681502Y-75633609D02*
X200752931Y-75657419D01*
D10*
D11*
X199137217Y-71633609D02*
X199446741Y-71633609D01*
X199446741Y-71633609D02*
X199280074Y-71824085D01*
X199280074Y-71824085D02*
X199351503Y-71824085D01*
X199351503Y-71824085D02*
X199399122Y-71847895D01*
X199399122Y-71847895D02*
X199422931Y-71871704D01*
X199422931Y-71871704D02*
X199446741Y-71919323D01*
X199446741Y-71919323D02*
X199446741Y-72038371D01*
X199446741Y-72038371D02*
X199422931Y-72085990D01*
X199422931Y-72085990D02*
X199399122Y-72109800D01*
X199399122Y-72109800D02*
X199351503Y-72133609D01*
X199351503Y-72133609D02*
X199208646Y-72133609D01*
X199208646Y-72133609D02*
X199161027Y-72109800D01*
X199161027Y-72109800D02*
X199137217Y-72085990D01*
X199661026Y-72133609D02*
X199661026Y-71633609D01*
X199661026Y-71633609D02*
X199780074Y-71633609D01*
X199780074Y-71633609D02*
X199851502Y-71657419D01*
X199851502Y-71657419D02*
X199899121Y-71705038D01*
X199899121Y-71705038D02*
X199922931Y-71752657D01*
X199922931Y-71752657D02*
X199946740Y-71847895D01*
X199946740Y-71847895D02*
X199946740Y-71919323D01*
X199946740Y-71919323D02*
X199922931Y-72014561D01*
X199922931Y-72014561D02*
X199899121Y-72062180D01*
X199899121Y-72062180D02*
X199851502Y-72109800D01*
X199851502Y-72109800D02*
X199780074Y-72133609D01*
X199780074Y-72133609D02*
X199661026Y-72133609D01*
X200327693Y-71871704D02*
X200161026Y-71871704D01*
X200161026Y-72133609D02*
X200161026Y-71633609D01*
X200161026Y-71633609D02*
X200399121Y-71633609D01*
D10*
D11*
X198937217Y-93433609D02*
X199246741Y-93433609D01*
X199246741Y-93433609D02*
X199080074Y-93624085D01*
X199080074Y-93624085D02*
X199151503Y-93624085D01*
X199151503Y-93624085D02*
X199199122Y-93647895D01*
X199199122Y-93647895D02*
X199222931Y-93671704D01*
X199222931Y-93671704D02*
X199246741Y-93719323D01*
X199246741Y-93719323D02*
X199246741Y-93838371D01*
X199246741Y-93838371D02*
X199222931Y-93885990D01*
X199222931Y-93885990D02*
X199199122Y-93909800D01*
X199199122Y-93909800D02*
X199151503Y-93933609D01*
X199151503Y-93933609D02*
X199008646Y-93933609D01*
X199008646Y-93933609D02*
X198961027Y-93909800D01*
X198961027Y-93909800D02*
X198937217Y-93885990D01*
X199389598Y-93433609D02*
X199556264Y-93933609D01*
X199556264Y-93933609D02*
X199722931Y-93433609D01*
X199841978Y-93433609D02*
X200151502Y-93433609D01*
X200151502Y-93433609D02*
X199984835Y-93624085D01*
X199984835Y-93624085D02*
X200056264Y-93624085D01*
X200056264Y-93624085D02*
X200103883Y-93647895D01*
X200103883Y-93647895D02*
X200127692Y-93671704D01*
X200127692Y-93671704D02*
X200151502Y-93719323D01*
X200151502Y-93719323D02*
X200151502Y-93838371D01*
X200151502Y-93838371D02*
X200127692Y-93885990D01*
X200127692Y-93885990D02*
X200103883Y-93909800D01*
X200103883Y-93909800D02*
X200056264Y-93933609D01*
X200056264Y-93933609D02*
X199913407Y-93933609D01*
X199913407Y-93933609D02*
X199865788Y-93909800D01*
X199865788Y-93909800D02*
X199841978Y-93885990D01*
D10*
D11*
X198943408Y-96033609D02*
X199229122Y-96033609D01*
X199086265Y-96533609D02*
X199086265Y-96033609D01*
X199348169Y-96033609D02*
X199681502Y-96533609D01*
X199681502Y-96033609D02*
X199348169Y-96533609D01*
X200038645Y-96271704D02*
X200110073Y-96295514D01*
X200110073Y-96295514D02*
X200133883Y-96319323D01*
X200133883Y-96319323D02*
X200157692Y-96366942D01*
X200157692Y-96366942D02*
X200157692Y-96438371D01*
X200157692Y-96438371D02*
X200133883Y-96485990D01*
X200133883Y-96485990D02*
X200110073Y-96509800D01*
X200110073Y-96509800D02*
X200062454Y-96533609D01*
X200062454Y-96533609D02*
X199871978Y-96533609D01*
X199871978Y-96533609D02*
X199871978Y-96033609D01*
X199871978Y-96033609D02*
X200038645Y-96033609D01*
X200038645Y-96033609D02*
X200086264Y-96057419D01*
X200086264Y-96057419D02*
X200110073Y-96081228D01*
X200110073Y-96081228D02*
X200133883Y-96128847D01*
X200133883Y-96128847D02*
X200133883Y-96176466D01*
X200133883Y-96176466D02*
X200110073Y-96224085D01*
X200110073Y-96224085D02*
X200086264Y-96247895D01*
X200086264Y-96247895D02*
X200038645Y-96271704D01*
X200038645Y-96271704D02*
X199871978Y-96271704D01*
D10*
D11*
X229880074Y-82833609D02*
X229975312Y-82833609D01*
X229975312Y-82833609D02*
X230022931Y-82857419D01*
X230022931Y-82857419D02*
X230070550Y-82905038D01*
X230070550Y-82905038D02*
X230094360Y-83000276D01*
X230094360Y-83000276D02*
X230094360Y-83166942D01*
X230094360Y-83166942D02*
X230070550Y-83262180D01*
X230070550Y-83262180D02*
X230022931Y-83309800D01*
X230022931Y-83309800D02*
X229975312Y-83333609D01*
X229975312Y-83333609D02*
X229880074Y-83333609D01*
X229880074Y-83333609D02*
X229832455Y-83309800D01*
X229832455Y-83309800D02*
X229784836Y-83262180D01*
X229784836Y-83262180D02*
X229761027Y-83166942D01*
X229761027Y-83166942D02*
X229761027Y-83000276D01*
X229761027Y-83000276D02*
X229784836Y-82905038D01*
X229784836Y-82905038D02*
X229832455Y-82857419D01*
X229832455Y-82857419D02*
X229880074Y-82833609D01*
X230522932Y-83000276D02*
X230522932Y-83333609D01*
X230308646Y-83000276D02*
X230308646Y-83262180D01*
X230308646Y-83262180D02*
X230332456Y-83309800D01*
X230332456Y-83309800D02*
X230380075Y-83333609D01*
X230380075Y-83333609D02*
X230451503Y-83333609D01*
X230451503Y-83333609D02*
X230499122Y-83309800D01*
X230499122Y-83309800D02*
X230522932Y-83285990D01*
X230689599Y-83000276D02*
X230880075Y-83000276D01*
X230761027Y-82833609D02*
X230761027Y-83262180D01*
X230761027Y-83262180D02*
X230784837Y-83309800D01*
X230784837Y-83309800D02*
X230832456Y-83333609D01*
X230832456Y-83333609D02*
X230880075Y-83333609D01*
X231046741Y-83000276D02*
X231046741Y-83500276D01*
X231046741Y-83024085D02*
X231094360Y-83000276D01*
X231094360Y-83000276D02*
X231189598Y-83000276D01*
X231189598Y-83000276D02*
X231237217Y-83024085D01*
X231237217Y-83024085D02*
X231261027Y-83047895D01*
X231261027Y-83047895D02*
X231284836Y-83095514D01*
X231284836Y-83095514D02*
X231284836Y-83238371D01*
X231284836Y-83238371D02*
X231261027Y-83285990D01*
X231261027Y-83285990D02*
X231237217Y-83309800D01*
X231237217Y-83309800D02*
X231189598Y-83333609D01*
X231189598Y-83333609D02*
X231094360Y-83333609D01*
X231094360Y-83333609D02*
X231046741Y-83309800D01*
X231713408Y-83000276D02*
X231713408Y-83333609D01*
X231499122Y-83000276D02*
X231499122Y-83262180D01*
X231499122Y-83262180D02*
X231522932Y-83309800D01*
X231522932Y-83309800D02*
X231570551Y-83333609D01*
X231570551Y-83333609D02*
X231641979Y-83333609D01*
X231641979Y-83333609D02*
X231689598Y-83309800D01*
X231689598Y-83309800D02*
X231713408Y-83285990D01*
X231880075Y-83000276D02*
X232070551Y-83000276D01*
X231951503Y-82833609D02*
X231951503Y-83262180D01*
X231951503Y-83262180D02*
X231975313Y-83309800D01*
X231975313Y-83309800D02*
X232022932Y-83333609D01*
X232022932Y-83333609D02*
X232070551Y-83333609D01*
D12*
D13*
X203263188Y-68056119D02*
X203215569Y-68032309D01*
X203215569Y-68032309D02*
X203144140Y-68032309D01*
X203144140Y-68032309D02*
X203072712Y-68056119D01*
X203072712Y-68056119D02*
X203025093Y-68103738D01*
X203025093Y-68103738D02*
X203001283Y-68151357D01*
X203001283Y-68151357D02*
X202977474Y-68246595D01*
X202977474Y-68246595D02*
X202977474Y-68318023D01*
X202977474Y-68318023D02*
X203001283Y-68413261D01*
X203001283Y-68413261D02*
X203025093Y-68460880D01*
X203025093Y-68460880D02*
X203072712Y-68508500D01*
X203072712Y-68508500D02*
X203144140Y-68532309D01*
X203144140Y-68532309D02*
X203191759Y-68532309D01*
X203191759Y-68532309D02*
X203263188Y-68508500D01*
X203263188Y-68508500D02*
X203286997Y-68484690D01*
X203286997Y-68484690D02*
X203286997Y-68318023D01*
X203286997Y-68318023D02*
X203191759Y-68318023D01*
X203501283Y-68532309D02*
X203501283Y-68032309D01*
X203501283Y-68032309D02*
X203786997Y-68532309D01*
X203786997Y-68532309D02*
X203786997Y-68032309D01*
X204025093Y-68532309D02*
X204025093Y-68032309D01*
X204025093Y-68032309D02*
X204144141Y-68032309D01*
X204144141Y-68032309D02*
X204215569Y-68056119D01*
X204215569Y-68056119D02*
X204263188Y-68103738D01*
X204263188Y-68103738D02*
X204286998Y-68151357D01*
X204286998Y-68151357D02*
X204310807Y-68246595D01*
X204310807Y-68246595D02*
X204310807Y-68318023D01*
X204310807Y-68318023D02*
X204286998Y-68413261D01*
X204286998Y-68413261D02*
X204263188Y-68460880D01*
X204263188Y-68460880D02*
X204215569Y-68508500D01*
X204215569Y-68508500D02*
X204144141Y-68532309D01*
X204144141Y-68532309D02*
X204025093Y-68532309D01*
D10*
D11*
X199270550Y-97733609D02*
X199103884Y-97495514D01*
X198984836Y-97733609D02*
X198984836Y-97233609D01*
X198984836Y-97233609D02*
X199175312Y-97233609D01*
X199175312Y-97233609D02*
X199222931Y-97257419D01*
X199222931Y-97257419D02*
X199246741Y-97281228D01*
X199246741Y-97281228D02*
X199270550Y-97328847D01*
X199270550Y-97328847D02*
X199270550Y-97400276D01*
X199270550Y-97400276D02*
X199246741Y-97447895D01*
X199246741Y-97447895D02*
X199222931Y-97471704D01*
X199222931Y-97471704D02*
X199175312Y-97495514D01*
X199175312Y-97495514D02*
X198984836Y-97495514D01*
X199437217Y-97233609D02*
X199770550Y-97733609D01*
X199770550Y-97233609D02*
X199437217Y-97733609D01*
X200127693Y-97471704D02*
X200199121Y-97495514D01*
X200199121Y-97495514D02*
X200222931Y-97519323D01*
X200222931Y-97519323D02*
X200246740Y-97566942D01*
X200246740Y-97566942D02*
X200246740Y-97638371D01*
X200246740Y-97638371D02*
X200222931Y-97685990D01*
X200222931Y-97685990D02*
X200199121Y-97709800D01*
X200199121Y-97709800D02*
X200151502Y-97733609D01*
X200151502Y-97733609D02*
X199961026Y-97733609D01*
X199961026Y-97733609D02*
X199961026Y-97233609D01*
X199961026Y-97233609D02*
X200127693Y-97233609D01*
X200127693Y-97233609D02*
X200175312Y-97257419D01*
X200175312Y-97257419D02*
X200199121Y-97281228D01*
X200199121Y-97281228D02*
X200222931Y-97328847D01*
X200222931Y-97328847D02*
X200222931Y-97376466D01*
X200222931Y-97376466D02*
X200199121Y-97424085D01*
X200199121Y-97424085D02*
X200175312Y-97447895D01*
X200175312Y-97447895D02*
X200127693Y-97471704D01*
X200127693Y-97471704D02*
X199961026Y-97471704D01*
D12*
D13*
X199263188Y-76856119D02*
X199215569Y-76832309D01*
X199215569Y-76832309D02*
X199144140Y-76832309D01*
X199144140Y-76832309D02*
X199072712Y-76856119D01*
X199072712Y-76856119D02*
X199025093Y-76903738D01*
X199025093Y-76903738D02*
X199001283Y-76951357D01*
X199001283Y-76951357D02*
X198977474Y-77046595D01*
X198977474Y-77046595D02*
X198977474Y-77118023D01*
X198977474Y-77118023D02*
X199001283Y-77213261D01*
X199001283Y-77213261D02*
X199025093Y-77260880D01*
X199025093Y-77260880D02*
X199072712Y-77308500D01*
X199072712Y-77308500D02*
X199144140Y-77332309D01*
X199144140Y-77332309D02*
X199191759Y-77332309D01*
X199191759Y-77332309D02*
X199263188Y-77308500D01*
X199263188Y-77308500D02*
X199286997Y-77284690D01*
X199286997Y-77284690D02*
X199286997Y-77118023D01*
X199286997Y-77118023D02*
X199191759Y-77118023D01*
X199501283Y-77332309D02*
X199501283Y-76832309D01*
X199501283Y-76832309D02*
X199786997Y-77332309D01*
X199786997Y-77332309D02*
X199786997Y-76832309D01*
X200025093Y-77332309D02*
X200025093Y-76832309D01*
X200025093Y-76832309D02*
X200144141Y-76832309D01*
X200144141Y-76832309D02*
X200215569Y-76856119D01*
X200215569Y-76856119D02*
X200263188Y-76903738D01*
X200263188Y-76903738D02*
X200286998Y-76951357D01*
X200286998Y-76951357D02*
X200310807Y-77046595D01*
X200310807Y-77046595D02*
X200310807Y-77118023D01*
X200310807Y-77118023D02*
X200286998Y-77213261D01*
X200286998Y-77213261D02*
X200263188Y-77260880D01*
X200263188Y-77260880D02*
X200215569Y-77308500D01*
X200215569Y-77308500D02*
X200144141Y-77332309D01*
X200144141Y-77332309D02*
X200025093Y-77332309D01*
D10*
D11*
X230737217Y-81633609D02*
X231046741Y-81633609D01*
X231046741Y-81633609D02*
X230880074Y-81824085D01*
X230880074Y-81824085D02*
X230951503Y-81824085D01*
X230951503Y-81824085D02*
X230999122Y-81847895D01*
X230999122Y-81847895D02*
X231022931Y-81871704D01*
X231022931Y-81871704D02*
X231046741Y-81919323D01*
X231046741Y-81919323D02*
X231046741Y-82038371D01*
X231046741Y-82038371D02*
X231022931Y-82085990D01*
X231022931Y-82085990D02*
X230999122Y-82109800D01*
X230999122Y-82109800D02*
X230951503Y-82133609D01*
X230951503Y-82133609D02*
X230808646Y-82133609D01*
X230808646Y-82133609D02*
X230761027Y-82109800D01*
X230761027Y-82109800D02*
X230737217Y-82085990D01*
X231189598Y-81633609D02*
X231356264Y-82133609D01*
X231356264Y-82133609D02*
X231522931Y-81633609D01*
X231641978Y-81633609D02*
X231951502Y-81633609D01*
X231951502Y-81633609D02*
X231784835Y-81824085D01*
X231784835Y-81824085D02*
X231856264Y-81824085D01*
X231856264Y-81824085D02*
X231903883Y-81847895D01*
X231903883Y-81847895D02*
X231927692Y-81871704D01*
X231927692Y-81871704D02*
X231951502Y-81919323D01*
X231951502Y-81919323D02*
X231951502Y-82038371D01*
X231951502Y-82038371D02*
X231927692Y-82085990D01*
X231927692Y-82085990D02*
X231903883Y-82109800D01*
X231903883Y-82109800D02*
X231856264Y-82133609D01*
X231856264Y-82133609D02*
X231713407Y-82133609D01*
X231713407Y-82133609D02*
X231665788Y-82109800D01*
X231665788Y-82109800D02*
X231641978Y-82085990D01*
D10*
D11*
X198913408Y-74233609D02*
X199199122Y-74233609D01*
X199056265Y-74733609D02*
X199056265Y-74233609D01*
X199318169Y-74233609D02*
X199651502Y-74733609D01*
X199651502Y-74233609D02*
X199318169Y-74733609D01*
X200103883Y-74257419D02*
X200056264Y-74233609D01*
X200056264Y-74233609D02*
X199984835Y-74233609D01*
X199984835Y-74233609D02*
X199913407Y-74257419D01*
X199913407Y-74257419D02*
X199865788Y-74305038D01*
X199865788Y-74305038D02*
X199841978Y-74352657D01*
X199841978Y-74352657D02*
X199818169Y-74447895D01*
X199818169Y-74447895D02*
X199818169Y-74519323D01*
X199818169Y-74519323D02*
X199841978Y-74614561D01*
X199841978Y-74614561D02*
X199865788Y-74662180D01*
X199865788Y-74662180D02*
X199913407Y-74709800D01*
X199913407Y-74709800D02*
X199984835Y-74733609D01*
X199984835Y-74733609D02*
X200032454Y-74733609D01*
X200032454Y-74733609D02*
X200103883Y-74709800D01*
X200103883Y-74709800D02*
X200127692Y-74685990D01*
X200127692Y-74685990D02*
X200127692Y-74519323D01*
X200127692Y-74519323D02*
X200032454Y-74519323D01*
D10*
D11*
X199270550Y-73533609D02*
X199103884Y-73295514D01*
X198984836Y-73533609D02*
X198984836Y-73033609D01*
X198984836Y-73033609D02*
X199175312Y-73033609D01*
X199175312Y-73033609D02*
X199222931Y-73057419D01*
X199222931Y-73057419D02*
X199246741Y-73081228D01*
X199246741Y-73081228D02*
X199270550Y-73128847D01*
X199270550Y-73128847D02*
X199270550Y-73200276D01*
X199270550Y-73200276D02*
X199246741Y-73247895D01*
X199246741Y-73247895D02*
X199222931Y-73271704D01*
X199222931Y-73271704D02*
X199175312Y-73295514D01*
X199175312Y-73295514D02*
X198984836Y-73295514D01*
X199437217Y-73033609D02*
X199770550Y-73533609D01*
X199770550Y-73033609D02*
X199437217Y-73533609D01*
X200222931Y-73057419D02*
X200175312Y-73033609D01*
X200175312Y-73033609D02*
X200103883Y-73033609D01*
X200103883Y-73033609D02*
X200032455Y-73057419D01*
X200032455Y-73057419D02*
X199984836Y-73105038D01*
X199984836Y-73105038D02*
X199961026Y-73152657D01*
X199961026Y-73152657D02*
X199937217Y-73247895D01*
X199937217Y-73247895D02*
X199937217Y-73319323D01*
X199937217Y-73319323D02*
X199961026Y-73414561D01*
X199961026Y-73414561D02*
X199984836Y-73462180D01*
X199984836Y-73462180D02*
X200032455Y-73509800D01*
X200032455Y-73509800D02*
X200103883Y-73533609D01*
X200103883Y-73533609D02*
X200151502Y-73533609D01*
X200151502Y-73533609D02*
X200222931Y-73509800D01*
X200222931Y-73509800D02*
X200246740Y-73485990D01*
X200246740Y-73485990D02*
X200246740Y-73319323D01*
X200246740Y-73319323D02*
X200151502Y-73319323D01*
D10*
D11*
X199246741Y-94857419D02*
X199199122Y-94833609D01*
X199199122Y-94833609D02*
X199127693Y-94833609D01*
X199127693Y-94833609D02*
X199056265Y-94857419D01*
X199056265Y-94857419D02*
X199008646Y-94905038D01*
X199008646Y-94905038D02*
X198984836Y-94952657D01*
X198984836Y-94952657D02*
X198961027Y-95047895D01*
X198961027Y-95047895D02*
X198961027Y-95119323D01*
X198961027Y-95119323D02*
X198984836Y-95214561D01*
X198984836Y-95214561D02*
X199008646Y-95262180D01*
X199008646Y-95262180D02*
X199056265Y-95309800D01*
X199056265Y-95309800D02*
X199127693Y-95333609D01*
X199127693Y-95333609D02*
X199175312Y-95333609D01*
X199175312Y-95333609D02*
X199246741Y-95309800D01*
X199246741Y-95309800D02*
X199270550Y-95285990D01*
X199270550Y-95285990D02*
X199270550Y-95119323D01*
X199270550Y-95119323D02*
X199175312Y-95119323D01*
X199484836Y-95333609D02*
X199484836Y-94833609D01*
X199484836Y-94833609D02*
X199770550Y-95333609D01*
X199770550Y-95333609D02*
X199770550Y-94833609D01*
X200008646Y-95333609D02*
X200008646Y-94833609D01*
X200008646Y-94833609D02*
X200127694Y-94833609D01*
X200127694Y-94833609D02*
X200199122Y-94857419D01*
X200199122Y-94857419D02*
X200246741Y-94905038D01*
X200246741Y-94905038D02*
X200270551Y-94952657D01*
X200270551Y-94952657D02*
X200294360Y-95047895D01*
X200294360Y-95047895D02*
X200294360Y-95119323D01*
X200294360Y-95119323D02*
X200270551Y-95214561D01*
X200270551Y-95214561D02*
X200246741Y-95262180D01*
X200246741Y-95262180D02*
X200199122Y-95309800D01*
X200199122Y-95309800D02*
X200127694Y-95333609D01*
X200127694Y-95333609D02*
X200008646Y-95333609D01*
D10*
D11*
X223480074Y-82833609D02*
X223575312Y-82833609D01*
X223575312Y-82833609D02*
X223622931Y-82857419D01*
X223622931Y-82857419D02*
X223670550Y-82905038D01*
X223670550Y-82905038D02*
X223694360Y-83000276D01*
X223694360Y-83000276D02*
X223694360Y-83166942D01*
X223694360Y-83166942D02*
X223670550Y-83262180D01*
X223670550Y-83262180D02*
X223622931Y-83309800D01*
X223622931Y-83309800D02*
X223575312Y-83333609D01*
X223575312Y-83333609D02*
X223480074Y-83333609D01*
X223480074Y-83333609D02*
X223432455Y-83309800D01*
X223432455Y-83309800D02*
X223384836Y-83262180D01*
X223384836Y-83262180D02*
X223361027Y-83166942D01*
X223361027Y-83166942D02*
X223361027Y-83000276D01*
X223361027Y-83000276D02*
X223384836Y-82905038D01*
X223384836Y-82905038D02*
X223432455Y-82857419D01*
X223432455Y-82857419D02*
X223480074Y-82833609D01*
X224122932Y-83000276D02*
X224122932Y-83333609D01*
X223908646Y-83000276D02*
X223908646Y-83262180D01*
X223908646Y-83262180D02*
X223932456Y-83309800D01*
X223932456Y-83309800D02*
X223980075Y-83333609D01*
X223980075Y-83333609D02*
X224051503Y-83333609D01*
X224051503Y-83333609D02*
X224099122Y-83309800D01*
X224099122Y-83309800D02*
X224122932Y-83285990D01*
X224289599Y-83000276D02*
X224480075Y-83000276D01*
X224361027Y-82833609D02*
X224361027Y-83262180D01*
X224361027Y-83262180D02*
X224384837Y-83309800D01*
X224384837Y-83309800D02*
X224432456Y-83333609D01*
X224432456Y-83333609D02*
X224480075Y-83333609D01*
X224646741Y-83000276D02*
X224646741Y-83500276D01*
X224646741Y-83024085D02*
X224694360Y-83000276D01*
X224694360Y-83000276D02*
X224789598Y-83000276D01*
X224789598Y-83000276D02*
X224837217Y-83024085D01*
X224837217Y-83024085D02*
X224861027Y-83047895D01*
X224861027Y-83047895D02*
X224884836Y-83095514D01*
X224884836Y-83095514D02*
X224884836Y-83238371D01*
X224884836Y-83238371D02*
X224861027Y-83285990D01*
X224861027Y-83285990D02*
X224837217Y-83309800D01*
X224837217Y-83309800D02*
X224789598Y-83333609D01*
X224789598Y-83333609D02*
X224694360Y-83333609D01*
X224694360Y-83333609D02*
X224646741Y-83309800D01*
X225313408Y-83000276D02*
X225313408Y-83333609D01*
X225099122Y-83000276D02*
X225099122Y-83262180D01*
X225099122Y-83262180D02*
X225122932Y-83309800D01*
X225122932Y-83309800D02*
X225170551Y-83333609D01*
X225170551Y-83333609D02*
X225241979Y-83333609D01*
X225241979Y-83333609D02*
X225289598Y-83309800D01*
X225289598Y-83309800D02*
X225313408Y-83285990D01*
X225480075Y-83000276D02*
X225670551Y-83000276D01*
X225551503Y-82833609D02*
X225551503Y-83262180D01*
X225551503Y-83262180D02*
X225575313Y-83309800D01*
X225575313Y-83309800D02*
X225622932Y-83333609D01*
X225622932Y-83333609D02*
X225670551Y-83333609D01*
D10*
D11*
X231046741Y-80257419D02*
X230999122Y-80233609D01*
X230999122Y-80233609D02*
X230927693Y-80233609D01*
X230927693Y-80233609D02*
X230856265Y-80257419D01*
X230856265Y-80257419D02*
X230808646Y-80305038D01*
X230808646Y-80305038D02*
X230784836Y-80352657D01*
X230784836Y-80352657D02*
X230761027Y-80447895D01*
X230761027Y-80447895D02*
X230761027Y-80519323D01*
X230761027Y-80519323D02*
X230784836Y-80614561D01*
X230784836Y-80614561D02*
X230808646Y-80662180D01*
X230808646Y-80662180D02*
X230856265Y-80709800D01*
X230856265Y-80709800D02*
X230927693Y-80733609D01*
X230927693Y-80733609D02*
X230975312Y-80733609D01*
X230975312Y-80733609D02*
X231046741Y-80709800D01*
X231046741Y-80709800D02*
X231070550Y-80685990D01*
X231070550Y-80685990D02*
X231070550Y-80519323D01*
X231070550Y-80519323D02*
X230975312Y-80519323D01*
X231284836Y-80733609D02*
X231284836Y-80233609D01*
X231284836Y-80233609D02*
X231570550Y-80733609D01*
X231570550Y-80733609D02*
X231570550Y-80233609D01*
X231808646Y-80733609D02*
X231808646Y-80233609D01*
X231808646Y-80233609D02*
X231927694Y-80233609D01*
X231927694Y-80233609D02*
X231999122Y-80257419D01*
X231999122Y-80257419D02*
X232046741Y-80305038D01*
X232046741Y-80305038D02*
X232070551Y-80352657D01*
X232070551Y-80352657D02*
X232094360Y-80447895D01*
X232094360Y-80447895D02*
X232094360Y-80519323D01*
X232094360Y-80519323D02*
X232070551Y-80614561D01*
X232070551Y-80614561D02*
X232046741Y-80662180D01*
X232046741Y-80662180D02*
X231999122Y-80709800D01*
X231999122Y-80709800D02*
X231927694Y-80733609D01*
X231927694Y-80733609D02*
X231808646Y-80733609D01*
D10*
D11*
X198937217Y-78233609D02*
X199246741Y-78233609D01*
X199246741Y-78233609D02*
X199080074Y-78424085D01*
X199080074Y-78424085D02*
X199151503Y-78424085D01*
X199151503Y-78424085D02*
X199199122Y-78447895D01*
X199199122Y-78447895D02*
X199222931Y-78471704D01*
X199222931Y-78471704D02*
X199246741Y-78519323D01*
X199246741Y-78519323D02*
X199246741Y-78638371D01*
X199246741Y-78638371D02*
X199222931Y-78685990D01*
X199222931Y-78685990D02*
X199199122Y-78709800D01*
X199199122Y-78709800D02*
X199151503Y-78733609D01*
X199151503Y-78733609D02*
X199008646Y-78733609D01*
X199008646Y-78733609D02*
X198961027Y-78709800D01*
X198961027Y-78709800D02*
X198937217Y-78685990D01*
X199389598Y-78233609D02*
X199556264Y-78733609D01*
X199556264Y-78733609D02*
X199722931Y-78233609D01*
X199841978Y-78233609D02*
X200151502Y-78233609D01*
X200151502Y-78233609D02*
X199984835Y-78424085D01*
X199984835Y-78424085D02*
X200056264Y-78424085D01*
X200056264Y-78424085D02*
X200103883Y-78447895D01*
X200103883Y-78447895D02*
X200127692Y-78471704D01*
X200127692Y-78471704D02*
X200151502Y-78519323D01*
X200151502Y-78519323D02*
X200151502Y-78638371D01*
X200151502Y-78638371D02*
X200127692Y-78685990D01*
X200127692Y-78685990D02*
X200103883Y-78709800D01*
X200103883Y-78709800D02*
X200056264Y-78733609D01*
X200056264Y-78733609D02*
X199913407Y-78733609D01*
X199913407Y-78733609D02*
X199865788Y-78709800D01*
X199865788Y-78709800D02*
X199841978Y-78685990D01*
D10*
D11*
X223337217Y-93233609D02*
X223646741Y-93233609D01*
X223646741Y-93233609D02*
X223480074Y-93424085D01*
X223480074Y-93424085D02*
X223551503Y-93424085D01*
X223551503Y-93424085D02*
X223599122Y-93447895D01*
X223599122Y-93447895D02*
X223622931Y-93471704D01*
X223622931Y-93471704D02*
X223646741Y-93519323D01*
X223646741Y-93519323D02*
X223646741Y-93638371D01*
X223646741Y-93638371D02*
X223622931Y-93685990D01*
X223622931Y-93685990D02*
X223599122Y-93709800D01*
X223599122Y-93709800D02*
X223551503Y-93733609D01*
X223551503Y-93733609D02*
X223408646Y-93733609D01*
X223408646Y-93733609D02*
X223361027Y-93709800D01*
X223361027Y-93709800D02*
X223337217Y-93685990D01*
X223789598Y-93233609D02*
X223956264Y-93733609D01*
X223956264Y-93733609D02*
X224122931Y-93233609D01*
X224241978Y-93233609D02*
X224551502Y-93233609D01*
X224551502Y-93233609D02*
X224384835Y-93424085D01*
X224384835Y-93424085D02*
X224456264Y-93424085D01*
X224456264Y-93424085D02*
X224503883Y-93447895D01*
X224503883Y-93447895D02*
X224527692Y-93471704D01*
X224527692Y-93471704D02*
X224551502Y-93519323D01*
X224551502Y-93519323D02*
X224551502Y-93638371D01*
X224551502Y-93638371D02*
X224527692Y-93685990D01*
X224527692Y-93685990D02*
X224503883Y-93709800D01*
X224503883Y-93709800D02*
X224456264Y-93733609D01*
X224456264Y-93733609D02*
X224313407Y-93733609D01*
X224313407Y-93733609D02*
X224265788Y-93709800D01*
X224265788Y-93709800D02*
X224241978Y-93685990D01*
D10*
D11*
X203470550Y-78533609D02*
X203303884Y-78295514D01*
X203184836Y-78533609D02*
X203184836Y-78033609D01*
X203184836Y-78033609D02*
X203375312Y-78033609D01*
X203375312Y-78033609D02*
X203422931Y-78057419D01*
X203422931Y-78057419D02*
X203446741Y-78081228D01*
X203446741Y-78081228D02*
X203470550Y-78128847D01*
X203470550Y-78128847D02*
X203470550Y-78200276D01*
X203470550Y-78200276D02*
X203446741Y-78247895D01*
X203446741Y-78247895D02*
X203422931Y-78271704D01*
X203422931Y-78271704D02*
X203375312Y-78295514D01*
X203375312Y-78295514D02*
X203184836Y-78295514D01*
X203637217Y-78033609D02*
X203970550Y-78533609D01*
X203970550Y-78033609D02*
X203637217Y-78533609D01*
X204327693Y-78271704D02*
X204399121Y-78295514D01*
X204399121Y-78295514D02*
X204422931Y-78319323D01*
X204422931Y-78319323D02*
X204446740Y-78366942D01*
X204446740Y-78366942D02*
X204446740Y-78438371D01*
X204446740Y-78438371D02*
X204422931Y-78485990D01*
X204422931Y-78485990D02*
X204399121Y-78509800D01*
X204399121Y-78509800D02*
X204351502Y-78533609D01*
X204351502Y-78533609D02*
X204161026Y-78533609D01*
X204161026Y-78533609D02*
X204161026Y-78033609D01*
X204161026Y-78033609D02*
X204327693Y-78033609D01*
X204327693Y-78033609D02*
X204375312Y-78057419D01*
X204375312Y-78057419D02*
X204399121Y-78081228D01*
X204399121Y-78081228D02*
X204422931Y-78128847D01*
X204422931Y-78128847D02*
X204422931Y-78176466D01*
X204422931Y-78176466D02*
X204399121Y-78224085D01*
X204399121Y-78224085D02*
X204375312Y-78247895D01*
X204375312Y-78247895D02*
X204327693Y-78271704D01*
X204327693Y-78271704D02*
X204161026Y-78271704D01*
D10*
D11*
X203313408Y-75633609D02*
X203599122Y-75633609D01*
X203456265Y-76133609D02*
X203456265Y-75633609D01*
X203718169Y-75633609D02*
X204051502Y-76133609D01*
X204051502Y-75633609D02*
X203718169Y-76133609D01*
X204408645Y-75871704D02*
X204480073Y-75895514D01*
X204480073Y-75895514D02*
X204503883Y-75919323D01*
X204503883Y-75919323D02*
X204527692Y-75966942D01*
X204527692Y-75966942D02*
X204527692Y-76038371D01*
X204527692Y-76038371D02*
X204503883Y-76085990D01*
X204503883Y-76085990D02*
X204480073Y-76109800D01*
X204480073Y-76109800D02*
X204432454Y-76133609D01*
X204432454Y-76133609D02*
X204241978Y-76133609D01*
X204241978Y-76133609D02*
X204241978Y-75633609D01*
X204241978Y-75633609D02*
X204408645Y-75633609D01*
X204408645Y-75633609D02*
X204456264Y-75657419D01*
X204456264Y-75657419D02*
X204480073Y-75681228D01*
X204480073Y-75681228D02*
X204503883Y-75728847D01*
X204503883Y-75728847D02*
X204503883Y-75776466D01*
X204503883Y-75776466D02*
X204480073Y-75824085D01*
X204480073Y-75824085D02*
X204456264Y-75847895D01*
X204456264Y-75847895D02*
X204408645Y-75871704D01*
X204408645Y-75871704D02*
X204241978Y-75871704D01*
D10*
D11*
X223646741Y-62657419D02*
X223599122Y-62633609D01*
X223599122Y-62633609D02*
X223527693Y-62633609D01*
X223527693Y-62633609D02*
X223456265Y-62657419D01*
X223456265Y-62657419D02*
X223408646Y-62705038D01*
X223408646Y-62705038D02*
X223384836Y-62752657D01*
X223384836Y-62752657D02*
X223361027Y-62847895D01*
X223361027Y-62847895D02*
X223361027Y-62919323D01*
X223361027Y-62919323D02*
X223384836Y-63014561D01*
X223384836Y-63014561D02*
X223408646Y-63062180D01*
X223408646Y-63062180D02*
X223456265Y-63109800D01*
X223456265Y-63109800D02*
X223527693Y-63133609D01*
X223527693Y-63133609D02*
X223575312Y-63133609D01*
X223575312Y-63133609D02*
X223646741Y-63109800D01*
X223646741Y-63109800D02*
X223670550Y-63085990D01*
X223670550Y-63085990D02*
X223670550Y-62919323D01*
X223670550Y-62919323D02*
X223575312Y-62919323D01*
X223884836Y-63133609D02*
X223884836Y-62633609D01*
X223884836Y-62633609D02*
X224170550Y-63133609D01*
X224170550Y-63133609D02*
X224170550Y-62633609D01*
X224408646Y-63133609D02*
X224408646Y-62633609D01*
X224408646Y-62633609D02*
X224527694Y-62633609D01*
X224527694Y-62633609D02*
X224599122Y-62657419D01*
X224599122Y-62657419D02*
X224646741Y-62705038D01*
X224646741Y-62705038D02*
X224670551Y-62752657D01*
X224670551Y-62752657D02*
X224694360Y-62847895D01*
X224694360Y-62847895D02*
X224694360Y-62919323D01*
X224694360Y-62919323D02*
X224670551Y-63014561D01*
X224670551Y-63014561D02*
X224646741Y-63062180D01*
X224646741Y-63062180D02*
X224599122Y-63109800D01*
X224599122Y-63109800D02*
X224527694Y-63133609D01*
X224527694Y-63133609D02*
X224408646Y-63133609D01*
D10*
D11*
X203313408Y-62833609D02*
X203599122Y-62833609D01*
X203456265Y-63333609D02*
X203456265Y-62833609D01*
X203718169Y-62833609D02*
X204051502Y-63333609D01*
X204051502Y-62833609D02*
X203718169Y-63333609D01*
X204503883Y-62857419D02*
X204456264Y-62833609D01*
X204456264Y-62833609D02*
X204384835Y-62833609D01*
X204384835Y-62833609D02*
X204313407Y-62857419D01*
X204313407Y-62857419D02*
X204265788Y-62905038D01*
X204265788Y-62905038D02*
X204241978Y-62952657D01*
X204241978Y-62952657D02*
X204218169Y-63047895D01*
X204218169Y-63047895D02*
X204218169Y-63119323D01*
X204218169Y-63119323D02*
X204241978Y-63214561D01*
X204241978Y-63214561D02*
X204265788Y-63262180D01*
X204265788Y-63262180D02*
X204313407Y-63309800D01*
X204313407Y-63309800D02*
X204384835Y-63333609D01*
X204384835Y-63333609D02*
X204432454Y-63333609D01*
X204432454Y-63333609D02*
X204503883Y-63309800D01*
X204503883Y-63309800D02*
X204527692Y-63285990D01*
X204527692Y-63285990D02*
X204527692Y-63119323D01*
X204527692Y-63119323D02*
X204432454Y-63119323D01*
D10*
D11*
X203470550Y-60733609D02*
X203303884Y-60495514D01*
X203184836Y-60733609D02*
X203184836Y-60233609D01*
X203184836Y-60233609D02*
X203375312Y-60233609D01*
X203375312Y-60233609D02*
X203422931Y-60257419D01*
X203422931Y-60257419D02*
X203446741Y-60281228D01*
X203446741Y-60281228D02*
X203470550Y-60328847D01*
X203470550Y-60328847D02*
X203470550Y-60400276D01*
X203470550Y-60400276D02*
X203446741Y-60447895D01*
X203446741Y-60447895D02*
X203422931Y-60471704D01*
X203422931Y-60471704D02*
X203375312Y-60495514D01*
X203375312Y-60495514D02*
X203184836Y-60495514D01*
X203637217Y-60233609D02*
X203970550Y-60733609D01*
X203970550Y-60233609D02*
X203637217Y-60733609D01*
X204422931Y-60257419D02*
X204375312Y-60233609D01*
X204375312Y-60233609D02*
X204303883Y-60233609D01*
X204303883Y-60233609D02*
X204232455Y-60257419D01*
X204232455Y-60257419D02*
X204184836Y-60305038D01*
X204184836Y-60305038D02*
X204161026Y-60352657D01*
X204161026Y-60352657D02*
X204137217Y-60447895D01*
X204137217Y-60447895D02*
X204137217Y-60519323D01*
X204137217Y-60519323D02*
X204161026Y-60614561D01*
X204161026Y-60614561D02*
X204184836Y-60662180D01*
X204184836Y-60662180D02*
X204232455Y-60709800D01*
X204232455Y-60709800D02*
X204303883Y-60733609D01*
X204303883Y-60733609D02*
X204351502Y-60733609D01*
X204351502Y-60733609D02*
X204422931Y-60709800D01*
X204422931Y-60709800D02*
X204446740Y-60685990D01*
X204446740Y-60685990D02*
X204446740Y-60519323D01*
X204446740Y-60519323D02*
X204351502Y-60519323D01*
D14*
%TO.P,U1,1,VIN*%
%TO.N,unconnected-(U1-VIN-Pad1)*%
X221500000Y-60500000D03*
D15*
%TO.P,U1,2,GND*%
%TO.N,Earth*%
X221500000Y-63040000D03*
%TO.P,U1,3,NRST*%
%TO.N,unconnected-(U1-NRST-Pad3)*%
X221500000Y-65580000D03*
%TO.P,U1,4,+5V*%
%TO.N,unconnected-(U1-+5V-Pad4)*%
X221500000Y-68120000D03*
%TO.P,U1,5,A7*%
%TO.N,unconnected-(U1-A7-Pad5)*%
X221500000Y-70660000D03*
%TO.P,U1,6,A6*%
%TO.N,unconnected-(U1-A6-Pad6)*%
X221500000Y-73200000D03*
%TO.P,U1,7,A5*%
%TO.N,unconnected-(U1-A5-Pad7)*%
X221500000Y-75740000D03*
%TO.P,U1,8,A4*%
%TO.N,unconnected-(U1-A4-Pad8)*%
X221500000Y-78280000D03*
%TO.P,U1,9,A3*%
%TO.N,unconnected-(U1-A3-Pad9)*%
X221500000Y-80820000D03*
%TO.P,U1,10,A2*%
%TO.N,/Output*%
X221500000Y-83360000D03*
%TO.P,U1,11,A1*%
%TO.N,unconnected-(U1-A1-Pad11)*%
X221500000Y-85900000D03*
%TO.P,U1,12,A0*%
%TO.N,unconnected-(U1-A0-Pad12)*%
X221500000Y-88440000D03*
%TO.P,U1,13,AREF*%
%TO.N,unconnected-(U1-AREF-Pad13)*%
X221500000Y-90980000D03*
%TO.P,U1,14,3V3*%
%TO.N,/3V3*%
X221500000Y-93520000D03*
%TO.P,U1,15,D13*%
%TO.N,unconnected-(U1-D13-Pad15)*%
X221500000Y-96060000D03*
%TO.P,U1,16,D12*%
%TO.N,unconnected-(U1-D12-Pad16)*%
X206260000Y-96060000D03*
%TO.P,U1,17,D11*%
%TO.N,unconnected-(U1-D11-Pad17)*%
X206260000Y-93520000D03*
%TO.P,U1,18,D10*%
%TO.N,unconnected-(U1-D10-Pad18)*%
X206260000Y-90980000D03*
%TO.P,U1,19,D9*%
%TO.N,unconnected-(U1-D9-Pad19)*%
X206260000Y-88440000D03*
%TO.P,U1,20,D8*%
%TO.N,unconnected-(U1-D8-Pad20)*%
X206260000Y-85900000D03*
%TO.P,U1,21,D7*%
%TO.N,unconnected-(U1-D7-Pad21)*%
X206260000Y-83360000D03*
%TO.P,U1,22,D6*%
%TO.N,unconnected-(U1-D6-Pad22)*%
X206260000Y-80820000D03*
%TO.P,U1,23,D5*%
%TO.N,/RXB*%
X206260000Y-78280000D03*
%TO.P,U1,24,D4*%
%TO.N,/TXB*%
X206260000Y-75740000D03*
%TO.P,U1,25,D3*%
%TO.N,unconnected-(U1-D3-Pad25)*%
X206260000Y-73200000D03*
%TO.P,U1,26,D2*%
%TO.N,unconnected-(U1-D2-Pad26)*%
X206260000Y-70660000D03*
%TO.P,U1,27,GND*%
%TO.N,Earth*%
X206260000Y-68120000D03*
%TO.P,U1,28,NRST*%
%TO.N,unconnected-(U1-NRST-Pad28)*%
X206260000Y-65580000D03*
%TO.P,U1,29,D0/RX*%
%TO.N,/TXG*%
X206260000Y-63040000D03*
D14*
%TO.P,U1,30,D1/TX*%
%TO.N,/RXG*%
X206260000Y-60500000D03*
%TD*%
D16*
%TO.P,GPS1,1,3DF*%
%TO.N,unconnected-(GPS1-3DF-Pad1)*%
X197500000Y-72000000D03*
D17*
%TO.P,GPS1,2,RXD*%
%TO.N,/RXG*%
X197500000Y-73270000D03*
%TO.P,GPS1,3,TXD*%
%TO.N,/TXG*%
X197500000Y-74540000D03*
%TO.P,GPS1,4,1PPS*%
%TO.N,unconnected-(GPS1-1PPS-Pad4)*%
X197500000Y-75810000D03*
%TO.P,GPS1,5,GND*%
%TO.N,Earth*%
X197500000Y-77080000D03*
%TO.P,GPS1,6,VCC3V3*%
%TO.N,/3V3*%
X197500000Y-78350000D03*
%TD*%
D16*
%TO.P,U3,1,GND*%
%TO.N,Earth*%
X233500000Y-80500000D03*
D17*
%TO.P,U3,2,VCC*%
%TO.N,/3V3*%
X233500000Y-81770000D03*
%TO.P,U3,3,Output*%
%TO.N,/Output*%
X233500000Y-83040000D03*
%TD*%
D16*
%TO.P,BLU1,1,Key*%
%TO.N,unconnected-(BLU1-Key-Pad1)*%
X197500000Y-92500000D03*
D17*
%TO.P,BLU1,2,VCC*%
%TO.N,/3V3*%
X197500000Y-93770000D03*
%TO.P,BLU1,3,GND*%
%TO.N,Earth*%
X197500000Y-95040000D03*
%TO.P,BLU1,4,TXD*%
%TO.N,/TXB*%
X197500000Y-96310000D03*
%TO.P,BLU1,5,RXD*%
%TO.N,/RXB*%
X197500000Y-97580000D03*
%TO.P,BLU1,6,STATUS*%
%TO.N,unconnected-(BLU1-STATUS-Pad6)*%
X197500000Y-98850000D03*
%TD*%
M02*
