%TF.GenerationSoftware,KiCad,Pcbnew,9.0.2*%
%TF.CreationDate,2025-05-13T11:15:57+02:00*%
%TF.ProjectId,Carte_Drone,43617274-655f-4447-926f-6e652e6b6963,rev?*%
%TF.SameCoordinates,Original*%
%TF.FileFunction,Copper,L2,Bot*%
%TF.FilePolarity,Positive*%
%FSLAX46Y46*%
G04 Gerber Fmt 4.6, Leading zero omitted, Abs format (unit mm)*
G04 Created by KiCad (PCBNEW 9.0.2) date 2025-05-13 11:15:57*
%MOMM*%
%LPD*%
G01*
G04 APERTURE LIST*
%TA.AperFunction,ComponentPad*%
%ADD10R,1.530000X1.530000*%
%TD*%
%TA.AperFunction,ComponentPad*%
%ADD11C,1.530000*%
%TD*%
%TA.AperFunction,ComponentPad*%
%ADD12R,1.000000X1.000000*%
%TD*%
%TA.AperFunction,ComponentPad*%
%ADD13C,1.000000*%
%TD*%
%TA.AperFunction,Conductor*%
%ADD14C,0.200000*%
%TD*%
G04 APERTURE END LIST*
D10*
%TO.P,U1,1,VIN*%
%TO.N,unconnected-(U1-VIN-Pad1)*%
X221500000Y-60500000D03*
D11*
%TO.P,U1,2,GND*%
%TO.N,Earth*%
X221500000Y-63040000D03*
%TO.P,U1,3,NRST*%
%TO.N,unconnected-(U1-NRST-Pad3)*%
X221500000Y-65580000D03*
%TO.P,U1,4,+5V*%
%TO.N,unconnected-(U1-+5V-Pad4)*%
X221500000Y-68120000D03*
%TO.P,U1,5,A7*%
%TO.N,unconnected-(U1-A7-Pad5)*%
X221500000Y-70660000D03*
%TO.P,U1,6,A6*%
%TO.N,unconnected-(U1-A6-Pad6)*%
X221500000Y-73200000D03*
%TO.P,U1,7,A5*%
%TO.N,unconnected-(U1-A5-Pad7)*%
X221500000Y-75740000D03*
%TO.P,U1,8,A4*%
%TO.N,unconnected-(U1-A4-Pad8)*%
X221500000Y-78280000D03*
%TO.P,U1,9,A3*%
%TO.N,unconnected-(U1-A3-Pad9)*%
X221500000Y-80820000D03*
%TO.P,U1,10,A2*%
%TO.N,/Output*%
X221500000Y-83360000D03*
%TO.P,U1,11,A1*%
%TO.N,unconnected-(U1-A1-Pad11)*%
X221500000Y-85900000D03*
%TO.P,U1,12,A0*%
%TO.N,unconnected-(U1-A0-Pad12)*%
X221500000Y-88440000D03*
%TO.P,U1,13,AREF*%
%TO.N,unconnected-(U1-AREF-Pad13)*%
X221500000Y-90980000D03*
%TO.P,U1,14,3V3*%
%TO.N,/3V3*%
X221500000Y-93520000D03*
%TO.P,U1,15,D13*%
%TO.N,unconnected-(U1-D13-Pad15)*%
X221500000Y-96060000D03*
%TO.P,U1,16,D12*%
%TO.N,unconnected-(U1-D12-Pad16)*%
X206260000Y-96060000D03*
%TO.P,U1,17,D11*%
%TO.N,unconnected-(U1-D11-Pad17)*%
X206260000Y-93520000D03*
%TO.P,U1,18,D10*%
%TO.N,unconnected-(U1-D10-Pad18)*%
X206260000Y-90980000D03*
%TO.P,U1,19,D9*%
%TO.N,unconnected-(U1-D9-Pad19)*%
X206260000Y-88440000D03*
%TO.P,U1,20,D8*%
%TO.N,unconnected-(U1-D8-Pad20)*%
X206260000Y-85900000D03*
%TO.P,U1,21,D7*%
%TO.N,unconnected-(U1-D7-Pad21)*%
X206260000Y-83360000D03*
%TO.P,U1,22,D6*%
%TO.N,unconnected-(U1-D6-Pad22)*%
X206260000Y-80820000D03*
%TO.P,U1,23,D5*%
%TO.N,/RXB*%
X206260000Y-78280000D03*
%TO.P,U1,24,D4*%
%TO.N,/TXB*%
X206260000Y-75740000D03*
%TO.P,U1,25,D3*%
%TO.N,unconnected-(U1-D3-Pad25)*%
X206260000Y-73200000D03*
%TO.P,U1,26,D2*%
%TO.N,unconnected-(U1-D2-Pad26)*%
X206260000Y-70660000D03*
%TO.P,U1,27,GND*%
%TO.N,Earth*%
X206260000Y-68120000D03*
%TO.P,U1,28,NRST*%
%TO.N,unconnected-(U1-NRST-Pad28)*%
X206260000Y-65580000D03*
%TO.P,U1,29,D0/RX*%
%TO.N,/TXG*%
X206260000Y-63040000D03*
D10*
%TO.P,U1,30,D1/TX*%
%TO.N,/RXG*%
X206260000Y-60500000D03*
%TD*%
D12*
%TO.P,GPS1,1,3DF*%
%TO.N,unconnected-(GPS1-3DF-Pad1)*%
X197500000Y-72000000D03*
D13*
%TO.P,GPS1,2,RXD*%
%TO.N,/RXG*%
X197500000Y-73270000D03*
%TO.P,GPS1,3,TXD*%
%TO.N,/TXG*%
X197500000Y-74540000D03*
%TO.P,GPS1,4,1PPS*%
%TO.N,unconnected-(GPS1-1PPS-Pad4)*%
X197500000Y-75810000D03*
%TO.P,GPS1,5,GND*%
%TO.N,Earth*%
X197500000Y-77080000D03*
%TO.P,GPS1,6,VCC3V3*%
%TO.N,/3V3*%
X197500000Y-78350000D03*
%TD*%
D12*
%TO.P,U3,1,GND*%
%TO.N,Earth*%
X233500000Y-80500000D03*
D13*
%TO.P,U3,2,VCC*%
%TO.N,/3V3*%
X233500000Y-81770000D03*
%TO.P,U3,3,Output*%
%TO.N,/Output*%
X233500000Y-83040000D03*
%TD*%
D12*
%TO.P,BLU1,1,Key*%
%TO.N,unconnected-(BLU1-Key-Pad1)*%
X197500000Y-92500000D03*
D13*
%TO.P,BLU1,2,VCC*%
%TO.N,/3V3*%
X197500000Y-93770000D03*
%TO.P,BLU1,3,GND*%
%TO.N,Earth*%
X197500000Y-95040000D03*
%TO.P,BLU1,4,TXD*%
%TO.N,/TXB*%
X197500000Y-96310000D03*
%TO.P,BLU1,5,RXD*%
%TO.N,/RXB*%
X197500000Y-97580000D03*
%TO.P,BLU1,6,STATUS*%
%TO.N,unconnected-(BLU1-STATUS-Pad6)*%
X197500000Y-98850000D03*
%TD*%
D14*
%TO.N,Earth*%
X198301000Y-94239000D02*
X198301000Y-77881000D01*
X198301000Y-77881000D02*
X197500000Y-77080000D01*
X206260000Y-68320000D02*
X206260000Y-68120000D01*
X197500000Y-95040000D02*
X198301000Y-94239000D01*
X197500000Y-77080000D02*
X206260000Y-68320000D01*
%TO.N,/3V3*%
X233500000Y-81770000D02*
X234301000Y-82571000D01*
X196500000Y-94770000D02*
X197500000Y-93770000D01*
X234301000Y-82571000D02*
X234301000Y-87299000D01*
X197500000Y-93770000D02*
X197832000Y-93770000D01*
X197168000Y-93770000D02*
X196699000Y-93301000D01*
X196699000Y-93301000D02*
X196699000Y-79151000D01*
X215020000Y-100000000D02*
X196500000Y-100000000D01*
X228080000Y-93520000D02*
X221500000Y-93520000D01*
X221500000Y-93520000D02*
X215020000Y-100000000D01*
X196699000Y-79151000D02*
X197500000Y-78350000D01*
X197500000Y-93770000D02*
X197168000Y-93770000D01*
X234301000Y-87299000D02*
X228080000Y-93520000D01*
X196500000Y-100000000D02*
X196500000Y-94770000D01*
%TO.N,/Output*%
X221820000Y-83040000D02*
X221500000Y-83360000D01*
X233500000Y-83040000D02*
X221820000Y-83040000D01*
%TO.N,/TXB*%
X203985000Y-78015000D02*
X206260000Y-75740000D01*
X197500000Y-96310000D02*
X203985000Y-89825000D01*
X203985000Y-89825000D02*
X203985000Y-78015000D01*
%TO.N,/RXB*%
X197500000Y-97580000D02*
X204386000Y-90694000D01*
X204386000Y-80154000D02*
X206260000Y-78280000D01*
X204386000Y-90694000D02*
X204386000Y-80154000D01*
%TO.N,/TXG*%
X205194000Y-64106000D02*
X206260000Y-63040000D01*
X197500000Y-74540000D02*
X205194000Y-66846000D01*
X205194000Y-66846000D02*
X205194000Y-64106000D01*
%TO.N,/RXG*%
X197832000Y-73270000D02*
X204793000Y-66309000D01*
X204793000Y-66309000D02*
X204793000Y-61967000D01*
X204793000Y-61967000D02*
X206260000Y-60500000D01*
X197500000Y-73270000D02*
X197832000Y-73270000D01*
%TD*%
%TA.AperFunction,Conductor*%
%TO.N,Earth*%
G36*
X204914334Y-68077413D02*
G01*
X204970267Y-68119285D01*
X204994684Y-68184749D01*
X204995000Y-68193595D01*
X204995000Y-68219563D01*
X205026147Y-68416222D01*
X205087679Y-68605594D01*
X205178077Y-68783008D01*
X205205580Y-68820863D01*
X205205581Y-68820864D01*
X205768871Y-68257574D01*
X205784755Y-68316853D01*
X205851898Y-68433147D01*
X205946853Y-68528102D01*
X206063147Y-68595245D01*
X206122425Y-68611128D01*
X205559134Y-69174417D01*
X205596994Y-69201924D01*
X205748722Y-69279234D01*
X205799518Y-69327209D01*
X205816313Y-69395030D01*
X205793776Y-69461165D01*
X205748723Y-69500203D01*
X205596735Y-69577645D01*
X205483997Y-69659555D01*
X205435582Y-69694731D01*
X205435580Y-69694733D01*
X205435579Y-69694733D01*
X205294733Y-69835579D01*
X205294733Y-69835580D01*
X205294731Y-69835582D01*
X205244447Y-69904790D01*
X205177647Y-69996733D01*
X205087213Y-70174219D01*
X205025661Y-70363656D01*
X205025661Y-70363659D01*
X204994500Y-70560403D01*
X204994500Y-70759596D01*
X205025661Y-70956340D01*
X205025661Y-70956343D01*
X205087213Y-71145780D01*
X205087215Y-71145783D01*
X205177647Y-71323266D01*
X205294731Y-71484418D01*
X205435582Y-71625269D01*
X205596734Y-71742353D01*
X205666453Y-71777877D01*
X205748172Y-71819515D01*
X205798968Y-71867490D01*
X205815763Y-71935311D01*
X205793225Y-72001446D01*
X205748172Y-72040485D01*
X205596733Y-72117647D01*
X205504790Y-72184447D01*
X205435582Y-72234731D01*
X205435580Y-72234733D01*
X205435579Y-72234733D01*
X205294733Y-72375579D01*
X205294733Y-72375580D01*
X205294731Y-72375582D01*
X205244447Y-72444790D01*
X205177647Y-72536733D01*
X205087213Y-72714219D01*
X205025661Y-72903656D01*
X205025661Y-72903659D01*
X204994500Y-73100403D01*
X204994500Y-73299596D01*
X205025661Y-73496340D01*
X205025661Y-73496343D01*
X205087213Y-73685780D01*
X205087215Y-73685783D01*
X205177647Y-73863266D01*
X205294731Y-74024418D01*
X205435582Y-74165269D01*
X205596734Y-74282353D01*
X205666453Y-74317877D01*
X205748172Y-74359515D01*
X205798968Y-74407490D01*
X205815763Y-74475311D01*
X205793225Y-74541446D01*
X205748172Y-74580485D01*
X205596733Y-74657647D01*
X205504790Y-74724447D01*
X205435582Y-74774731D01*
X205435580Y-74774733D01*
X205435579Y-74774733D01*
X205294733Y-74915579D01*
X205294733Y-74915580D01*
X205294731Y-74915582D01*
X205244447Y-74984790D01*
X205177647Y-75076733D01*
X205087213Y-75254219D01*
X205025661Y-75443656D01*
X205025661Y-75443659D01*
X204994500Y-75640403D01*
X204994500Y-75839596D01*
X205025661Y-76036344D01*
X205026636Y-76040404D01*
X205023140Y-76110186D01*
X204993741Y-76157022D01*
X203616286Y-77534478D01*
X203504481Y-77646282D01*
X203504475Y-77646290D01*
X203461676Y-77720422D01*
X203461676Y-77720423D01*
X203433084Y-77769944D01*
X203427443Y-77779717D01*
X203425423Y-77783215D01*
X203384499Y-77935943D01*
X203384499Y-77935945D01*
X203384499Y-78104046D01*
X203384500Y-78104059D01*
X203384500Y-89524902D01*
X203364815Y-89591941D01*
X203348181Y-89612583D01*
X198593936Y-94366826D01*
X198532613Y-94400311D01*
X198462921Y-94395327D01*
X198406988Y-94353455D01*
X198382571Y-94287991D01*
X198391694Y-94231692D01*
X198462051Y-94061835D01*
X198492325Y-93909641D01*
X198500500Y-93868543D01*
X198500500Y-93671456D01*
X198462052Y-93478170D01*
X198462051Y-93478169D01*
X198462051Y-93478165D01*
X198419680Y-93375873D01*
X198412212Y-93306407D01*
X198434977Y-93254111D01*
X198443796Y-93242331D01*
X198494091Y-93107483D01*
X198500500Y-93047873D01*
X198500499Y-91952128D01*
X198494091Y-91892517D01*
X198461232Y-91804418D01*
X198443797Y-91757671D01*
X198443793Y-91757664D01*
X198357547Y-91642455D01*
X198357544Y-91642452D01*
X198242335Y-91556206D01*
X198242328Y-91556202D01*
X198107482Y-91505908D01*
X198107483Y-91505908D01*
X198047883Y-91499501D01*
X198047881Y-91499500D01*
X198047873Y-91499500D01*
X198047865Y-91499500D01*
X197423500Y-91499500D01*
X197356461Y-91479815D01*
X197310706Y-91427011D01*
X197299500Y-91375500D01*
X197299500Y-79474500D01*
X197319185Y-79407461D01*
X197371989Y-79361706D01*
X197423500Y-79350500D01*
X197598543Y-79350500D01*
X197728582Y-79324632D01*
X197791835Y-79312051D01*
X197953070Y-79245266D01*
X197973907Y-79236635D01*
X197973907Y-79236634D01*
X197973914Y-79236632D01*
X198137782Y-79127139D01*
X198277139Y-78987782D01*
X198386632Y-78823914D01*
X198462051Y-78641835D01*
X198491753Y-78492517D01*
X198500500Y-78448543D01*
X198500500Y-78251456D01*
X198462052Y-78058170D01*
X198462051Y-78058169D01*
X198462051Y-78058165D01*
X198431189Y-77983656D01*
X198386635Y-77876092D01*
X198386628Y-77876079D01*
X198324728Y-77783440D01*
X198303850Y-77716763D01*
X198322334Y-77649383D01*
X198324729Y-77645657D01*
X198386189Y-77553676D01*
X198386191Y-77553673D01*
X198461569Y-77371693D01*
X198461572Y-77371681D01*
X198499999Y-77178495D01*
X198500000Y-77178492D01*
X198500000Y-76981508D01*
X198499999Y-76981504D01*
X198461572Y-76788318D01*
X198461569Y-76788306D01*
X198386192Y-76606328D01*
X198386188Y-76606321D01*
X198324728Y-76514341D01*
X198303850Y-76447663D01*
X198322334Y-76380283D01*
X198324704Y-76376595D01*
X198386632Y-76283914D01*
X198462051Y-76101835D01*
X198500500Y-75908541D01*
X198500500Y-75711459D01*
X198500500Y-75711456D01*
X198462052Y-75518170D01*
X198462051Y-75518169D01*
X198462051Y-75518165D01*
X198431189Y-75443656D01*
X198386635Y-75336092D01*
X198386633Y-75336088D01*
X198386632Y-75336086D01*
X198331930Y-75254219D01*
X198325029Y-75243891D01*
X198304151Y-75177214D01*
X198322635Y-75109834D01*
X198325029Y-75106109D01*
X198344657Y-75076733D01*
X198386632Y-75013914D01*
X198462051Y-74831835D01*
X198500500Y-74638541D01*
X198500500Y-74441459D01*
X198500500Y-74440095D01*
X198520185Y-74373056D01*
X198536814Y-74352419D01*
X204783321Y-68105912D01*
X204844642Y-68072429D01*
X204914334Y-68077413D01*
G37*
%TD.AperFunction*%
%TA.AperFunction,Conductor*%
G36*
X235442539Y-50520185D02*
G01*
X235488294Y-50572989D01*
X235499500Y-50624500D01*
X235499500Y-104375500D01*
X235479815Y-104442539D01*
X235427011Y-104488294D01*
X235375500Y-104499500D01*
X195124500Y-104499500D01*
X195057461Y-104479815D01*
X195011706Y-104427011D01*
X195000500Y-104375500D01*
X195000500Y-94690943D01*
X195899499Y-94690943D01*
X195899499Y-94849057D01*
X195899499Y-94849059D01*
X195899500Y-94859053D01*
X195899500Y-100079056D01*
X195940423Y-100231783D01*
X195940426Y-100231790D01*
X196019475Y-100368709D01*
X196019478Y-100368713D01*
X196019480Y-100368716D01*
X196131284Y-100480520D01*
X196131286Y-100480521D01*
X196131290Y-100480524D01*
X196268209Y-100559573D01*
X196268216Y-100559577D01*
X196420943Y-100600500D01*
X196579057Y-100600500D01*
X214933331Y-100600500D01*
X214933347Y-100600501D01*
X214940943Y-100600501D01*
X215099054Y-100600501D01*
X215099057Y-100600501D01*
X215251785Y-100559577D01*
X215301904Y-100530639D01*
X215388716Y-100480520D01*
X215500520Y-100368716D01*
X215500520Y-100368714D01*
X215510728Y-100358507D01*
X215510730Y-100358504D01*
X220025935Y-95843298D01*
X220087256Y-95809815D01*
X220156948Y-95814799D01*
X220212881Y-95856671D01*
X220237298Y-95922135D01*
X220236088Y-95950372D01*
X220234500Y-95960400D01*
X220234500Y-96159596D01*
X220265661Y-96356340D01*
X220265661Y-96356343D01*
X220327213Y-96545780D01*
X220327215Y-96545783D01*
X220417647Y-96723266D01*
X220534731Y-96884418D01*
X220675582Y-97025269D01*
X220836734Y-97142353D01*
X221014217Y-97232785D01*
X221014219Y-97232786D01*
X221203657Y-97294338D01*
X221203658Y-97294338D01*
X221203661Y-97294339D01*
X221400403Y-97325500D01*
X221400404Y-97325500D01*
X221599596Y-97325500D01*
X221599597Y-97325500D01*
X221796339Y-97294339D01*
X221796342Y-97294338D01*
X221796343Y-97294338D01*
X221985780Y-97232786D01*
X221985780Y-97232785D01*
X221985783Y-97232785D01*
X222163266Y-97142353D01*
X222324418Y-97025269D01*
X222465269Y-96884418D01*
X222582353Y-96723266D01*
X222672785Y-96545783D01*
X222734339Y-96356339D01*
X222765500Y-96159597D01*
X222765500Y-95960403D01*
X222734339Y-95763661D01*
X222734338Y-95763657D01*
X222734338Y-95763656D01*
X222672786Y-95574219D01*
X222582352Y-95396733D01*
X222465269Y-95235582D01*
X222324418Y-95094731D01*
X222163266Y-94977647D01*
X222011827Y-94900485D01*
X221961031Y-94852510D01*
X221944236Y-94784689D01*
X221966773Y-94718554D01*
X222011827Y-94679515D01*
X222056737Y-94656632D01*
X222163266Y-94602353D01*
X222324418Y-94485269D01*
X222465269Y-94344418D01*
X222582353Y-94183266D01*
X222582357Y-94183256D01*
X222584534Y-94179707D01*
X222636348Y-94132833D01*
X222690260Y-94120500D01*
X227993331Y-94120500D01*
X227993347Y-94120501D01*
X228000943Y-94120501D01*
X228159054Y-94120501D01*
X228159057Y-94120501D01*
X228311785Y-94079577D01*
X228361904Y-94050639D01*
X228448716Y-94000520D01*
X228560520Y-93888716D01*
X228560520Y-93888714D01*
X228570728Y-93878507D01*
X228570729Y-93878504D01*
X234781520Y-87667716D01*
X234860577Y-87530784D01*
X234901501Y-87378057D01*
X234901501Y-87219942D01*
X234901501Y-87212347D01*
X234901500Y-87212329D01*
X234901500Y-82491945D01*
X234901500Y-82491943D01*
X234860577Y-82339215D01*
X234816494Y-82262861D01*
X234781520Y-82202284D01*
X234669716Y-82090480D01*
X234669715Y-82090479D01*
X234665385Y-82086149D01*
X234665374Y-82086139D01*
X234536819Y-81957584D01*
X234503334Y-81896261D01*
X234500500Y-81869903D01*
X234500500Y-81671456D01*
X234462052Y-81478170D01*
X234462051Y-81478169D01*
X234462051Y-81478165D01*
X234419458Y-81375337D01*
X234411990Y-81305869D01*
X234434757Y-81253571D01*
X234443351Y-81242091D01*
X234493597Y-81107376D01*
X234493598Y-81107372D01*
X234499999Y-81047844D01*
X234500000Y-81047827D01*
X234500000Y-80750000D01*
X233744975Y-80750000D01*
X233780070Y-80714905D01*
X233826148Y-80635095D01*
X233850000Y-80546078D01*
X233850000Y-80453922D01*
X233826148Y-80364905D01*
X233780070Y-80285095D01*
X233744975Y-80250000D01*
X233750000Y-80250000D01*
X234500000Y-80250000D01*
X234500000Y-79952172D01*
X234499999Y-79952155D01*
X234493598Y-79892627D01*
X234493596Y-79892620D01*
X234443354Y-79757913D01*
X234443350Y-79757906D01*
X234357190Y-79642812D01*
X234357187Y-79642809D01*
X234242093Y-79556649D01*
X234242086Y-79556645D01*
X234107379Y-79506403D01*
X234107372Y-79506401D01*
X234047844Y-79500000D01*
X233750000Y-79500000D01*
X233750000Y-80250000D01*
X233744975Y-80250000D01*
X233714905Y-80219930D01*
X233635095Y-80173852D01*
X233546078Y-80150000D01*
X233453922Y-80150000D01*
X233364905Y-80173852D01*
X233285095Y-80219930D01*
X233219930Y-80285095D01*
X233173852Y-80364905D01*
X233150000Y-80453922D01*
X233150000Y-80546078D01*
X233173852Y-80635095D01*
X233219930Y-80714905D01*
X233255025Y-80750000D01*
X232500000Y-80750000D01*
X232500000Y-81047844D01*
X232506401Y-81107372D01*
X232506402Y-81107376D01*
X232556647Y-81242088D01*
X232556649Y-81242092D01*
X232565247Y-81253577D01*
X232589663Y-81319041D01*
X232580541Y-81375337D01*
X232553584Y-81440418D01*
X232537950Y-81478164D01*
X232537948Y-81478168D01*
X232537947Y-81478171D01*
X232499500Y-81671456D01*
X232499500Y-81671459D01*
X232499500Y-81868541D01*
X232499500Y-81868543D01*
X232499499Y-81868543D01*
X232537947Y-82061829D01*
X232537950Y-82061839D01*
X232613365Y-82243909D01*
X232613367Y-82243912D01*
X232613368Y-82243914D01*
X232615168Y-82246608D01*
X232615678Y-82248237D01*
X232616238Y-82249284D01*
X232616039Y-82249390D01*
X232636047Y-82313284D01*
X232617564Y-82380664D01*
X232565586Y-82427356D01*
X232512067Y-82439500D01*
X222420549Y-82439500D01*
X222353510Y-82419815D01*
X222332868Y-82403181D01*
X222324420Y-82394733D01*
X222324418Y-82394731D01*
X222163266Y-82277647D01*
X222105546Y-82248237D01*
X222011827Y-82200485D01*
X221961031Y-82152510D01*
X221944236Y-82084689D01*
X221966773Y-82018554D01*
X222011827Y-81979515D01*
X222021116Y-81974781D01*
X222163266Y-81902353D01*
X222324418Y-81785269D01*
X222465269Y-81644418D01*
X222582353Y-81483266D01*
X222672785Y-81305783D01*
X222689750Y-81253571D01*
X222734338Y-81116343D01*
X222734338Y-81116342D01*
X222734339Y-81116339D01*
X222765500Y-80919597D01*
X222765500Y-80720403D01*
X222734339Y-80523661D01*
X222734338Y-80523657D01*
X222734338Y-80523656D01*
X222672786Y-80334219D01*
X222582352Y-80156733D01*
X222577460Y-80150000D01*
X222465269Y-79995582D01*
X222421842Y-79952155D01*
X232500000Y-79952155D01*
X232500000Y-80250000D01*
X233250000Y-80250000D01*
X233250000Y-79500000D01*
X232952155Y-79500000D01*
X232892627Y-79506401D01*
X232892620Y-79506403D01*
X232757913Y-79556645D01*
X232757906Y-79556649D01*
X232642812Y-79642809D01*
X232642809Y-79642812D01*
X232556649Y-79757906D01*
X232556645Y-79757913D01*
X232506403Y-79892620D01*
X232506401Y-79892627D01*
X232500000Y-79952155D01*
X222421842Y-79952155D01*
X222324418Y-79854731D01*
X222163266Y-79737647D01*
X222011827Y-79660485D01*
X221961031Y-79612510D01*
X221944236Y-79544689D01*
X221966773Y-79478554D01*
X222011827Y-79439515D01*
X222074736Y-79407461D01*
X222163266Y-79362353D01*
X222324418Y-79245269D01*
X222465269Y-79104418D01*
X222582353Y-78943266D01*
X222672785Y-78765783D01*
X222703751Y-78670480D01*
X222734338Y-78576343D01*
X222734338Y-78576342D01*
X222734339Y-78576339D01*
X222765500Y-78379597D01*
X222765500Y-78180403D01*
X222734339Y-77983661D01*
X222734338Y-77983657D01*
X222734338Y-77983656D01*
X222672786Y-77794219D01*
X222639337Y-77728572D01*
X222582353Y-77616734D01*
X222465269Y-77455582D01*
X222324418Y-77314731D01*
X222163266Y-77197647D01*
X222011827Y-77120485D01*
X221961031Y-77072510D01*
X221944236Y-77004689D01*
X221966773Y-76938554D01*
X222011827Y-76899515D01*
X222021116Y-76894781D01*
X222163266Y-76822353D01*
X222324418Y-76705269D01*
X222465269Y-76564418D01*
X222582353Y-76403266D01*
X222672785Y-76225783D01*
X222733018Y-76040404D01*
X222734338Y-76036343D01*
X222734338Y-76036342D01*
X222734339Y-76036339D01*
X222765500Y-75839597D01*
X222765500Y-75640403D01*
X222734339Y-75443661D01*
X222734338Y-75443657D01*
X222734338Y-75443656D01*
X222672786Y-75254219D01*
X222599218Y-75109834D01*
X222582353Y-75076734D01*
X222465269Y-74915582D01*
X222324418Y-74774731D01*
X222163266Y-74657647D01*
X222011827Y-74580485D01*
X221961031Y-74532510D01*
X221944236Y-74464689D01*
X221966773Y-74398554D01*
X222011827Y-74359515D01*
X222025763Y-74352414D01*
X222163266Y-74282353D01*
X222324418Y-74165269D01*
X222465269Y-74024418D01*
X222582353Y-73863266D01*
X222672785Y-73685783D01*
X222734339Y-73496339D01*
X222765500Y-73299597D01*
X222765500Y-73100403D01*
X222734339Y-72903661D01*
X222734338Y-72903657D01*
X222734338Y-72903656D01*
X222672786Y-72714219D01*
X222582352Y-72536733D01*
X222465269Y-72375582D01*
X222324418Y-72234731D01*
X222163266Y-72117647D01*
X222011827Y-72040485D01*
X221961031Y-71992510D01*
X221944236Y-71924689D01*
X221966773Y-71858554D01*
X222011827Y-71819515D01*
X222021116Y-71814781D01*
X222163266Y-71742353D01*
X222324418Y-71625269D01*
X222465269Y-71484418D01*
X222582353Y-71323266D01*
X222672785Y-71145783D01*
X222734339Y-70956339D01*
X222765500Y-70759597D01*
X222765500Y-70560403D01*
X222734339Y-70363661D01*
X222734338Y-70363657D01*
X222734338Y-70363656D01*
X222672786Y-70174219D01*
X222582352Y-69996733D01*
X222465269Y-69835582D01*
X222324418Y-69694731D01*
X222163266Y-69577647D01*
X222011827Y-69500485D01*
X221961031Y-69452510D01*
X221944236Y-69384689D01*
X221966773Y-69318554D01*
X222011827Y-69279515D01*
X222021116Y-69274781D01*
X222163266Y-69202353D01*
X222324418Y-69085269D01*
X222465269Y-68944418D01*
X222582353Y-68783266D01*
X222672785Y-68605783D01*
X222734339Y-68416339D01*
X222765500Y-68219597D01*
X222765500Y-68020403D01*
X222734339Y-67823661D01*
X222734338Y-67823657D01*
X222734338Y-67823656D01*
X222672786Y-67634219D01*
X222582352Y-67456733D01*
X222465269Y-67295582D01*
X222324418Y-67154731D01*
X222163266Y-67037647D01*
X222011827Y-66960485D01*
X221961031Y-66912510D01*
X221944236Y-66844689D01*
X221966773Y-66778554D01*
X222011827Y-66739515D01*
X222021116Y-66734781D01*
X222163266Y-66662353D01*
X222324418Y-66545269D01*
X222465269Y-66404418D01*
X222582353Y-66243266D01*
X222672785Y-66065783D01*
X222734339Y-65876339D01*
X222765500Y-65679597D01*
X222765500Y-65480403D01*
X222734339Y-65283661D01*
X222734338Y-65283657D01*
X222734338Y-65283656D01*
X222672786Y-65094219D01*
X222582352Y-64916733D01*
X222465269Y-64755582D01*
X222324418Y-64614731D01*
X222163266Y-64497647D01*
X222163262Y-64497645D01*
X222011277Y-64420204D01*
X221960481Y-64372229D01*
X221943686Y-64304408D01*
X221966224Y-64238273D01*
X222011277Y-64199234D01*
X222163005Y-64121924D01*
X222200863Y-64094418D01*
X222200863Y-64094417D01*
X221637574Y-63531128D01*
X221696853Y-63515245D01*
X221813147Y-63448102D01*
X221908102Y-63353147D01*
X221975245Y-63236853D01*
X221991128Y-63177574D01*
X222554417Y-63740863D01*
X222554418Y-63740863D01*
X222581924Y-63703005D01*
X222672320Y-63525594D01*
X222733852Y-63336222D01*
X222765000Y-63139563D01*
X222765000Y-62940436D01*
X222733852Y-62743777D01*
X222672320Y-62554405D01*
X222581924Y-62376994D01*
X222554417Y-62339135D01*
X222554417Y-62339134D01*
X221991128Y-62902424D01*
X221975245Y-62843147D01*
X221908102Y-62726853D01*
X221813147Y-62631898D01*
X221696853Y-62564755D01*
X221637574Y-62548871D01*
X222200864Y-61985581D01*
X222200572Y-61981877D01*
X222164029Y-61934488D01*
X222158049Y-61864875D01*
X222190655Y-61803080D01*
X222251493Y-61768722D01*
X222279579Y-61765499D01*
X222312872Y-61765499D01*
X222372483Y-61759091D01*
X222507331Y-61708796D01*
X222622546Y-61622546D01*
X222708796Y-61507331D01*
X222759091Y-61372483D01*
X222765500Y-61312873D01*
X222765499Y-59687128D01*
X222759091Y-59627517D01*
X222708796Y-59492669D01*
X222708795Y-59492668D01*
X222708793Y-59492664D01*
X222622547Y-59377455D01*
X222622544Y-59377452D01*
X222507335Y-59291206D01*
X222507328Y-59291202D01*
X222372482Y-59240908D01*
X222372483Y-59240908D01*
X222312883Y-59234501D01*
X222312881Y-59234500D01*
X222312873Y-59234500D01*
X222312864Y-59234500D01*
X220687129Y-59234500D01*
X220687123Y-59234501D01*
X220627516Y-59240908D01*
X220492671Y-59291202D01*
X220492664Y-59291206D01*
X220377455Y-59377452D01*
X220377452Y-59377455D01*
X220291206Y-59492664D01*
X220291202Y-59492671D01*
X220240908Y-59627517D01*
X220234501Y-59687116D01*
X220234501Y-59687123D01*
X220234500Y-59687135D01*
X220234500Y-61312870D01*
X220234501Y-61312876D01*
X220240908Y-61372483D01*
X220291202Y-61507328D01*
X220291206Y-61507335D01*
X220377452Y-61622544D01*
X220377455Y-61622547D01*
X220492664Y-61708793D01*
X220492671Y-61708797D01*
X220627517Y-61759091D01*
X220627516Y-61759091D01*
X220634444Y-61759835D01*
X220687127Y-61765500D01*
X220720417Y-61765499D01*
X220787454Y-61785182D01*
X220833210Y-61837984D01*
X220843155Y-61907143D01*
X220814132Y-61970699D01*
X220799230Y-61984376D01*
X220799135Y-61985581D01*
X221362425Y-62548871D01*
X221303147Y-62564755D01*
X221186853Y-62631898D01*
X221091898Y-62726853D01*
X221024755Y-62843147D01*
X221008871Y-62902425D01*
X220445581Y-62339135D01*
X220445580Y-62339135D01*
X220418077Y-62376990D01*
X220327679Y-62554405D01*
X220266147Y-62743777D01*
X220235000Y-62940436D01*
X220235000Y-63139563D01*
X220266147Y-63336222D01*
X220327679Y-63525594D01*
X220418077Y-63703008D01*
X220445580Y-63740863D01*
X220445581Y-63740864D01*
X221008871Y-63177574D01*
X221024755Y-63236853D01*
X221091898Y-63353147D01*
X221186853Y-63448102D01*
X221303147Y-63515245D01*
X221362425Y-63531128D01*
X220799134Y-64094417D01*
X220836994Y-64121924D01*
X220988722Y-64199234D01*
X221039518Y-64247209D01*
X221056313Y-64315030D01*
X221033776Y-64381165D01*
X220988723Y-64420203D01*
X220836735Y-64497645D01*
X220723997Y-64579555D01*
X220675582Y-64614731D01*
X220675580Y-64614733D01*
X220675579Y-64614733D01*
X220534733Y-64755579D01*
X220534733Y-64755580D01*
X220534731Y-64755582D01*
X220484447Y-64824790D01*
X220417647Y-64916733D01*
X220327213Y-65094219D01*
X220265661Y-65283656D01*
X220265661Y-65283659D01*
X220234500Y-65480403D01*
X220234500Y-65679596D01*
X220265661Y-65876340D01*
X220265661Y-65876343D01*
X220327213Y-66065780D01*
X220342908Y-66096583D01*
X220417647Y-66243266D01*
X220534731Y-66404418D01*
X220675582Y-66545269D01*
X220836734Y-66662353D01*
X220906453Y-66697877D01*
X220988172Y-66739515D01*
X221038968Y-66787490D01*
X221055763Y-66855311D01*
X221033225Y-66921446D01*
X220988172Y-66960485D01*
X220836733Y-67037647D01*
X220744790Y-67104447D01*
X220675582Y-67154731D01*
X220675580Y-67154733D01*
X220675579Y-67154733D01*
X220534733Y-67295579D01*
X220534733Y-67295580D01*
X220534731Y-67295582D01*
X220484447Y-67364790D01*
X220417647Y-67456733D01*
X220327213Y-67634219D01*
X220265661Y-67823656D01*
X220265661Y-67823659D01*
X220234500Y-68020403D01*
X220234500Y-68219596D01*
X220265661Y-68416340D01*
X220265661Y-68416343D01*
X220327213Y-68605780D01*
X220327215Y-68605783D01*
X220417647Y-68783266D01*
X220534731Y-68944418D01*
X220675582Y-69085269D01*
X220836734Y-69202353D01*
X220906453Y-69237877D01*
X220988172Y-69279515D01*
X221038968Y-69327490D01*
X221055763Y-69395311D01*
X221033225Y-69461446D01*
X220988172Y-69500485D01*
X220836733Y-69577647D01*
X220744790Y-69644447D01*
X220675582Y-69694731D01*
X220675580Y-69694733D01*
X220675579Y-69694733D01*
X220534733Y-69835579D01*
X220534733Y-69835580D01*
X220534731Y-69835582D01*
X220484447Y-69904790D01*
X220417647Y-69996733D01*
X220327213Y-70174219D01*
X220265661Y-70363656D01*
X220265661Y-70363659D01*
X220234500Y-70560403D01*
X220234500Y-70759596D01*
X220265661Y-70956340D01*
X220265661Y-70956343D01*
X220327213Y-71145780D01*
X220327215Y-71145783D01*
X220417647Y-71323266D01*
X220534731Y-71484418D01*
X220675582Y-71625269D01*
X220836734Y-71742353D01*
X220906453Y-71777877D01*
X220988172Y-71819515D01*
X221038968Y-71867490D01*
X221055763Y-71935311D01*
X221033225Y-72001446D01*
X220988172Y-72040485D01*
X220836733Y-72117647D01*
X220744790Y-72184447D01*
X220675582Y-72234731D01*
X220675580Y-72234733D01*
X220675579Y-72234733D01*
X220534733Y-72375579D01*
X220534733Y-72375580D01*
X220534731Y-72375582D01*
X220484447Y-72444790D01*
X220417647Y-72536733D01*
X220327213Y-72714219D01*
X220265661Y-72903656D01*
X220265661Y-72903659D01*
X220234500Y-73100403D01*
X220234500Y-73299596D01*
X220265661Y-73496340D01*
X220265661Y-73496343D01*
X220327213Y-73685780D01*
X220327215Y-73685783D01*
X220417647Y-73863266D01*
X220534731Y-74024418D01*
X220675582Y-74165269D01*
X220836734Y-74282353D01*
X220906453Y-74317877D01*
X220988172Y-74359515D01*
X221038968Y-74407490D01*
X221055763Y-74475311D01*
X221033225Y-74541446D01*
X220988172Y-74580485D01*
X220836733Y-74657647D01*
X220744790Y-74724447D01*
X220675582Y-74774731D01*
X220675580Y-74774733D01*
X220675579Y-74774733D01*
X220534733Y-74915579D01*
X220534733Y-74915580D01*
X220534731Y-74915582D01*
X220484447Y-74984790D01*
X220417647Y-75076733D01*
X220327213Y-75254219D01*
X220265661Y-75443656D01*
X220265661Y-75443659D01*
X220234500Y-75640403D01*
X220234500Y-75839596D01*
X220265661Y-76036340D01*
X220265661Y-76036343D01*
X220327213Y-76225780D01*
X220356832Y-76283910D01*
X220417647Y-76403266D01*
X220534731Y-76564418D01*
X220675582Y-76705269D01*
X220836734Y-76822353D01*
X220906453Y-76857877D01*
X220988172Y-76899515D01*
X221038968Y-76947490D01*
X221055763Y-77015311D01*
X221033225Y-77081446D01*
X220988172Y-77120485D01*
X220836733Y-77197647D01*
X220744790Y-77264447D01*
X220675582Y-77314731D01*
X220675580Y-77314733D01*
X220675579Y-77314733D01*
X220534733Y-77455579D01*
X220534733Y-77455580D01*
X220534731Y-77455582D01*
X220484447Y-77524790D01*
X220417647Y-77616733D01*
X220327213Y-77794219D01*
X220265661Y-77983656D01*
X220265661Y-77983659D01*
X220234500Y-78180403D01*
X220234500Y-78379596D01*
X220265661Y-78576340D01*
X220265661Y-78576343D01*
X220327213Y-78765780D01*
X220385520Y-78880213D01*
X220417647Y-78943266D01*
X220534731Y-79104418D01*
X220675582Y-79245269D01*
X220836734Y-79362353D01*
X220906453Y-79397877D01*
X220988172Y-79439515D01*
X221038968Y-79487490D01*
X221055763Y-79555311D01*
X221033225Y-79621446D01*
X220988172Y-79660485D01*
X220836733Y-79737647D01*
X220808840Y-79757913D01*
X220675582Y-79854731D01*
X220675580Y-79854733D01*
X220675579Y-79854733D01*
X220534733Y-79995579D01*
X220534733Y-79995580D01*
X220534731Y-79995582D01*
X220484447Y-80064790D01*
X220417647Y-80156733D01*
X220327213Y-80334219D01*
X220265661Y-80523656D01*
X220265661Y-80523659D01*
X220234500Y-80720403D01*
X220234500Y-80919596D01*
X220265661Y-81116340D01*
X220265661Y-81116343D01*
X220327213Y-81305780D01*
X220415047Y-81478164D01*
X220417647Y-81483266D01*
X220534731Y-81644418D01*
X220675582Y-81785269D01*
X220836734Y-81902353D01*
X220906453Y-81937877D01*
X220988172Y-81979515D01*
X221038968Y-82027490D01*
X221055763Y-82095311D01*
X221033225Y-82161446D01*
X220988172Y-82200485D01*
X220836733Y-82277647D01*
X220787684Y-82313284D01*
X220675582Y-82394731D01*
X220675580Y-82394733D01*
X220675579Y-82394733D01*
X220534733Y-82535579D01*
X220534733Y-82535580D01*
X220534731Y-82535582D01*
X220503773Y-82578192D01*
X220417647Y-82696733D01*
X220327213Y-82874219D01*
X220265661Y-83063656D01*
X220265661Y-83063659D01*
X220234500Y-83260403D01*
X220234500Y-83459596D01*
X220265661Y-83656340D01*
X220265661Y-83656343D01*
X220327213Y-83845780D01*
X220368411Y-83926635D01*
X220417647Y-84023266D01*
X220534731Y-84184418D01*
X220675582Y-84325269D01*
X220836734Y-84442353D01*
X220906453Y-84477877D01*
X220988172Y-84519515D01*
X221038968Y-84567490D01*
X221055763Y-84635311D01*
X221033225Y-84701446D01*
X220988172Y-84740485D01*
X220836733Y-84817647D01*
X220744790Y-84884447D01*
X220675582Y-84934731D01*
X220675580Y-84934733D01*
X220675579Y-84934733D01*
X220534733Y-85075579D01*
X220534733Y-85075580D01*
X220534731Y-85075582D01*
X220503773Y-85118192D01*
X220417647Y-85236733D01*
X220327213Y-85414219D01*
X220265661Y-85603656D01*
X220265661Y-85603659D01*
X220234500Y-85800403D01*
X220234500Y-85999596D01*
X220265661Y-86196340D01*
X220265661Y-86196343D01*
X220327213Y-86385780D01*
X220327215Y-86385783D01*
X220417647Y-86563266D01*
X220534731Y-86724418D01*
X220675582Y-86865269D01*
X220836734Y-86982353D01*
X220906453Y-87017877D01*
X220988172Y-87059515D01*
X221038968Y-87107490D01*
X221055763Y-87175311D01*
X221033225Y-87241446D01*
X220988172Y-87280485D01*
X220836733Y-87357647D01*
X220744790Y-87424447D01*
X220675582Y-87474731D01*
X220675580Y-87474733D01*
X220675579Y-87474733D01*
X220534733Y-87615579D01*
X220534733Y-87615580D01*
X220534731Y-87615582D01*
X220496853Y-87667716D01*
X220417647Y-87776733D01*
X220327213Y-87954219D01*
X220265661Y-88143656D01*
X220265661Y-88143659D01*
X220234500Y-88340403D01*
X220234500Y-88539596D01*
X220265661Y-88736340D01*
X220265661Y-88736343D01*
X220327213Y-88925780D01*
X220327215Y-88925783D01*
X220417647Y-89103266D01*
X220534731Y-89264418D01*
X220675582Y-89405269D01*
X220836734Y-89522353D01*
X220906453Y-89557877D01*
X220988172Y-89599515D01*
X221038968Y-89647490D01*
X221055763Y-89715311D01*
X221033225Y-89781446D01*
X220988172Y-89820485D01*
X220836733Y-89897647D01*
X220744790Y-89964447D01*
X220675582Y-90014731D01*
X220675580Y-90014733D01*
X220675579Y-90014733D01*
X220534733Y-90155579D01*
X220534733Y-90155580D01*
X220534731Y-90155582D01*
X220503773Y-90198192D01*
X220417647Y-90316733D01*
X220327213Y-90494219D01*
X220265661Y-90683656D01*
X220265661Y-90683659D01*
X220265661Y-90683661D01*
X220234500Y-90880403D01*
X220234500Y-91079597D01*
X220250080Y-91177968D01*
X220265661Y-91276340D01*
X220265661Y-91276343D01*
X220327213Y-91465780D01*
X220373287Y-91556204D01*
X220417647Y-91643266D01*
X220534731Y-91804418D01*
X220675582Y-91945269D01*
X220836734Y-92062353D01*
X220906453Y-92097877D01*
X220988172Y-92139515D01*
X221038968Y-92187490D01*
X221055763Y-92255311D01*
X221033225Y-92321446D01*
X220988172Y-92360485D01*
X220836733Y-92437647D01*
X220744790Y-92504447D01*
X220675582Y-92554731D01*
X220675580Y-92554733D01*
X220675579Y-92554733D01*
X220534733Y-92695579D01*
X220534733Y-92695580D01*
X220534731Y-92695582D01*
X220484447Y-92764790D01*
X220417647Y-92856733D01*
X220327213Y-93034219D01*
X220265661Y-93223656D01*
X220265661Y-93223659D01*
X220234500Y-93420403D01*
X220234500Y-93619596D01*
X220265661Y-93816344D01*
X220266636Y-93820404D01*
X220263140Y-93890186D01*
X220233741Y-93937022D01*
X214807584Y-99363181D01*
X214746261Y-99396666D01*
X214719903Y-99399500D01*
X198540902Y-99399500D01*
X198473863Y-99379815D01*
X198428108Y-99327011D01*
X198418164Y-99257853D01*
X198426341Y-99228048D01*
X198462049Y-99141839D01*
X198462051Y-99141835D01*
X198500500Y-98948541D01*
X198500500Y-98751459D01*
X198500500Y-98751456D01*
X198462052Y-98558170D01*
X198462051Y-98558169D01*
X198462051Y-98558165D01*
X198462049Y-98558160D01*
X198386635Y-98376092D01*
X198386633Y-98376088D01*
X198386632Y-98376086D01*
X198325029Y-98283891D01*
X198304151Y-98217214D01*
X198322635Y-98149834D01*
X198325029Y-98146109D01*
X198337872Y-98126887D01*
X198386632Y-98053914D01*
X198462051Y-97871835D01*
X198500500Y-97678541D01*
X198500500Y-97481459D01*
X198500500Y-97480096D01*
X198520185Y-97413057D01*
X198536819Y-97392415D01*
X200072563Y-95856671D01*
X204802611Y-91126624D01*
X204863932Y-91093141D01*
X204933624Y-91098125D01*
X204989557Y-91139997D01*
X205012763Y-91194908D01*
X205025661Y-91276342D01*
X205025661Y-91276343D01*
X205087213Y-91465780D01*
X205133287Y-91556204D01*
X205177647Y-91643266D01*
X205294731Y-91804418D01*
X205435582Y-91945269D01*
X205596734Y-92062353D01*
X205666453Y-92097877D01*
X205748172Y-92139515D01*
X205798968Y-92187490D01*
X205815763Y-92255311D01*
X205793225Y-92321446D01*
X205748172Y-92360485D01*
X205596733Y-92437647D01*
X205504790Y-92504447D01*
X205435582Y-92554731D01*
X205435580Y-92554733D01*
X205435579Y-92554733D01*
X205294733Y-92695579D01*
X205294733Y-92695580D01*
X205294731Y-92695582D01*
X205244447Y-92764790D01*
X205177647Y-92856733D01*
X205087213Y-93034219D01*
X205025661Y-93223656D01*
X205025661Y-93223659D01*
X205025661Y-93223661D01*
X204994500Y-93420403D01*
X204994500Y-93619597D01*
X205002438Y-93669716D01*
X205025661Y-93816340D01*
X205025661Y-93816343D01*
X205087213Y-94005780D01*
X205115772Y-94061829D01*
X205177647Y-94183266D01*
X205294731Y-94344418D01*
X205435582Y-94485269D01*
X205596734Y-94602353D01*
X205666453Y-94637877D01*
X205748172Y-94679515D01*
X205798968Y-94727490D01*
X205815763Y-94795311D01*
X205793225Y-94861446D01*
X205748172Y-94900485D01*
X205596733Y-94977647D01*
X205574333Y-94993922D01*
X205435582Y-95094731D01*
X205435580Y-95094733D01*
X205435579Y-95094733D01*
X205294733Y-95235579D01*
X205294733Y-95235580D01*
X205294731Y-95235582D01*
X205280692Y-95254905D01*
X205177647Y-95396733D01*
X205087213Y-95574219D01*
X205025661Y-95763656D01*
X205025661Y-95763659D01*
X204994500Y-95960403D01*
X204994500Y-96159596D01*
X205025661Y-96356340D01*
X205025661Y-96356343D01*
X205087213Y-96545780D01*
X205087215Y-96545783D01*
X205177647Y-96723266D01*
X205294731Y-96884418D01*
X205435582Y-97025269D01*
X205596734Y-97142353D01*
X205774217Y-97232785D01*
X205774219Y-97232786D01*
X205963657Y-97294338D01*
X205963658Y-97294338D01*
X205963661Y-97294339D01*
X206160403Y-97325500D01*
X206160404Y-97325500D01*
X206359596Y-97325500D01*
X206359597Y-97325500D01*
X206556339Y-97294339D01*
X206556342Y-97294338D01*
X206556343Y-97294338D01*
X206745780Y-97232786D01*
X206745780Y-97232785D01*
X206745783Y-97232785D01*
X206923266Y-97142353D01*
X207084418Y-97025269D01*
X207225269Y-96884418D01*
X207342353Y-96723266D01*
X207432785Y-96545783D01*
X207494339Y-96356339D01*
X207525500Y-96159597D01*
X207525500Y-95960403D01*
X207494339Y-95763661D01*
X207494338Y-95763657D01*
X207494338Y-95763656D01*
X207432786Y-95574219D01*
X207342352Y-95396733D01*
X207225269Y-95235582D01*
X207084418Y-95094731D01*
X206923266Y-94977647D01*
X206771827Y-94900485D01*
X206721031Y-94852510D01*
X206704236Y-94784689D01*
X206726773Y-94718554D01*
X206771827Y-94679515D01*
X206816737Y-94656632D01*
X206923266Y-94602353D01*
X207084418Y-94485269D01*
X207225269Y-94344418D01*
X207342353Y-94183266D01*
X207432785Y-94005783D01*
X207455459Y-93935999D01*
X207494338Y-93816343D01*
X207494338Y-93816342D01*
X207494339Y-93816339D01*
X207525500Y-93619597D01*
X207525500Y-93420403D01*
X207494339Y-93223661D01*
X207494338Y-93223657D01*
X207494338Y-93223656D01*
X207432786Y-93034219D01*
X207372890Y-92916666D01*
X207342353Y-92856734D01*
X207225269Y-92695582D01*
X207084418Y-92554731D01*
X206923266Y-92437647D01*
X206771827Y-92360485D01*
X206721031Y-92312510D01*
X206704236Y-92244689D01*
X206726773Y-92178554D01*
X206771827Y-92139515D01*
X206781116Y-92134781D01*
X206923266Y-92062353D01*
X207084418Y-91945269D01*
X207225269Y-91804418D01*
X207342353Y-91643266D01*
X207432785Y-91465783D01*
X207494339Y-91276339D01*
X207525500Y-91079597D01*
X207525500Y-90880403D01*
X207494339Y-90683661D01*
X207494338Y-90683657D01*
X207494338Y-90683656D01*
X207432786Y-90494219D01*
X207342352Y-90316733D01*
X207320834Y-90287116D01*
X207225269Y-90155582D01*
X207084418Y-90014731D01*
X206923266Y-89897647D01*
X206771827Y-89820485D01*
X206721031Y-89772510D01*
X206704236Y-89704689D01*
X206726773Y-89638554D01*
X206771827Y-89599515D01*
X206786692Y-89591941D01*
X206923266Y-89522353D01*
X207084418Y-89405269D01*
X207225269Y-89264418D01*
X207342353Y-89103266D01*
X207432785Y-88925783D01*
X207494339Y-88736339D01*
X207525500Y-88539597D01*
X207525500Y-88340403D01*
X207494339Y-88143661D01*
X207494338Y-88143657D01*
X207494338Y-88143656D01*
X207432786Y-87954219D01*
X207342352Y-87776733D01*
X207320834Y-87747116D01*
X207225269Y-87615582D01*
X207084418Y-87474731D01*
X206923266Y-87357647D01*
X206771827Y-87280485D01*
X206721031Y-87232510D01*
X206704236Y-87164689D01*
X206726773Y-87098554D01*
X206771827Y-87059515D01*
X206789983Y-87050264D01*
X206923266Y-86982353D01*
X207084418Y-86865269D01*
X207225269Y-86724418D01*
X207342353Y-86563266D01*
X207432785Y-86385783D01*
X207494339Y-86196339D01*
X207525500Y-85999597D01*
X207525500Y-85800403D01*
X207494339Y-85603661D01*
X207494338Y-85603657D01*
X207494338Y-85603656D01*
X207432786Y-85414219D01*
X207342352Y-85236733D01*
X207320834Y-85207116D01*
X207225269Y-85075582D01*
X207084418Y-84934731D01*
X206923266Y-84817647D01*
X206771827Y-84740485D01*
X206721031Y-84692510D01*
X206704236Y-84624689D01*
X206726773Y-84558554D01*
X206771827Y-84519515D01*
X206781116Y-84514781D01*
X206923266Y-84442353D01*
X207084418Y-84325269D01*
X207225269Y-84184418D01*
X207342353Y-84023266D01*
X207432785Y-83845783D01*
X207487685Y-83676819D01*
X207494338Y-83656343D01*
X207494338Y-83656342D01*
X207494339Y-83656339D01*
X207525500Y-83459597D01*
X207525500Y-83260403D01*
X207494339Y-83063661D01*
X207494338Y-83063657D01*
X207494338Y-83063656D01*
X207432786Y-82874219D01*
X207342352Y-82696733D01*
X207320834Y-82667116D01*
X207225269Y-82535582D01*
X207084418Y-82394731D01*
X206923266Y-82277647D01*
X206865546Y-82248237D01*
X206771827Y-82200485D01*
X206721031Y-82152510D01*
X206704236Y-82084689D01*
X206726773Y-82018554D01*
X206771827Y-81979515D01*
X206781116Y-81974781D01*
X206923266Y-81902353D01*
X207084418Y-81785269D01*
X207225269Y-81644418D01*
X207342353Y-81483266D01*
X207432785Y-81305783D01*
X207449750Y-81253571D01*
X207494338Y-81116343D01*
X207494338Y-81116342D01*
X207494339Y-81116339D01*
X207525500Y-80919597D01*
X207525500Y-80720403D01*
X207494339Y-80523661D01*
X207494338Y-80523657D01*
X207494338Y-80523656D01*
X207432786Y-80334219D01*
X207342352Y-80156733D01*
X207337460Y-80150000D01*
X207225269Y-79995582D01*
X207084418Y-79854731D01*
X206923266Y-79737647D01*
X206771827Y-79660485D01*
X206721031Y-79612510D01*
X206704236Y-79544689D01*
X206726773Y-79478554D01*
X206771827Y-79439515D01*
X206834736Y-79407461D01*
X206923266Y-79362353D01*
X207084418Y-79245269D01*
X207225269Y-79104418D01*
X207342353Y-78943266D01*
X207432785Y-78765783D01*
X207463751Y-78670480D01*
X207494338Y-78576343D01*
X207494338Y-78576342D01*
X207494339Y-78576339D01*
X207525500Y-78379597D01*
X207525500Y-78180403D01*
X207494339Y-77983661D01*
X207494338Y-77983657D01*
X207494338Y-77983656D01*
X207432786Y-77794219D01*
X207399337Y-77728572D01*
X207342353Y-77616734D01*
X207225269Y-77455582D01*
X207084418Y-77314731D01*
X206923266Y-77197647D01*
X206771827Y-77120485D01*
X206721031Y-77072510D01*
X206704236Y-77004689D01*
X206726773Y-76938554D01*
X206771827Y-76899515D01*
X206781116Y-76894781D01*
X206923266Y-76822353D01*
X207084418Y-76705269D01*
X207225269Y-76564418D01*
X207342353Y-76403266D01*
X207432785Y-76225783D01*
X207493018Y-76040404D01*
X207494338Y-76036343D01*
X207494338Y-76036342D01*
X207494339Y-76036339D01*
X207525500Y-75839597D01*
X207525500Y-75640403D01*
X207494339Y-75443661D01*
X207494338Y-75443657D01*
X207494338Y-75443656D01*
X207432786Y-75254219D01*
X207359218Y-75109834D01*
X207342353Y-75076734D01*
X207225269Y-74915582D01*
X207084418Y-74774731D01*
X206923266Y-74657647D01*
X206771827Y-74580485D01*
X206721031Y-74532510D01*
X206704236Y-74464689D01*
X206726773Y-74398554D01*
X206771827Y-74359515D01*
X206785763Y-74352414D01*
X206923266Y-74282353D01*
X207084418Y-74165269D01*
X207225269Y-74024418D01*
X207342353Y-73863266D01*
X207432785Y-73685783D01*
X207494339Y-73496339D01*
X207525500Y-73299597D01*
X207525500Y-73100403D01*
X207494339Y-72903661D01*
X207494338Y-72903657D01*
X207494338Y-72903656D01*
X207432786Y-72714219D01*
X207342352Y-72536733D01*
X207225269Y-72375582D01*
X207084418Y-72234731D01*
X206923266Y-72117647D01*
X206771827Y-72040485D01*
X206721031Y-71992510D01*
X206704236Y-71924689D01*
X206726773Y-71858554D01*
X206771827Y-71819515D01*
X206781116Y-71814781D01*
X206923266Y-71742353D01*
X207084418Y-71625269D01*
X207225269Y-71484418D01*
X207342353Y-71323266D01*
X207432785Y-71145783D01*
X207494339Y-70956339D01*
X207525500Y-70759597D01*
X207525500Y-70560403D01*
X207494339Y-70363661D01*
X207494338Y-70363657D01*
X207494338Y-70363656D01*
X207432786Y-70174219D01*
X207342352Y-69996733D01*
X207225269Y-69835582D01*
X207084418Y-69694731D01*
X206923266Y-69577647D01*
X206923262Y-69577645D01*
X206771277Y-69500204D01*
X206720481Y-69452229D01*
X206703686Y-69384408D01*
X206726224Y-69318273D01*
X206771277Y-69279234D01*
X206923005Y-69201924D01*
X206960863Y-69174418D01*
X206960863Y-69174417D01*
X206397574Y-68611128D01*
X206456853Y-68595245D01*
X206573147Y-68528102D01*
X206668102Y-68433147D01*
X206735245Y-68316853D01*
X206751128Y-68257574D01*
X207314417Y-68820863D01*
X207314418Y-68820863D01*
X207341924Y-68783005D01*
X207432320Y-68605594D01*
X207493852Y-68416222D01*
X207525000Y-68219563D01*
X207525000Y-68020436D01*
X207493852Y-67823777D01*
X207432320Y-67634405D01*
X207341924Y-67456994D01*
X207314417Y-67419135D01*
X207314417Y-67419134D01*
X206751128Y-67982424D01*
X206735245Y-67923147D01*
X206668102Y-67806853D01*
X206573147Y-67711898D01*
X206456853Y-67644755D01*
X206397574Y-67628871D01*
X206960864Y-67065581D01*
X206960863Y-67065580D01*
X206923008Y-67038077D01*
X206771277Y-66960765D01*
X206720481Y-66912790D01*
X206703686Y-66844969D01*
X206726224Y-66778834D01*
X206771277Y-66739795D01*
X206771827Y-66739515D01*
X206923266Y-66662353D01*
X207084418Y-66545269D01*
X207225269Y-66404418D01*
X207342353Y-66243266D01*
X207432785Y-66065783D01*
X207494339Y-65876339D01*
X207525500Y-65679597D01*
X207525500Y-65480403D01*
X207494339Y-65283661D01*
X207494338Y-65283657D01*
X207494338Y-65283656D01*
X207432786Y-65094219D01*
X207342352Y-64916733D01*
X207225269Y-64755582D01*
X207084418Y-64614731D01*
X206923266Y-64497647D01*
X206771827Y-64420485D01*
X206721031Y-64372510D01*
X206704236Y-64304689D01*
X206726773Y-64238554D01*
X206771827Y-64199515D01*
X206781116Y-64194781D01*
X206923266Y-64122353D01*
X207084418Y-64005269D01*
X207225269Y-63864418D01*
X207342353Y-63703266D01*
X207432785Y-63525783D01*
X207494339Y-63336339D01*
X207525500Y-63139597D01*
X207525500Y-62940403D01*
X207494339Y-62743661D01*
X207494338Y-62743657D01*
X207494338Y-62743656D01*
X207432786Y-62554219D01*
X207342352Y-62376733D01*
X207225269Y-62215582D01*
X207084418Y-62074731D01*
X206967543Y-61989816D01*
X206924879Y-61934487D01*
X206918900Y-61864873D01*
X206951506Y-61803078D01*
X207012345Y-61768721D01*
X207040430Y-61765499D01*
X207072871Y-61765499D01*
X207072872Y-61765499D01*
X207132483Y-61759091D01*
X207267331Y-61708796D01*
X207382546Y-61622546D01*
X207468796Y-61507331D01*
X207519091Y-61372483D01*
X207525500Y-61312873D01*
X207525499Y-59687128D01*
X207519091Y-59627517D01*
X207468796Y-59492669D01*
X207468795Y-59492668D01*
X207468793Y-59492664D01*
X207382547Y-59377455D01*
X207382544Y-59377452D01*
X207267335Y-59291206D01*
X207267328Y-59291202D01*
X207132482Y-59240908D01*
X207132483Y-59240908D01*
X207072883Y-59234501D01*
X207072881Y-59234500D01*
X207072873Y-59234500D01*
X207072864Y-59234500D01*
X205447129Y-59234500D01*
X205447123Y-59234501D01*
X205387516Y-59240908D01*
X205252671Y-59291202D01*
X205252664Y-59291206D01*
X205137455Y-59377452D01*
X205137452Y-59377455D01*
X205051206Y-59492664D01*
X205051202Y-59492671D01*
X205000908Y-59627517D01*
X204994501Y-59687116D01*
X204994501Y-59687123D01*
X204994500Y-59687135D01*
X204994500Y-60864902D01*
X204974815Y-60931941D01*
X204958181Y-60952583D01*
X204312481Y-61598282D01*
X204312479Y-61598285D01*
X204262361Y-61685094D01*
X204262359Y-61685096D01*
X204233425Y-61735209D01*
X204233424Y-61735210D01*
X204225308Y-61765499D01*
X204192499Y-61887943D01*
X204192499Y-61887945D01*
X204192499Y-62056046D01*
X204192500Y-62056059D01*
X204192500Y-66008902D01*
X204172815Y-66075941D01*
X204156181Y-66096583D01*
X198712180Y-71540584D01*
X198650857Y-71574069D01*
X198581165Y-71569085D01*
X198525232Y-71527213D01*
X198500815Y-71461749D01*
X198500499Y-71452903D01*
X198500499Y-71452129D01*
X198500498Y-71452123D01*
X198500497Y-71452116D01*
X198494091Y-71392517D01*
X198443796Y-71257669D01*
X198443795Y-71257668D01*
X198443793Y-71257664D01*
X198357547Y-71142455D01*
X198357544Y-71142452D01*
X198242335Y-71056206D01*
X198242328Y-71056202D01*
X198107482Y-71005908D01*
X198107483Y-71005908D01*
X198047883Y-70999501D01*
X198047881Y-70999500D01*
X198047873Y-70999500D01*
X198047864Y-70999500D01*
X196952129Y-70999500D01*
X196952123Y-70999501D01*
X196892516Y-71005908D01*
X196757671Y-71056202D01*
X196757664Y-71056206D01*
X196642455Y-71142452D01*
X196642452Y-71142455D01*
X196556206Y-71257664D01*
X196556202Y-71257671D01*
X196505908Y-71392517D01*
X196499501Y-71452116D01*
X196499501Y-71452123D01*
X196499500Y-71452135D01*
X196499500Y-72547870D01*
X196499501Y-72547876D01*
X196505908Y-72607483D01*
X196556202Y-72742328D01*
X196556206Y-72742335D01*
X196565023Y-72754113D01*
X196589440Y-72819578D01*
X196580318Y-72875874D01*
X196537948Y-72978168D01*
X196537947Y-72978171D01*
X196499500Y-73171456D01*
X196499500Y-73171459D01*
X196499500Y-73368541D01*
X196499500Y-73368543D01*
X196499499Y-73368543D01*
X196537947Y-73561829D01*
X196537950Y-73561839D01*
X196613366Y-73743910D01*
X196613368Y-73743914D01*
X196657352Y-73809740D01*
X196674971Y-73836110D01*
X196695848Y-73902787D01*
X196677363Y-73970167D01*
X196674971Y-73973890D01*
X196613366Y-74066089D01*
X196537950Y-74248160D01*
X196537947Y-74248170D01*
X196499500Y-74441456D01*
X196499500Y-74441459D01*
X196499500Y-74638541D01*
X196499500Y-74638543D01*
X196499499Y-74638543D01*
X196537947Y-74831829D01*
X196537950Y-74831839D01*
X196613365Y-75013907D01*
X196613368Y-75013914D01*
X196655342Y-75076733D01*
X196674971Y-75106110D01*
X196695848Y-75172787D01*
X196677363Y-75240167D01*
X196674971Y-75243890D01*
X196613366Y-75336089D01*
X196537950Y-75518160D01*
X196537947Y-75518170D01*
X196499500Y-75711456D01*
X196499500Y-75711459D01*
X196499500Y-75908541D01*
X196499500Y-75908543D01*
X196499499Y-75908543D01*
X196537947Y-76101829D01*
X196537950Y-76101839D01*
X196613365Y-76283907D01*
X196613368Y-76283914D01*
X196653885Y-76344552D01*
X196675271Y-76376559D01*
X196696148Y-76443236D01*
X196677663Y-76510616D01*
X196675271Y-76514339D01*
X196613809Y-76606325D01*
X196538430Y-76788306D01*
X196538427Y-76788318D01*
X196500000Y-76981504D01*
X196500000Y-77178495D01*
X196538427Y-77371681D01*
X196538430Y-77371693D01*
X196613807Y-77553671D01*
X196613814Y-77553684D01*
X196675270Y-77645659D01*
X196696148Y-77712337D01*
X196677663Y-77779717D01*
X196675271Y-77783440D01*
X196613370Y-77876082D01*
X196613364Y-77876093D01*
X196537950Y-78058160D01*
X196537947Y-78058170D01*
X196499500Y-78251456D01*
X196499500Y-78449902D01*
X196479815Y-78516941D01*
X196463181Y-78537583D01*
X196218481Y-78782282D01*
X196218479Y-78782285D01*
X196168361Y-78869094D01*
X196168359Y-78869096D01*
X196139425Y-78919209D01*
X196139424Y-78919210D01*
X196132978Y-78943266D01*
X196098499Y-79071943D01*
X196098499Y-79071945D01*
X196098499Y-79240046D01*
X196098500Y-79240059D01*
X196098500Y-93214330D01*
X196098499Y-93214348D01*
X196098499Y-93380054D01*
X196098498Y-93380054D01*
X196139423Y-93532785D01*
X196142559Y-93538216D01*
X196142562Y-93538222D01*
X196218477Y-93669712D01*
X196218481Y-93669717D01*
X196337349Y-93788585D01*
X196337355Y-93788590D01*
X196397083Y-93848318D01*
X196430568Y-93909641D01*
X196425584Y-93979333D01*
X196397083Y-94023680D01*
X196241057Y-94179707D01*
X196131286Y-94289478D01*
X196131284Y-94289480D01*
X196076346Y-94344418D01*
X196019480Y-94401283D01*
X196013879Y-94410984D01*
X196011277Y-94415493D01*
X195940423Y-94538215D01*
X195899499Y-94690943D01*
X195000500Y-94690943D01*
X195000500Y-50624500D01*
X195020185Y-50557461D01*
X195072989Y-50511706D01*
X195124500Y-50500500D01*
X235375500Y-50500500D01*
X235442539Y-50520185D01*
G37*
%TD.AperFunction*%
%TD*%
M02*
